<?xml version="1.0" encoding="utf-8" ?><!DOCTYPE svg PUBLIC "-//W3C//DTD SVG 1.1//EN" "http://www.w3.org/Graphics/SVG/1.1/DTD/svg11.dtd" 
[ <!ATTLIST svg 
  xmlns:dsy CDATA #FIXED "http://www.3ds.com/print"  
    dsy:text-version CDATA #IMPLIED > 

  <!ATTLIST text 
  xmlns:dsy CDATA #FIXED "http://www.3ds.com/print" 
    dsy:text-version CDATA #IMPLIED > 
]><svg xmlns="http://www.w3.org/2000/svg" xmlns:dsy="http://www.3ds.com/print" dsy:text-version="18000" width="297" height="210" viewBox="0 0 297 210" version="1.1"><g stroke="rgb(0, 0, 0)" stroke-width="0.35" stroke-linecap="butt" stroke-linejoin="miter" fill="none"><path d="M 51.2623 114 L 245.738 114"/><path d="M 245.738 114 L 245.738 108"/><path d="M 245.738 108 L 253.738 108"/><path d="M 253.738 108 L 253.738 102"/><path d="M 253.738 102 L 245.738 102"/><path d="M 245.738 102 L 245.738 96"/><path d="M 245.738 96 L 51.2623 96"/><path d="M 51.2623 96 L 51.2623 102"/><path d="M 51.2623 102 L 43.2623 102"/><path d="M 43.2623 102 L 43.2623 108"/><path d="M 43.2623 108 L 51.2623 108"/><path d="M 51.2623 108 L 51.2623 114"/></g><g stroke="rgb(0, 0, 0)" stroke-width="0.13" stroke-linecap="butt" stroke-linejoin="miter" fill="none"><path d="M 201.409 106.959 L 201.409 106.5 L 197.884 106.5 L 197.884 106.843 L 198.192 106.934 L 198.399 107.115 L 198.52 107.393 L 198.56 107.776 L 198.918 107.776 L 198.918 106.959 L 201.409 106.959 L 201.409 106.959 z M 199.523 103.757 L 199.664 104.015 L 199.861 104.191 L 200.108 104.302 L 200.406 104.337 L 200.855 104.257 L 201.203 104.025 L 201.425 103.646 L 201.51 103.132 L 201.425 102.623 L 201.203 102.244 L 200.855 102.012 L 200.406 101.927 L 200.108 101.967 L 199.861 102.073 L 199.664 102.254 L 199.523 102.507 L 199.402 102.305 L 199.236 102.164 L 199.034 102.078 L 198.787 102.048 L 198.429 102.128 L 198.141 102.34 L 197.955 102.683 L 197.884 103.132 L 197.955 103.586 L 198.141 103.929 L 198.429 104.146 L 198.787 104.221 L 199.034 104.196 L 199.236 104.11 L 199.523 103.757 L 199.523 103.757 z M 200.396 103.853 L 200.128 103.808 L 199.927 103.662 L 199.796 103.435 L 199.75 103.132 L 199.796 102.834 L 199.927 102.607 L 200.128 102.461 L 200.396 102.411 L 200.683 102.461 L 200.9 102.607 L 201.041 102.834 L 201.087 103.132 L 201.041 103.435 L 200.9 103.662 L 200.683 103.808 L 200.396 103.853 L 200.396 103.853 z M 198.827 103.742 L 198.605 103.702 L 198.434 103.581 L 198.328 103.389 L 198.288 103.132 L 198.328 102.88 L 198.434 102.688 L 198.605 102.567 L 198.827 102.522 L 199.054 102.567 L 199.231 102.688 L 199.347 102.88 L 199.382 103.132 L 199.342 103.389 L 199.231 103.581 L 199.054 103.702 L 198.827 103.742 L 198.827 103.742 z" stroke="none" fill-rule="evenodd" fill="rgb(0, 0, 0)"/><path d="M 203.927 97.9319 L 203.409 96 L 202.892 97.9319"/><path d="M 202.892 112.068 L 203.409 114 L 203.927 112.068"/><path d="M 203.409 114 L 203.409 96"/></g></svg>