<?xml version="1.0" encoding="utf-8" ?><!DOCTYPE svg PUBLIC "-//W3C//DTD SVG 1.1//EN" "http://www.w3.org/Graphics/SVG/1.1/DTD/svg11.dtd" 
[ <!ATTLIST svg 
  xmlns:dsy CDATA #FIXED "http://www.3ds.com/print"  
    dsy:text-version CDATA #IMPLIED > 

  <!ATTLIST text 
  xmlns:dsy CDATA #FIXED "http://www.3ds.com/print" 
    dsy:text-version CDATA #IMPLIED > 
]><svg xmlns="http://www.w3.org/2000/svg" xmlns:dsy="http://www.3ds.com/print" dsy:text-version="18000" width="420" height="297" viewBox="0 0 420 297" version="1.1"><g stroke="rgb(0, 0, 0)" stroke-width="0.35" stroke-linecap="butt" stroke-linejoin="miter" fill="none"><path d="M 85 160 L 335 160"/><path d="M 335 160 L 335 153"/><path d="M 335 153 L 343 153"/><path d="M 343 153 L 343 147"/><path d="M 343 147 L 335 147"/><path d="M 335 147 L 335 137"/><path d="M 335 137 L 85 137"/><path d="M 85 137 L 85 147"/><path d="M 85 147 L 77 147"/><path d="M 77 147 L 77 153"/><path d="M 77 153 L 85 153"/><path d="M 85 153 L 85 160"/></g><g stroke="rgb(0, 0, 0)" stroke-width="0.13" stroke-linecap="butt" stroke-linejoin="miter" fill="none"><path d="M 281.366 151.599 L 281.366 149.193 L 280.932 149.193 L 280.932 151.094 L 280.695 150.988 L 280.499 150.807 L 280.141 150.247 L 279.989 149.949 L 279.773 149.617 L 279.52 149.38 L 279.223 149.243 L 278.885 149.193 L 278.461 149.279 L 278.128 149.516 L 277.917 149.879 L 277.841 150.348 L 277.927 150.832 L 278.164 151.2 L 278.542 151.437 L 279.041 151.518 L 279.112 151.518 L 279.112 151.059 L 279.072 151.059 L 278.729 151.014 L 278.476 150.877 L 278.315 150.661 L 278.26 150.373 L 278.31 150.081 L 278.436 149.864 L 278.633 149.722 L 278.88 149.672 L 279.112 149.707 L 279.309 149.803 L 279.48 149.965 L 279.631 150.186 L 279.793 150.484 L 280.105 150.978 L 280.438 151.326 L 280.842 151.533 L 281.351 151.599 L 281.366 151.599 L 281.366 151.599 z M 280.267 147.903 L 280.302 147.903 L 280.786 147.822 L 281.149 147.585 L 281.381 147.212 L 281.467 146.718 L 281.381 146.193 L 281.159 145.8 L 280.806 145.548 L 280.352 145.457 L 280.055 145.497 L 279.813 145.608 L 279.626 145.79 L 279.49 146.032 L 279.218 145.704 L 278.784 145.588 L 278.391 145.664 L 278.093 145.881 L 277.907 146.234 L 277.841 146.718 L 277.922 147.172 L 278.144 147.52 L 278.497 147.747 L 278.966 147.822 L 279.001 147.822 L 279.001 147.373 L 278.678 147.333 L 278.446 147.202 L 278.305 146.99 L 278.255 146.693 L 278.295 146.43 L 278.401 146.239 L 278.572 146.123 L 278.804 146.077 L 279.051 146.123 L 279.218 146.244 L 279.319 146.455 L 279.349 146.743 L 279.344 146.94 L 279.742 146.94 L 279.732 146.693 L 279.778 146.375 L 279.899 146.138 L 280.095 145.997 L 280.352 145.946 L 280.645 146.002 L 280.862 146.148 L 280.998 146.38 L 281.043 146.687 L 280.993 147.005 L 280.842 147.237 L 280.6 147.383 L 280.267 147.439 L 280.267 147.903 L 280.267 147.903 z" stroke="none" fill-rule="evenodd" fill="rgb(0, 0, 0)"/><path d="M 282.849 158.068 L 283.366 160 L 283.884 158.068"/><path d="M 283.884 138.932 L 283.366 137 L 282.849 138.932"/><path d="M 283.366 160 L 283.366 137"/></g></svg>