<?xml version="1.0" encoding="utf-8" ?><!DOCTYPE svg PUBLIC "-//W3C//DTD SVG 1.1//EN" "http://www.w3.org/Graphics/SVG/1.1/DTD/svg11.dtd" 
[ <!ATTLIST svg 
  xmlns:dsy CDATA #FIXED "http://www.3ds.com/print"  
    dsy:text-version CDATA #IMPLIED > 

  <!ATTLIST text 
  xmlns:dsy CDATA #FIXED "http://www.3ds.com/print" 
    dsy:text-version CDATA #IMPLIED > 
]><svg xmlns="http://www.w3.org/2000/svg" xmlns:dsy="http://www.3ds.com/print" dsy:text-version="18000" width="297" height="210" viewBox="0 0 297 210" version="1.1"><g stroke="rgb(0, 0, 0)" stroke-width="0.35" stroke-linecap="butt" stroke-linejoin="miter" fill="none"><path d="M 186.462 118 L 110.538 118"/><path d="M 110.538 118 L 110.538 108"/><path d="M 110.538 108 L 102.538 108"/><path d="M 102.538 108 L 102.538 102"/><path d="M 102.538 102 L 110.538 102"/><path d="M 110.538 102 L 110.538 92"/><path d="M 110.538 92 L 186.462 92"/><path d="M 186.462 92 L 186.462 102"/><path d="M 186.462 102 L 194.462 102"/><path d="M 194.462 102 L 194.462 108"/><path d="M 194.462 108 L 186.462 108"/><path d="M 186.462 108 L 186.462 118"/></g><g stroke="rgb(0, 0, 0)" stroke-width="0.13" stroke-linecap="butt" stroke-linejoin="miter" fill="none"><path d="M 166.128 108.099 L 166.128 105.693 L 165.694 105.693 L 165.694 107.594 L 165.457 107.488 L 165.26 107.307 L 164.902 106.747 L 164.751 106.449 L 164.534 106.117 L 164.282 105.88 L 163.984 105.743 L 163.647 105.693 L 163.223 105.779 L 162.89 106.016 L 162.678 106.379 L 162.603 106.848 L 162.688 107.332 L 162.925 107.7 L 163.304 107.937 L 163.803 108.018 L 163.873 108.018 L 163.873 107.559 L 163.833 107.559 L 163.49 107.514 L 163.238 107.377 L 163.077 107.161 L 163.021 106.873 L 163.072 106.581 L 163.198 106.364 L 163.394 106.222 L 163.641 106.172 L 163.873 106.207 L 164.07 106.303 L 164.242 106.465 L 164.393 106.686 L 164.554 106.984 L 164.867 107.478 L 165.2 107.826 L 165.603 108.033 L 166.113 108.099 L 166.128 108.099 L 166.128 108.099 z M 163.571 101.922 L 163.162 102.017 L 162.86 102.239 L 162.668 102.582 L 162.603 103.026 L 162.638 103.324 L 162.734 103.581 L 162.89 103.808 L 163.112 103.999 L 163.389 104.151 L 163.727 104.262 L 164.126 104.332 L 164.574 104.352 L 165.291 104.272 L 165.81 104.025 L 166.123 103.626 L 166.229 103.082 L 166.138 102.592 L 165.901 102.219 L 165.528 101.977 L 165.054 101.891 L 164.574 101.977 L 164.206 102.209 L 163.974 102.567 L 163.894 103.011 L 163.994 103.49 L 164.282 103.848 L 163.727 103.772 L 163.329 103.611 L 163.092 103.364 L 163.011 103.021 L 163.051 102.769 L 163.157 102.577 L 163.334 102.451 L 163.571 102.386 L 163.571 101.922 L 163.571 101.922 z M 165.059 102.381 L 165.376 102.436 L 165.618 102.577 L 165.78 102.804 L 165.83 103.087 L 165.78 103.384 L 165.623 103.611 L 165.381 103.757 L 165.064 103.803 L 164.751 103.752 L 164.514 103.611 L 164.363 103.379 L 164.307 103.066 L 164.363 102.794 L 164.509 102.577 L 164.746 102.436 L 165.059 102.381 L 165.059 102.381 z" stroke="none" fill-rule="evenodd" fill="rgb(0, 0, 0)"/><path d="M 168.645 93.9319 L 168.128 92 L 167.61 93.9319"/><path d="M 167.61 116.068 L 168.128 118 L 168.645 116.068"/><path d="M 168.128 118 L 168.128 92"/></g></svg>