<?xml version="1.0" encoding="utf-8" ?><!DOCTYPE svg PUBLIC "-//W3C//DTD SVG 1.1//EN" "http://www.w3.org/Graphics/SVG/1.1/DTD/svg11.dtd" 
[ <!ATTLIST svg 
  xmlns:dsy CDATA #FIXED "http://www.3ds.com/print"  
    dsy:text-version CDATA #IMPLIED > 

  <!ATTLIST text 
  xmlns:dsy CDATA #FIXED "http://www.3ds.com/print" 
    dsy:text-version CDATA #IMPLIED > 
]><svg xmlns="http://www.w3.org/2000/svg" xmlns:dsy="http://www.3ds.com/print" dsy:text-version="18000" width="420" height="297" viewBox="0 0 420 297" version="1.1"><g stroke="rgb(0, 0, 0)" stroke-width="0.35" stroke-linecap="butt" stroke-linejoin="miter" fill="none"><path d="M 400 170.5 L 20 170.5"/><path d="M 20 170.5 L 20 157.5"/><path d="M 20 157.5 L 12 157.5"/><path d="M 12 157.5 L 12 151.5"/><path d="M 12 151.5 L 20 151.5"/><path d="M 20 151.5 L 20 126.5"/><path d="M 20 126.5 L 183.539 126.5"/><path d="M 183.539 126.5 L 183.539 149.67"/><path d="M 183.539 149.67 L 233.539 149.67"/><path d="M 233.539 149.67 L 233.539 126.5"/><path d="M 233.539 126.5 L 400 126.5"/><path d="M 400 126.5 L 400 151.5"/><path d="M 400 151.5 L 408 151.5"/><path d="M 408 151.5 L 408 157.5"/><path d="M 408 157.5 L 400 157.5"/><path d="M 400 157.5 L 400 170.5"/><path d="M 230.139 156.7 L 224.339 156.7"/><path d="M 224.339 162.6 L 224.339 156.7"/><path d="M 224.339 162.6 L 230.139 162.6"/><path d="M 230.139 156.7 L 230.139 162.6"/><path d="M 192.739 156.7 L 186.939 156.7"/><path d="M 186.939 162.6 L 186.939 156.7"/><path d="M 186.939 162.6 L 192.739 162.6"/><path d="M 192.739 156.7 L 192.739 162.6"/></g><g stroke="rgb(0, 0, 0)" stroke-width="0.13" stroke-linecap="butt" stroke-linejoin="miter" fill="none"><path d="M 284.035 150.091 L 284.035 149.637 L 283.168 149.637 L 283.168 149.137 L 282.764 149.137 L 282.764 149.637 L 280.611 149.637 L 280.611 150.096 L 282.724 151.629 L 283.168 151.629 L 283.168 150.091 L 284.035 150.091 L 284.035 150.091 z M 282.764 151.205 L 281.196 150.091 L 282.764 150.091 L 282.764 151.205 L 282.764 151.205 z M 284.035 146.355 L 284.035 145.901 L 283.168 145.901 L 283.168 145.401 L 282.764 145.401 L 282.764 145.901 L 280.611 145.901 L 280.611 146.36 L 282.724 147.893 L 283.168 147.893 L 283.168 146.355 L 284.035 146.355 L 284.035 146.355 z M 282.764 147.469 L 281.196 146.355 L 282.764 146.355 L 282.764 147.469 L 282.764 147.469 z" stroke="none" fill-rule="evenodd" fill="rgb(0, 0, 0)"/><path d="M 286.553 128.432 L 286.035 126.5 L 285.518 128.432"/><path d="M 285.518 168.568 L 286.035 170.5 L 286.553 168.568"/><path d="M 286.035 170.5 L 286.035 126.5"/></g></svg>