<?xml version="1.0" encoding="utf-8" ?><!DOCTYPE svg PUBLIC "-//W3C//DTD SVG 1.1//EN" "http://www.w3.org/Graphics/SVG/1.1/DTD/svg11.dtd" 
[ <!ATTLIST svg 
  xmlns:dsy CDATA #FIXED "http://www.3ds.com/print"  
    dsy:text-version CDATA #IMPLIED > 

  <!ATTLIST text 
  xmlns:dsy CDATA #FIXED "http://www.3ds.com/print" 
    dsy:text-version CDATA #IMPLIED > 
]><svg xmlns="http://www.w3.org/2000/svg" xmlns:dsy="http://www.3ds.com/print" dsy:text-version="18000" width="297" height="210" viewBox="0 0 297 210" version="1.1"><g stroke="rgb(0, 0, 0)" stroke-width="0.13" stroke-linecap="butt" stroke-linejoin="miter" fill="none"><path d="M 167.3 118 L 171.255 118"/><path d="M 167.3 92 L 171.255 92"/></g><g stroke="rgb(0, 0, 0)" stroke-width="0.35" stroke-linecap="butt" stroke-linejoin="miter" fill="none"><path d="M 131.7 92 L 131.7 118"/><path d="M 131.7 118 L 136.7 118"/><path d="M 136.7 118 L 136.7 110"/><path d="M 142.6 110 L 136.7 110"/><path d="M 142.6 118 L 142.6 110"/><path d="M 142.6 118 L 154.4 118"/><path d="M 154.4 118 L 154.4 110"/><path d="M 154.4 110 L 160.3 110"/><path d="M 160.3 110 L 160.3 118"/><path d="M 160.3 118 L 165.3 118"/><path d="M 165.3 118 L 165.3 92"/><path d="M 158.6 92 L 165.3 92"/><path d="M 138.6 92 A 10 10 0 1 0 158.6 92"/><path d="M 131.7 92 L 138.6 92"/></g><g stroke="rgb(0, 0, 0)" stroke-width="0.13" stroke-linecap="butt" stroke-linejoin="miter" fill="none"><path d="M 167.255 108.099 L 167.255 105.693 L 166.821 105.693 L 166.821 107.594 L 166.584 107.488 L 166.387 107.307 L 166.029 106.747 L 165.878 106.449 L 165.661 106.117 L 165.409 105.88 L 165.112 105.743 L 164.774 105.693 L 164.35 105.779 L 164.017 106.016 L 163.805 106.379 L 163.73 106.848 L 163.815 107.332 L 164.052 107.7 L 164.431 107.937 L 164.93 108.018 L 165.001 108.018 L 165.001 107.559 L 164.96 107.559 L 164.617 107.514 L 164.365 107.377 L 164.204 107.161 L 164.148 106.873 L 164.199 106.581 L 164.325 106.364 L 164.521 106.222 L 164.769 106.172 L 165.001 106.207 L 165.197 106.303 L 165.369 106.465 L 165.52 106.686 L 165.681 106.984 L 165.994 107.478 L 166.327 107.826 L 166.73 108.033 L 167.24 108.099 L 167.255 108.099 L 167.255 108.099 z M 164.698 101.922 L 164.289 102.017 L 163.987 102.239 L 163.795 102.582 L 163.73 103.026 L 163.765 103.324 L 163.861 103.581 L 164.017 103.808 L 164.239 103.999 L 164.516 104.151 L 164.854 104.262 L 165.253 104.332 L 165.702 104.352 L 166.418 104.272 L 166.937 104.025 L 167.25 103.626 L 167.356 103.082 L 167.265 102.592 L 167.028 102.219 L 166.655 101.977 L 166.181 101.891 L 165.702 101.977 L 165.333 102.209 L 165.101 102.567 L 165.021 103.011 L 165.122 103.49 L 165.409 103.848 L 164.854 103.772 L 164.456 103.611 L 164.219 103.364 L 164.138 103.021 L 164.179 102.769 L 164.284 102.577 L 164.461 102.451 L 164.698 102.386 L 164.698 101.922 L 164.698 101.922 z M 166.186 102.381 L 166.503 102.436 L 166.746 102.577 L 166.907 102.804 L 166.957 103.087 L 166.907 103.384 L 166.751 103.611 L 166.508 103.757 L 166.191 103.803 L 165.878 103.752 L 165.641 103.611 L 165.49 103.379 L 165.434 103.066 L 165.49 102.794 L 165.636 102.577 L 165.873 102.436 L 166.186 102.381 L 166.186 102.381 z" stroke="none" fill-rule="evenodd" fill="rgb(0, 0, 0)"/><path d="M 168.737 116.068 L 169.255 118 L 169.773 116.068"/><path d="M 169.773 93.9319 L 169.255 92 L 168.737 93.9319"/><path d="M 169.255 118 L 169.255 92"/></g></svg>