<?xml version="1.0" encoding="utf-8" ?><!DOCTYPE svg PUBLIC "-//W3C//DTD SVG 1.1//EN" "http://www.w3.org/Graphics/SVG/1.1/DTD/svg11.dtd" 
[ <!ATTLIST svg 
  xmlns:dsy CDATA #FIXED "http://www.3ds.com/print"  
    dsy:text-version CDATA #IMPLIED > 

  <!ATTLIST text 
  xmlns:dsy CDATA #FIXED "http://www.3ds.com/print" 
    dsy:text-version CDATA #IMPLIED > 
]><svg xmlns="http://www.w3.org/2000/svg" xmlns:dsy="http://www.3ds.com/print" dsy:text-version="18000" width="297" height="210" viewBox="0 0 297 210" version="1.1"><g stroke="rgb(0, 0, 0)" stroke-width="0.35" stroke-linecap="butt" stroke-linejoin="miter" fill="none"><path d="M 166 70 L 166 140"/><path d="M 166 140 L 131 140"/><path d="M 131 70 L 131 140"/><path d="M 141 70 L 131 70"/><path d="M 141 70 A 7.5 7.5 0 1 0 156 70"/><path d="M 166 70 L 156 70"/><path d="M 162 114.1 L 156.1 114.1"/><path d="M 156.1 120 L 156.1 114.1"/><path d="M 156.1 120 L 162 120"/><path d="M 162 114.1 L 162 120"/><path d="M 140.9 114.1 L 135 114.1"/><path d="M 135 120 L 135 114.1"/><path d="M 135 120 L 140.9 120"/><path d="M 140.9 114.1 L 140.9 120"/></g><g stroke="rgb(0, 0, 0)" stroke-width="0.13" stroke-linecap="butt" stroke-linejoin="miter" fill="none"><path d="M 145.361 90.5288 L 145.361 90.5641 L 145.442 91.0483 L 145.679 91.4114 L 146.052 91.6434 L 146.546 91.7291 L 147.071 91.6434 L 147.464 91.4215 L 147.716 91.0685 L 147.807 90.6146 L 147.767 90.317 L 147.656 90.0749 L 147.474 89.8883 L 147.232 89.7522 L 147.56 89.4798 L 147.676 89.0461 L 147.6 88.6528 L 147.383 88.3552 L 147.03 88.1686 L 146.546 88.103 L 146.092 88.1837 L 145.744 88.4056 L 145.517 88.7587 L 145.442 89.2277 L 145.442 89.263 L 145.891 89.263 L 145.931 88.9402 L 146.062 88.7082 L 146.274 88.567 L 146.571 88.5166 L 146.834 88.5569 L 147.025 88.6628 L 147.141 88.8343 L 147.187 89.0663 L 147.141 89.3134 L 147.02 89.4798 L 146.809 89.5807 L 146.521 89.611 L 146.324 89.6059 L 146.324 90.0043 L 146.571 89.9943 L 146.889 90.0396 L 147.126 90.1607 L 147.267 90.3574 L 147.318 90.6146 L 147.262 90.9071 L 147.116 91.1239 L 146.884 91.2601 L 146.577 91.3055 L 146.259 91.2551 L 146.027 91.1038 L 145.881 90.8617 L 145.825 90.5288 L 145.361 90.5288 L 145.361 90.5288 z M 149.117 90.7154 L 149.228 91.129 L 149.475 91.4517 L 149.838 91.6535 L 150.302 91.7291 L 150.812 91.6383 L 151.21 91.3912 L 151.462 90.9979 L 151.558 90.4935 L 151.472 90.0245 L 151.23 89.6564 L 150.852 89.4193 L 150.363 89.3336 L 149.985 89.3941 L 149.692 89.5605 L 149.833 88.6175 L 151.367 88.6175 L 151.367 88.2039 L 149.496 88.2039 L 149.218 90.0598 L 149.622 90.0598 L 149.914 89.8228 L 150.287 89.737 L 150.61 89.7925 L 150.857 89.9539 L 151.014 90.201 L 151.069 90.5187 L 151.014 90.8365 L 150.852 91.0836 L 150.605 91.2399 L 150.287 91.2954 L 150.02 91.2601 L 149.813 91.1441 L 149.662 90.9626 L 149.586 90.7154 L 149.117 90.7154 L 149.117 90.7154 z" stroke="none" fill-rule="evenodd" fill="rgb(0, 0, 0)"/><path d="M 132.932 93.1106 L 131 93.6283 L 132.932 94.1459"/><path d="M 164.068 94.1459 L 166 93.6283 L 164.068 93.1106"/><path d="M 131 93.6283 L 166 93.6283"/></g></svg>