<?xml version="1.0" encoding="utf-8" ?><!DOCTYPE svg PUBLIC "-//W3C//DTD SVG 1.1//EN" "http://www.w3.org/Graphics/SVG/1.1/DTD/svg11.dtd" 
[ <!ATTLIST svg 
  xmlns:dsy CDATA #FIXED "http://www.3ds.com/print"  
    dsy:text-version CDATA #IMPLIED > 

  <!ATTLIST text 
  xmlns:dsy CDATA #FIXED "http://www.3ds.com/print" 
    dsy:text-version CDATA #IMPLIED > 
]><svg xmlns="http://www.w3.org/2000/svg" xmlns:dsy="http://www.3ds.com/print" dsy:text-version="18000" width="297" height="210" viewBox="0 0 297 210" version="1.1"><g stroke="rgb(0, 0, 0)" stroke-width="0.35" stroke-linecap="butt" stroke-linejoin="miter" fill="none"><path d="M 200.5 132.25 L 96.5 132.25"/><path d="M 96.5 132.25 L 96.5 77.75"/><path d="M 96.5 77.75 L 136.5 77.75"/><path d="M 136.5 77.75 A 12 12 0 1 0 160.5 77.75"/><path d="M 200.5 77.75 L 160.5 77.75"/><path d="M 200.5 132.25 L 200.5 77.75"/><path d="M 109.3 92.75 L 103.5 92.75"/><path d="M 103.5 98.65 L 103.5 92.75"/><path d="M 103.5 98.65 L 109.3 98.65"/><path d="M 109.3 92.75 L 109.3 98.65"/><path d="M 193.5 92.75 L 187.7 92.75"/><path d="M 187.7 98.65 L 187.7 92.75"/><path d="M 187.7 98.65 L 193.5 98.65"/><path d="M 193.5 92.75 L 193.5 98.65"/><path d="M 160.3 102.75 L 154.5 102.75"/><path d="M 154.5 108.65 L 154.5 102.75"/><path d="M 154.5 108.65 L 160.3 108.65"/><path d="M 160.3 102.75 L 160.3 108.65"/><path d="M 142.5 102.75 L 136.7 102.75"/><path d="M 136.7 108.65 L 136.7 102.75"/><path d="M 136.7 108.65 L 142.5 108.65"/><path d="M 142.5 102.75 L 142.5 108.65"/></g><g stroke="rgb(0, 0, 0)" stroke-width="0.13" stroke-linecap="butt" stroke-linejoin="miter" fill="none"><path d="M 177.449 111.855 L 177.863 111.744 L 178.185 111.497 L 178.387 111.134 L 178.463 110.67 L 178.372 110.16 L 178.125 109.762 L 177.731 109.51 L 177.227 109.414 L 176.758 109.5 L 176.39 109.742 L 176.153 110.12 L 176.067 110.609 L 176.128 110.987 L 176.294 111.28 L 175.351 111.139 L 175.351 109.605 L 174.938 109.605 L 174.938 111.477 L 176.793 111.754 L 176.793 111.35 L 176.556 111.058 L 176.471 110.685 L 176.526 110.362 L 176.688 110.115 L 176.935 109.959 L 177.252 109.903 L 177.57 109.959 L 177.817 110.12 L 177.974 110.367 L 178.029 110.685 L 177.994 110.952 L 177.878 111.159 L 177.696 111.31 L 177.449 111.386 L 177.449 111.855 L 177.449 111.855 z M 178.362 106.591 L 178.362 106.137 L 177.494 106.137 L 177.494 105.637 L 177.091 105.637 L 177.091 106.137 L 174.938 106.137 L 174.938 106.596 L 177.051 108.129 L 177.494 108.129 L 177.494 106.591 L 178.362 106.591 L 178.362 106.591 z M 177.091 107.705 L 175.523 106.591 L 177.091 106.591 L 177.091 107.705 L 177.091 107.705 z M 178.362 103.48 L 178.362 102.784 L 177.61 102.784 L 177.61 103.48 L 178.362 103.48 L 178.362 103.48 z M 177.449 100.647 L 177.863 100.536 L 178.185 100.289 L 178.387 99.9255 L 178.463 99.4615 L 178.372 98.9522 L 178.125 98.5537 L 177.731 98.3016 L 177.227 98.2058 L 176.758 98.2915 L 176.39 98.5336 L 176.153 98.9118 L 176.067 99.401 L 176.128 99.7793 L 176.294 100.072 L 175.351 99.9305 L 175.351 98.3974 L 174.938 98.3974 L 174.938 100.268 L 176.793 100.546 L 176.793 100.142 L 176.556 99.8499 L 176.471 99.4767 L 176.526 99.1539 L 176.688 98.9068 L 176.935 98.7504 L 177.252 98.695 L 177.57 98.7504 L 177.817 98.9118 L 177.974 99.1589 L 178.029 99.4767 L 177.994 99.7439 L 177.878 99.9507 L 177.696 100.102 L 177.449 100.178 L 177.449 100.647 L 177.449 100.647 z" stroke="none" fill-rule="evenodd" fill="rgb(0, 0, 0)"/><path d="M 179.844 130.318 L 180.362 132.25 L 180.88 130.318"/><path d="M 180.88 79.6819 L 180.362 77.75 L 179.844 79.6819"/><path d="M 180.362 132.25 L 180.362 77.75"/></g></svg>