<?xml version="1.0" encoding="utf-8" ?><!DOCTYPE svg PUBLIC "-//W3C//DTD SVG 1.1//EN" "http://www.w3.org/Graphics/SVG/1.1/DTD/svg11.dtd" 
[ <!ATTLIST svg 
  xmlns:dsy CDATA #FIXED "http://www.3ds.com/print"  
    dsy:text-version CDATA #IMPLIED > 

  <!ATTLIST text 
  xmlns:dsy CDATA #FIXED "http://www.3ds.com/print" 
    dsy:text-version CDATA #IMPLIED > 
]><svg xmlns="http://www.w3.org/2000/svg" xmlns:dsy="http://www.3ds.com/print" dsy:text-version="18000" width="297" height="210" viewBox="0 0 297 210" version="1.1"><g stroke="rgb(0, 0, 0)" stroke-width="0.13" stroke-linecap="butt" stroke-linejoin="miter" fill="none"><path d="M 116.5 132.25 L 110.07 132.25"/><path d="M 156.5 77.75 L 110.07 77.75"/></g><g stroke="rgb(0, 0, 0)" stroke-width="0.35" stroke-linecap="butt" stroke-linejoin="miter" fill="none"><path d="M 178.5 132.25 L 118.5 132.25"/><path d="M 118.5 132.25 L 118.5 77.75"/><path d="M 118.5 77.75 L 138.5 77.75"/><path d="M 138.5 77.75 A 10 10 0 1 0 158.5 77.75"/><path d="M 178.5 77.75 L 158.5 77.75"/><path d="M 178.5 132.25 L 178.5 77.75"/><path d="M 160.3 102.75 L 154.5 102.75"/><path d="M 154.5 108.65 L 154.5 102.75"/><path d="M 154.5 108.65 L 160.3 108.65"/><path d="M 160.3 102.75 L 160.3 108.65"/><path d="M 142.5 102.75 L 136.7 102.75"/><path d="M 136.7 108.65 L 136.7 102.75"/><path d="M 136.7 108.65 L 142.5 108.65"/><path d="M 142.5 102.75 L 142.5 108.65"/><path d="M 170.1 111.35 L 164.3 111.35"/><path d="M 164.3 117.25 L 164.3 111.35"/><path d="M 164.3 117.25 L 170.1 117.25"/><path d="M 170.1 111.35 L 170.1 117.25"/><path d="M 132.7 111.35 L 126.9 111.35"/><path d="M 126.9 117.25 L 126.9 111.35"/><path d="M 126.9 117.25 L 132.7 117.25"/><path d="M 132.7 111.35 L 132.7 117.25"/></g><g stroke="rgb(0, 0, 0)" stroke-width="0.13" stroke-linecap="butt" stroke-linejoin="miter" fill="none"><path d="M 109.157 111.855 L 109.571 111.744 L 109.894 111.497 L 110.095 111.134 L 110.171 110.67 L 110.08 110.16 L 109.833 109.762 L 109.44 109.51 L 108.935 109.414 L 108.466 109.5 L 108.098 109.742 L 107.861 110.12 L 107.775 110.609 L 107.836 110.987 L 108.002 111.28 L 107.059 111.139 L 107.059 109.605 L 106.646 109.605 L 106.646 111.477 L 108.502 111.754 L 108.502 111.35 L 108.265 111.058 L 108.179 110.685 L 108.234 110.362 L 108.396 110.115 L 108.643 109.959 L 108.961 109.903 L 109.278 109.959 L 109.525 110.12 L 109.682 110.367 L 109.737 110.685 L 109.702 110.952 L 109.586 111.159 L 109.404 111.31 L 109.157 111.386 L 109.157 111.855 L 109.157 111.855 z M 110.07 106.591 L 110.07 106.137 L 109.203 106.137 L 109.203 105.637 L 108.799 105.637 L 108.799 106.137 L 106.646 106.137 L 106.646 106.596 L 108.759 108.129 L 109.203 108.129 L 109.203 106.591 L 110.07 106.591 L 110.07 106.591 z M 108.799 107.705 L 107.231 106.591 L 108.799 106.591 L 108.799 107.705 L 108.799 107.705 z M 110.07 103.48 L 110.07 102.784 L 109.319 102.784 L 109.319 103.48 L 110.07 103.48 L 110.07 103.48 z M 109.157 100.647 L 109.571 100.536 L 109.894 100.289 L 110.095 99.9255 L 110.171 99.4615 L 110.08 98.9522 L 109.833 98.5537 L 109.44 98.3016 L 108.935 98.2058 L 108.466 98.2915 L 108.098 98.5336 L 107.861 98.9118 L 107.775 99.401 L 107.836 99.7793 L 108.002 100.072 L 107.059 99.9305 L 107.059 98.3974 L 106.646 98.3974 L 106.646 100.268 L 108.502 100.546 L 108.502 100.142 L 108.265 99.8499 L 108.179 99.4767 L 108.234 99.1539 L 108.396 98.9068 L 108.643 98.7504 L 108.961 98.695 L 109.278 98.7504 L 109.525 98.9118 L 109.682 99.1589 L 109.737 99.4767 L 109.702 99.7439 L 109.586 99.9507 L 109.404 100.102 L 109.157 100.178 L 109.157 100.647 L 109.157 100.647 z" stroke="none" fill-rule="evenodd" fill="rgb(0, 0, 0)"/><path d="M 112.588 79.6819 L 112.07 77.75 L 111.552 79.6819"/><path d="M 111.552 130.318 L 112.07 132.25 L 112.588 130.318"/><path d="M 112.07 132.25 L 112.07 77.75"/></g></svg>