<?xml version="1.0" encoding="utf-8" ?><!DOCTYPE svg PUBLIC "-//W3C//DTD SVG 1.1//EN" "http://www.w3.org/Graphics/SVG/1.1/DTD/svg11.dtd" 
[ <!ATTLIST svg 
  xmlns:dsy CDATA #FIXED "http://www.3ds.com/print"  
    dsy:text-version CDATA #IMPLIED > 

  <!ATTLIST text 
  xmlns:dsy CDATA #FIXED "http://www.3ds.com/print" 
    dsy:text-version CDATA #IMPLIED > 
]><svg xmlns="http://www.w3.org/2000/svg" xmlns:dsy="http://www.3ds.com/print" dsy:text-version="18000" width="297" height="210" viewBox="0 0 297 210" version="1.1"><g stroke="rgb(0, 0, 0)" stroke-width="0.35" stroke-linecap="butt" stroke-linejoin="miter" fill="none"><path d="M 200.5 145 L 96.5 145"/><path d="M 96.5 145 L 96.5 65"/><path d="M 96.5 65 L 200.5 65"/><path d="M 200.5 65 L 200.5 145"/><circle cx="126.849" cy="78.0155" r="3"/><circle cx="148.5" cy="115.515" r="3"/><circle cx="170.151" cy="78.0155" r="3"/><path d="M 103.5 105.5 L 109.3 105.5"/><path d="M 103.5 111.4 L 103.5 105.5"/><path d="M 109.3 111.4 L 103.5 111.4"/><path d="M 109.3 105.5 L 109.3 111.4"/><path d="M 187.7 105.5 L 193.5 105.5"/><path d="M 187.7 111.4 L 187.7 105.5"/><path d="M 193.5 111.4 L 187.7 111.4"/><path d="M 193.5 105.5 L 193.5 111.4"/></g><g stroke="rgb(0, 0, 0)" stroke-width="0.13" stroke-linecap="butt" stroke-linejoin="miter" fill="none"><path d="M 168.976 107.493 L 169.117 107.751 L 169.314 107.927 L 169.561 108.038 L 169.858 108.073 L 170.307 107.993 L 170.655 107.761 L 170.877 107.382 L 170.963 106.868 L 170.877 106.359 L 170.655 105.98 L 170.307 105.748 L 169.858 105.663 L 169.561 105.703 L 169.314 105.809 L 169.117 105.99 L 168.976 106.243 L 168.855 106.041 L 168.688 105.9 L 168.487 105.814 L 168.24 105.784 L 167.882 105.864 L 167.594 106.076 L 167.407 106.419 L 167.337 106.868 L 167.407 107.322 L 167.594 107.665 L 167.882 107.882 L 168.24 107.957 L 168.487 107.932 L 168.688 107.846 L 168.976 107.493 L 168.976 107.493 z M 169.848 107.589 L 169.581 107.544 L 169.379 107.398 L 169.248 107.171 L 169.203 106.868 L 169.248 106.57 L 169.379 106.344 L 169.581 106.197 L 169.848 106.147 L 170.136 106.197 L 170.353 106.344 L 170.494 106.57 L 170.539 106.868 L 170.494 107.171 L 170.353 107.398 L 170.136 107.544 L 169.848 107.589 L 169.848 107.589 z M 168.28 107.478 L 168.058 107.438 L 167.887 107.317 L 167.781 107.125 L 167.74 106.868 L 167.781 106.616 L 167.887 106.424 L 168.058 106.303 L 168.28 106.258 L 168.507 106.303 L 168.683 106.424 L 168.799 106.616 L 168.835 106.868 L 168.794 107.125 L 168.683 107.317 L 168.507 107.438 L 168.28 107.478 L 168.28 107.478 z M 169.152 104.347 L 169.944 104.272 L 170.509 104.035 L 170.852 103.656 L 170.963 103.132 L 170.852 102.613 L 170.509 102.234 L 169.944 102.002 L 169.152 101.922 L 168.366 102.002 L 168.053 102.098 L 167.796 102.234 L 167.453 102.613 L 167.337 103.132 L 167.453 103.656 L 167.801 104.035 L 168.366 104.272 L 169.152 104.347 L 169.152 104.347 z M 169.152 103.863 L 168.542 103.823 L 168.103 103.697 L 167.846 103.47 L 167.755 103.132 L 167.846 102.799 L 168.103 102.572 L 168.542 102.446 L 169.152 102.406 L 169.768 102.446 L 170.206 102.572 L 170.464 102.799 L 170.549 103.132 L 170.464 103.47 L 170.206 103.697 L 169.768 103.823 L 169.152 103.863 L 169.152 103.863 z" stroke="none" fill-rule="evenodd" fill="rgb(0, 0, 0)"/><path d="M 172.344 143.068 L 172.862 145 L 173.38 143.068"/><path d="M 173.38 66.9319 L 172.862 65 L 172.344 66.9319"/><path d="M 172.862 145 L 172.862 65"/></g></svg>