<?xml version="1.0" encoding="utf-8" ?><!DOCTYPE svg PUBLIC "-//W3C//DTD SVG 1.1//EN" "http://www.w3.org/Graphics/SVG/1.1/DTD/svg11.dtd" 
[ <!ATTLIST svg 
  xmlns:dsy CDATA #FIXED "http://www.3ds.com/print"  
    dsy:text-version CDATA #IMPLIED > 

  <!ATTLIST text 
  xmlns:dsy CDATA #FIXED "http://www.3ds.com/print" 
    dsy:text-version CDATA #IMPLIED > 
]><svg xmlns="http://www.w3.org/2000/svg" xmlns:dsy="http://www.3ds.com/print" dsy:text-version="18000" width="297" height="210" viewBox="0 0 297 210" version="1.1"><g stroke="rgb(0, 0, 0)" stroke-width="0.35" stroke-linecap="butt" stroke-linejoin="miter" fill="none"><path d="M 88.9717 92.7804 L 114.638 83.8021"/><path d="M 208.028 117.22 L 182.362 126.198"/><circle cx="198.5" cy="105" r="6.5"/><path d="M 216.443 58.2479 A 82.474 82.474 0 0 0 155.017 22.7839"/><path d="M 155.017 22.7839 A 0.5 0.5 0 0 0 154.479 23.241"/><path d="M 142.521 23.241 A 6 6 0 0 0 154.479 23.241"/><path d="M 142.521 23.241 A 0.5 0.5 0 0 0 141.983 22.7839"/><path d="M 141.983 22.7839 A 82.474 82.474 0 0 0 80.5574 58.2479"/><path d="M 80.5574 58.2479 A 0.5 0.5 0 0 0 80.6843 58.9422"/><path d="M 74.7049 69.2988 A 6 6 0 0 0 80.6843 58.9422"/><path d="M 74.7049 69.2988 A 0.5 0.5 0 0 0 74.0402 69.536"/><path d="M 74.0402 69.536 A 82.474 82.474 0 0 0 74.0402 140.464"/><path d="M 74.0402 140.464 A 0.5 0.5 0 0 0 74.7049 140.701"/><path d="M 80.6843 151.058 A 6 6 0 0 0 74.7049 140.701"/><path d="M 80.6843 151.058 A 0.5 0.5 0 0 0 80.5574 151.752"/><path d="M 80.5574 151.752 A 82.474 82.474 0 0 0 141.983 187.216"/><path d="M 141.983 187.216 A 0.5 0.5 0 0 0 142.521 186.759"/><path d="M 154.479 186.759 A 6 6 0 0 0 142.521 186.759"/><path d="M 154.479 186.759 A 0.5 0.5 0 0 0 155.017 187.216"/><path d="M 155.017 187.216 A 82.474 82.474 0 0 0 216.443 151.752"/><path d="M 216.443 151.752 A 0.5 0.5 0 0 0 216.316 151.058"/><path d="M 222.295 140.701 A 6 6 0 0 0 216.316 151.058"/><path d="M 222.295 140.701 A 0.5 0.5 0 0 0 222.96 140.464"/><path d="M 222.96 140.464 A 82.474 82.474 0 0 0 222.96 69.536"/><path d="M 222.96 69.536 A 0.5 0.5 0 0 0 222.295 69.2988"/><path d="M 216.316 58.9422 A 6 6 0 0 0 222.295 69.2988"/><path d="M 216.316 58.9422 A 0.5 0.5 0 0 0 216.443 58.2479"/><path d="M 88.9717 92.7804 A 5 5 0 0 0 85.7809 96.252"/><path d="M 81.2425 113.86 L 85.7809 96.252"/><path d="M 71.4283 113.137 A 5 5 0 0 0 81.2424 113.86"/><path d="M 76.778 75.6366 A 77.5 77.5 0 0 0 71.4283 113.137"/><path d="M 81.0104 72.5466 A 5 5 0 0 0 76.778 75.6366"/><path d="M 81.0104 72.5466 L 116.156 69.7627"/><path d="M 120.181 78.1849 A 5 5 0 0 0 116.156 69.7627"/><path d="M 120.181 78.1849 A 39 39 0 0 0 116.97 82.0464"/><path d="M 114.638 83.8021 A 5 5 0 0 0 116.97 82.0464"/><path d="M 116.97 127.954 A 5 5 0 0 0 114.638 126.198"/><path d="M 116.97 127.954 A 39 39 0 0 0 125.546 136.53"/><path d="M 127.302 138.862 A 5 5 0 0 0 125.546 136.53"/><path d="M 127.302 138.862 L 134.968 159.925"/><path d="M 134.968 159.925 A 14.4 14.4 0 0 0 135.5 161.194"/><path d="M 135.5 175.23 L 135.5 161.194"/><path d="M 129.259 180.073 A 5 5 0 0 0 135.5 175.23"/><path d="M 87.5908 152.92 A 77.5 77.5 0 0 0 129.259 180.073"/><path d="M 87.1903 147.328 A 5 5 0 0 0 87.5908 152.92"/><path d="M 99.94 125.245 L 87.1903 147.328"/><path d="M 105.98 123.047 A 5 5 0 0 0 99.94 125.245"/><path d="M 114.638 126.198 L 105.98 123.047"/><path d="M 208.028 117.22 A 5 5 0 0 0 211.219 113.748"/><path d="M 215.758 96.1402 L 211.219 113.748"/><path d="M 225.572 96.8632 A 5 5 0 0 0 215.758 96.1402"/><path d="M 220.222 134.363 A 77.5 77.5 0 0 0 225.572 96.8632"/><path d="M 215.99 137.453 A 5 5 0 0 0 220.222 134.363"/><path d="M 215.99 137.453 L 180.844 140.237"/><path d="M 176.819 131.815 A 5 5 0 0 0 180.844 140.237"/><path d="M 176.819 131.815 A 39 39 0 0 0 180.03 127.954"/><path d="M 182.362 126.198 A 5 5 0 0 0 180.03 127.954"/><path d="M 169.698 71.1379 A 5 5 0 0 0 171.454 73.4701"/><path d="M 169.698 71.1379 L 162.032 50.0749"/><path d="M 162.032 50.0749 A 14.4 14.4 0 0 0 161.5 48.8065"/><path d="M 161.5 34.77 L 161.5 48.8065"/><path d="M 167.741 29.9266 A 5 5 0 0 0 161.5 34.77"/><path d="M 209.409 57.08 A 77.5 77.5 0 0 0 167.741 29.9266"/><path d="M 209.81 62.6717 A 5 5 0 0 0 209.409 57.08"/><path d="M 197.06 84.7548 L 209.81 62.6717"/><path d="M 191.02 86.9533 A 5 5 0 0 0 197.06 84.7548"/><path d="M 182.362 83.8021 L 191.02 86.9533"/><path d="M 180.03 82.0464 A 5 5 0 0 0 182.362 83.8021"/><path d="M 180.03 82.0464 A 39 39 0 0 0 171.454 73.4701"/><path d="M 135.5 34.77 A 5 5 0 0 0 129.259 29.9266"/><path d="M 135.5 46.5576 L 135.5 34.77"/><path d="M 130.895 51.542 A 5 5 0 0 0 135.5 46.5576"/><path d="M 103.148 53.7399 L 130.895 51.542"/><path d="M 99.5979 44.8765 A 5 5 0 0 0 103.148 53.7399"/><path d="M 129.259 29.9266 A 77.5 77.5 0 0 0 99.5979 44.8765"/><path d="M 166.105 158.458 A 5 5 0 0 0 161.5 163.442"/><path d="M 193.852 156.26 L 166.105 158.458"/><path d="M 197.402 165.123 A 5 5 0 0 0 193.852 156.26"/><path d="M 167.741 180.073 A 77.5 77.5 0 0 0 197.402 165.123"/><path d="M 161.5 175.23 A 5 5 0 0 0 167.741 180.073"/><path d="M 161.5 163.442 L 161.5 175.23"/><circle cx="148.5" cy="55" r="6.5"/><circle cx="98.5" cy="105" r="6.5"/><circle cx="148.5" cy="105" r="35.25"/><circle cx="148.5" cy="155" r="6.5"/></g></svg>