<?xml version="1.0" encoding="utf-8" ?><!DOCTYPE svg PUBLIC "-//W3C//DTD SVG 1.1//EN" "http://www.w3.org/Graphics/SVG/1.1/DTD/svg11.dtd" 
[ <!ATTLIST svg 
  xmlns:dsy CDATA #FIXED "http://www.3ds.com/print"  
    dsy:text-version CDATA #IMPLIED > 

  <!ATTLIST text 
  xmlns:dsy CDATA #FIXED "http://www.3ds.com/print" 
    dsy:text-version CDATA #IMPLIED > 
]><svg xmlns="http://www.w3.org/2000/svg" xmlns:dsy="http://www.3ds.com/print" dsy:text-version="18000" width="594" height="420" viewBox="0 0 594 420" version="1.1"><g stroke="rgb(0, 0, 0)" stroke-width="0.13" stroke-linecap="butt" stroke-linejoin="miter" fill="none"><path d="M 208.421 353.683 L 208.421 325.779"/><path d="M 368.82 353.683 L 368.82 325.779"/></g><g stroke="rgb(0, 0, 0)" stroke-width="0.35" stroke-linecap="butt" stroke-linejoin="miter" fill="none"><path d="M 373.62 380.683 L 373.62 355.683"/><path d="M 373.62 355.683 L 368.82 355.683"/><path d="M 368.82 355.683 L 368.82 380.683"/><path d="M 368.82 380.683 L 208.421 380.683"/><path d="M 208.421 380.683 L 208.421 355.683"/><path d="M 208.421 355.683 L 203.621 355.683"/><path d="M 203.621 355.683 L 203.621 380.683"/><path d="M 399.3 255.559 L 412.3 248.077"/><path d="M 400.796 258.159 L 399.3 255.559"/><path d="M 413.797 250.677 L 400.796 258.159"/><path d="M 452.775 318.401 L 413.797 250.677"/><path d="M 401.184 343.283 L 452.775 318.401"/><path d="M 401.184 380.683 L 401.184 343.283"/><path d="M 401.184 380.683 L 373.62 380.683"/><circle cx="163.621" cy="370.683" r="4.20001"/><circle cx="288.62" cy="68.1826" r="6"/><circle cx="288.62" cy="148.183" r="4.20001"/><circle cx="389.105" cy="287.964" r="4.20001"/><path d="M 203.621 380.683 L 146.225 380.683"/><path d="M 141.635 373.701 A 5 5 0 0 0 146.225 380.683"/><path d="M 412.3 248.077 L 293.593 41.8233"/><path d="M 141.635 373.701 L 284.669 42.3359"/><path d="M 293.593 41.8233 A 5 5 0 0 0 284.669 42.3359"/></g><g stroke="rgb(0, 0, 0)" stroke-width="0.13" stroke-linecap="butt" stroke-linejoin="miter" fill="none"><path d="M 281.058 325.779 L 281.517 325.779 L 281.517 322.254 L 281.174 322.254 L 281.083 322.562 L 280.901 322.768 L 280.624 322.889 L 280.241 322.93 L 280.241 323.288 L 281.058 323.288 L 281.058 325.779 L 281.058 325.779 z M 286.095 323.222 L 285.999 322.814 L 285.777 322.511 L 285.434 322.32 L 284.991 322.254 L 284.693 322.289 L 284.436 322.385 L 284.209 322.541 L 284.017 322.763 L 283.866 323.041 L 283.755 323.379 L 283.684 323.777 L 283.664 324.226 L 283.745 324.942 L 283.992 325.462 L 284.39 325.774 L 284.935 325.88 L 285.424 325.789 L 285.797 325.552 L 286.039 325.179 L 286.125 324.705 L 286.039 324.226 L 285.807 323.858 L 285.449 323.626 L 285.006 323.545 L 284.527 323.646 L 284.168 323.933 L 284.244 323.379 L 284.405 322.98 L 284.653 322.743 L 284.996 322.663 L 285.248 322.703 L 285.439 322.809 L 285.565 322.985 L 285.631 323.222 L 286.095 323.222 L 286.095 323.222 z M 285.636 324.71 L 285.581 325.028 L 285.439 325.27 L 285.212 325.431 L 284.93 325.482 L 284.632 325.431 L 284.405 325.275 L 284.259 325.033 L 284.214 324.715 L 284.264 324.402 L 284.405 324.165 L 284.637 324.014 L 284.95 323.959 L 285.223 324.014 L 285.439 324.16 L 285.581 324.397 L 285.636 324.71 L 285.636 324.71 z M 287.405 324.07 L 287.481 324.861 L 287.718 325.426 L 288.096 325.769 L 288.621 325.88 L 289.14 325.769 L 289.518 325.426 L 289.75 324.861 L 289.831 324.07 L 289.75 323.283 L 289.654 322.97 L 289.518 322.713 L 289.14 322.37 L 288.621 322.254 L 288.096 322.37 L 287.718 322.718 L 287.481 323.283 L 287.405 324.07 L 287.405 324.07 z M 287.889 324.07 L 287.93 323.459 L 288.056 323.021 L 288.283 322.763 L 288.621 322.673 L 288.953 322.763 L 289.18 323.021 L 289.306 323.459 L 289.347 324.07 L 289.306 324.685 L 289.18 325.124 L 288.953 325.381 L 288.621 325.467 L 288.283 325.381 L 288.056 325.124 L 287.93 324.685 L 287.889 324.07 L 287.889 324.07 z M 292.009 325.779 L 292.705 325.779 L 292.705 325.028 L 292.009 325.028 L 292.009 325.779 L 292.009 325.779 z M 296.37 325.779 L 296.824 325.779 L 296.824 324.912 L 297.323 324.912 L 297.323 324.508 L 296.824 324.508 L 296.824 322.355 L 296.365 322.355 L 294.832 324.468 L 294.832 324.912 L 296.37 324.912 L 296.37 325.779 L 296.37 325.779 z M 295.255 324.508 L 296.37 322.94 L 296.37 324.508 L 295.255 324.508 L 295.255 324.508 z" stroke="none" fill-rule="evenodd" fill="rgb(0, 0, 0)"/><path d="M 366.888 328.297 L 368.82 327.779 L 366.888 327.262"/><path d="M 210.353 327.262 L 208.421 327.779 L 210.353 328.297"/><path d="M 208.421 327.779 L 368.82 327.779"/></g></svg>