<?xml version="1.0" encoding="utf-8" ?><!DOCTYPE svg PUBLIC "-//W3C//DTD SVG 1.1//EN" "http://www.w3.org/Graphics/SVG/1.1/DTD/svg11.dtd" 
[ <!ATTLIST svg 
  xmlns:dsy CDATA #FIXED "http://www.3ds.com/print"  
    dsy:text-version CDATA #IMPLIED > 

  <!ATTLIST text 
  xmlns:dsy CDATA #FIXED "http://www.3ds.com/print" 
    dsy:text-version CDATA #IMPLIED > 
]><svg xmlns="http://www.w3.org/2000/svg" xmlns:dsy="http://www.3ds.com/print" dsy:text-version="18000" width="297" height="210" viewBox="0 0 297 210" version="1.1"><g stroke="rgb(128, 128, 128)" stroke-width="0.13" stroke-linecap="butt" stroke-linejoin="miter" fill="none"><path d="M 111.397 122.903 L 102.401 122.903"/><path d="M 177.875 87.0969 L 102.401 87.0969"/></g><g stroke="rgb(0, 0, 0)" stroke-width="0.35" stroke-linecap="butt" stroke-linejoin="miter" fill="none"><path d="M 113.397 116.903 L 113.397 122.903"/><path d="M 113.397 122.903 L 123.397 122.903"/><path d="M 138.259 119.099 L 123.397 122.903"/><path d="M 183.603 112.424 L 138.259 119.099"/><path d="M 182.875 107.477 L 183.603 112.424"/><path d="M 158.141 111.118 L 182.875 107.477"/><path d="M 157.296 105.38 L 158.141 111.118"/><path d="M 182.03 101.739 L 157.296 105.38"/><path d="M 181.447 97.7817 L 182.03 101.739"/><path d="M 156.714 101.423 L 181.447 97.7817"/><path d="M 156.714 101.423 L 155.869 95.6844"/><path d="M 180.603 92.0436 L 155.869 95.6844"/><path d="M 179.875 87.0969 L 180.603 92.0436"/><path d="M 138.813 93.1413 L 179.875 87.0969"/><path d="M 138.813 93.1413 L 123.397 88.4108"/><path d="M 118.397 88.4108 L 123.397 88.4108"/><path d="M 118.397 90.4108 L 118.397 88.4108"/><path d="M 116.397 90.4108 L 118.397 90.4108"/><path d="M 116.397 88.4108 L 116.397 90.4108"/><path d="M 113.397 88.4108 L 116.397 88.4108"/><path d="M 113.397 93.4108 L 113.397 88.4108"/><path d="M 113.397 116.903 A 12.5 12.5 0 0 0 113.397 93.4108"/></g><g stroke="rgb(128, 128, 128)" stroke-width="0.13" stroke-linecap="butt" stroke-linejoin="miter" fill="none"><path d="M 101.301 113.743 L 101.337 113.743 L 101.821 113.662 L 102.184 113.425 L 102.416 113.052 L 102.502 112.558 L 102.416 112.033 L 102.194 111.64 L 101.841 111.388 L 101.387 111.297 L 101.089 111.337 L 100.847 111.448 L 100.661 111.63 L 100.525 111.872 L 100.252 111.544 L 99.8186 111.428 L 99.4252 111.504 L 99.1276 111.721 L 98.941 112.074 L 98.8755 112.558 L 98.9562 113.012 L 99.1781 113.36 L 99.5311 113.587 L 100 113.662 L 100.035 113.662 L 100.035 113.213 L 99.7127 113.173 L 99.4807 113.042 L 99.3395 112.83 L 99.289 112.533 L 99.3294 112.27 L 99.4353 112.079 L 99.6068 111.963 L 99.8387 111.917 L 100.086 111.963 L 100.252 112.084 L 100.353 112.296 L 100.383 112.583 L 100.378 112.78 L 100.777 112.78 L 100.767 112.533 L 100.812 112.215 L 100.933 111.978 L 101.13 111.837 L 101.387 111.786 L 101.68 111.842 L 101.896 111.988 L 102.033 112.22 L 102.078 112.528 L 102.027 112.845 L 101.876 113.077 L 101.634 113.223 L 101.301 113.279 L 101.301 113.743 L 101.301 113.743 z M 101.488 109.987 L 101.901 109.876 L 102.224 109.629 L 102.426 109.266 L 102.502 108.802 L 102.411 108.292 L 102.164 107.894 L 101.77 107.642 L 101.266 107.546 L 100.797 107.632 L 100.429 107.874 L 100.192 108.252 L 100.106 108.741 L 100.167 109.119 L 100.333 109.412 L 99.3899 109.271 L 99.3899 107.737 L 98.9763 107.737 L 98.9763 109.609 L 100.832 109.886 L 100.832 109.482 L 100.595 109.19 L 100.509 108.817 L 100.565 108.494 L 100.726 108.247 L 100.973 108.09 L 101.291 108.035 L 101.609 108.09 L 101.856 108.252 L 102.012 108.499 L 102.068 108.817 L 102.033 109.084 L 101.917 109.291 L 101.735 109.442 L 101.488 109.518 L 101.488 109.987 L 101.488 109.987 z M 102.401 105.348 L 102.401 104.652 L 101.649 104.652 L 101.649 105.348 L 102.401 105.348 L 102.401 105.348 z M 100.515 101.889 L 100.656 102.147 L 100.852 102.323 L 101.1 102.434 L 101.397 102.469 L 101.846 102.389 L 102.194 102.157 L 102.416 101.778 L 102.502 101.264 L 102.416 100.755 L 102.194 100.376 L 101.846 100.144 L 101.397 100.059 L 101.1 100.099 L 100.852 100.205 L 100.656 100.386 L 100.515 100.639 L 100.393 100.437 L 100.227 100.296 L 100.025 100.21 L 99.7782 100.18 L 99.4202 100.26 L 99.1327 100.472 L 98.9461 100.815 L 98.8755 101.264 L 98.9461 101.718 L 99.1327 102.061 L 99.4202 102.278 L 99.7782 102.353 L 100.025 102.328 L 100.227 102.242 L 100.515 101.889 L 100.515 101.889 z M 101.387 101.985 L 101.12 101.94 L 100.918 101.794 L 100.787 101.567 L 100.741 101.264 L 100.787 100.966 L 100.918 100.739 L 101.12 100.593 L 101.387 100.543 L 101.674 100.593 L 101.891 100.739 L 102.033 100.966 L 102.078 101.264 L 102.033 101.567 L 101.891 101.794 L 101.674 101.94 L 101.387 101.985 L 101.387 101.985 z M 99.8186 101.874 L 99.5967 101.834 L 99.4252 101.713 L 99.3193 101.521 L 99.2789 101.264 L 99.3193 101.012 L 99.4252 100.82 L 99.5967 100.699 L 99.8186 100.654 L 100.046 100.699 L 100.222 100.82 L 100.338 101.012 L 100.373 101.264 L 100.333 101.521 L 100.222 101.713 L 100.046 101.834 L 99.8186 101.874 L 99.8186 101.874 z M 102.401 97.6187 L 102.401 97.1598 L 98.8755 97.1598 L 98.8755 97.5027 L 99.1831 97.5935 L 99.3899 97.7751 L 99.5109 98.0525 L 99.5513 98.4357 L 99.9093 98.4357 L 99.9093 97.6187 L 102.401 97.6187 L 102.401 97.6187 z" stroke="none" fill-rule="evenodd" fill="rgb(128, 128, 128)"/><path d="M 103.883 120.971 L 104.401 122.903 L 104.918 120.971"/><path d="M 104.918 89.0287 L 104.401 87.0969 L 103.883 89.0287"/><path d="M 104.401 122.903 L 104.401 87.0969"/></g></svg>