<?xml version="1.0" encoding="utf-8" ?><!DOCTYPE svg PUBLIC "-//W3C//DTD SVG 1.1//EN" "http://www.w3.org/Graphics/SVG/1.1/DTD/svg11.dtd" 
[ <!ATTLIST svg 
  xmlns:dsy CDATA #FIXED "http://www.3ds.com/print"  
    dsy:text-version CDATA #IMPLIED > 

  <!ATTLIST text 
  xmlns:dsy CDATA #FIXED "http://www.3ds.com/print" 
    dsy:text-version CDATA #IMPLIED > 
]><svg xmlns="http://www.w3.org/2000/svg" xmlns:dsy="http://www.3ds.com/print" dsy:text-version="18000" width="594" height="420" viewBox="0 0 594 420" version="1.1"><g stroke="rgb(0, 0, 0)" stroke-width="0.13" stroke-linecap="butt" stroke-linejoin="miter" fill="none"><path d="M 206.759 353.683 L 206.759 325.779"/><path d="M 365.157 353.683 L 365.157 325.779"/></g><g stroke="rgb(0, 0, 0)" stroke-width="0.35" stroke-linecap="butt" stroke-linejoin="miter" fill="none"><path d="M 370.957 380.683 L 370.957 355.683"/><path d="M 370.957 355.683 L 365.157 355.683"/><path d="M 365.157 355.683 L 365.157 380.683"/><path d="M 365.157 380.683 L 206.759 380.683"/><path d="M 206.759 380.683 L 206.759 355.683"/><path d="M 206.759 355.683 L 200.959 355.683"/><path d="M 200.959 355.683 L 200.959 380.683"/><path d="M 397.837 255.559 L 410.838 248.077"/><path d="M 399.333 258.159 L 397.837 255.559"/><path d="M 412.334 250.677 L 399.333 258.159"/><path d="M 454.237 323.484 L 412.334 250.677"/><path d="M 391.13 349.97 L 454.237 323.484"/><path d="M 391.13 380.683 L 391.13 349.97"/><path d="M 391.13 380.683 L 370.957 380.683"/><circle cx="162.159" cy="370.683" r="4.20001"/><circle cx="287.157" cy="68.1826" r="6"/><circle cx="287.157" cy="148.183" r="4.20001"/><circle cx="387.642" cy="287.964" r="4.20001"/><path d="M 200.959 380.683 L 144.763 380.683"/><path d="M 140.172 373.701 A 5 5 0 0 0 144.763 380.683"/><path d="M 410.838 248.077 L 292.13 41.8233"/><path d="M 140.172 373.701 L 283.206 42.3359"/><path d="M 292.13 41.8233 A 5 5 0 0 0 283.206 42.3359"/></g><g stroke="rgb(0, 0, 0)" stroke-width="0.13" stroke-linecap="butt" stroke-linejoin="miter" fill="none"><path d="M 278.395 325.779 L 278.854 325.779 L 278.854 322.254 L 278.511 322.254 L 278.42 322.562 L 278.239 322.768 L 277.961 322.889 L 277.578 322.93 L 277.578 323.288 L 278.395 323.288 L 278.395 325.779 L 278.395 325.779 z M 280.971 324.866 L 281.082 325.28 L 281.329 325.603 L 281.692 325.804 L 282.156 325.88 L 282.666 325.789 L 283.064 325.542 L 283.316 325.149 L 283.412 324.645 L 283.326 324.175 L 283.084 323.807 L 282.706 323.57 L 282.217 323.485 L 281.839 323.545 L 281.546 323.712 L 281.687 322.768 L 283.221 322.768 L 283.221 322.355 L 281.35 322.355 L 281.072 324.211 L 281.476 324.211 L 281.768 323.974 L 282.141 323.888 L 282.464 323.944 L 282.711 324.105 L 282.868 324.352 L 282.923 324.67 L 282.868 324.987 L 282.706 325.235 L 282.459 325.391 L 282.141 325.446 L 281.874 325.411 L 281.667 325.295 L 281.516 325.114 L 281.44 324.866 L 280.971 324.866 L 280.971 324.866 z M 285.333 323.893 L 285.075 324.034 L 284.899 324.231 L 284.788 324.478 L 284.753 324.776 L 284.833 325.224 L 285.065 325.572 L 285.444 325.794 L 285.958 325.88 L 286.467 325.794 L 286.846 325.572 L 287.078 325.224 L 287.163 324.776 L 287.123 324.478 L 287.017 324.231 L 286.836 324.034 L 286.583 323.893 L 286.785 323.772 L 286.926 323.606 L 287.012 323.404 L 287.042 323.157 L 286.962 322.799 L 286.75 322.511 L 286.407 322.325 L 285.958 322.254 L 285.504 322.325 L 285.161 322.511 L 284.944 322.799 L 284.869 323.157 L 284.894 323.404 L 284.98 323.606 L 285.333 323.893 L 285.333 323.893 z M 285.237 324.766 L 285.282 324.498 L 285.428 324.297 L 285.655 324.165 L 285.958 324.12 L 286.256 324.165 L 286.483 324.297 L 286.629 324.498 L 286.679 324.766 L 286.629 325.053 L 286.483 325.27 L 286.256 325.411 L 285.958 325.456 L 285.655 325.411 L 285.428 325.27 L 285.282 325.053 L 285.237 324.766 L 285.237 324.766 z M 285.348 323.197 L 285.388 322.975 L 285.509 322.804 L 285.701 322.698 L 285.958 322.657 L 286.21 322.698 L 286.402 322.804 L 286.523 322.975 L 286.568 323.197 L 286.523 323.424 L 286.402 323.601 L 286.21 323.717 L 285.958 323.752 L 285.701 323.712 L 285.509 323.601 L 285.388 323.424 L 285.348 323.197 L 285.348 323.197 z M 289.346 325.779 L 290.042 325.779 L 290.042 325.028 L 289.346 325.028 L 289.346 325.779 L 289.346 325.779 z M 293.707 325.779 L 294.161 325.779 L 294.161 324.912 L 294.661 324.912 L 294.661 324.508 L 294.161 324.508 L 294.161 322.355 L 293.702 322.355 L 292.169 324.468 L 292.169 324.912 L 293.707 324.912 L 293.707 325.779 L 293.707 325.779 z M 292.593 324.508 L 293.707 322.94 L 293.707 324.508 L 292.593 324.508 L 292.593 324.508 z" stroke="none" fill-rule="evenodd" fill="rgb(0, 0, 0)"/><path d="M 363.226 328.297 L 365.157 327.779 L 363.226 327.262"/><path d="M 208.691 327.262 L 206.759 327.779 L 208.691 328.297"/><path d="M 206.759 327.779 L 365.157 327.779"/></g></svg>