<?xml version="1.0" encoding="utf-8" ?><!DOCTYPE svg PUBLIC "-//W3C//DTD SVG 1.1//EN" "http://www.w3.org/Graphics/SVG/1.1/DTD/svg11.dtd" 
[ <!ATTLIST svg 
  xmlns:dsy CDATA #FIXED "http://www.3ds.com/print"  
    dsy:text-version CDATA #IMPLIED > 

  <!ATTLIST text 
  xmlns:dsy CDATA #FIXED "http://www.3ds.com/print" 
    dsy:text-version CDATA #IMPLIED > 
]><svg xmlns="http://www.w3.org/2000/svg" xmlns:dsy="http://www.3ds.com/print" dsy:text-version="18000" width="297" height="210" viewBox="0 0 297 210" version="1.1"><g stroke="rgb(0, 0, 0)" stroke-width="0.13" stroke-linecap="butt" stroke-linejoin="miter" fill="none"><path d="M 183.426 97.4905 L 187.911 96.8302"/><path d="M 184.009 101.448 L 188.494 100.788"/></g><g stroke="rgb(0, 0, 0)" stroke-width="0.35" stroke-linecap="butt" stroke-linejoin="miter" fill="none"><path d="M 113.397 116.903 L 113.397 122.903"/><path d="M 113.397 122.903 L 123.397 122.903"/><path d="M 138.259 119.099 L 123.397 122.903"/><path d="M 183.603 112.424 L 138.259 119.099"/><path d="M 182.875 107.477 L 183.603 112.424"/><path d="M 158.141 111.118 L 182.875 107.477"/><path d="M 157.296 105.38 L 158.141 111.118"/><path d="M 182.03 101.739 L 157.296 105.38"/><path d="M 181.447 97.7817 L 182.03 101.739"/><path d="M 156.714 101.423 L 181.447 97.7817"/><path d="M 156.714 101.423 L 155.869 95.6844"/><path d="M 180.603 92.0436 L 155.869 95.6844"/><path d="M 179.875 87.0969 L 180.603 92.0436"/><path d="M 138.813 93.1413 L 179.875 87.0969"/><path d="M 138.813 93.1413 L 123.397 88.4108"/><path d="M 118.397 88.4108 L 123.397 88.4108"/><path d="M 118.397 90.4108 L 118.397 88.4108"/><path d="M 116.397 90.4108 L 118.397 90.4108"/><path d="M 116.397 88.4108 L 116.397 90.4108"/><path d="M 113.397 88.4108 L 116.397 88.4108"/><path d="M 113.397 93.4108 L 113.397 88.4108"/><path d="M 113.397 116.903 A 12.5 12.5 0 0 0 113.397 93.4108"/></g><g stroke="rgb(0, 0, 0)" stroke-width="0.13" stroke-linecap="butt" stroke-linejoin="miter" fill="none"><path d="M 189.483 107.511 L 189.55 107.96 L 190.408 107.833 L 190.48 108.327 L 190.88 108.268 L 190.807 107.774 L 192.937 107.461 L 192.871 107.007 L 190.557 105.798 L 190.118 105.862 L 190.342 107.384 L 189.483 107.511 L 189.483 107.511 z M 190.578 106.223 L 192.292 107.097 L 190.741 107.325 L 190.578 106.223 L 190.578 106.223 z" stroke="none" fill-rule="evenodd" fill="rgb(0, 0, 0)"/><path d="M 187.309 102.915 L 186.515 101.079 L 186.284 103.066"/><path d="M 185.139 95.2856 L 185.933 97.1215 L 186.163 95.1349"/><path d="M 185.204 92.1748 L 187.685 109.029"/></g></svg>