<?xml version="1.0" encoding="utf-8" ?><!DOCTYPE svg PUBLIC "-//W3C//DTD SVG 1.1//EN" "http://www.w3.org/Graphics/SVG/1.1/DTD/svg11.dtd" 
[ <!ATTLIST svg 
  xmlns:dsy CDATA #FIXED "http://www.3ds.com/print"  
    dsy:text-version CDATA #IMPLIED > 

  <!ATTLIST text 
  xmlns:dsy CDATA #FIXED "http://www.3ds.com/print" 
    dsy:text-version CDATA #IMPLIED > 
]><svg xmlns="http://www.w3.org/2000/svg" xmlns:dsy="http://www.3ds.com/print" dsy:text-version="18000" width="594" height="420" viewBox="0 0 594 420" version="1.1"><g stroke="rgb(255, 0, 128)" stroke-width="0.13" stroke-linecap="butt" stroke-linejoin="miter" fill="none"><path d="M 285.797 44.3174 L 256.73 44.3174"/></g><g stroke="rgb(0, 0, 0)" stroke-width="0.35" stroke-linecap="butt" stroke-linejoin="miter" fill="none"><path d="M 370.957 380.683 L 370.957 355.683"/><path d="M 370.957 355.683 L 365.157 355.683"/><path d="M 365.157 355.683 L 365.157 380.683"/><path d="M 365.157 380.683 L 206.759 380.683"/><path d="M 206.759 380.683 L 206.759 355.683"/><path d="M 206.759 355.683 L 200.959 355.683"/><path d="M 200.959 355.683 L 200.959 380.683"/><path d="M 397.837 255.559 L 410.838 248.077"/><path d="M 399.333 258.159 L 397.837 255.559"/><path d="M 412.334 250.677 L 399.333 258.159"/><path d="M 454.237 323.484 L 412.334 250.677"/><path d="M 391.13 349.97 L 454.237 323.484"/><path d="M 391.13 380.683 L 391.13 349.97"/><path d="M 391.13 380.683 L 370.957 380.683"/><circle cx="162.159" cy="370.683" r="4.20001"/><circle cx="287.157" cy="68.1826" r="6"/><circle cx="287.157" cy="148.183" r="4.20001"/><circle cx="387.642" cy="287.964" r="4.20001"/><path d="M 156.301 358.67 L 156.943 359.438"/><path d="M 145.703 367.53 L 156.301 358.67"/><path d="M 146.344 368.297 L 145.703 367.53"/><path d="M 156.943 359.438 L 146.344 368.297"/><path d="M 200.959 380.683 L 144.763 380.683"/><path d="M 140.172 373.701 A 5 5 0 0 0 144.763 380.683"/><path d="M 410.838 248.077 L 292.13 41.8233"/><path d="M 140.172 373.701 L 283.206 42.3359"/><path d="M 292.13 41.8233 A 5 5 0 0 0 283.206 42.3359"/></g><g stroke="rgb(255, 0, 128)" stroke-width="0.13" stroke-linecap="butt" stroke-linejoin="miter" fill="none"><path d="M 255.631 223.111 L 255.666 223.111 L 256.151 223.03 L 256.514 222.793 L 256.746 222.42 L 256.831 221.926 L 256.746 221.401 L 256.524 221.008 L 256.171 220.756 L 255.717 220.665 L 255.419 220.705 L 255.177 220.816 L 254.991 220.998 L 254.854 221.24 L 254.582 220.912 L 254.148 220.796 L 253.755 220.872 L 253.457 221.089 L 253.271 221.442 L 253.205 221.926 L 253.286 222.38 L 253.508 222.728 L 253.861 222.955 L 254.33 223.03 L 254.365 223.03 L 254.365 222.581 L 254.042 222.541 L 253.81 222.41 L 253.669 222.198 L 253.619 221.901 L 253.659 221.638 L 253.765 221.447 L 253.937 221.331 L 254.169 221.285 L 254.416 221.331 L 254.582 221.452 L 254.683 221.664 L 254.713 221.951 L 254.708 222.148 L 255.107 222.148 L 255.096 221.901 L 255.142 221.583 L 255.263 221.346 L 255.46 221.205 L 255.717 221.154 L 256.009 221.21 L 256.226 221.356 L 256.362 221.588 L 256.408 221.896 L 256.357 222.213 L 256.206 222.445 L 255.964 222.592 L 255.631 222.647 L 255.631 223.111 L 255.631 223.111 z M 255.631 219.375 L 255.666 219.375 L 256.151 219.294 L 256.514 219.057 L 256.746 218.684 L 256.831 218.19 L 256.746 217.665 L 256.524 217.272 L 256.171 217.02 L 255.717 216.929 L 255.419 216.969 L 255.177 217.08 L 254.991 217.262 L 254.854 217.504 L 254.582 217.176 L 254.148 217.06 L 253.755 217.136 L 253.457 217.353 L 253.271 217.706 L 253.205 218.19 L 253.286 218.644 L 253.508 218.992 L 253.861 219.219 L 254.33 219.294 L 254.365 219.294 L 254.365 218.845 L 254.042 218.805 L 253.81 218.674 L 253.669 218.462 L 253.619 218.165 L 253.659 217.902 L 253.765 217.711 L 253.937 217.595 L 254.169 217.549 L 254.416 217.595 L 254.582 217.716 L 254.683 217.928 L 254.713 218.215 L 254.708 218.412 L 255.107 218.412 L 255.096 218.165 L 255.142 217.847 L 255.263 217.61 L 255.46 217.469 L 255.717 217.418 L 256.009 217.474 L 256.226 217.62 L 256.362 217.852 L 256.408 218.16 L 256.357 218.477 L 256.206 218.709 L 255.964 218.855 L 255.631 218.911 L 255.631 219.375 L 255.631 219.375 z M 254.174 213.158 L 253.765 213.253 L 253.462 213.475 L 253.271 213.818 L 253.205 214.262 L 253.241 214.56 L 253.336 214.817 L 253.493 215.044 L 253.715 215.235 L 253.992 215.387 L 254.33 215.498 L 254.728 215.568 L 255.177 215.588 L 255.893 215.508 L 256.413 215.261 L 256.725 214.862 L 256.831 214.318 L 256.741 213.828 L 256.504 213.455 L 256.13 213.213 L 255.656 213.127 L 255.177 213.213 L 254.809 213.445 L 254.577 213.803 L 254.496 214.247 L 254.597 214.726 L 254.885 215.084 L 254.33 215.008 L 253.932 214.847 L 253.694 214.6 L 253.614 214.257 L 253.654 214.005 L 253.76 213.813 L 253.937 213.687 L 254.174 213.622 L 254.174 213.158 L 254.174 213.158 z M 255.661 213.617 L 255.979 213.672 L 256.221 213.813 L 256.383 214.04 L 256.433 214.323 L 256.383 214.62 L 256.226 214.847 L 255.984 214.993 L 255.666 215.039 L 255.354 214.988 L 255.117 214.847 L 254.965 214.615 L 254.91 214.302 L 254.965 214.03 L 255.112 213.813 L 255.349 213.672 L 255.661 213.617 L 255.661 213.617 z M 256.73 210.98 L 256.73 210.284 L 255.979 210.284 L 255.979 210.98 L 256.73 210.98 L 256.73 210.98 z M 255.631 208.167 L 255.666 208.167 L 256.151 208.086 L 256.514 207.849 L 256.746 207.476 L 256.831 206.982 L 256.746 206.457 L 256.524 206.064 L 256.171 205.812 L 255.717 205.721 L 255.419 205.761 L 255.177 205.872 L 254.991 206.054 L 254.854 206.296 L 254.582 205.968 L 254.148 205.852 L 253.755 205.928 L 253.457 206.144 L 253.271 206.498 L 253.205 206.982 L 253.286 207.436 L 253.508 207.784 L 253.861 208.01 L 254.33 208.086 L 254.365 208.086 L 254.365 207.637 L 254.042 207.597 L 253.81 207.466 L 253.669 207.254 L 253.619 206.956 L 253.659 206.694 L 253.765 206.503 L 253.937 206.387 L 254.169 206.341 L 254.416 206.387 L 254.582 206.508 L 254.683 206.719 L 254.713 207.007 L 254.708 207.204 L 255.107 207.204 L 255.096 206.956 L 255.142 206.639 L 255.263 206.402 L 255.46 206.26 L 255.717 206.21 L 256.009 206.266 L 256.226 206.412 L 256.362 206.644 L 256.408 206.951 L 256.357 207.269 L 256.206 207.501 L 255.964 207.647 L 255.631 207.703 L 255.631 208.167 L 255.631 208.167 z M 256.73 203.861 L 256.73 203.352 L 255.898 203.185 L 255.122 202.893 L 254.401 202.479 L 253.725 201.939 L 253.306 201.939 L 253.306 204.34 L 253.765 204.34 L 253.765 202.424 L 254.446 202.978 L 255.157 203.397 L 255.913 203.689 L 256.73 203.861 L 256.73 203.861 z" stroke="none" fill-rule="evenodd" fill="rgb(255, 0, 128)"/><path d="M 258.213 378.751 L 258.73 380.683 L 259.248 378.751"/><path d="M 259.248 46.2493 L 258.73 44.3174 L 258.213 46.2493"/><path d="M 258.73 380.683 L 258.73 44.3174"/></g><g stroke="rgb(255, 0, 128)" stroke-width="0.13" stroke-linecap="butt" stroke-linejoin="miter" fill="none"><path d="M 289.879 29.8698 L 290.306 29.9048 L 290.693 29.7811 L 291.005 29.5073 L 291.233 29.096 L 291.32 28.5859 L 291.221 28.1274 L 290.936 27.7574 L 290.494 27.4971 L 290.023 27.4196 L 289.595 27.5233 L 289.244 27.7994 L 288.998 28.231 L 288.928 28.6075 L 288.986 28.939 L 288.146 28.488 L 288.663 27.0447 L 288.273 26.9052 L 287.642 28.6666 L 289.296 29.5537 L 289.432 29.1739 L 289.308 28.8186 L 289.353 28.4383 L 289.514 28.1532 L 289.749 27.975 L 290.034 27.9112 L 290.352 27.9661 L 290.633 28.1255 L 290.811 28.3608 L 290.875 28.6461 L 290.82 28.964 L 290.696 29.2037 L 290.517 29.3592 L 290.296 29.4404 L 290.037 29.4283 L 289.879 29.8698 L 289.879 29.8698 z" stroke="none" fill-rule="evenodd" fill="rgb(255, 0, 128)"/></g><g stroke="rgb(255, 0, 128)" stroke-width="0.13" stroke-linecap="butt" stroke-linejoin="miter" fill="none"><path d="M 289.42 33.8585 L 289.578 33.417 L 288.187 32.9186 L 288.348 32.4676 L 288.482 32.1403 L 288.623 31.9552 L 288.821 31.8974 L 289.118 31.9503 L 289.553 32.0797 L 289.844 32.1516 L 290.03 32.1541 L 290.209 31.6556 L 290.119 31.6233 L 289.947 31.6848 L 289.686 31.6344 L 289.143 31.4771 L 288.72 31.4166 L 288.557 31.4816 L 288.406 31.6202 L 288.355 31.3878 L 288.236 31.1953 L 288.058 31.035 L 287.817 30.9163 L 287.394 30.8399 L 287.027 30.9227 L 286.734 31.1714 L 286.519 31.5765 L 286.125 32.678 L 289.42 33.8585 L 289.42 33.8585 z M 286.879 31.8446 L 287.011 31.5652 L 287.174 31.3933 L 287.386 31.3247 L 287.663 31.3755 L 287.921 31.5216 L 288.042 31.7094 L 288.049 31.9584 L 287.965 32.266 L 287.783 32.774 L 286.687 32.3811 L 286.879 31.8446 L 286.879 31.8446 z" stroke="none" fill-rule="evenodd" fill="rgb(255, 0, 128)"/><path d="M 289.648 37.6172 L 289.483 39.6104 L 290.622 37.9664"/><path d="M 287.797 44.3174 L 294.543 25.4894"/></g></svg>