<?xml version="1.0" encoding="utf-8" ?><!DOCTYPE svg PUBLIC "-//W3C//DTD SVG 1.1//EN" "http://www.w3.org/Graphics/SVG/1.1/DTD/svg11.dtd" 
[ <!ATTLIST svg 
  xmlns:dsy CDATA #FIXED "http://www.3ds.com/print"  
    dsy:text-version CDATA #IMPLIED > 

  <!ATTLIST text 
  xmlns:dsy CDATA #FIXED "http://www.3ds.com/print" 
    dsy:text-version CDATA #IMPLIED > 
]><svg xmlns="http://www.w3.org/2000/svg" xmlns:dsy="http://www.3ds.com/print" dsy:text-version="18000" width="297" height="210" viewBox="0 0 297 210" version="1.1"><g stroke="rgb(255, 0, 128)" stroke-width="0.13" stroke-linecap="butt" stroke-linejoin="miter" fill="none"><path d="M 111.383 123.002 L 102.386 123.002"/><path d="M 177.86 87.1958 L 102.386 87.1958"/></g><g stroke="rgb(0, 0, 0)" stroke-width="0.35" stroke-linecap="butt" stroke-linejoin="miter" fill="none"><path d="M 113.383 117.002 L 113.383 123.002"/><path d="M 113.383 123.002 L 123.383 123.002"/><path d="M 138.274 119.395 L 123.383 123.002"/><path d="M 183.617 112.721 L 138.274 119.395"/><path d="M 182.889 107.774 L 183.617 112.721"/><path d="M 158.156 111.415 L 182.889 107.774"/><path d="M 157.282 105.479 L 158.156 111.415"/><path d="M 182.015 101.838 L 157.282 105.479"/><path d="M 181.433 97.8807 L 182.015 101.838"/><path d="M 156.699 101.522 L 181.433 97.8807"/><path d="M 156.699 101.522 L 155.826 95.5855"/><path d="M 180.559 91.9447 L 155.826 95.5855"/><path d="M 179.831 86.998 L 180.559 91.9447"/><path d="M 138.769 93.0424 L 179.831 86.998"/><path d="M 138.769 93.0424 L 123.383 88.5097"/><path d="M 118.383 88.5097 L 123.383 88.5097"/><path d="M 118.383 90.5097 L 118.383 88.5097"/><path d="M 116.383 90.5097 L 118.383 90.5097"/><path d="M 116.383 88.5097 L 116.383 90.5097"/><path d="M 113.383 88.5097 L 116.383 88.5097"/><path d="M 113.383 93.5097 L 113.383 88.5097"/><path d="M 113.383 117.002 A 12.5 12.5 0 0 0 113.383 93.5097"/></g><g stroke="rgb(255, 0, 128)" stroke-width="0.13" stroke-linecap="butt" stroke-linejoin="miter" fill="none"><path d="M 101.287 113.842 L 101.322 113.842 L 101.806 113.761 L 102.169 113.524 L 102.401 113.151 L 102.487 112.657 L 102.401 112.132 L 102.179 111.739 L 101.826 111.487 L 101.372 111.396 L 101.075 111.436 L 100.833 111.547 L 100.646 111.729 L 100.51 111.971 L 100.238 111.643 L 99.804 111.527 L 99.4106 111.603 L 99.1131 111.82 L 98.9265 112.173 L 98.8609 112.657 L 98.9416 113.111 L 99.1635 113.459 L 99.5165 113.686 L 99.9856 113.761 L 100.021 113.761 L 100.021 113.312 L 99.6981 113.272 L 99.4661 113.141 L 99.3249 112.929 L 99.2745 112.631 L 99.3148 112.369 L 99.4207 112.178 L 99.5922 112.062 L 99.8242 112.016 L 100.071 112.062 L 100.238 112.183 L 100.339 112.394 L 100.369 112.682 L 100.364 112.879 L 100.762 112.879 L 100.752 112.631 L 100.798 112.314 L 100.919 112.077 L 101.115 111.936 L 101.372 111.885 L 101.665 111.941 L 101.882 112.087 L 102.018 112.319 L 102.063 112.626 L 102.013 112.944 L 101.862 113.176 L 101.62 113.322 L 101.287 113.378 L 101.287 113.842 L 101.287 113.842 z M 101.473 110.086 L 101.887 109.975 L 102.21 109.728 L 102.411 109.364 L 102.487 108.901 L 102.396 108.391 L 102.149 107.993 L 101.756 107.741 L 101.251 107.645 L 100.782 107.73 L 100.414 107.973 L 100.177 108.351 L 100.091 108.84 L 100.152 109.218 L 100.318 109.511 L 99.3753 109.37 L 99.3753 107.836 L 98.9618 107.836 L 98.9618 109.707 L 100.818 109.985 L 100.818 109.581 L 100.581 109.289 L 100.495 108.916 L 100.55 108.593 L 100.712 108.346 L 100.959 108.189 L 101.277 108.134 L 101.594 108.189 L 101.841 108.351 L 101.998 108.598 L 102.053 108.916 L 102.018 109.183 L 101.902 109.39 L 101.72 109.541 L 101.473 109.617 L 101.473 110.086 L 101.473 110.086 z M 102.386 105.447 L 102.386 104.751 L 101.635 104.751 L 101.635 105.447 L 102.386 105.447 L 102.386 105.447 z M 100.5 101.988 L 100.641 102.245 L 100.838 102.422 L 101.085 102.533 L 101.383 102.568 L 101.831 102.488 L 102.179 102.256 L 102.401 101.877 L 102.487 101.363 L 102.401 100.854 L 102.179 100.475 L 101.831 100.243 L 101.383 100.158 L 101.085 100.198 L 100.838 100.304 L 100.641 100.485 L 100.5 100.738 L 100.379 100.536 L 100.213 100.395 L 100.011 100.309 L 99.7637 100.279 L 99.4056 100.359 L 99.1181 100.571 L 98.9315 100.914 L 98.8609 101.363 L 98.9315 101.817 L 99.1181 102.16 L 99.4056 102.377 L 99.7637 102.452 L 100.011 102.427 L 100.213 102.341 L 100.5 101.988 L 100.5 101.988 z M 101.372 102.084 L 101.105 102.039 L 100.903 101.892 L 100.772 101.666 L 100.727 101.363 L 100.772 101.065 L 100.903 100.838 L 101.105 100.692 L 101.372 100.642 L 101.66 100.692 L 101.877 100.838 L 102.018 101.065 L 102.063 101.363 L 102.018 101.666 L 101.877 101.892 L 101.66 102.039 L 101.372 102.084 L 101.372 102.084 z M 99.804 101.973 L 99.5821 101.933 L 99.4106 101.812 L 99.3047 101.62 L 99.2644 101.363 L 99.3047 101.111 L 99.4106 100.919 L 99.5821 100.798 L 99.804 100.753 L 100.031 100.798 L 100.207 100.919 L 100.323 101.111 L 100.359 101.363 L 100.318 101.62 L 100.207 101.812 L 100.031 101.933 L 99.804 101.973 L 99.804 101.973 z M 102.386 97.7177 L 102.386 97.2588 L 98.8609 97.2588 L 98.8609 97.6017 L 99.1686 97.6925 L 99.3753 97.874 L 99.4964 98.1514 L 99.5367 98.5347 L 99.8948 98.5347 L 99.8948 97.7177 L 102.386 97.7177 L 102.386 97.7177 z" stroke="none" fill-rule="evenodd" fill="rgb(255, 0, 128)"/><path d="M 103.868 121.07 L 104.386 123.002 L 104.904 121.07"/><path d="M 104.904 89.1277 L 104.386 87.1958 L 103.868 89.1277"/><path d="M 104.386 123.002 L 104.386 87.1958"/></g></svg>