<?xml version="1.0" encoding="utf-8" ?><!DOCTYPE svg PUBLIC "-//W3C//DTD SVG 1.1//EN" "http://www.w3.org/Graphics/SVG/1.1/DTD/svg11.dtd" 
[ <!ATTLIST svg 
  xmlns:dsy CDATA #FIXED "http://www.3ds.com/print"  
    dsy:text-version CDATA #IMPLIED > 

  <!ATTLIST text 
  xmlns:dsy CDATA #FIXED "http://www.3ds.com/print" 
    dsy:text-version CDATA #IMPLIED > 
]><svg xmlns="http://www.w3.org/2000/svg" xmlns:dsy="http://www.3ds.com/print" dsy:text-version="18000" width="297" height="210" viewBox="0 0 297 210" version="1.1"><g stroke="rgb(0, 0, 0)" stroke-width="0.13" stroke-linecap="butt" stroke-linejoin="miter" fill="none"><path d="M 183.259 96.3547 L 187.744 95.6945"/><path d="M 184.133 102.291 L 188.618 101.631"/></g><g stroke="rgb(0, 0, 0)" stroke-width="0.35" stroke-linecap="butt" stroke-linejoin="miter" fill="none"><path d="M 113.419 117.05 L 113.419 123.05"/><path d="M 113.419 123.05 L 123.419 123.05"/><path d="M 138.238 118.952 L 123.419 123.05"/><path d="M 183.581 112.278 L 138.238 118.952"/><path d="M 182.853 107.331 L 183.581 112.278"/><path d="M 158.12 110.972 L 182.853 107.331"/><path d="M 157.421 106.223 L 158.12 110.972"/><path d="M 182.154 102.582 L 157.421 106.223"/><path d="M 181.28 96.646 L 182.154 102.582"/><path d="M 156.547 100.287 L 181.28 96.646"/><path d="M 156.547 100.287 L 155.848 95.538"/><path d="M 180.581 91.8972 L 155.848 95.538"/><path d="M 179.853 86.9505 L 180.581 91.8972"/><path d="M 138.791 92.9949 L 179.853 86.9505"/><path d="M 138.791 92.9949 L 123.419 88.5572"/><path d="M 118.419 88.5572 L 123.419 88.5572"/><path d="M 118.419 90.5572 L 118.419 88.5572"/><path d="M 116.419 90.5572 L 118.419 90.5572"/><path d="M 116.419 88.5572 L 116.419 90.5572"/><path d="M 113.419 88.5572 L 116.419 88.5572"/><path d="M 113.419 93.5572 L 113.419 88.5572"/><path d="M 113.419 117.05 A 12.5 12.5 0 0 0 113.419 93.5572"/></g><g stroke="rgb(0, 0, 0)" stroke-width="0.13" stroke-linecap="butt" stroke-linejoin="miter" fill="none"><path d="M 192.273 108.904 L 192.663 108.75 L 192.93 108.486 L 193.07 108.119 L 193.07 107.67 L 192.992 107.381 L 192.86 107.141 L 192.672 106.939 L 192.424 106.782 L 192.128 106.672 L 191.778 106.612 L 191.373 106.6 L 190.926 106.645 L 190.229 106.829 L 189.751 107.15 L 189.5 107.589 L 189.475 108.144 L 189.636 108.614 L 189.925 108.949 L 190.329 109.134 L 190.811 109.15 L 191.272 108.995 L 191.603 108.712 L 191.78 108.324 L 191.795 107.873 L 191.626 107.414 L 191.289 107.102 L 191.849 107.096 L 192.266 107.197 L 192.537 107.407 L 192.667 107.735 L 192.664 107.99 L 192.587 108.195 L 192.43 108.346 L 192.205 108.445 L 192.273 108.904 L 192.273 108.904 z M 190.734 108.667 L 190.412 108.658 L 190.152 108.554 L 189.959 108.353 L 189.868 108.081 L 189.875 107.779 L 189.996 107.532 L 190.214 107.352 L 190.522 107.26 L 190.839 107.265 L 191.094 107.37 L 191.277 107.577 L 191.378 107.879 L 191.363 108.156 L 191.25 108.392 L 191.036 108.566 L 190.734 108.667 L 190.734 108.667 z" stroke="none" fill-rule="evenodd" fill="rgb(0, 0, 0)"/><path d="M 187.433 103.758 L 186.639 101.922 L 186.408 103.908"/><path d="M 184.972 94.1499 L 185.765 95.9857 L 185.996 93.9991"/><path d="M 185.037 91.0391 L 187.81 109.872"/></g></svg>