<?xml version="1.0" encoding="utf-8" ?><!DOCTYPE svg PUBLIC "-//W3C//DTD SVG 1.1//EN" "http://www.w3.org/Graphics/SVG/1.1/DTD/svg11.dtd" 
[ <!ATTLIST svg 
  xmlns:dsy CDATA #FIXED "http://www.3ds.com/print"  
    dsy:text-version CDATA #IMPLIED > 

  <!ATTLIST text 
  xmlns:dsy CDATA #FIXED "http://www.3ds.com/print" 
    dsy:text-version CDATA #IMPLIED > 
]><svg xmlns="http://www.w3.org/2000/svg" xmlns:dsy="http://www.3ds.com/print" dsy:text-version="18000" width="594" height="420" viewBox="0 0 594 420" version="1.1"><g stroke="rgb(255, 0, 128)" stroke-width="0.13" stroke-linecap="butt" stroke-linejoin="miter" fill="none"><path d="M 322.84 44.3174 L 381.723 44.3174"/></g><g stroke="rgb(0, 0, 0)" stroke-width="0.35" stroke-linecap="butt" stroke-linejoin="miter" fill="none"><path d="M 236.479 380.683 L 236.479 355.683"/><path d="M 236.479 355.683 L 242.479 355.683"/><path d="M 242.479 355.683 L 242.479 380.683"/><path d="M 242.479 380.683 L 400.478 380.683"/><path d="M 400.478 380.683 L 400.478 355.683"/><path d="M 400.478 355.683 L 406.478 355.683"/><path d="M 406.478 355.683 L 406.478 380.683"/><path d="M 210.8 255.559 L 197.799 248.077"/><path d="M 209.303 258.159 L 210.8 255.559"/><path d="M 196.303 250.677 L 209.303 258.159"/><circle cx="196.479" cy="369.883" r="4.20001"/><circle cx="446.478" cy="370.683" r="4.20001"/><circle cx="321.479" cy="68.1826" r="6"/><circle cx="321.479" cy="148.183" r="4.20001"/><circle cx="146.479" cy="369.883" r="4.20001"/><circle cx="220.995" cy="287.964" r="4.20001"/><path d="M 461.534 367.53 L 450.935 358.67"/><path d="M 460.893 368.297 L 461.534 367.53"/><path d="M 450.294 359.438 L 460.893 368.297"/><path d="M 450.935 358.67 L 450.294 359.438"/><path d="M 187.748 363.432 L 186.97 362.804"/><path d="M 178.823 374.488 L 187.748 363.432"/><path d="M 178.045 373.859 L 178.823 374.488"/><path d="M 186.97 362.804 L 178.045 373.859"/><path d="M 156.143 362.907 L 155.346 363.51"/><path d="M 165.562 375.35 L 156.143 362.907"/><path d="M 164.764 375.953 L 165.562 375.35"/><path d="M 155.346 363.51 L 164.764 375.953"/><path d="M 406.478 380.683 L 463.874 380.683"/><path d="M 463.874 380.683 A 5 5 0 0 0 468.465 373.701"/><path d="M 197.799 248.077 L 316.506 41.8233"/><path d="M 468.465 373.701 L 325.43 42.3359"/><path d="M 325.43 42.3359 A 5 5 0 0 0 316.506 41.8233"/><path d="M 130.126 380.683 L 236.479 380.683"/><path d="M 125.793 373.188 L 196.303 250.677"/><path d="M 125.793 373.188 A 5 5 0 0 0 130.126 380.683"/></g><g stroke="rgb(255, 0, 128)" stroke-width="0.13" stroke-linecap="butt" stroke-linejoin="miter" fill="none"><path d="M 376.624 223.111 L 376.659 223.111 L 377.143 223.03 L 377.507 222.793 L 377.738 222.42 L 377.824 221.926 L 377.738 221.401 L 377.517 221.008 L 377.164 220.756 L 376.71 220.665 L 376.412 220.705 L 376.17 220.816 L 375.983 220.998 L 375.847 221.24 L 375.575 220.912 L 375.141 220.796 L 374.748 220.872 L 374.45 221.089 L 374.264 221.442 L 374.198 221.926 L 374.279 222.38 L 374.501 222.728 L 374.854 222.955 L 375.323 223.03 L 375.358 223.03 L 375.358 222.581 L 375.035 222.541 L 374.803 222.41 L 374.662 222.198 L 374.612 221.901 L 374.652 221.638 L 374.758 221.447 L 374.929 221.331 L 375.161 221.285 L 375.409 221.331 L 375.575 221.452 L 375.676 221.664 L 375.706 221.951 L 375.701 222.148 L 376.099 222.148 L 376.089 221.901 L 376.135 221.583 L 376.256 221.346 L 376.452 221.205 L 376.71 221.154 L 377.002 221.21 L 377.219 221.356 L 377.355 221.588 L 377.401 221.896 L 377.35 222.213 L 377.199 222.445 L 376.957 222.592 L 376.624 222.647 L 376.624 223.111 L 376.624 223.111 z M 376.624 219.375 L 376.659 219.375 L 377.143 219.294 L 377.507 219.057 L 377.738 218.684 L 377.824 218.19 L 377.738 217.665 L 377.517 217.272 L 377.164 217.02 L 376.71 216.929 L 376.412 216.969 L 376.17 217.08 L 375.983 217.262 L 375.847 217.504 L 375.575 217.176 L 375.141 217.06 L 374.748 217.136 L 374.45 217.353 L 374.264 217.706 L 374.198 218.19 L 374.279 218.644 L 374.501 218.992 L 374.854 219.219 L 375.323 219.294 L 375.358 219.294 L 375.358 218.845 L 375.035 218.805 L 374.803 218.674 L 374.662 218.462 L 374.612 218.165 L 374.652 217.902 L 374.758 217.711 L 374.929 217.595 L 375.161 217.549 L 375.409 217.595 L 375.575 217.716 L 375.676 217.928 L 375.706 218.215 L 375.701 218.412 L 376.099 218.412 L 376.089 218.165 L 376.135 217.847 L 376.256 217.61 L 376.452 217.469 L 376.71 217.418 L 377.002 217.474 L 377.219 217.62 L 377.355 217.852 L 377.401 218.16 L 377.35 218.477 L 377.199 218.709 L 376.957 218.855 L 376.624 218.911 L 376.624 219.375 L 376.624 219.375 z M 375.166 213.158 L 374.758 213.253 L 374.455 213.475 L 374.264 213.818 L 374.198 214.262 L 374.233 214.56 L 374.329 214.817 L 374.486 215.044 L 374.707 215.235 L 374.985 215.387 L 375.323 215.498 L 375.721 215.568 L 376.17 215.588 L 376.886 215.508 L 377.406 215.261 L 377.718 214.862 L 377.824 214.318 L 377.733 213.828 L 377.496 213.455 L 377.123 213.213 L 376.649 213.127 L 376.17 213.213 L 375.802 213.445 L 375.57 213.803 L 375.489 214.247 L 375.59 214.726 L 375.878 215.084 L 375.323 215.008 L 374.924 214.847 L 374.687 214.6 L 374.607 214.257 L 374.647 214.005 L 374.753 213.813 L 374.929 213.687 L 375.166 213.622 L 375.166 213.158 L 375.166 213.158 z M 376.654 213.617 L 376.972 213.672 L 377.214 213.813 L 377.375 214.04 L 377.426 214.323 L 377.375 214.62 L 377.219 214.847 L 376.977 214.993 L 376.659 215.039 L 376.347 214.988 L 376.11 214.847 L 375.958 214.615 L 375.903 214.302 L 375.958 214.03 L 376.104 213.813 L 376.342 213.672 L 376.654 213.617 L 376.654 213.617 z M 377.723 210.98 L 377.723 210.284 L 376.972 210.284 L 376.972 210.98 L 377.723 210.98 L 377.723 210.98 z M 376.624 208.167 L 376.659 208.167 L 377.143 208.086 L 377.507 207.849 L 377.738 207.476 L 377.824 206.982 L 377.738 206.457 L 377.517 206.064 L 377.164 205.812 L 376.71 205.721 L 376.412 205.761 L 376.17 205.872 L 375.983 206.054 L 375.847 206.296 L 375.575 205.968 L 375.141 205.852 L 374.748 205.928 L 374.45 206.144 L 374.264 206.498 L 374.198 206.982 L 374.279 207.436 L 374.501 207.784 L 374.854 208.01 L 375.323 208.086 L 375.358 208.086 L 375.358 207.637 L 375.035 207.597 L 374.803 207.466 L 374.662 207.254 L 374.612 206.956 L 374.652 206.694 L 374.758 206.503 L 374.929 206.387 L 375.161 206.341 L 375.409 206.387 L 375.575 206.508 L 375.676 206.719 L 375.706 207.007 L 375.701 207.204 L 376.099 207.204 L 376.089 206.956 L 376.135 206.639 L 376.256 206.402 L 376.452 206.26 L 376.71 206.21 L 377.002 206.266 L 377.219 206.412 L 377.355 206.644 L 377.401 206.951 L 377.35 207.269 L 377.199 207.501 L 376.957 207.647 L 376.624 207.703 L 376.624 208.167 L 376.624 208.167 z M 377.723 203.861 L 377.723 203.352 L 376.891 203.185 L 376.115 202.893 L 375.393 202.479 L 374.718 201.939 L 374.299 201.939 L 374.299 204.34 L 374.758 204.34 L 374.758 202.424 L 375.439 202.978 L 376.15 203.397 L 376.906 203.689 L 377.723 203.861 L 377.723 203.861 z" stroke="none" fill-rule="evenodd" fill="rgb(255, 0, 128)"/><path d="M 379.206 378.751 L 379.723 380.683 L 380.241 378.751"/><path d="M 380.241 46.2493 L 379.723 44.3174 L 379.206 46.2493"/><path d="M 379.723 380.683 L 379.723 44.3174"/></g><g stroke="rgb(255, 0, 128)" stroke-width="0.13" stroke-linecap="butt" stroke-linejoin="miter" fill="none"><path d="M 342.527 25.8477 L 342.853 26.1254 L 343.239 26.2511 L 343.653 26.2113 L 344.078 26.0105 L 344.446 25.6468 L 344.634 25.2173 L 344.619 24.7503 L 344.411 24.2806 L 344.075 23.9429 L 343.667 23.777 L 343.221 23.7963 L 342.769 24.0031 L 342.492 24.2675 L 342.345 24.5704 L 341.927 23.7136 L 343.19 22.8441 L 342.955 22.5035 L 341.414 23.5646 L 342.238 25.2505 L 342.57 25.0217 L 342.677 24.6606 L 342.936 24.3783 L 343.233 24.241 L 343.528 24.2337 L 343.797 24.3486 L 344.023 24.5788 L 344.157 24.872 L 344.165 25.167 L 344.05 25.4359 L 343.819 25.6618 L 343.579 25.7843 L 343.343 25.8061 L 343.116 25.7423 L 342.913 25.5817 L 342.527 25.8477 L 342.527 25.8477 z" stroke="none" fill-rule="evenodd" fill="rgb(255, 0, 128)"/></g><g stroke="rgb(255, 0, 128)" stroke-width="0.13" stroke-linecap="butt" stroke-linejoin="miter" fill="none"><path d="M 339.824 28.817 L 340.211 28.551 L 339.372 27.3339 L 339.767 27.0622 L 340.066 26.8745 L 340.289 26.8068 L 340.483 26.8752 L 340.694 27.0917 L 340.972 27.4512 L 341.165 27.6791 L 341.315 27.7902 L 341.752 27.4899 L 341.697 27.4109 L 341.522 27.3604 L 341.34 27.1673 L 340.99 26.7221 L 340.682 26.426 L 340.512 26.3838 L 340.308 26.4078 L 340.403 26.1895 L 340.419 25.9641 L 340.368 25.7298 L 340.242 25.4925 L 339.943 25.1837 L 339.597 25.0364 L 339.214 25.0673 L 338.803 25.2707 L 337.839 25.9343 L 339.824 28.817 L 339.824 28.817 z M 338.938 25.6982 L 339.209 25.5486 L 339.442 25.5045 L 339.654 25.5727 L 339.848 25.7754 L 339.973 26.0449 L 339.961 26.2675 L 339.821 26.4739 L 339.574 26.6748 L 339.129 26.9809 L 338.469 26.0213 L 338.938 25.6982 L 338.938 25.6982 z" stroke="none" fill-rule="evenodd" fill="rgb(255, 0, 128)"/><path d="M 326.256 39.9598 L 324.958 41.4818 L 326.843 40.8125"/><path d="M 320.84 44.3174 L 346.459 26.6766"/></g></svg>