<?xml version="1.0" encoding="utf-8" ?><!DOCTYPE svg PUBLIC "-//W3C//DTD SVG 1.1//EN" "http://www.w3.org/Graphics/SVG/1.1/DTD/svg11.dtd" 
[ <!ATTLIST svg 
  xmlns:dsy CDATA #FIXED "http://www.3ds.com/print"  
    dsy:text-version CDATA #IMPLIED > 

  <!ATTLIST text 
  xmlns:dsy CDATA #FIXED "http://www.3ds.com/print" 
    dsy:text-version CDATA #IMPLIED > 
]><svg xmlns="http://www.w3.org/2000/svg" xmlns:dsy="http://www.3ds.com/print" dsy:text-version="18000" width="594" height="420" viewBox="0 0 594 420" version="1.1"><g stroke="rgb(0, 0, 0)" stroke-width="0.13" stroke-linecap="butt" stroke-linejoin="miter" fill="none"><path d="M 242.279 353.683 L 242.279 336.95"/><path d="M 400.678 353.683 L 400.678 336.95"/></g><g stroke="rgb(0, 0, 0)" stroke-width="0.35" stroke-linecap="butt" stroke-linejoin="miter" fill="none"><path d="M 236.479 380.683 L 236.479 355.683"/><path d="M 236.479 355.683 L 242.279 355.683"/><path d="M 242.279 355.683 L 242.279 380.683"/><path d="M 242.279 380.683 L 400.678 380.683"/><path d="M 400.678 380.683 L 400.678 355.683"/><path d="M 400.678 355.683 L 406.478 355.683"/><path d="M 406.478 355.683 L 406.478 380.683"/><path d="M 210.8 255.559 L 197.799 248.077"/><path d="M 209.303 258.159 L 210.8 255.559"/><path d="M 196.303 250.677 L 209.303 258.159"/><circle cx="196.479" cy="369.883" r="4.20001"/><circle cx="446.478" cy="370.683" r="4.20001"/><circle cx="321.479" cy="68.1826" r="6"/><circle cx="321.479" cy="148.183" r="4.20001"/><circle cx="146.479" cy="369.883" r="4.20001"/><circle cx="220.995" cy="287.964" r="4.20001"/><path d="M 406.478 380.683 L 463.874 380.683"/><path d="M 463.874 380.683 A 5 5 0 0 0 468.465 373.701"/><path d="M 197.799 248.077 L 316.506 41.8233"/><path d="M 468.465 373.701 L 325.43 42.3359"/><path d="M 325.43 42.3359 A 5 5 0 0 0 316.506 41.8233"/><path d="M 130.126 380.683 L 236.479 380.683"/><path d="M 125.793 373.188 L 196.303 250.677"/><path d="M 125.793 373.188 A 5 5 0 0 0 130.126 380.683"/></g><g stroke="rgb(0, 0, 0)" stroke-width="0.13" stroke-linecap="butt" stroke-linejoin="miter" fill="none"><path d="M 313.916 336.95 L 314.375 336.95 L 314.375 333.425 L 314.032 333.425 L 313.941 333.733 L 313.76 333.939 L 313.482 334.06 L 313.099 334.101 L 313.099 334.459 L 313.916 334.459 L 313.916 336.95 L 313.916 336.95 z M 316.492 336.037 L 316.603 336.451 L 316.85 336.774 L 317.213 336.975 L 317.677 337.051 L 318.187 336.96 L 318.585 336.713 L 318.837 336.32 L 318.933 335.815 L 318.847 335.346 L 318.605 334.978 L 318.227 334.741 L 317.738 334.656 L 317.359 334.716 L 317.067 334.882 L 317.208 333.939 L 318.741 333.939 L 318.741 333.526 L 316.87 333.526 L 316.593 335.382 L 316.996 335.382 L 317.289 335.145 L 317.662 335.059 L 317.985 335.114 L 318.232 335.276 L 318.388 335.523 L 318.444 335.841 L 318.388 336.158 L 318.227 336.406 L 317.98 336.562 L 317.662 336.617 L 317.395 336.582 L 317.188 336.466 L 317.037 336.285 L 316.961 336.037 L 316.492 336.037 L 316.492 336.037 z M 320.853 335.064 L 320.596 335.205 L 320.42 335.402 L 320.309 335.649 L 320.273 335.947 L 320.354 336.395 L 320.586 336.743 L 320.964 336.965 L 321.479 337.051 L 321.988 336.965 L 322.366 336.743 L 322.598 336.395 L 322.684 335.947 L 322.644 335.649 L 322.538 335.402 L 322.356 335.205 L 322.104 335.064 L 322.306 334.943 L 322.447 334.777 L 322.533 334.575 L 322.563 334.328 L 322.482 333.97 L 322.271 333.682 L 321.928 333.496 L 321.479 333.425 L 321.025 333.496 L 320.682 333.682 L 320.465 333.97 L 320.389 334.328 L 320.415 334.575 L 320.5 334.777 L 320.853 335.064 L 320.853 335.064 z M 320.758 335.937 L 320.803 335.669 L 320.949 335.468 L 321.176 335.336 L 321.479 335.291 L 321.776 335.336 L 322.003 335.468 L 322.149 335.669 L 322.2 335.937 L 322.149 336.224 L 322.003 336.441 L 321.776 336.582 L 321.479 336.627 L 321.176 336.582 L 320.949 336.441 L 320.803 336.224 L 320.758 335.937 L 320.758 335.937 z M 320.868 334.368 L 320.909 334.146 L 321.03 333.975 L 321.222 333.869 L 321.479 333.828 L 321.731 333.869 L 321.923 333.975 L 322.044 334.146 L 322.089 334.368 L 322.044 334.595 L 321.923 334.772 L 321.731 334.888 L 321.479 334.923 L 321.222 334.882 L 321.03 334.772 L 320.909 334.595 L 320.868 334.368 L 320.868 334.368 z M 324.867 336.95 L 325.563 336.95 L 325.563 336.199 L 324.867 336.199 L 324.867 336.95 L 324.867 336.95 z M 329.228 336.95 L 329.682 336.95 L 329.682 336.083 L 330.181 336.083 L 330.181 335.679 L 329.682 335.679 L 329.682 333.526 L 329.223 333.526 L 327.69 335.639 L 327.69 336.083 L 329.228 336.083 L 329.228 336.95 L 329.228 336.95 z M 328.114 335.679 L 329.228 334.111 L 329.228 335.679 L 328.114 335.679 L 328.114 335.679 z" stroke="none" fill-rule="evenodd" fill="rgb(0, 0, 0)"/><path d="M 398.746 339.468 L 400.678 338.95 L 398.746 338.433"/><path d="M 244.211 338.433 L 242.279 338.95 L 244.211 339.468"/><path d="M 242.279 338.95 L 400.678 338.95"/></g></svg>