<?xml version="1.0" encoding="utf-8" ?><!DOCTYPE svg PUBLIC "-//W3C//DTD SVG 1.1//EN" "http://www.w3.org/Graphics/SVG/1.1/DTD/svg11.dtd" 
[ <!ATTLIST svg 
  xmlns:dsy CDATA #FIXED "http://www.3ds.com/print"  
    dsy:text-version CDATA #IMPLIED > 

  <!ATTLIST text 
  xmlns:dsy CDATA #FIXED "http://www.3ds.com/print" 
    dsy:text-version CDATA #IMPLIED > 
]><svg xmlns="http://www.w3.org/2000/svg" xmlns:dsy="http://www.3ds.com/print" dsy:text-version="18000" width="594" height="420" viewBox="0 0 594 420" version="1.1"><g stroke="rgb(0, 0, 0)" stroke-width="0.13" stroke-linecap="butt" stroke-linejoin="miter" fill="none"><path d="M 241.279 353.683 L 241.279 336.95"/><path d="M 401.678 353.683 L 401.678 336.95"/></g><g stroke="rgb(0, 0, 0)" stroke-width="0.35" stroke-linecap="butt" stroke-linejoin="miter" fill="none"><path d="M 236.479 380.683 L 236.479 355.683"/><path d="M 236.479 355.683 L 241.279 355.683"/><path d="M 241.279 355.683 L 241.279 380.683"/><path d="M 241.279 380.683 L 401.678 380.683"/><path d="M 401.678 380.683 L 401.678 355.683"/><path d="M 401.678 355.683 L 406.478 355.683"/><path d="M 406.478 355.683 L 406.478 380.683"/><path d="M 210.8 255.559 L 197.799 248.077"/><path d="M 209.303 258.159 L 210.8 255.559"/><path d="M 196.303 250.677 L 209.303 258.159"/><circle cx="196.479" cy="369.883" r="4.20001"/><circle cx="446.478" cy="370.683" r="4.20001"/><circle cx="321.479" cy="68.1826" r="6"/><circle cx="321.479" cy="148.183" r="4.20001"/><circle cx="146.479" cy="369.883" r="4.20001"/><circle cx="220.995" cy="287.964" r="4.20001"/><path d="M 406.478 380.683 L 463.874 380.683"/><path d="M 463.874 380.683 A 5 5 0 0 0 468.465 373.701"/><path d="M 197.799 248.077 L 316.506 41.8233"/><path d="M 468.465 373.701 L 325.43 42.3359"/><path d="M 325.43 42.3359 A 5 5 0 0 0 316.506 41.8233"/><path d="M 130.126 380.683 L 236.479 380.683"/><path d="M 125.793 373.188 L 196.303 250.677"/><path d="M 125.793 373.188 A 5 5 0 0 0 130.126 380.683"/></g><g stroke="rgb(0, 0, 0)" stroke-width="0.13" stroke-linecap="butt" stroke-linejoin="miter" fill="none"><path d="M 313.916 336.95 L 314.375 336.95 L 314.375 333.425 L 314.032 333.425 L 313.941 333.733 L 313.76 333.939 L 313.482 334.06 L 313.099 334.101 L 313.099 334.459 L 313.916 334.459 L 313.916 336.95 L 313.916 336.95 z M 318.953 334.393 L 318.857 333.985 L 318.635 333.682 L 318.292 333.491 L 317.849 333.425 L 317.551 333.46 L 317.294 333.556 L 317.067 333.712 L 316.875 333.934 L 316.724 334.212 L 316.613 334.55 L 316.542 334.948 L 316.522 335.397 L 316.603 336.113 L 316.85 336.632 L 317.248 336.945 L 317.793 337.051 L 318.282 336.96 L 318.656 336.723 L 318.898 336.35 L 318.983 335.876 L 318.898 335.397 L 318.666 335.029 L 318.308 334.797 L 317.864 334.716 L 317.385 334.817 L 317.027 335.104 L 317.102 334.55 L 317.264 334.151 L 317.511 333.914 L 317.854 333.833 L 318.106 333.874 L 318.297 333.98 L 318.424 334.156 L 318.489 334.393 L 318.953 334.393 L 318.953 334.393 z M 318.494 335.881 L 318.439 336.199 L 318.297 336.441 L 318.071 336.602 L 317.788 336.653 L 317.491 336.602 L 317.264 336.446 L 317.117 336.204 L 317.072 335.886 L 317.122 335.573 L 317.264 335.336 L 317.496 335.185 L 317.808 335.13 L 318.081 335.185 L 318.297 335.331 L 318.439 335.568 L 318.494 335.881 L 318.494 335.881 z M 320.263 335.241 L 320.339 336.032 L 320.576 336.597 L 320.954 336.94 L 321.479 337.051 L 321.998 336.94 L 322.376 336.597 L 322.608 336.032 L 322.689 335.241 L 322.608 334.454 L 322.513 334.141 L 322.376 333.884 L 321.998 333.541 L 321.479 333.425 L 320.954 333.541 L 320.576 333.889 L 320.339 334.454 L 320.263 335.241 L 320.263 335.241 z M 320.747 335.241 L 320.788 334.63 L 320.914 334.192 L 321.141 333.934 L 321.479 333.844 L 321.812 333.934 L 322.039 334.192 L 322.165 334.63 L 322.205 335.241 L 322.165 335.856 L 322.039 336.295 L 321.812 336.552 L 321.479 336.638 L 321.141 336.552 L 320.914 336.295 L 320.788 335.856 L 320.747 335.241 L 320.747 335.241 z M 324.867 336.95 L 325.563 336.95 L 325.563 336.199 L 324.867 336.199 L 324.867 336.95 L 324.867 336.95 z M 329.228 336.95 L 329.682 336.95 L 329.682 336.083 L 330.181 336.083 L 330.181 335.679 L 329.682 335.679 L 329.682 333.526 L 329.223 333.526 L 327.69 335.639 L 327.69 336.083 L 329.228 336.083 L 329.228 336.95 L 329.228 336.95 z M 328.114 335.679 L 329.228 334.111 L 329.228 335.679 L 328.114 335.679 L 328.114 335.679 z" stroke="none" fill-rule="evenodd" fill="rgb(0, 0, 0)"/><path d="M 399.746 339.468 L 401.678 338.95 L 399.746 338.433"/><path d="M 243.211 338.433 L 241.279 338.95 L 243.211 339.468"/><path d="M 241.279 338.95 L 401.678 338.95"/></g></svg>