<?xml version="1.0" encoding="utf-8" ?><!DOCTYPE svg PUBLIC "-//W3C//DTD SVG 1.1//EN" "http://www.w3.org/Graphics/SVG/1.1/DTD/svg11.dtd" 
[ <!ATTLIST svg 
  xmlns:dsy CDATA #FIXED "http://www.3ds.com/print"  
    dsy:text-version CDATA #IMPLIED > 

  <!ATTLIST text 
  xmlns:dsy CDATA #FIXED "http://www.3ds.com/print" 
    dsy:text-version CDATA #IMPLIED > 
]><svg xmlns="http://www.w3.org/2000/svg" xmlns:dsy="http://www.3ds.com/print" dsy:text-version="18000" width="297" height="210" viewBox="0 0 297 210" version="1.1"><g stroke="rgb(0, 0, 0)" stroke-width="0.35" stroke-linecap="butt" stroke-linejoin="miter" fill="none"><path d="M 83.75 75 L 83.75 110"/><path d="M 213.25 75 L 83.75 75"/><path d="M 213.25 125 L 213.25 75"/><path d="M 203.25 125 L 213.25 125"/><path d="M 203.25 125 A 12.5 12.5 0 1 0 178.25 125"/><path d="M 178.25 125 L 178.25 135"/><path d="M 178.25 135 L 98.75 135"/><path d="M 98.75 135 L 98.75 125"/><path d="M 98.75 125 A 15 15 0 0 0 83.75 110"/><path d="M 193.25 87 L 187.35 87"/><path d="M 187.35 92.8 L 187.35 87"/><path d="M 187.35 92.8 L 193.25 92.8"/><path d="M 193.25 87 L 193.25 92.8"/><path d="M 99.65 87 L 93.75 87"/><path d="M 93.75 92.8 L 93.75 87"/><path d="M 93.75 92.8 L 99.65 92.8"/><path d="M 99.65 87 L 99.65 92.8"/></g><g stroke="rgb(0, 0, 0)" stroke-width="0.13" stroke-linecap="butt" stroke-linejoin="miter" fill="none"><path d="M 140.937 91.0522 L 141.396 91.0522 L 141.396 87.527 L 141.053 87.527 L 140.962 87.8346 L 140.781 88.0414 L 140.503 88.1625 L 140.12 88.2028 L 140.12 88.5609 L 140.937 88.5609 L 140.937 91.0522 L 140.937 91.0522 z M 143.533 91.0522 L 145.939 91.0522 L 145.939 90.6185 L 144.038 90.6185 L 144.144 90.3815 L 144.325 90.1848 L 144.885 89.8267 L 145.183 89.6754 L 145.515 89.4586 L 145.752 89.2064 L 145.889 88.9089 L 145.939 88.571 L 145.853 88.1473 L 145.616 87.8145 L 145.253 87.6027 L 144.784 87.527 L 144.3 87.6127 L 143.932 87.8498 L 143.695 88.228 L 143.614 88.7273 L 143.614 88.7979 L 144.073 88.7979 L 144.073 88.7576 L 144.118 88.4146 L 144.255 88.1625 L 144.471 88.0011 L 144.759 87.9456 L 145.051 87.996 L 145.268 88.1221 L 145.41 88.3188 L 145.46 88.5659 L 145.425 88.7979 L 145.329 88.9946 L 145.167 89.1661 L 144.946 89.3174 L 144.648 89.4787 L 144.154 89.7914 L 143.806 90.1243 L 143.599 90.5277 L 143.533 91.0371 L 143.533 91.0522 L 143.533 91.0522 z M 147.29 90.1848 L 147.365 90.5832 L 147.582 90.8908 L 147.925 91.0825 L 148.379 91.1531 L 148.677 91.1178 L 148.944 91.027 L 149.171 90.8707 L 149.362 90.6488 L 149.514 90.3714 L 149.625 90.0285 L 149.69 89.6351 L 149.715 89.1812 L 149.63 88.4701 L 149.383 87.9506 L 148.989 87.638 L 148.45 87.527 L 147.955 87.6178 L 147.582 87.8599 L 147.34 88.2331 L 147.259 88.7021 L 147.34 89.1862 L 147.577 89.5544 L 147.93 89.7864 L 148.379 89.862 L 148.853 89.7662 L 149.211 89.4737 L 149.13 90.0335 L 148.969 90.4319 L 148.722 90.6689 L 148.384 90.7446 L 148.122 90.7093 L 147.93 90.5983 L 147.804 90.4218 L 147.754 90.1848 L 147.29 90.1848 L 147.29 90.1848 z M 147.749 88.697 L 147.799 88.3844 L 147.94 88.1372 L 148.162 87.9809 L 148.45 87.9254 L 148.747 87.9809 L 148.974 88.1372 L 149.115 88.3793 L 149.171 88.692 L 149.115 89.0097 L 148.974 89.2467 L 148.742 89.393 L 148.434 89.4434 L 148.157 89.393 L 147.94 89.2467 L 147.799 89.0148 L 147.749 88.697 L 147.749 88.697 z M 151.888 91.0522 L 152.584 91.0522 L 152.584 90.3008 L 151.888 90.3008 L 151.888 91.0522 L 151.888 91.0522 z M 154.721 90.1394 L 154.832 90.5529 L 155.079 90.8757 L 155.443 91.0774 L 155.906 91.1531 L 156.416 91.0623 L 156.814 90.8152 L 157.066 90.4218 L 157.162 89.9175 L 157.077 89.4485 L 156.834 89.0803 L 156.456 88.8433 L 155.967 88.7576 L 155.589 88.8181 L 155.296 88.9845 L 155.437 88.0414 L 156.971 88.0414 L 156.971 87.6279 L 155.1 87.6279 L 154.822 89.4838 L 155.226 89.4838 L 155.518 89.2467 L 155.891 89.161 L 156.214 89.2165 L 156.461 89.3779 L 156.618 89.625 L 156.673 89.9427 L 156.618 90.2604 L 156.456 90.5076 L 156.209 90.6639 L 155.891 90.7194 L 155.624 90.6841 L 155.417 90.5681 L 155.266 90.3865 L 155.19 90.1394 L 154.721 90.1394 L 154.721 90.1394 z" stroke="none" fill-rule="evenodd" fill="rgb(0, 0, 0)"/><path d="M 211.318 93.5699 L 213.25 93.0522 L 211.318 92.5346"/><path d="M 85.6819 92.5346 L 83.75 93.0522 L 85.6819 93.5699"/><path d="M 83.75 93.0522 L 213.25 93.0522"/></g></svg>