<?xml version="1.0" encoding="utf-8" ?><!DOCTYPE svg PUBLIC "-//W3C//DTD SVG 1.1//EN" "http://www.w3.org/Graphics/SVG/1.1/DTD/svg11.dtd" 
[ <!ATTLIST svg 
  xmlns:dsy CDATA #FIXED "http://www.3ds.com/print"  
    dsy:text-version CDATA #IMPLIED > 

  <!ATTLIST text 
  xmlns:dsy CDATA #FIXED "http://www.3ds.com/print" 
    dsy:text-version CDATA #IMPLIED > 
]><svg xmlns="http://www.w3.org/2000/svg" xmlns:dsy="http://www.3ds.com/print" dsy:text-version="18000" width="297" height="210" viewBox="0 0 297 210" version="1.1"><g stroke="rgb(0, 0, 0)" stroke-width="0.13" stroke-linecap="butt" stroke-linejoin="miter" fill="none"><path d="M 149.37 118 L 164.232 118"/></g><g stroke="rgb(0, 0, 0)" stroke-width="0.35" stroke-linecap="butt" stroke-linejoin="miter" fill="none"><path d="M 182.5 118 L 114.5 118"/><path d="M 114.5 118 L 114.5 108"/><path d="M 114.5 108 L 106.5 108"/><path d="M 106.5 108 L 106.5 102"/><path d="M 106.5 102 L 114.5 102"/><path d="M 114.5 102 L 114.5 92"/><path d="M 114.5 92 L 182.5 92"/><path d="M 182.5 92 L 182.5 102"/><path d="M 182.5 102 L 190.5 102"/><path d="M 190.5 102 L 190.5 108"/><path d="M 190.5 108 L 182.5 108"/><path d="M 182.5 108 L 182.5 118"/></g><g stroke="rgb(0, 0, 0)" stroke-width="0.13" stroke-linecap="butt" stroke-linejoin="miter" fill="none"><path d="M 160.232 108.099 L 160.232 105.693 L 159.798 105.693 L 159.798 107.594 L 159.561 107.488 L 159.365 107.307 L 159.006 106.747 L 158.855 106.449 L 158.638 106.117 L 158.386 105.88 L 158.089 105.743 L 157.751 105.693 L 157.327 105.779 L 156.994 106.016 L 156.782 106.379 L 156.707 106.848 L 156.792 107.332 L 157.03 107.7 L 157.408 107.937 L 157.907 108.018 L 157.978 108.018 L 157.978 107.559 L 157.937 107.559 L 157.594 107.514 L 157.342 107.377 L 157.181 107.161 L 157.125 106.873 L 157.176 106.581 L 157.302 106.364 L 157.499 106.222 L 157.746 106.172 L 157.978 106.207 L 158.174 106.303 L 158.346 106.465 L 158.497 106.686 L 158.658 106.984 L 158.971 107.478 L 159.304 107.826 L 159.707 108.033 L 160.217 108.099 L 160.232 108.099 L 160.232 108.099 z M 157.675 101.922 L 157.267 102.017 L 156.964 102.239 L 156.772 102.582 L 156.707 103.026 L 156.742 103.324 L 156.838 103.581 L 156.994 103.808 L 157.216 103.999 L 157.493 104.151 L 157.831 104.262 L 158.23 104.332 L 158.679 104.352 L 159.395 104.272 L 159.914 104.025 L 160.227 103.626 L 160.333 103.082 L 160.242 102.592 L 160.005 102.219 L 159.632 101.977 L 159.158 101.891 L 158.679 101.977 L 158.311 102.209 L 158.079 102.567 L 157.998 103.011 L 158.099 103.49 L 158.386 103.848 L 157.831 103.772 L 157.433 103.611 L 157.196 103.364 L 157.115 103.021 L 157.156 102.769 L 157.262 102.577 L 157.438 102.451 L 157.675 102.386 L 157.675 101.922 L 157.675 101.922 z M 159.163 102.381 L 159.481 102.436 L 159.723 102.577 L 159.884 102.804 L 159.934 103.087 L 159.884 103.384 L 159.728 103.611 L 159.486 103.757 L 159.168 103.803 L 158.855 103.752 L 158.618 103.611 L 158.467 103.379 L 158.411 103.066 L 158.467 102.794 L 158.613 102.577 L 158.85 102.436 L 159.163 102.381 L 159.163 102.381 z" stroke="none" fill-rule="evenodd" fill="rgb(0, 0, 0)"/><path d="M 162.75 93.9319 L 162.232 92 L 161.714 93.9319"/><path d="M 161.714 116.068 L 162.232 118 L 162.75 116.068"/><path d="M 162.232 118 L 162.232 92"/></g></svg>