<?xml version="1.0" encoding="utf-8" ?><!DOCTYPE svg PUBLIC "-//W3C//DTD SVG 1.1//EN" "http://www.w3.org/Graphics/SVG/1.1/DTD/svg11.dtd" 
[ <!ATTLIST svg 
  xmlns:dsy CDATA #FIXED "http://www.3ds.com/print"  
    dsy:text-version CDATA #IMPLIED > 

  <!ATTLIST text 
  xmlns:dsy CDATA #FIXED "http://www.3ds.com/print" 
    dsy:text-version CDATA #IMPLIED > 
]><svg xmlns="http://www.w3.org/2000/svg" xmlns:dsy="http://www.3ds.com/print" dsy:text-version="18000" width="297" height="210" viewBox="0 0 297 210" version="1.1"><g stroke="rgb(0, 0, 0)" stroke-width="0.35" stroke-linecap="butt" stroke-linejoin="miter" fill="none"><path d="M 209.25 118 L 87.75 118"/><path d="M 87.75 118 L 87.75 108"/><path d="M 87.75 108 L 79.75 108"/><path d="M 79.75 108 L 79.75 102"/><path d="M 79.75 102 L 87.75 102"/><path d="M 87.75 102 L 87.75 92"/><path d="M 87.75 92 L 209.25 92"/><path d="M 209.25 92 L 209.25 102"/><path d="M 209.25 102 L 217.25 102"/><path d="M 217.25 102 L 217.25 108"/><path d="M 217.25 108 L 209.25 108"/><path d="M 209.25 108 L 209.25 118"/></g><g stroke="rgb(0, 0, 0)" stroke-width="0.13" stroke-linecap="butt" stroke-linejoin="miter" fill="none"><path d="M 174.549 108.099 L 174.549 105.693 L 174.115 105.693 L 174.115 107.594 L 173.878 107.488 L 173.681 107.307 L 173.323 106.747 L 173.172 106.449 L 172.955 106.117 L 172.703 105.88 L 172.405 105.743 L 172.067 105.693 L 171.644 105.779 L 171.311 106.016 L 171.099 106.379 L 171.023 106.848 L 171.109 107.332 L 171.346 107.7 L 171.724 107.937 L 172.224 108.018 L 172.294 108.018 L 172.294 107.559 L 172.254 107.559 L 171.911 107.514 L 171.659 107.377 L 171.498 107.161 L 171.442 106.873 L 171.492 106.581 L 171.619 106.364 L 171.815 106.222 L 172.062 106.172 L 172.294 106.207 L 172.491 106.303 L 172.663 106.465 L 172.814 106.686 L 172.975 106.984 L 173.288 107.478 L 173.621 107.826 L 174.024 108.033 L 174.534 108.099 L 174.549 108.099 L 174.549 108.099 z M 171.992 101.922 L 171.583 102.017 L 171.281 102.239 L 171.089 102.582 L 171.023 103.026 L 171.059 103.324 L 171.155 103.581 L 171.311 103.808 L 171.533 103.999 L 171.81 104.151 L 172.148 104.262 L 172.547 104.332 L 172.995 104.352 L 173.712 104.272 L 174.231 104.025 L 174.544 103.626 L 174.65 103.082 L 174.559 102.592 L 174.322 102.219 L 173.949 101.977 L 173.474 101.891 L 172.995 101.977 L 172.627 102.209 L 172.395 102.567 L 172.315 103.011 L 172.415 103.49 L 172.703 103.848 L 172.148 103.772 L 171.75 103.611 L 171.513 103.364 L 171.432 103.021 L 171.472 102.769 L 171.578 102.577 L 171.755 102.451 L 171.992 102.386 L 171.992 101.922 L 171.992 101.922 z M 173.48 102.381 L 173.797 102.436 L 174.039 102.577 L 174.201 102.804 L 174.251 103.087 L 174.201 103.384 L 174.044 103.611 L 173.802 103.757 L 173.485 103.803 L 173.172 103.752 L 172.935 103.611 L 172.784 103.379 L 172.728 103.066 L 172.784 102.794 L 172.93 102.577 L 173.167 102.436 L 173.48 102.381 L 173.48 102.381 z" stroke="none" fill-rule="evenodd" fill="rgb(0, 0, 0)"/><path d="M 177.066 93.9319 L 176.549 92 L 176.031 93.9319"/><path d="M 176.031 116.068 L 176.549 118 L 177.066 116.068"/><path d="M 176.549 118 L 176.549 92"/></g></svg>