<?xml version="1.0" encoding="utf-8" ?><!DOCTYPE svg PUBLIC "-//W3C//DTD SVG 1.1//EN" "http://www.w3.org/Graphics/SVG/1.1/DTD/svg11.dtd" 
[ <!ATTLIST svg 
  xmlns:dsy CDATA #FIXED "http://www.3ds.com/print"  
    dsy:text-version CDATA #IMPLIED > 

  <!ATTLIST text 
  xmlns:dsy CDATA #FIXED "http://www.3ds.com/print" 
    dsy:text-version CDATA #IMPLIED > 
]><svg xmlns="http://www.w3.org/2000/svg" xmlns:dsy="http://www.3ds.com/print" dsy:text-version="18000" width="297" height="210" viewBox="0 0 297 210" version="1.1"><g stroke="rgb(0, 0, 0)" stroke-width="0.35" stroke-linecap="butt" stroke-linejoin="miter" fill="none"><path d="M 114.5 122.5 L 182.5 122.5"/><path d="M 182.5 122.5 L 182.5 108.5"/><path d="M 182.5 108.5 L 190.5 108.5"/><path d="M 190.5 108.5 L 190.5 102.5"/><path d="M 190.5 102.5 L 182.5 102.5"/><path d="M 182.5 102.5 L 182.5 87.5"/><path d="M 182.5 87.5 L 172.5 87.5"/><path d="M 124.5 87.5 A 24 24 0 1 0 172.5 87.5"/><path d="M 124.5 87.5 L 114.5 87.5"/><path d="M 114.5 87.5 L 114.5 102.5"/><path d="M 114.5 102.5 L 106.5 102.5"/><path d="M 106.5 102.5 L 106.5 108.5"/><path d="M 106.5 108.5 L 114.5 108.5"/><path d="M 114.5 108.5 L 114.5 122.5"/></g><g stroke="rgb(0, 0, 0)" stroke-width="0.13" stroke-linecap="butt" stroke-linejoin="miter" fill="none"><path d="M 173.792 108.139 L 173.827 108.139 L 174.312 108.058 L 174.675 107.821 L 174.907 107.448 L 174.992 106.954 L 174.907 106.429 L 174.685 106.036 L 174.332 105.784 L 173.878 105.693 L 173.58 105.733 L 173.338 105.844 L 173.152 106.026 L 173.016 106.268 L 172.743 105.94 L 172.309 105.824 L 171.916 105.9 L 171.619 106.117 L 171.432 106.47 L 171.366 106.954 L 171.447 107.408 L 171.669 107.756 L 172.022 107.983 L 172.491 108.058 L 172.526 108.058 L 172.526 107.609 L 172.204 107.569 L 171.972 107.438 L 171.83 107.226 L 171.78 106.929 L 171.82 106.666 L 171.926 106.475 L 172.098 106.359 L 172.33 106.313 L 172.577 106.359 L 172.743 106.48 L 172.844 106.691 L 172.874 106.979 L 172.869 107.176 L 173.268 107.176 L 173.258 106.929 L 173.303 106.611 L 173.424 106.374 L 173.621 106.233 L 173.878 106.182 L 174.17 106.238 L 174.387 106.384 L 174.523 106.616 L 174.569 106.923 L 174.518 107.241 L 174.367 107.473 L 174.125 107.619 L 173.792 107.675 L 173.792 108.139 L 173.792 108.139 z M 173.979 104.383 L 174.392 104.272 L 174.715 104.025 L 174.917 103.662 L 174.992 103.198 L 174.902 102.688 L 174.655 102.29 L 174.261 102.038 L 173.757 101.942 L 173.288 102.028 L 172.92 102.27 L 172.683 102.648 L 172.597 103.137 L 172.657 103.515 L 172.824 103.808 L 171.881 103.667 L 171.881 102.133 L 171.467 102.133 L 171.467 104.004 L 173.323 104.282 L 173.323 103.878 L 173.086 103.586 L 173 103.213 L 173.056 102.89 L 173.217 102.643 L 173.464 102.486 L 173.782 102.431 L 174.1 102.486 L 174.347 102.648 L 174.503 102.895 L 174.559 103.213 L 174.523 103.48 L 174.407 103.687 L 174.226 103.838 L 173.979 103.914 L 173.979 104.383 L 173.979 104.383 z" stroke="none" fill-rule="evenodd" fill="rgb(0, 0, 0)"/><path d="M 177.409 89.4319 L 176.892 87.5 L 176.374 89.4319"/><path d="M 176.374 120.568 L 176.892 122.5 L 177.409 120.568"/><path d="M 176.892 122.5 L 176.892 87.5"/></g></svg>