<?xml version="1.0" encoding="utf-8" ?><!DOCTYPE svg PUBLIC "-//W3C//DTD SVG 1.1//EN" "http://www.w3.org/Graphics/SVG/1.1/DTD/svg11.dtd" 
[ <!ATTLIST svg 
  xmlns:dsy CDATA #FIXED "http://www.3ds.com/print"  
    dsy:text-version CDATA #IMPLIED > 

  <!ATTLIST text 
  xmlns:dsy CDATA #FIXED "http://www.3ds.com/print" 
    dsy:text-version CDATA #IMPLIED > 
]><svg xmlns="http://www.w3.org/2000/svg" xmlns:dsy="http://www.3ds.com/print" dsy:text-version="18000" width="594" height="420" viewBox="0 0 594 420" version="1.1"><g stroke="rgb(0, 0, 0)" stroke-width="0.13" stroke-linecap="butt" stroke-linejoin="miter" fill="none"><path d="M 174.714 317.521 L 174.714 198.245"/><path d="M 414.286 17.4788 L 414.286 202.245"/></g><g stroke="rgb(0, 0, 0)" stroke-width="0.35" stroke-linecap="butt" stroke-linejoin="miter" fill="none"><path d="M 289.214 409.521 L 209.714 409.521"/><path d="M 209.714 409.521 A 12.5 12.5 0 1 0 184.714 409.521"/><path d="M 304.747 394.531 A 15 15 0 0 0 289.214 409.521"/><path d="M 200.614 371.521 L 194.714 371.521"/><path d="M 194.714 377.321 L 194.714 371.521"/><path d="M 194.714 377.321 L 200.614 377.321"/><path d="M 200.614 371.521 L 200.614 377.321"/><path d="M 294.214 377.321 L 294.214 371.521"/><path d="M 294.214 371.521 L 288.314 371.521"/><path d="M 288.314 377.321 L 288.314 371.521"/><path d="M 288.314 377.321 L 294.214 377.321"/><path d="M 400.119 29.8872 L 394.507 31.7104"/><path d="M 394.507 31.7104 L 396.3 37.2265"/><path d="M 396.3 37.2265 L 401.911 35.4033"/><path d="M 401.911 35.4033 L 400.119 29.8872"/><path d="M 373.489 38.5396 L 367.878 40.3629"/><path d="M 367.878 40.3629 L 369.67 45.879"/><path d="M 369.67 45.879 L 375.281 44.0558"/><path d="M 375.281 44.0558 L 373.489 38.5396"/><path d="M 354.364 24.3355 L 359.975 22.5123"/><path d="M 356.156 29.8516 L 354.364 24.3355"/><path d="M 361.767 28.0284 L 356.156 29.8516"/><path d="M 359.975 22.5123 L 361.767 28.0284"/><path d="M 324.997 159.938 L 319.098 159.938"/><path d="M 319.098 165.738 L 319.098 159.938"/><path d="M 319.098 165.738 L 324.997 165.738"/><path d="M 324.997 159.938 L 324.997 165.738"/><path d="M 278.977 289.826 L 273.077 289.826"/><path d="M 273.077 295.626 L 273.077 289.826"/><path d="M 273.077 295.626 L 278.977 295.626"/><path d="M 278.977 289.826 L 278.977 295.626"/><path d="M 277.585 371.988 L 271.685 371.988"/><path d="M 271.685 377.788 L 271.685 371.988"/><path d="M 271.685 377.788 L 277.585 377.788"/><path d="M 277.585 371.988 L 277.585 377.788"/><path d="M 212.842 371.988 L 206.942 371.988"/><path d="M 206.942 377.788 L 206.942 371.988"/><path d="M 206.942 377.788 L 212.842 377.788"/><path d="M 212.842 371.988 L 212.842 377.788"/><path d="M 319.747 304.531 L 419.012 17.111"/><path d="M 419.012 17.111 A 5 5 0 0 0 412.567 10.7838"/><path d="M 350.016 13.9867 L 174.714 319.521"/><path d="M 355.916 11.7255 A 86.2985 86.2985 0 0 0 412.567 10.7838"/><path d="M 355.916 11.7255 A 5 5 0 0 0 350.016 13.9867"/><path d="M 319.747 389.531 L 319.747 304.531"/><path d="M 304.747 394.531 L 314.747 394.531"/><path d="M 314.747 394.531 A 5 5 0 0 0 319.747 389.531"/><path d="M 184.714 409.521 L 179.714 409.521"/><path d="M 174.714 404.521 L 174.714 319.521"/><path d="M 174.714 404.521 A 5 5 0 0 0 179.714 409.521"/></g><g stroke="rgb(0, 0, 0)" stroke-width="0.13" stroke-linecap="butt" stroke-linejoin="miter" fill="none"><path d="M 298.263 420.01 L 297.615 417.873 L 297.136 417.873 L 297.825 420.01 L 298.263 420.01 z M 299.875 417.873 L 299.396 417.873 L 298.767 420.01 L 299.201 420.01 L 299.875 417.873 z M 302.598 418.669 L 302.154 418.669 L 302.154 420.01 L 302.598 420.01 L 302.598 418.669 z M 300.939 418.669 L 300.495 418.669 L 300.495 420.01 L 300.939 420.01 L 300.939 418.669 z M 305.715 419.945 L 305.634 419.366 L 305.412 418.932 L 305.059 418.669 L 304.59 418.574 L 304.131 418.675 L 303.778 418.957 L 303.551 419.416 L 303.472 420.01 L 305.713 420.01 L 305.715 419.945 z M 303.934 419.779 L 303.99 419.431 L 304.126 419.174 L 304.333 419.018 L 304.605 418.962 L 304.873 419.018 L 305.079 419.174 L 305.205 419.431 L 305.251 419.779 L 303.934 419.779 L 303.934 419.779 z M 311.727 417.757 L 311.288 417.757 L 311.288 419.083 L 310.95 418.7 L 310.743 418.609 L 310.506 418.574 L 310.077 418.675 L 309.744 418.957 L 309.527 419.411 L 309.453 420.01 L 311.727 420.01 L 311.727 417.757 z M 310.304 419.043 L 310.582 418.972 L 310.874 419.043 L 311.096 419.239 L 311.227 419.567 L 311.276 420.01 L 309.907 420.01 L 309.951 419.572 L 310.092 419.245 L 310.304 419.043 z M 314.823 419.945 L 314.742 419.366 L 314.521 418.932 L 314.167 418.669 L 313.698 418.574 L 313.239 418.675 L 312.886 418.957 L 312.659 419.416 L 312.58 420.01 L 314.821 420.01 L 314.823 419.945 z M 313.043 419.779 L 313.098 419.431 L 313.234 419.174 L 313.441 419.018 L 313.713 418.962 L 313.981 419.018 L 314.187 419.174 L 314.314 419.431 L 314.359 419.779 L 313.043 419.779 L 313.043 419.779 z M 319.786 419.139 L 320.794 419.139 L 320.794 418.76 L 319.786 418.76 L 319.786 418.594 L 319.821 418.392 L 319.937 418.256 L 320.133 418.175 L 320.416 418.145 L 320.794 418.166 L 320.794 417.782 L 320.315 417.757 L 319.881 417.802 L 319.579 417.938 L 319.397 418.175 L 319.342 418.513 L 319.342 418.76 L 318.53 418.76 L 318.53 419.139 L 319.342 419.139 L 319.342 420.01 L 319.786 420.01 L 319.786 419.139 z M 323.765 419.391 L 323.704 419.033 L 323.527 418.781 L 323.22 418.629 L 322.786 418.574 L 322.362 418.634 L 322.05 418.806 L 321.853 419.073 L 321.788 419.426 L 321.788 419.457 L 322.186 419.457 L 322.221 419.245 L 322.332 419.093 L 322.514 419.002 L 322.771 418.967 L 323.018 418.992 L 323.195 419.068 L 323.301 419.199 L 323.336 419.381 L 323.316 419.592 L 323.235 419.698 L 323.033 419.749 L 322.655 419.789 L 322.221 419.88 L 321.974 420.01 L 323.765 420.01 L 323.765 419.391 z M 323.294 420.01 L 323.321 420.001 L 323.321 420.01 L 323.294 420.01 z M 326.523 419.567 L 326.962 419.567 L 326.871 419.164 L 326.654 418.846 L 326.316 418.649 L 325.878 418.574 L 325.394 418.675 L 325.025 418.957 L 324.793 419.416 L 324.716 420.01 L 325.167 420.01 L 325.212 419.563 L 325.353 419.234 L 325.58 419.033 L 325.878 418.962 L 326.14 419.007 L 326.336 419.124 L 326.468 419.315 L 326.523 419.567 z M 330.003 419.945 L 329.922 419.366 L 329.701 418.932 L 329.348 418.669 L 328.878 418.574 L 328.419 418.675 L 328.066 418.957 L 327.839 419.416 L 327.76 420.01 L 330.001 420.01 L 330.003 419.945 z M 328.223 419.779 L 328.278 419.431 L 328.414 419.174 L 328.621 419.018 L 328.894 418.962 L 329.161 419.018 L 329.368 419.174 L 329.494 419.431 L 329.539 419.779 L 328.223 419.779 L 328.223 419.779 z" stroke="none" fill-rule="evenodd" fill="rgb(0, 0, 0)"/></g><g stroke="rgb(0, 0, 0)" stroke-width="0.13" stroke-linecap="butt" stroke-linejoin="miter" fill="none"><path d="M 283.929 198.245 L 286.335 198.245 L 286.335 197.811 L 284.434 197.811 L 284.54 197.574 L 284.721 197.377 L 285.281 197.019 L 285.579 196.868 L 285.911 196.651 L 286.148 196.399 L 286.285 196.101 L 286.335 195.763 L 286.249 195.34 L 286.012 195.007 L 285.649 194.795 L 285.18 194.719 L 284.696 194.805 L 284.328 195.042 L 284.091 195.42 L 284.01 195.92 L 284.01 195.99 L 284.469 195.99 L 284.469 195.95 L 284.514 195.607 L 284.651 195.355 L 284.867 195.193 L 285.155 195.138 L 285.447 195.188 L 285.664 195.314 L 285.805 195.511 L 285.856 195.758 L 285.821 195.99 L 285.725 196.187 L 285.563 196.358 L 285.341 196.51 L 285.044 196.671 L 284.55 196.984 L 284.202 197.317 L 283.995 197.72 L 283.929 198.229 L 283.929 198.245 L 283.929 198.245 z M 287.625 197.145 L 287.625 197.18 L 287.706 197.665 L 287.943 198.028 L 288.316 198.26 L 288.81 198.345 L 289.335 198.26 L 289.728 198.038 L 289.98 197.685 L 290.071 197.231 L 290.031 196.933 L 289.92 196.691 L 289.738 196.505 L 289.496 196.369 L 289.824 196.096 L 289.94 195.662 L 289.864 195.269 L 289.647 194.972 L 289.294 194.785 L 288.81 194.719 L 288.356 194.8 L 288.008 195.022 L 287.781 195.375 L 287.706 195.844 L 287.706 195.879 L 288.155 195.879 L 288.195 195.557 L 288.326 195.325 L 288.538 195.183 L 288.835 195.133 L 289.098 195.173 L 289.289 195.279 L 289.405 195.451 L 289.451 195.683 L 289.405 195.93 L 289.284 196.096 L 289.072 196.197 L 288.785 196.227 L 288.588 196.222 L 288.588 196.621 L 288.835 196.611 L 289.153 196.656 L 289.39 196.777 L 289.531 196.974 L 289.582 197.231 L 289.526 197.523 L 289.38 197.74 L 289.148 197.876 L 288.84 197.922 L 288.523 197.871 L 288.291 197.72 L 288.145 197.478 L 288.089 197.145 L 287.625 197.145 L 287.625 197.145 z M 291.422 197.377 L 291.497 197.776 L 291.714 198.083 L 292.057 198.275 L 292.511 198.345 L 292.808 198.31 L 293.076 198.219 L 293.303 198.063 L 293.494 197.841 L 293.646 197.564 L 293.757 197.221 L 293.822 196.827 L 293.847 196.374 L 293.762 195.662 L 293.515 195.143 L 293.121 194.83 L 292.582 194.719 L 292.087 194.81 L 291.714 195.052 L 291.472 195.425 L 291.391 195.894 L 291.472 196.379 L 291.709 196.747 L 292.062 196.979 L 292.511 197.054 L 292.985 196.959 L 293.343 196.666 L 293.262 197.226 L 293.101 197.624 L 292.854 197.861 L 292.516 197.937 L 292.254 197.902 L 292.062 197.791 L 291.936 197.614 L 291.886 197.377 L 291.422 197.377 L 291.422 197.377 z M 291.881 195.889 L 291.931 195.577 L 292.072 195.33 L 292.294 195.173 L 292.582 195.118 L 292.879 195.173 L 293.106 195.33 L 293.247 195.572 L 293.303 195.884 L 293.247 196.202 L 293.106 196.439 L 292.874 196.585 L 292.566 196.636 L 292.289 196.585 L 292.072 196.439 L 291.931 196.207 L 291.881 195.889 L 291.881 195.889 z M 296.02 198.245 L 296.716 198.245 L 296.716 197.493 L 296.02 197.493 L 296.02 198.245 L 296.02 198.245 z M 298.853 197.332 L 298.964 197.745 L 299.211 198.068 L 299.574 198.27 L 300.038 198.345 L 300.548 198.255 L 300.946 198.008 L 301.198 197.614 L 301.294 197.11 L 301.208 196.641 L 300.966 196.273 L 300.588 196.036 L 300.099 195.95 L 299.721 196.01 L 299.428 196.177 L 299.569 195.234 L 301.103 195.234 L 301.103 194.82 L 299.232 194.82 L 298.954 196.676 L 299.358 196.676 L 299.65 196.439 L 300.023 196.353 L 300.346 196.409 L 300.593 196.57 L 300.75 196.817 L 300.805 197.135 L 300.75 197.453 L 300.588 197.7 L 300.341 197.856 L 300.023 197.912 L 299.756 197.876 L 299.549 197.76 L 299.398 197.579 L 299.322 197.332 L 298.853 197.332 L 298.853 197.332 z M 303.139 198.245 L 303.648 198.245 L 303.815 197.412 L 304.107 196.636 L 304.521 195.915 L 305.06 195.239 L 305.06 194.82 L 302.66 194.82 L 302.66 195.279 L 304.576 195.279 L 304.022 195.96 L 303.603 196.671 L 303.31 197.428 L 303.139 198.245 L 303.139 198.245 z" stroke="none" fill-rule="evenodd" fill="rgb(0, 0, 0)"/><path d="M 412.354 200.762 L 414.286 200.245 L 412.354 199.727"/><path d="M 176.646 199.727 L 174.714 200.245 L 176.646 200.762"/><path d="M 174.714 200.245 L 414.286 200.245"/></g><g stroke="rgb(0, 0, 0)" stroke-width="0.13" stroke-linecap="butt" stroke-linejoin="miter" fill="none"><path d="M 396.748 21.7188 L 397.043 22.0288 L 397.415 22.194 L 397.83 22.1974 L 398.274 22.0418 L 398.677 21.7184 L 398.909 21.3108 L 398.942 20.8447 L 398.785 20.356 L 398.485 19.9852 L 398.097 19.7777 L 397.651 19.7506 L 397.18 19.9094 L 396.877 20.1435 L 396.7 20.4296 L 396.373 19.5339 L 397.719 18.8003 L 397.521 18.4372 L 395.878 19.3325 L 396.523 21.0948 L 396.877 20.9018 L 397.02 20.5537 L 397.307 20.2998 L 397.617 20.1941 L 397.911 20.2176 L 398.167 20.3598 L 398.367 20.6122 L 398.471 20.9178 L 398.447 21.2119 L 398.305 21.4675 L 398.053 21.6682 L 397.801 21.7651 L 397.564 21.7622 L 397.344 21.6752 L 397.16 21.4944 L 396.748 21.7188 L 396.748 21.7188 z" stroke="none" fill-rule="evenodd" fill="rgb(0, 0, 0)"/></g><g stroke="rgb(0, 0, 0)" stroke-width="0.13" stroke-linecap="butt" stroke-linejoin="miter" fill="none"><path d="M 393.751 24.3912 L 394.163 24.1668 L 393.456 22.8693 L 393.877 22.64 L 394.194 22.4844 L 394.423 22.4402 L 394.609 22.5284 L 394.795 22.7656 L 395.035 23.1521 L 395.203 23.3989 L 395.341 23.5249 L 395.806 23.2715 L 395.76 23.1874 L 395.591 23.1189 L 395.43 22.9079 L 395.129 22.4288 L 394.853 22.1023 L 394.688 22.0427 L 394.483 22.0454 L 394.6 21.8382 L 394.64 21.6156 L 394.613 21.3773 L 394.512 21.1281 L 394.247 20.7899 L 393.918 20.6075 L 393.534 20.5984 L 393.104 20.7581 L 392.077 21.3179 L 393.751 24.3912 L 393.751 24.3912 z M 393.194 21.1972 L 393.479 21.0766 L 393.715 21.057 L 393.919 21.1468 L 394.091 21.3687 L 394.187 21.6496 L 394.152 21.8698 L 393.992 22.0605 L 393.725 22.2346 L 393.251 22.4929 L 392.694 21.4699 L 393.194 21.1972 L 393.194 21.1972 z" stroke="none" fill-rule="evenodd" fill="rgb(0, 0, 0)"/><path d="M 417.228 14.4652 L 418.677 13.0863 L 416.733 13.5562"/><path d="M 418.677 13.0863 L 394.363 26.3356"/></g></svg>