<?xml version="1.0" encoding="UTF-8" standalone="no"?>
<svg
   xmlns:dc="http://purl.org/dc/elements/1.1/"
   xmlns:cc="http://creativecommons.org/ns#"
   xmlns:rdf="http://www.w3.org/1999/02/22-rdf-syntax-ns#"
   xmlns:svg="http://www.w3.org/2000/svg"
   xmlns="http://www.w3.org/2000/svg"
   xmlns:sodipodi="http://sodipodi.sourceforge.net/DTD/sodipodi-0.dtd"
   xmlns:inkscape="http://www.inkscape.org/namespaces/inkscape"
   width="377.09921"
   height="171.64157"
   id="svg16792"
   version="1.1"
   inkscape:version="0.91 r13725"
   sodipodi:docname="Basculeur.svg">
  <metadata
     id="metadata16865">
    <rdf:RDF>
      <cc:Work
         rdf:about="">
        <dc:format>image/svg+xml</dc:format>
        <dc:type
           rdf:resource="http://purl.org/dc/dcmitype/StillImage" />
        <dc:title></dc:title>
      </cc:Work>
    </rdf:RDF>
  </metadata>
  <sodipodi:namedview
     pagecolor="#ffffff"
     bordercolor="#666666"
     borderopacity="1"
     objecttolerance="10"
     gridtolerance="10"
     guidetolerance="10"
     inkscape:pageopacity="0"
     inkscape:pageshadow="2"
     inkscape:window-width="1920"
     inkscape:window-height="1001"
     id="namedview16863"
     showgrid="false"
     fit-margin-top="0.3"
     fit-margin-left="0.3"
     fit-margin-right="0.3"
     fit-margin-bottom="0.3"
     inkscape:zoom="0.89702957"
     inkscape:cx="421.10329"
     inkscape:cy="373.23757"
     inkscape:window-x="-9"
     inkscape:window-y="-9"
     inkscape:window-maximized="1"
     inkscape:current-layer="g16811" />
  <desc
     id="desc16794">C:\Users\Christophe\Documents\Vulcanix-CAD\SU - Suspension\LASER CUT\Part4.DXF - scale = 1.000000, origin = (0.000000, 0.000000), auto = False</desc>
  <defs
     id="defs16796">
    <marker
       refY="0"
       refX="0"
       style="overflow:visible"
       id="DistanceX"
       orient="auto">
      <path
         style="stroke:#000000;stroke-width:0.5"
         d="M 3,-3 -3,3 M 0,-5 0,5"
         id="path16799"
         inkscape:connector-curvature="0" />
    </marker>
    <pattern
       height="8"
       width="8"
       patternUnits="userSpaceOnUse"
       y="0"
       x="0"
       id="Hatch">
      <path
         linecap="square"
         stroke="#000000"
         stroke-width="0.25"
         d="M8 4 l-4,4"
         id="path16802" />
      <path
         linecap="square"
         stroke="#000000"
         stroke-width="0.25"
         d="M6 2 l-4,4"
         id="path16804" />
      <path
         linecap="square"
         stroke="#000000"
         stroke-width="0.25"
         d="M4 0 l-4,4"
         id="path16806" />
    </pattern>
    <symbol
       id="*Model_Space" />
    <symbol
       id="*Paper_Space" />
    <symbol
       id="*Paper_Space0" />
  </defs>
  <g
     inkscape:label="0"
     inkscape:groupmode="layer"
     id="g16811"
     transform="translate(277.12851,-916.9633)">
    <path
       style="fill:none;stroke:#000000;stroke-width:0.89999998;stroke-linecap:round"
       d="m 17.716535,1052.3622 a 17.716535,17.716535 0 1 0 -35.43307,0 17.716535,17.716535 0 1 0 35.43307,0 z"
       id="path16813"
       inkscape:connector-curvature="0" />
    <path
       style="fill:none;stroke:#000000;stroke-width:0.89999998;stroke-linecap:round"
       d="m -233.85827,1016.9291 a 14.173228,14.173228 0 1 0 -28.34645,0 14.173228,14.173228 0 1 0 28.34645,0 z"
       id="path16815"
       inkscape:connector-curvature="0" />
    <path
       style="fill:none;stroke:#000000;stroke-width:0.89999998;stroke-linecap:round"
       d="m 85.03937,946.06299 a 14.173229,14.173229 0 1 0 -28.346457,0 14.173229,14.173229 0 1 0 28.346457,0 z"
       id="path16817"
       inkscape:connector-curvature="0" />
    <path
       style="fill:none;stroke:#000000;stroke-width:0.89999998;stroke-linecap:round"
       d="m -135.82276,1006.5128 a 6.202984,6.202984 0 0 0 0.46838,12.1959"
       id="path16819"
       inkscape:connector-curvature="0" />
    <path
       style="fill:none;stroke:#000000;stroke-width:0.89999998;stroke-linecap:round"
       d="m 21.185973,971.622 -157.008733,34.8908"
       id="path16821"
       inkscape:connector-curvature="0" />
    <path
       style="fill:none;stroke:#000000;stroke-width:0.89999998;stroke-linecap:round"
       d="M 29.096381,983.16648 A 7.541042,7.541042 0 0 0 21.185973,971.622"
       id="path16823"
       inkscape:connector-curvature="0" />
    <path
       style="fill:none;stroke:#000000;stroke-width:0.89999998;stroke-linecap:round"
       d="m 29.037638,983.2546 0.05874,-0.0881"
       id="path16825"
       inkscape:connector-curvature="0" />
    <path
       style="fill:none;stroke:#000000;stroke-width:0.89999998;stroke-linecap:round"
       d="M -70.863993,1027.9217 A 102.62408,102.62408 0 0 0 29.037638,983.2546"
       id="path16827"
       inkscape:connector-curvature="0" />
    <path
       style="fill:none;stroke:#000000;stroke-width:0.89999998;stroke-linecap:round"
       d="m -135.35438,1018.7087 64.490387,9.213"
       id="path16829"
       inkscape:connector-curvature="0" />
    <path
       style="fill:none;stroke:#000000;stroke-width:0.89999998;stroke-linecap:round"
       d="m -242.5964,989.10861 a 28.346457,28.346457 0 1 0 -2.08159,55.96789"
       id="path16831"
       inkscape:connector-curvature="0" />
    <path
       style="fill:none;stroke:#000000;stroke-width:0.89999998;stroke-linecap:round"
       d="m -142.91503,1046.2629 a 391.8098,391.8098 0 0 0 -101.76296,-1.1864"
       id="path16833"
       inkscape:connector-curvature="0" />
    <path
       style="fill:none;stroke:#000000;stroke-width:0.89999998;stroke-linecap:round"
       d="m -142.91503,1046.2629 50.135695,7.1622"
       id="path16835"
       inkscape:connector-curvature="0" />
    <path
       style="fill:none;stroke:#000000;stroke-width:0.89999998;stroke-linecap:round"
       d="m -19.935207,1081.6554 a 172.94654,172.94654 0 0 0 -72.844128,-28.2303"
       id="path16837"
       inkscape:connector-curvature="0" />
    <path
       style="fill:none;stroke:#000000;stroke-width:0.89999998;stroke-linecap:round"
       d="m -19.935207,1081.6554 a 35.433071,35.433071 0 0 0 55.334195,-30.8469"
       id="path16839"
       inkscape:connector-curvature="0" />
    <path
       style="fill:none;stroke:#000000;stroke-width:0.89999998;stroke-linecap:round"
       d="m 47.869546,1006.109 a 74.679443,74.679443 0 0 0 -12.470558,44.6995"
       id="path16841"
       inkscape:connector-curvature="0" />
    <path
       style="fill:none;stroke:#000000;stroke-width:0.89999998;stroke-linecap:round"
       d="m 47.869546,1006.109 10.86938,-16.30403"
       id="path16843"
       inkscape:connector-curvature="0" />
    <path
       style="fill:none;stroke:#000000;stroke-width:0.89999998;stroke-linecap:round"
       d="M 80.524587,972.71325 A 44.340922,44.340922 0 0 0 58.738926,989.80497"
       id="path16845"
       inkscape:connector-curvature="0" />
    <path
       style="fill:none;stroke:#000000;stroke-width:0.89999998;stroke-linecap:round"
       d="M 80.524587,972.71325 A 28.346457,28.346457 0 1 0 55.251598,922.40485"
       id="path16847"
       inkscape:connector-curvature="0" />
    <path
       style="fill:none;stroke:#000000;stroke-width:0.89999998;stroke-linecap:round"
       d="m -7.238243,948.90055 a 187.14244,187.14244 0 0 0 62.489841,-26.4957"
       id="path16849"
       inkscape:connector-curvature="0" />
    <path
       style="fill:none;stroke:#000000;stroke-width:0.89999998;stroke-linecap:round"
       d="M -7.238243,948.90055 -184.82924,988.36522"
       id="path16851"
       inkscape:connector-curvature="0" />
    <path
       style="fill:none;stroke:#000000;stroke-width:0.89999998;stroke-linecap:round"
       d="m -242.5964,989.10861 a 141.35454,141.35454 0 0 0 57.76716,-0.74339"
       id="path16853"
       inkscape:connector-curvature="0" />
  </g>
</svg>
