<?xml version="1.0" encoding="utf-8" ?><!DOCTYPE svg PUBLIC "-//W3C//DTD SVG 1.1//EN" "http://www.w3.org/Graphics/SVG/1.1/DTD/svg11.dtd" 
[ <!ATTLIST svg 
  xmlns:dsy CDATA #FIXED "http://www.3ds.com/print"  
    dsy:text-version CDATA #IMPLIED > 

  <!ATTLIST text 
  xmlns:dsy CDATA #FIXED "http://www.3ds.com/print" 
    dsy:text-version CDATA #IMPLIED > 
]><svg xmlns="http://www.w3.org/2000/svg" xmlns:dsy="http://www.3ds.com/print" dsy:text-version="18000" width="297" height="210" viewBox="0 0 297 210" version="1.1"><g stroke="rgb(0, 0, 0)" stroke-width="0.13" stroke-linecap="butt" stroke-linejoin="miter" fill="none"><path d="M 127.8 71.6176 L 127.8 53.5486"/><path d="M 169.2 71.6176 L 169.2 53.5486"/></g><g stroke="rgb(0, 0, 0)" stroke-width="0.35" stroke-linecap="butt" stroke-linejoin="miter" fill="none"><path d="M 159.2 71.6176 L 159.2 91.6176"/><path d="M 159.2 91.6176 L 153.5 91.6176"/><path d="M 153.5 91.6176 L 153.5 71.6176"/><path d="M 153.5 71.6176 L 148.5 71.6176"/><path d="M 143.5 71.6176 L 148.5 71.6176"/><path d="M 143.5 91.6176 L 143.5 71.6176"/><path d="M 137.8 91.6176 L 143.5 91.6176"/><path d="M 137.8 71.6176 L 137.8 91.6176"/><path d="M 145.65 112.618 L 151.35 112.618"/><path d="M 151.35 118.318 L 151.35 112.618"/><path d="M 151.35 118.318 L 145.65 118.318"/><path d="M 145.65 112.618 L 145.65 118.318"/><path d="M 167.2 71.6176 L 159.2 71.6176"/><path d="M 169.2 73.6176 A 2 2 0 0 0 167.2 71.6176"/><path d="M 129.8 71.6176 L 137.8 71.6176"/><path d="M 129.8 71.6176 A 2 2 0 0 0 127.8 73.6176"/><path d="M 134.978 138.382 A 2 2 0 0 0 136.843 137.104"/><path d="M 160.157 137.104 A 12.5 12.5 0 0 0 136.843 137.104"/><path d="M 160.157 137.104 A 2 2 0 0 0 162.022 138.382"/><path d="M 169.2 136.382 L 169.2 73.6176"/><path d="M 162.022 138.382 L 167.2 138.382"/><path d="M 167.2 138.382 A 2 2 0 0 0 169.2 136.382"/><path d="M 127.8 136.382 L 127.8 73.6176"/><path d="M 134.978 138.382 L 129.8 138.382"/><path d="M 127.8 136.382 A 2 2 0 0 0 129.8 138.382"/></g><g stroke="rgb(0, 0, 0)" stroke-width="0.13" stroke-linecap="butt" stroke-linejoin="miter" fill="none"><path d="M 150.896 146.734 L 150.018 149.715 L 149.115 146.734 L 148.636 146.734 L 149.766 150.239 L 150.27 150.239 L 151.375 146.734 L 150.896 146.734 L 150.896 146.734 z M 154.098 147.531 L 153.654 147.531 L 153.654 149.094 L 153.604 149.457 L 153.457 149.72 L 153.231 149.881 L 152.933 149.931 L 152.696 149.891 L 152.545 149.77 L 152.459 149.563 L 152.439 149.271 L 152.439 147.531 L 151.995 147.531 L 151.995 149.311 L 152.01 149.669 L 152.106 149.967 L 152.398 150.239 L 152.867 150.335 L 153.12 150.3 L 153.336 150.209 L 153.523 150.052 L 153.674 149.825 L 153.674 150.239 L 154.098 150.239 L 154.098 147.531 L 154.098 147.531 z M 155.434 149.014 L 157.21 149.014 L 157.215 148.807 L 157.134 148.227 L 156.912 147.793 L 156.559 147.531 L 156.09 147.435 L 155.631 147.536 L 155.278 147.818 L 155.051 148.277 L 154.97 148.882 L 155.046 149.503 L 155.273 149.957 L 155.621 150.239 L 156.075 150.335 L 156.468 150.269 L 156.791 150.098 L 157.028 149.825 L 157.164 149.462 L 156.726 149.462 L 156.635 149.664 L 156.504 149.815 L 156.13 149.936 L 155.843 149.881 L 155.626 149.704 L 155.485 149.417 L 155.434 149.029 L 155.434 149.014 L 155.434 149.014 z M 155.434 148.64 L 155.49 148.292 L 155.626 148.035 L 155.833 147.879 L 156.105 147.823 L 156.372 147.879 L 156.579 148.035 L 156.705 148.292 L 156.751 148.64 L 155.434 148.64 L 155.434 148.64 z M 162.782 149.82 L 162.782 150.239 L 163.226 150.239 L 163.226 146.618 L 162.787 146.618 L 162.787 147.944 L 162.45 147.561 L 162.243 147.47 L 162.006 147.435 L 161.577 147.536 L 161.244 147.818 L 161.027 148.272 L 160.952 148.882 L 161.027 149.493 L 161.244 149.952 L 161.577 150.239 L 162.006 150.335 L 162.243 150.3 L 162.455 150.209 L 162.782 149.82 L 162.782 149.82 z M 162.081 147.833 L 162.374 147.904 L 162.596 148.101 L 162.727 148.428 L 162.777 148.882 L 162.727 149.341 L 162.596 149.669 L 162.374 149.871 L 162.081 149.936 L 161.804 149.871 L 161.592 149.669 L 161.451 149.336 L 161.406 148.882 L 161.451 148.434 L 161.592 148.106 L 161.804 147.904 L 162.081 147.833 L 162.081 147.833 z M 164.543 149.014 L 166.318 149.014 L 166.323 148.807 L 166.242 148.227 L 166.02 147.793 L 165.667 147.531 L 165.198 147.435 L 164.739 147.536 L 164.386 147.818 L 164.159 148.277 L 164.079 148.882 L 164.154 149.503 L 164.381 149.957 L 164.729 150.239 L 165.183 150.335 L 165.576 150.269 L 165.899 150.098 L 166.136 149.825 L 166.272 149.462 L 165.834 149.462 L 165.743 149.664 L 165.612 149.815 L 165.238 149.936 L 164.951 149.881 L 164.734 149.704 L 164.593 149.417 L 164.543 149.029 L 164.543 149.014 L 164.543 149.014 z M 164.543 148.64 L 164.598 148.292 L 164.734 148.035 L 164.941 147.879 L 165.213 147.823 L 165.481 147.879 L 165.687 148.035 L 165.813 148.292 L 165.859 148.64 L 164.543 148.64 L 164.543 148.64 z M 170.842 148 L 170.842 150.239 L 171.285 150.239 L 171.285 148 L 172.294 148 L 172.294 147.622 L 171.285 147.622 L 171.285 147.455 L 171.321 147.253 L 171.437 147.117 L 171.633 147.037 L 171.916 147.006 L 172.294 147.026 L 172.294 146.643 L 171.815 146.618 L 171.381 146.663 L 171.079 146.8 L 170.897 147.037 L 170.842 147.374 L 170.842 147.622 L 170.03 147.622 L 170.03 148 L 170.842 148 L 170.842 148 z M 174.871 149.886 L 174.871 149.901 L 174.896 150.073 L 174.972 150.194 L 175.29 150.289 L 175.537 150.249 L 175.537 149.906 L 175.431 149.921 L 175.29 149.856 L 175.264 149.654 L 175.264 148.252 L 175.204 147.894 L 175.027 147.642 L 174.72 147.49 L 174.286 147.435 L 173.862 147.495 L 173.55 147.667 L 173.353 147.934 L 173.287 148.287 L 173.287 148.318 L 173.686 148.318 L 173.721 148.106 L 173.832 147.954 L 174.014 147.864 L 174.271 147.828 L 174.518 147.854 L 174.695 147.929 L 174.8 148.06 L 174.836 148.242 L 174.816 148.454 L 174.735 148.56 L 174.533 148.61 L 174.155 148.65 L 173.721 148.741 L 173.414 148.903 L 173.232 149.155 L 173.177 149.528 L 173.227 149.861 L 173.383 150.108 L 173.635 150.264 L 173.983 150.32 L 174.452 150.214 L 174.871 149.886 L 174.871 149.886 z M 174.821 149.291 L 174.76 149.553 L 174.599 149.755 L 174.357 149.886 L 174.059 149.931 L 173.867 149.906 L 173.731 149.825 L 173.646 149.684 L 173.62 149.488 L 173.641 149.311 L 173.721 149.185 L 174.044 149.044 L 174.452 148.983 L 174.821 148.862 L 174.821 149.291 L 174.821 149.291 z M 178.023 148.428 L 178.462 148.428 L 178.371 148.025 L 178.154 147.707 L 177.816 147.511 L 177.378 147.435 L 176.893 147.536 L 176.525 147.818 L 176.293 148.277 L 176.213 148.892 L 176.288 149.503 L 176.515 149.957 L 176.873 150.239 L 177.362 150.335 L 177.796 150.259 L 178.134 150.047 L 178.366 149.715 L 178.467 149.271 L 178.043 149.271 L 177.968 149.553 L 177.826 149.765 L 177.625 149.896 L 177.378 149.936 L 177.07 149.871 L 176.848 149.669 L 176.712 149.341 L 176.666 148.877 L 176.712 148.423 L 176.853 148.096 L 177.08 147.894 L 177.378 147.823 L 177.64 147.869 L 177.836 147.985 L 177.968 148.176 L 178.023 148.428 L 178.023 148.428 z M 179.723 149.014 L 181.498 149.014 L 181.503 148.807 L 181.422 148.227 L 181.2 147.793 L 180.847 147.531 L 180.378 147.435 L 179.919 147.536 L 179.566 147.818 L 179.339 148.277 L 179.259 148.882 L 179.334 149.503 L 179.561 149.957 L 179.909 150.239 L 180.363 150.335 L 180.757 150.269 L 181.079 150.098 L 181.316 149.825 L 181.452 149.462 L 181.014 149.462 L 180.923 149.664 L 180.792 149.815 L 180.419 149.936 L 180.131 149.881 L 179.914 149.704 L 179.773 149.417 L 179.723 149.029 L 179.723 149.014 L 179.723 149.014 z M 179.723 148.64 L 179.778 148.292 L 179.914 148.035 L 180.121 147.879 L 180.393 147.823 L 180.661 147.879 L 180.867 148.035 L 180.994 148.292 L 181.039 148.64 L 179.723 148.64 L 179.723 148.64 z" stroke="none" fill-rule="evenodd" fill="rgb(0, 0, 0)"/></g><g stroke="rgb(0, 0, 0)" stroke-width="0.13" stroke-linecap="butt" stroke-linejoin="miter" fill="none"><path d="M 148.959 156.286 L 151.178 156.286 L 151.178 155.862 L 149.423 155.862 L 149.423 154.677 L 150.986 154.677 L 150.986 154.258 L 149.423 154.258 L 149.423 153.209 L 151.138 153.209 L 151.138 152.786 L 148.959 152.786 L 148.959 156.286 L 148.959 156.286 z M 153.735 154.475 L 154.174 154.475 L 154.083 154.072 L 153.866 153.754 L 153.528 153.557 L 153.089 153.482 L 152.605 153.583 L 152.237 153.865 L 152.005 154.324 L 151.924 154.939 L 152 155.55 L 152.227 156.003 L 152.585 156.286 L 153.074 156.382 L 153.508 156.306 L 153.846 156.094 L 154.078 155.761 L 154.179 155.318 L 153.755 155.318 L 153.679 155.6 L 153.538 155.812 L 153.336 155.943 L 153.089 155.983 L 152.782 155.918 L 152.56 155.716 L 152.424 155.388 L 152.378 154.924 L 152.424 154.47 L 152.565 154.142 L 152.792 153.941 L 153.089 153.87 L 153.352 153.916 L 153.548 154.032 L 153.679 154.223 L 153.735 154.475 L 153.735 154.475 z M 155.046 156.286 L 155.49 156.286 L 155.49 154.722 L 155.535 154.364 L 155.682 154.102 L 155.909 153.941 L 156.211 153.88 L 156.453 153.931 L 156.604 154.067 L 156.68 154.294 L 156.705 154.596 L 156.705 156.286 L 157.149 156.286 L 157.149 154.506 L 157.129 154.148 L 157.038 153.85 L 156.741 153.578 L 156.277 153.482 L 156.025 153.517 L 155.808 153.613 L 155.626 153.764 L 155.49 153.971 L 155.49 152.665 L 155.046 152.665 L 155.046 156.286 L 155.046 156.286 z M 158.47 155.06 L 160.246 155.06 L 160.251 154.854 L 160.17 154.274 L 159.948 153.84 L 159.595 153.578 L 159.126 153.482 L 158.667 153.583 L 158.314 153.865 L 158.087 154.324 L 158.007 154.929 L 158.082 155.55 L 158.309 156.003 L 158.657 156.286 L 159.111 156.382 L 159.504 156.316 L 159.827 156.145 L 160.064 155.872 L 160.2 155.509 L 159.762 155.509 L 159.671 155.711 L 159.54 155.862 L 159.166 155.983 L 158.879 155.928 L 158.662 155.751 L 158.521 155.464 L 158.47 155.075 L 158.47 155.06 L 158.47 155.06 z M 158.47 154.687 L 158.526 154.339 L 158.662 154.082 L 158.869 153.926 L 159.141 153.87 L 159.409 153.926 L 159.615 154.082 L 159.741 154.339 L 159.787 154.687 L 158.47 154.687 L 158.47 154.687 z M 162.001 153.038 L 162.001 155.913 L 161.088 155.913 L 161.088 156.286 L 163.352 156.286 L 163.352 155.913 L 162.445 155.913 L 162.445 152.665 L 161.305 152.665 L 161.305 153.038 L 162.001 153.038 L 162.001 153.038 z M 165.037 153.038 L 165.037 155.913 L 164.124 155.913 L 164.124 156.286 L 166.388 156.286 L 166.388 155.913 L 165.481 155.913 L 165.481 152.665 L 164.341 152.665 L 164.341 153.038 L 165.037 153.038 L 165.037 153.038 z M 167.579 155.06 L 169.354 155.06 L 169.359 154.854 L 169.278 154.274 L 169.056 153.84 L 168.703 153.578 L 168.234 153.482 L 167.775 153.583 L 167.422 153.865 L 167.195 154.324 L 167.115 154.929 L 167.19 155.55 L 167.417 156.003 L 167.765 156.286 L 168.219 156.382 L 168.612 156.316 L 168.935 156.145 L 169.172 155.872 L 169.308 155.509 L 168.87 155.509 L 168.779 155.711 L 168.648 155.862 L 168.275 155.983 L 167.987 155.928 L 167.77 155.751 L 167.629 155.464 L 167.579 155.075 L 167.579 155.06 L 167.579 155.06 z M 167.579 154.687 L 167.634 154.339 L 167.77 154.082 L 167.977 153.926 L 168.249 153.87 L 168.517 153.926 L 168.723 154.082 L 168.849 154.339 L 168.895 154.687 L 167.579 154.687 L 167.579 154.687 z M 173.958 156.286 L 174.654 156.286 L 174.654 155.534 L 173.958 155.534 L 173.958 156.286 L 173.958 156.286 z M 173.958 154.329 L 174.654 154.329 L 174.654 153.578 L 173.958 153.578 L 173.958 154.329 L 173.958 154.329 z" stroke="none" fill-rule="evenodd" fill="rgb(0, 0, 0)"/></g><g stroke="rgb(0, 0, 0)" stroke-width="0.13" stroke-linecap="butt" stroke-linejoin="miter" fill="none"><path d="M 183.323 156.286 L 183.782 156.286 L 183.782 152.761 L 183.439 152.761 L 183.349 153.068 L 183.167 153.275 L 182.89 153.396 L 182.506 153.436 L 182.506 153.794 L 183.323 153.794 L 183.323 156.286 L 183.323 156.286 z M 186.102 156.286 L 186.798 156.286 L 186.798 155.534 L 186.102 155.534 L 186.102 156.286 L 186.102 156.286 z M 186.102 154.329 L 186.798 154.329 L 186.798 153.578 L 186.102 153.578 L 186.102 154.329 L 186.102 154.329 z M 189.396 156.286 L 189.854 156.286 L 189.854 152.761 L 189.512 152.761 L 189.421 153.068 L 189.239 153.275 L 188.962 153.396 L 188.579 153.436 L 188.579 153.794 L 189.396 153.794 L 189.396 156.286 L 189.396 156.286 z" stroke="none" fill-rule="evenodd" fill="rgb(0, 0, 0)"/></g><g stroke="rgb(0, 0, 0)" stroke-width="0.13" stroke-linecap="butt" stroke-linejoin="miter" fill="none"><path d="M 143.173 53.5486 L 143.627 53.5486 L 143.627 52.6812 L 144.127 52.6812 L 144.127 52.2777 L 143.627 52.2777 L 143.627 50.1243 L 143.168 50.1243 L 141.635 52.2374 L 141.635 52.6812 L 143.173 52.6812 L 143.173 53.5486 L 143.173 53.5486 z M 142.059 52.2777 L 143.173 50.7093 L 143.173 52.2777 L 142.059 52.2777 L 142.059 52.2777 z M 146.541 53.5486 L 147 53.5486 L 147 50.0234 L 146.657 50.0234 L 146.566 50.331 L 146.385 50.5378 L 146.107 50.6588 L 145.724 50.6992 L 145.724 51.0573 L 146.541 51.0573 L 146.541 53.5486 L 146.541 53.5486 z M 150.02 53.5486 L 150.716 53.5486 L 150.716 52.7972 L 150.02 52.7972 L 150.02 53.5486 L 150.02 53.5486 z M 154.381 53.5486 L 154.835 53.5486 L 154.835 52.6812 L 155.335 52.6812 L 155.335 52.2777 L 154.835 52.2777 L 154.835 50.1243 L 154.376 50.1243 L 152.843 52.2374 L 152.843 52.6812 L 154.381 52.6812 L 154.381 53.5486 L 154.381 53.5486 z M 153.267 52.2777 L 154.381 50.7093 L 154.381 52.2777 L 153.267 52.2777 L 153.267 52.2777 z" stroke="none" fill-rule="evenodd" fill="rgb(0, 0, 0)"/><path d="M 167.268 56.0662 L 169.2 55.5486 L 167.268 55.031"/><path d="M 129.732 55.031 L 127.8 55.5486 L 129.732 56.0662"/><path d="M 127.8 55.5486 L 169.2 55.5486"/></g></svg>