<?xml version="1.0" encoding="utf-8" ?><!DOCTYPE svg PUBLIC "-//W3C//DTD SVG 1.1//EN" "http://www.w3.org/Graphics/SVG/1.1/DTD/svg11.dtd" 
[ <!ATTLIST svg 
  xmlns:dsy CDATA #FIXED "http://www.3ds.com/print"  
    dsy:text-version CDATA #IMPLIED > 

  <!ATTLIST text 
  xmlns:dsy CDATA #FIXED "http://www.3ds.com/print" 
    dsy:text-version CDATA #IMPLIED > 
]><svg xmlns="http://www.w3.org/2000/svg" xmlns:dsy="http://www.3ds.com/print" dsy:text-version="18000" width="297" height="210" viewBox="0 0 297 210" version="1.1"><g stroke="rgb(0, 0, 0)" stroke-width="0.13" stroke-linecap="butt" stroke-linejoin="miter" fill="none"><path d="M 203.55 125 L 234.202 125"/><path d="M 217.25 85 L 234.202 85"/></g><g stroke="rgb(0, 0, 0)" stroke-width="0.35" stroke-linecap="butt" stroke-linejoin="miter" fill="none"><path d="M 111.75 115 L 111.75 125"/><path d="M 117.45 115 L 111.75 115"/><path d="M 117.45 125 L 117.45 115"/><path d="M 201.55 125 L 117.45 125"/><path d="M 201.55 115 L 201.55 125"/><path d="M 207.25 115 L 201.55 115"/><path d="M 207.25 125 L 207.25 115"/><path d="M 111.75 125 L 81.75 125"/><path d="M 79.75 123 A 2 2 0 0 0 81.75 125"/><path d="M 79.75 123 L 79.75 87"/><path d="M 81.75 85 A 2 2 0 0 0 79.75 87"/><path d="M 81.75 85 L 215.25 85"/><path d="M 217.25 87 A 2 2 0 0 0 215.25 85"/><path d="M 215.25 125 L 207.25 125"/><path d="M 217.25 87 L 217.25 123"/><path d="M 215.25 125 A 2 2 0 0 0 217.25 123"/></g><g stroke="rgb(0, 0, 0)" stroke-width="0.13" stroke-linecap="butt" stroke-linejoin="miter" fill="none"><path d="M 150.896 133.352 L 150.018 136.332 L 149.115 133.352 L 148.636 133.352 L 149.766 136.857 L 150.27 136.857 L 151.375 133.352 L 150.896 133.352 L 150.896 133.352 z M 154.098 134.148 L 153.654 134.148 L 153.654 135.712 L 153.604 136.075 L 153.457 136.337 L 153.231 136.499 L 152.933 136.549 L 152.696 136.509 L 152.545 136.388 L 152.459 136.181 L 152.439 135.888 L 152.439 134.148 L 151.995 134.148 L 151.995 135.929 L 152.01 136.287 L 152.106 136.584 L 152.398 136.857 L 152.867 136.952 L 153.12 136.917 L 153.336 136.826 L 153.523 136.67 L 153.674 136.443 L 153.674 136.857 L 154.098 136.857 L 154.098 134.148 L 154.098 134.148 z M 155.434 135.631 L 157.21 135.631 L 157.215 135.424 L 157.134 134.844 L 156.912 134.411 L 156.559 134.148 L 156.09 134.053 L 155.631 134.153 L 155.278 134.436 L 155.051 134.895 L 154.97 135.5 L 155.046 136.12 L 155.273 136.574 L 155.621 136.857 L 156.075 136.952 L 156.468 136.887 L 156.791 136.715 L 157.028 136.443 L 157.164 136.08 L 156.726 136.08 L 156.635 136.282 L 156.504 136.433 L 156.13 136.554 L 155.843 136.499 L 155.626 136.322 L 155.485 136.035 L 155.434 135.646 L 155.434 135.631 L 155.434 135.631 z M 155.434 135.258 L 155.49 134.91 L 155.626 134.653 L 155.833 134.496 L 156.105 134.441 L 156.372 134.496 L 156.579 134.653 L 156.705 134.91 L 156.751 135.258 L 155.434 135.258 L 155.434 135.258 z M 162.782 136.438 L 162.782 136.857 L 163.226 136.857 L 163.226 133.236 L 162.787 133.236 L 162.787 134.562 L 162.45 134.179 L 162.243 134.088 L 162.006 134.053 L 161.577 134.153 L 161.244 134.436 L 161.027 134.89 L 160.952 135.5 L 161.027 136.11 L 161.244 136.569 L 161.577 136.857 L 162.006 136.952 L 162.243 136.917 L 162.455 136.826 L 162.782 136.438 L 162.782 136.438 z M 162.081 134.451 L 162.374 134.522 L 162.596 134.718 L 162.727 135.046 L 162.777 135.5 L 162.727 135.959 L 162.596 136.287 L 162.374 136.488 L 162.081 136.554 L 161.804 136.488 L 161.592 136.287 L 161.451 135.954 L 161.406 135.5 L 161.451 135.051 L 161.592 134.723 L 161.804 134.522 L 162.081 134.451 L 162.081 134.451 z M 164.543 135.631 L 166.318 135.631 L 166.323 135.424 L 166.242 134.844 L 166.02 134.411 L 165.667 134.148 L 165.198 134.053 L 164.739 134.153 L 164.386 134.436 L 164.159 134.895 L 164.079 135.5 L 164.154 136.12 L 164.381 136.574 L 164.729 136.857 L 165.183 136.952 L 165.576 136.887 L 165.899 136.715 L 166.136 136.443 L 166.272 136.08 L 165.834 136.08 L 165.743 136.282 L 165.612 136.433 L 165.238 136.554 L 164.951 136.499 L 164.734 136.322 L 164.593 136.035 L 164.543 135.646 L 164.543 135.631 L 164.543 135.631 z M 164.543 135.258 L 164.598 134.91 L 164.734 134.653 L 164.941 134.496 L 165.213 134.441 L 165.481 134.496 L 165.687 134.653 L 165.813 134.91 L 165.859 135.258 L 164.543 135.258 L 164.543 135.258 z M 170.842 134.617 L 170.842 136.857 L 171.285 136.857 L 171.285 134.617 L 172.294 134.617 L 172.294 134.239 L 171.285 134.239 L 171.285 134.073 L 171.321 133.871 L 171.437 133.735 L 171.633 133.654 L 171.916 133.624 L 172.294 133.644 L 172.294 133.261 L 171.815 133.236 L 171.381 133.281 L 171.079 133.417 L 170.897 133.654 L 170.842 133.992 L 170.842 134.239 L 170.03 134.239 L 170.03 134.617 L 170.842 134.617 L 170.842 134.617 z M 174.871 136.504 L 174.871 136.519 L 174.896 136.69 L 174.972 136.811 L 175.29 136.907 L 175.537 136.867 L 175.537 136.524 L 175.431 136.539 L 175.29 136.473 L 175.264 136.272 L 175.264 134.87 L 175.204 134.512 L 175.027 134.259 L 174.72 134.108 L 174.286 134.053 L 173.862 134.113 L 173.55 134.285 L 173.353 134.552 L 173.287 134.905 L 173.287 134.935 L 173.686 134.935 L 173.721 134.723 L 173.832 134.572 L 174.014 134.481 L 174.271 134.446 L 174.518 134.471 L 174.695 134.547 L 174.8 134.678 L 174.836 134.86 L 174.816 135.071 L 174.735 135.177 L 174.533 135.228 L 174.155 135.268 L 173.721 135.359 L 173.414 135.52 L 173.232 135.772 L 173.177 136.146 L 173.227 136.478 L 173.383 136.726 L 173.635 136.882 L 173.983 136.937 L 174.452 136.831 L 174.871 136.504 L 174.871 136.504 z M 174.821 135.909 L 174.76 136.171 L 174.599 136.372 L 174.357 136.504 L 174.059 136.549 L 173.867 136.524 L 173.731 136.443 L 173.646 136.302 L 173.62 136.105 L 173.641 135.929 L 173.721 135.803 L 174.044 135.661 L 174.452 135.601 L 174.821 135.48 L 174.821 135.909 L 174.821 135.909 z M 178.023 135.046 L 178.462 135.046 L 178.371 134.643 L 178.154 134.325 L 177.816 134.128 L 177.378 134.053 L 176.893 134.153 L 176.525 134.436 L 176.293 134.895 L 176.213 135.51 L 176.288 136.12 L 176.515 136.574 L 176.873 136.857 L 177.362 136.952 L 177.796 136.877 L 178.134 136.665 L 178.366 136.332 L 178.467 135.888 L 178.043 135.888 L 177.968 136.171 L 177.826 136.383 L 177.625 136.514 L 177.378 136.554 L 177.07 136.488 L 176.848 136.287 L 176.712 135.959 L 176.666 135.495 L 176.712 135.041 L 176.853 134.713 L 177.08 134.512 L 177.378 134.441 L 177.64 134.486 L 177.836 134.602 L 177.968 134.794 L 178.023 135.046 L 178.023 135.046 z M 179.723 135.631 L 181.498 135.631 L 181.503 135.424 L 181.422 134.844 L 181.2 134.411 L 180.847 134.148 L 180.378 134.053 L 179.919 134.153 L 179.566 134.436 L 179.339 134.895 L 179.259 135.5 L 179.334 136.12 L 179.561 136.574 L 179.909 136.857 L 180.363 136.952 L 180.757 136.887 L 181.079 136.715 L 181.316 136.443 L 181.452 136.08 L 181.014 136.08 L 180.923 136.282 L 180.792 136.433 L 180.419 136.554 L 180.131 136.499 L 179.914 136.322 L 179.773 136.035 L 179.723 135.646 L 179.723 135.631 L 179.723 135.631 z M 179.723 135.258 L 179.778 134.91 L 179.914 134.653 L 180.121 134.496 L 180.393 134.441 L 180.661 134.496 L 180.867 134.653 L 180.994 134.91 L 181.039 135.258 L 179.723 135.258 L 179.723 135.258 z" stroke="none" fill-rule="evenodd" fill="rgb(0, 0, 0)"/></g><g stroke="rgb(0, 0, 0)" stroke-width="0.13" stroke-linecap="butt" stroke-linejoin="miter" fill="none"><path d="M 148.959 142.903 L 151.178 142.903 L 151.178 142.48 L 149.423 142.48 L 149.423 141.295 L 150.986 141.295 L 150.986 140.876 L 149.423 140.876 L 149.423 139.827 L 151.138 139.827 L 151.138 139.403 L 148.959 139.403 L 148.959 142.903 L 148.959 142.903 z M 153.735 141.093 L 154.174 141.093 L 154.083 140.689 L 153.866 140.372 L 153.528 140.175 L 153.089 140.099 L 152.605 140.2 L 152.237 140.483 L 152.005 140.942 L 151.924 141.557 L 152 142.167 L 152.227 142.621 L 152.585 142.903 L 153.074 142.999 L 153.508 142.924 L 153.846 142.712 L 154.078 142.379 L 154.179 141.935 L 153.755 141.935 L 153.679 142.218 L 153.538 142.429 L 153.336 142.561 L 153.089 142.601 L 152.782 142.535 L 152.56 142.334 L 152.424 142.006 L 152.378 141.542 L 152.424 141.088 L 152.565 140.76 L 152.792 140.558 L 153.089 140.488 L 153.352 140.533 L 153.548 140.649 L 153.679 140.841 L 153.735 141.093 L 153.735 141.093 z M 155.046 142.903 L 155.49 142.903 L 155.49 141.34 L 155.535 140.982 L 155.682 140.72 L 155.909 140.558 L 156.211 140.498 L 156.453 140.548 L 156.604 140.684 L 156.68 140.911 L 156.705 141.214 L 156.705 142.903 L 157.149 142.903 L 157.149 141.123 L 157.129 140.765 L 157.038 140.468 L 156.741 140.195 L 156.277 140.099 L 156.025 140.135 L 155.808 140.231 L 155.626 140.382 L 155.49 140.589 L 155.49 139.282 L 155.046 139.282 L 155.046 142.903 L 155.046 142.903 z M 158.47 141.678 L 160.246 141.678 L 160.251 141.471 L 160.17 140.891 L 159.948 140.457 L 159.595 140.195 L 159.126 140.099 L 158.667 140.2 L 158.314 140.483 L 158.087 140.942 L 158.007 141.547 L 158.082 142.167 L 158.309 142.621 L 158.657 142.903 L 159.111 142.999 L 159.504 142.934 L 159.827 142.762 L 160.064 142.49 L 160.2 142.127 L 159.762 142.127 L 159.671 142.329 L 159.54 142.48 L 159.166 142.601 L 158.879 142.545 L 158.662 142.369 L 158.521 142.081 L 158.47 141.693 L 158.47 141.678 L 158.47 141.678 z M 158.47 141.305 L 158.526 140.957 L 158.662 140.7 L 158.869 140.543 L 159.141 140.488 L 159.409 140.543 L 159.615 140.7 L 159.741 140.957 L 159.787 141.305 L 158.47 141.305 L 158.47 141.305 z M 162.001 139.656 L 162.001 142.53 L 161.088 142.53 L 161.088 142.903 L 163.352 142.903 L 163.352 142.53 L 162.445 142.53 L 162.445 139.282 L 161.305 139.282 L 161.305 139.656 L 162.001 139.656 L 162.001 139.656 z M 165.037 139.656 L 165.037 142.53 L 164.124 142.53 L 164.124 142.903 L 166.388 142.903 L 166.388 142.53 L 165.481 142.53 L 165.481 139.282 L 164.341 139.282 L 164.341 139.656 L 165.037 139.656 L 165.037 139.656 z M 167.579 141.678 L 169.354 141.678 L 169.359 141.471 L 169.278 140.891 L 169.056 140.457 L 168.703 140.195 L 168.234 140.099 L 167.775 140.2 L 167.422 140.483 L 167.195 140.942 L 167.115 141.547 L 167.19 142.167 L 167.417 142.621 L 167.765 142.903 L 168.219 142.999 L 168.612 142.934 L 168.935 142.762 L 169.172 142.49 L 169.308 142.127 L 168.87 142.127 L 168.779 142.329 L 168.648 142.48 L 168.275 142.601 L 167.987 142.545 L 167.77 142.369 L 167.629 142.081 L 167.579 141.693 L 167.579 141.678 L 167.579 141.678 z M 167.579 141.305 L 167.634 140.957 L 167.77 140.7 L 167.977 140.543 L 168.249 140.488 L 168.517 140.543 L 168.723 140.7 L 168.849 140.957 L 168.895 141.305 L 167.579 141.305 L 167.579 141.305 z M 173.958 142.903 L 174.654 142.903 L 174.654 142.152 L 173.958 142.152 L 173.958 142.903 L 173.958 142.903 z M 173.958 140.947 L 174.654 140.947 L 174.654 140.195 L 173.958 140.195 L 173.958 140.947 L 173.958 140.947 z" stroke="none" fill-rule="evenodd" fill="rgb(0, 0, 0)"/></g><g stroke="rgb(0, 0, 0)" stroke-width="0.13" stroke-linecap="butt" stroke-linejoin="miter" fill="none"><path d="M 183.323 142.903 L 183.782 142.903 L 183.782 139.378 L 183.439 139.378 L 183.349 139.686 L 183.167 139.893 L 182.89 140.014 L 182.506 140.054 L 182.506 140.412 L 183.323 140.412 L 183.323 142.903 L 183.323 142.903 z M 186.102 142.903 L 186.798 142.903 L 186.798 142.152 L 186.102 142.152 L 186.102 142.903 L 186.102 142.903 z M 186.102 140.947 L 186.798 140.947 L 186.798 140.195 L 186.102 140.195 L 186.102 140.947 L 186.102 140.947 z M 189.396 142.903 L 189.854 142.903 L 189.854 139.378 L 189.512 139.378 L 189.421 139.686 L 189.239 139.893 L 188.962 140.014 L 188.579 140.054 L 188.579 140.412 L 189.396 140.412 L 189.396 142.903 L 189.396 142.903 z" stroke="none" fill-rule="evenodd" fill="rgb(0, 0, 0)"/></g><g stroke="rgb(0, 0, 0)" stroke-width="0.13" stroke-linecap="butt" stroke-linejoin="miter" fill="none"><path d="M 230.202 106.591 L 230.202 106.137 L 229.335 106.137 L 229.335 105.637 L 228.931 105.637 L 228.931 106.137 L 226.778 106.137 L 226.778 106.596 L 228.891 108.129 L 229.335 108.129 L 229.335 106.591 L 230.202 106.591 L 230.202 106.591 z M 228.931 107.705 L 227.363 106.591 L 228.931 106.591 L 228.931 107.705 L 228.931 107.705 z M 228.493 104.347 L 229.284 104.272 L 229.849 104.035 L 230.192 103.656 L 230.303 103.132 L 230.192 102.613 L 229.849 102.234 L 229.284 102.002 L 228.493 101.922 L 227.706 102.002 L 227.393 102.098 L 227.136 102.234 L 226.793 102.613 L 226.677 103.132 L 226.793 103.656 L 227.141 104.035 L 227.706 104.272 L 228.493 104.347 L 228.493 104.347 z M 228.493 103.863 L 227.882 103.823 L 227.444 103.697 L 227.186 103.47 L 227.096 103.132 L 227.186 102.799 L 227.444 102.572 L 227.882 102.446 L 228.493 102.406 L 229.108 102.446 L 229.547 102.572 L 229.804 102.799 L 229.89 103.132 L 229.804 103.47 L 229.547 103.697 L 229.108 103.823 L 228.493 103.863 L 228.493 103.863 z" stroke="none" fill-rule="evenodd" fill="rgb(0, 0, 0)"/><path d="M 231.685 123.068 L 232.202 125 L 232.72 123.068"/><path d="M 232.72 86.9319 L 232.202 85 L 231.685 86.9319"/><path d="M 232.202 125 L 232.202 85"/></g></svg>