<?xml version="1.0" encoding="utf-8" ?><!DOCTYPE svg PUBLIC "-//W3C//DTD SVG 1.1//EN" "http://www.w3.org/Graphics/SVG/1.1/DTD/svg11.dtd" 
[ <!ATTLIST svg 
  xmlns:dsy CDATA #FIXED "http://www.3ds.com/print"  
    dsy:text-version CDATA #IMPLIED > 

  <!ATTLIST text 
  xmlns:dsy CDATA #FIXED "http://www.3ds.com/print" 
    dsy:text-version CDATA #IMPLIED > 
]><svg xmlns="http://www.w3.org/2000/svg" xmlns:dsy="http://www.3ds.com/print" dsy:text-version="18000" width="297" height="210" viewBox="0 0 297 210" version="1.1"><g stroke="rgb(0, 0, 0)" stroke-width="0.13" stroke-linecap="butt" stroke-linejoin="miter" fill="none"><path d="M 138.5 60.95 L 138.5 44.807"/><path d="M 158.5 60.95 L 158.5 44.807"/></g><g stroke="rgb(0, 0, 0)" stroke-width="0.35" stroke-linecap="butt" stroke-linejoin="miter" fill="none"><path d="M 151.5 54.95 L 145.8 54.95"/><path d="M 145.8 54.95 L 145.8 62.95"/><path d="M 145.8 62.95 L 138.5 62.95"/><path d="M 138.5 62.95 L 138.5 147.05"/><path d="M 138.5 147.05 L 145.8 147.05"/><path d="M 145.8 147.05 L 145.8 155.05"/><path d="M 145.8 155.05 L 151.5 155.05"/><path d="M 151.5 155.05 L 151.5 147.05"/><path d="M 151.5 147.05 L 158.5 147.05"/><path d="M 158.5 147.05 L 158.5 62.95"/><path d="M 158.5 62.95 L 151.5 62.95"/><path d="M 151.5 62.95 L 151.5 54.95"/></g><g stroke="rgb(0, 0, 0)" stroke-width="0.13" stroke-linecap="butt" stroke-linejoin="miter" fill="none"><path d="M 150.896 163.402 L 150.018 166.382 L 149.115 163.402 L 148.636 163.402 L 149.766 166.907 L 150.27 166.907 L 151.375 163.402 L 150.896 163.402 L 150.896 163.402 z M 154.098 164.198 L 153.654 164.198 L 153.654 165.762 L 153.604 166.125 L 153.457 166.387 L 153.231 166.549 L 152.933 166.599 L 152.696 166.559 L 152.545 166.438 L 152.459 166.231 L 152.439 165.938 L 152.439 164.198 L 151.995 164.198 L 151.995 165.979 L 152.01 166.337 L 152.106 166.634 L 152.398 166.907 L 152.867 167.002 L 153.12 166.967 L 153.336 166.876 L 153.523 166.72 L 153.674 166.493 L 153.674 166.907 L 154.098 166.907 L 154.098 164.198 L 154.098 164.198 z M 155.434 165.681 L 157.21 165.681 L 157.215 165.474 L 157.134 164.894 L 156.912 164.461 L 156.559 164.198 L 156.09 164.103 L 155.631 164.203 L 155.278 164.486 L 155.051 164.945 L 154.97 165.55 L 155.046 166.17 L 155.273 166.624 L 155.621 166.907 L 156.075 167.002 L 156.468 166.937 L 156.791 166.765 L 157.028 166.493 L 157.164 166.13 L 156.726 166.13 L 156.635 166.332 L 156.504 166.483 L 156.13 166.604 L 155.843 166.549 L 155.626 166.372 L 155.485 166.085 L 155.434 165.696 L 155.434 165.681 L 155.434 165.681 z M 155.434 165.308 L 155.49 164.96 L 155.626 164.703 L 155.833 164.546 L 156.105 164.491 L 156.372 164.546 L 156.579 164.703 L 156.705 164.96 L 156.751 165.308 L 155.434 165.308 L 155.434 165.308 z M 162.782 166.488 L 162.782 166.907 L 163.226 166.907 L 163.226 163.286 L 162.787 163.286 L 162.787 164.612 L 162.45 164.229 L 162.243 164.138 L 162.006 164.103 L 161.577 164.203 L 161.244 164.486 L 161.027 164.94 L 160.952 165.55 L 161.027 166.16 L 161.244 166.619 L 161.577 166.907 L 162.006 167.002 L 162.243 166.967 L 162.455 166.876 L 162.782 166.488 L 162.782 166.488 z M 162.081 164.501 L 162.374 164.572 L 162.596 164.768 L 162.727 165.096 L 162.777 165.55 L 162.727 166.009 L 162.596 166.337 L 162.374 166.538 L 162.081 166.604 L 161.804 166.538 L 161.592 166.337 L 161.451 166.004 L 161.406 165.55 L 161.451 165.101 L 161.592 164.773 L 161.804 164.572 L 162.081 164.501 L 162.081 164.501 z M 164.543 165.681 L 166.318 165.681 L 166.323 165.474 L 166.242 164.894 L 166.02 164.461 L 165.667 164.198 L 165.198 164.103 L 164.739 164.203 L 164.386 164.486 L 164.159 164.945 L 164.079 165.55 L 164.154 166.17 L 164.381 166.624 L 164.729 166.907 L 165.183 167.002 L 165.576 166.937 L 165.899 166.765 L 166.136 166.493 L 166.272 166.13 L 165.834 166.13 L 165.743 166.332 L 165.612 166.483 L 165.238 166.604 L 164.951 166.549 L 164.734 166.372 L 164.593 166.085 L 164.543 165.696 L 164.543 165.681 L 164.543 165.681 z M 164.543 165.308 L 164.598 164.96 L 164.734 164.703 L 164.941 164.546 L 165.213 164.491 L 165.481 164.546 L 165.687 164.703 L 165.813 164.96 L 165.859 165.308 L 164.543 165.308 L 164.543 165.308 z M 170.842 164.667 L 170.842 166.907 L 171.285 166.907 L 171.285 164.667 L 172.294 164.667 L 172.294 164.289 L 171.285 164.289 L 171.285 164.123 L 171.321 163.921 L 171.437 163.785 L 171.633 163.704 L 171.916 163.674 L 172.294 163.694 L 172.294 163.311 L 171.815 163.286 L 171.381 163.331 L 171.079 163.467 L 170.897 163.704 L 170.842 164.042 L 170.842 164.289 L 170.03 164.289 L 170.03 164.667 L 170.842 164.667 L 170.842 164.667 z M 174.871 166.554 L 174.871 166.569 L 174.896 166.74 L 174.972 166.861 L 175.29 166.957 L 175.537 166.917 L 175.537 166.574 L 175.431 166.589 L 175.29 166.523 L 175.264 166.322 L 175.264 164.92 L 175.204 164.562 L 175.027 164.309 L 174.72 164.158 L 174.286 164.103 L 173.862 164.163 L 173.55 164.335 L 173.353 164.602 L 173.287 164.955 L 173.287 164.985 L 173.686 164.985 L 173.721 164.773 L 173.832 164.622 L 174.014 164.531 L 174.271 164.496 L 174.518 164.521 L 174.695 164.597 L 174.8 164.728 L 174.836 164.91 L 174.816 165.121 L 174.735 165.227 L 174.533 165.278 L 174.155 165.318 L 173.721 165.409 L 173.414 165.57 L 173.232 165.822 L 173.177 166.196 L 173.227 166.528 L 173.383 166.776 L 173.635 166.932 L 173.983 166.987 L 174.452 166.881 L 174.871 166.554 L 174.871 166.554 z M 174.821 165.958 L 174.76 166.221 L 174.599 166.422 L 174.357 166.554 L 174.059 166.599 L 173.867 166.574 L 173.731 166.493 L 173.646 166.352 L 173.62 166.155 L 173.641 165.979 L 173.721 165.853 L 174.044 165.711 L 174.452 165.651 L 174.821 165.53 L 174.821 165.958 L 174.821 165.958 z M 178.023 165.096 L 178.462 165.096 L 178.371 164.693 L 178.154 164.375 L 177.816 164.178 L 177.378 164.103 L 176.893 164.203 L 176.525 164.486 L 176.293 164.945 L 176.213 165.56 L 176.288 166.17 L 176.515 166.624 L 176.873 166.907 L 177.362 167.002 L 177.796 166.927 L 178.134 166.715 L 178.366 166.382 L 178.467 165.938 L 178.043 165.938 L 177.968 166.221 L 177.826 166.433 L 177.625 166.564 L 177.378 166.604 L 177.07 166.538 L 176.848 166.337 L 176.712 166.009 L 176.666 165.545 L 176.712 165.091 L 176.853 164.763 L 177.08 164.562 L 177.378 164.491 L 177.64 164.536 L 177.836 164.652 L 177.968 164.844 L 178.023 165.096 L 178.023 165.096 z M 179.723 165.681 L 181.498 165.681 L 181.503 165.474 L 181.422 164.894 L 181.2 164.461 L 180.847 164.198 L 180.378 164.103 L 179.919 164.203 L 179.566 164.486 L 179.339 164.945 L 179.259 165.55 L 179.334 166.17 L 179.561 166.624 L 179.909 166.907 L 180.363 167.002 L 180.757 166.937 L 181.079 166.765 L 181.316 166.493 L 181.452 166.13 L 181.014 166.13 L 180.923 166.332 L 180.792 166.483 L 180.419 166.604 L 180.131 166.549 L 179.914 166.372 L 179.773 166.085 L 179.723 165.696 L 179.723 165.681 L 179.723 165.681 z M 179.723 165.308 L 179.778 164.96 L 179.914 164.703 L 180.121 164.546 L 180.393 164.491 L 180.661 164.546 L 180.867 164.703 L 180.994 164.96 L 181.039 165.308 L 179.723 165.308 L 179.723 165.308 z" stroke="none" fill-rule="evenodd" fill="rgb(0, 0, 0)"/></g><g stroke="rgb(0, 0, 0)" stroke-width="0.13" stroke-linecap="butt" stroke-linejoin="miter" fill="none"><path d="M 148.959 172.953 L 151.178 172.953 L 151.178 172.53 L 149.423 172.53 L 149.423 171.345 L 150.986 171.345 L 150.986 170.926 L 149.423 170.926 L 149.423 169.877 L 151.138 169.877 L 151.138 169.453 L 148.959 169.453 L 148.959 172.953 L 148.959 172.953 z M 153.735 171.143 L 154.174 171.143 L 154.083 170.739 L 153.866 170.422 L 153.528 170.225 L 153.089 170.149 L 152.605 170.25 L 152.237 170.533 L 152.005 170.992 L 151.924 171.607 L 152 172.217 L 152.227 172.671 L 152.585 172.953 L 153.074 173.049 L 153.508 172.974 L 153.846 172.762 L 154.078 172.429 L 154.179 171.985 L 153.755 171.985 L 153.679 172.268 L 153.538 172.479 L 153.336 172.611 L 153.089 172.651 L 152.782 172.585 L 152.56 172.384 L 152.424 172.056 L 152.378 171.592 L 152.424 171.138 L 152.565 170.81 L 152.792 170.608 L 153.089 170.538 L 153.352 170.583 L 153.548 170.699 L 153.679 170.891 L 153.735 171.143 L 153.735 171.143 z M 155.046 172.953 L 155.49 172.953 L 155.49 171.39 L 155.535 171.032 L 155.682 170.77 L 155.909 170.608 L 156.211 170.548 L 156.453 170.598 L 156.604 170.734 L 156.68 170.961 L 156.705 171.264 L 156.705 172.953 L 157.149 172.953 L 157.149 171.173 L 157.129 170.815 L 157.038 170.518 L 156.741 170.245 L 156.277 170.149 L 156.025 170.185 L 155.808 170.281 L 155.626 170.432 L 155.49 170.639 L 155.49 169.332 L 155.046 169.332 L 155.046 172.953 L 155.046 172.953 z M 158.47 171.728 L 160.246 171.728 L 160.251 171.521 L 160.17 170.941 L 159.948 170.507 L 159.595 170.245 L 159.126 170.149 L 158.667 170.25 L 158.314 170.533 L 158.087 170.992 L 158.007 171.597 L 158.082 172.217 L 158.309 172.671 L 158.657 172.953 L 159.111 173.049 L 159.504 172.984 L 159.827 172.812 L 160.064 172.54 L 160.2 172.177 L 159.762 172.177 L 159.671 172.379 L 159.54 172.53 L 159.166 172.651 L 158.879 172.595 L 158.662 172.419 L 158.521 172.131 L 158.47 171.743 L 158.47 171.728 L 158.47 171.728 z M 158.47 171.355 L 158.526 171.007 L 158.662 170.75 L 158.869 170.593 L 159.141 170.538 L 159.409 170.593 L 159.615 170.75 L 159.741 171.007 L 159.787 171.355 L 158.47 171.355 L 158.47 171.355 z M 162.001 169.706 L 162.001 172.58 L 161.088 172.58 L 161.088 172.953 L 163.352 172.953 L 163.352 172.58 L 162.445 172.58 L 162.445 169.332 L 161.305 169.332 L 161.305 169.706 L 162.001 169.706 L 162.001 169.706 z M 165.037 169.706 L 165.037 172.58 L 164.124 172.58 L 164.124 172.953 L 166.388 172.953 L 166.388 172.58 L 165.481 172.58 L 165.481 169.332 L 164.341 169.332 L 164.341 169.706 L 165.037 169.706 L 165.037 169.706 z M 167.579 171.728 L 169.354 171.728 L 169.359 171.521 L 169.278 170.941 L 169.056 170.507 L 168.703 170.245 L 168.234 170.149 L 167.775 170.25 L 167.422 170.533 L 167.195 170.992 L 167.115 171.597 L 167.19 172.217 L 167.417 172.671 L 167.765 172.953 L 168.219 173.049 L 168.612 172.984 L 168.935 172.812 L 169.172 172.54 L 169.308 172.177 L 168.87 172.177 L 168.779 172.379 L 168.648 172.53 L 168.275 172.651 L 167.987 172.595 L 167.77 172.419 L 167.629 172.131 L 167.579 171.743 L 167.579 171.728 L 167.579 171.728 z M 167.579 171.355 L 167.634 171.007 L 167.77 170.75 L 167.977 170.593 L 168.249 170.538 L 168.517 170.593 L 168.723 170.75 L 168.849 171.007 L 168.895 171.355 L 167.579 171.355 L 167.579 171.355 z M 173.958 172.953 L 174.654 172.953 L 174.654 172.202 L 173.958 172.202 L 173.958 172.953 L 173.958 172.953 z M 173.958 170.997 L 174.654 170.997 L 174.654 170.245 L 173.958 170.245 L 173.958 170.997 L 173.958 170.997 z" stroke="none" fill-rule="evenodd" fill="rgb(0, 0, 0)"/></g><g stroke="rgb(0, 0, 0)" stroke-width="0.13" stroke-linecap="butt" stroke-linejoin="miter" fill="none"><path d="M 183.323 172.953 L 183.782 172.953 L 183.782 169.428 L 183.439 169.428 L 183.349 169.736 L 183.167 169.943 L 182.89 170.064 L 182.506 170.104 L 182.506 170.462 L 183.323 170.462 L 183.323 172.953 L 183.323 172.953 z M 186.102 172.953 L 186.798 172.953 L 186.798 172.202 L 186.102 172.202 L 186.102 172.953 L 186.102 172.953 z M 186.102 170.997 L 186.798 170.997 L 186.798 170.245 L 186.102 170.245 L 186.102 170.997 L 186.102 170.997 z M 189.396 172.953 L 189.854 172.953 L 189.854 169.428 L 189.512 169.428 L 189.421 169.736 L 189.239 169.943 L 188.962 170.064 L 188.579 170.104 L 188.579 170.462 L 189.396 170.462 L 189.396 172.953 L 189.396 172.953 z" stroke="none" fill-rule="evenodd" fill="rgb(0, 0, 0)"/></g><g stroke="rgb(0, 0, 0)" stroke-width="0.13" stroke-linecap="butt" stroke-linejoin="miter" fill="none"><path d="M 145.401 44.807 L 147.807 44.807 L 147.807 44.3733 L 145.906 44.3733 L 146.012 44.1363 L 146.193 43.9396 L 146.753 43.5815 L 147.051 43.4302 L 147.383 43.2134 L 147.62 42.9612 L 147.757 42.6637 L 147.807 42.3258 L 147.721 41.9021 L 147.484 41.5693 L 147.121 41.3575 L 146.652 41.2818 L 146.168 41.3676 L 145.8 41.6046 L 145.563 41.9828 L 145.482 42.4821 L 145.482 42.5527 L 145.941 42.5527 L 145.941 42.5124 L 145.986 42.1694 L 146.123 41.9173 L 146.339 41.7559 L 146.627 41.7004 L 146.919 41.7508 L 147.136 41.8769 L 147.278 42.0736 L 147.328 42.3207 L 147.293 42.5527 L 147.197 42.7494 L 147.035 42.9209 L 146.814 43.0722 L 146.516 43.2336 L 146.022 43.5462 L 145.674 43.8791 L 145.467 44.2825 L 145.401 44.7919 L 145.401 44.807 L 145.401 44.807 z M 149.153 43.0974 L 149.228 43.8892 L 149.465 44.454 L 149.844 44.797 L 150.368 44.9079 L 150.887 44.797 L 151.266 44.454 L 151.498 43.8892 L 151.578 43.0974 L 151.498 42.3106 L 151.402 41.998 L 151.266 41.7408 L 150.887 41.3978 L 150.368 41.2818 L 149.844 41.3978 L 149.465 41.7458 L 149.228 42.3106 L 149.153 43.0974 L 149.153 43.0974 z M 149.637 43.0974 L 149.677 42.4872 L 149.803 42.0484 L 150.03 41.7912 L 150.368 41.7004 L 150.701 41.7912 L 150.928 42.0484 L 151.054 42.4872 L 151.094 43.0974 L 151.054 43.7127 L 150.928 44.1514 L 150.701 44.4086 L 150.368 44.4944 L 150.03 44.4086 L 149.803 44.1514 L 149.677 43.7127 L 149.637 43.0974 L 149.637 43.0974 z" stroke="none" fill-rule="evenodd" fill="rgb(0, 0, 0)"/><path d="M 156.568 47.3247 L 158.5 46.807 L 156.568 46.2894"/><path d="M 140.432 46.2894 L 138.5 46.807 L 140.432 47.3247"/><path d="M 138.5 46.807 L 158.5 46.807"/></g></svg>