<?xml version="1.0" encoding="utf-8"?>
<!-- Generator: Adobe Illustrator 22.0.1, SVG Export Plug-In . SVG Version: 6.00 Build 0)  -->
<svg version="1.1" id="Calque_1" dsy:text-version="18000" xmlns:dsy="http://www.3ds.com/print"
	 xmlns="http://www.w3.org/2000/svg" xmlns:xlink="http://www.w3.org/1999/xlink" x="0px" y="0px" viewBox="0 0 1189 841"
	 style="enable-background:new 0 0 1189 841;" xml:space="preserve">
<style type="text/css">
	.st0{fill:none;stroke:#FF0000;stroke-width:2.834646e-02;}
</style>
<g>
	<path class="st0" d="M314.7,243.3c-48.7,0-96.6,12.6-139.1,36.5"/>
	<path class="st0" d="M874.3,243.3H314.7"/>
	<path class="st0" d="M1017,281.9c-43.3-25.2-92.6-38.6-142.7-38.6"/>
	<path class="st0" d="M1017,281.9c0.6,4.2,1.5,8.4,2.9,12.4"/>
	<path class="st0" d="M1019.9,294.3c8.6,25.1,30.5,40.3,49.1,34c1.8-0.6,3.5-1.4,5.2-2.4"/>
	<path class="st0" d="M1147.7,451.9c-13.1-47.7-38.4-91.2-73.5-126.1"/>
	<path class="st0" d="M1187.6,597.7l-39.9-145.8"/>
	<path class="st0" d="M1.4,597.7h1186.3"/>
	<path class="st0" d="M41.3,451.9L1.4,597.7"/>
	<path class="st0" d="M116.2,324.4c-35.8,35.1-61.6,79.1-74.9,127.5"/>
	<path class="st0" d="M116.2,324.4c4.6,3.4,10.1,5.2,15.9,5.2"/>
	<path class="st0" d="M132.1,329.6c20.1,0,39.4-21,43.2-46.8c0.1-1,0.3-2,0.4-3"/>
	<circle class="st0" cx="142.6" cy="455" r="6.4"/>
	<circle class="st0" cx="1051.7" cy="452.3" r="6.4"/>
	<circle class="st0" cx="312.7" cy="269.4" r="6.4"/>
	<circle class="st0" cx="880.1" cy="271.6" r="6.4"/>
	<path class="st0" d="M1019.9,294.1c8.6,25.1,30.6,40.2,49.1,33.8c1.7-0.6,3.4-1.4,5-2.3"/>
	<path class="st0" d="M116.4,324.3c4.6,3.4,10,5.1,15.8,5.1"/>
	<path class="st0" d="M132.2,329.4c16.6,0,33.2-14.5,40.3-35.3"/>
	<path class="st0" d="M1074,325.6l0.2,0.2"/>
	<path class="st0" d="M116.4,324.3l-0.2,0.2"/>
	<path class="st0" d="M1019.9,294.2L1019.9,294.2"/>
</g>
</svg>
