<?xml version="1.0" encoding="utf-8" ?><!DOCTYPE svg PUBLIC "-//W3C//DTD SVG 1.1//EN" "http://www.w3.org/Graphics/SVG/1.1/DTD/svg11.dtd" 
[ <!ATTLIST svg 
  xmlns:dsy CDATA #FIXED "http://www.3ds.com/print"  
    dsy:text-version CDATA #IMPLIED > 

  <!ATTLIST text 
  xmlns:dsy CDATA #FIXED "http://www.3ds.com/print" 
    dsy:text-version CDATA #IMPLIED > 
]><svg xmlns="http://www.w3.org/2000/svg" xmlns:dsy="http://www.3ds.com/print" dsy:text-version="18000" width="1189" height="841" viewBox="0 0 1189 841" version="1.1"><g stroke="rgb(0, 0, 0)" stroke-width="0.35" stroke-linecap="butt" stroke-linejoin="miter" fill="none"><circle cx="507.38" cy="418.06" r="1"/><path d="M 495.789 358 A 100 100 0 0 0 446.723 370.865"/><path d="M 693.211 358 L 495.789 358"/><path d="M 743.561 371.6 A 100 100 0 0 0 693.211 358"/><path d="M 743.561 371.6 A 22.6143 22.6143 0 0 0 744.587 375.967"/><path d="M 744.586 375.967 A 16.9318 12.5 -288.873 0 0 763.72 387.088"/><path d="M 789.657 431.578 A 100 100 0 0 0 763.72 387.088"/><path d="M 803.745 483 L 789.657 431.578"/><path d="M 385.255 483 L 803.745 483"/><path d="M 399.343 431.578 L 385.255 483"/><path d="M 425.766 386.608 A 100 100 0 0 0 399.343 431.578"/><path d="M 425.766 386.608 A 16.9377 12.5021 -251.124 0 0 431.37 388.447"/><path d="M 431.37 388.447 A 16.9319 12.5 -251.127 0 0 446.723 370.865"/><circle cx="450.49" cy="409.46" r="1"/><circle cx="480.75" cy="371.99" r="1"/><circle cx="642.46" cy="444.27" r="1"/><circle cx="546.54" cy="444.27" r="1"/><circle cx="594.5" cy="378.7" r="1"/><circle cx="435.094" cy="432.683" r="2.25"/><circle cx="755.787" cy="431.73" r="2.25"/><circle cx="495.1" cy="367.21" r="2.25"/><circle cx="695.26" cy="367.958" r="2.24414"/><circle cx="639.5" cy="413" r="2.95001"/><circle cx="636.786" cy="397.609" r="2.95001"/><circle cx="628.972" cy="384.075" r="2.95001"/><circle cx="617" cy="374.029" r="2.95001"/><circle cx="602.314" cy="368.684" r="2.95001"/><circle cx="586.686" cy="368.684" r="2.95001"/><circle cx="572" cy="374.029" r="2.95001"/><circle cx="560.028" cy="384.075" r="2.95001"/><circle cx="552.214" cy="397.609" r="2.95001"/><circle cx="549.5" cy="413" r="2.95001"/><path d="M 583.25 390.1 L 605.75 390.1"/><path d="M 583.25 390.1 L 583.25 423"/><path d="M 605.75 423 L 583.25 423"/><path d="M 605.75 423 L 605.75 390.1"/><path d="M 499.5 389 L 499.5 407"/><path d="M 462 389 L 499.5 389"/><path d="M 462 407 L 462 389"/><path d="M 499.5 407 L 462 407"/><path d="M 530.15 458.25 L 530.15 456.683"/><path d="M 528.85 458.25 L 530.15 458.25"/><path d="M 528.85 456.683 L 528.85 458.25"/><path d="M 528.85 456.683 A 6.34998 6.34998 0 1 0 530.15 456.683"/><path d="M 443.85 456.683 A 6.34998 6.34998 0 1 0 445.15 456.683"/><path d="M 445.15 458.25 L 445.15 456.683"/><path d="M 443.85 458.25 L 445.15 458.25"/><path d="M 443.85 456.683 L 443.85 458.25"/><path d="M 518.85 396.683 A 6.34998 6.34998 0 1 0 520.15 396.683"/><path d="M 520.15 398.25 L 520.15 396.683"/><path d="M 518.85 398.25 L 520.15 398.25"/><path d="M 518.85 396.683 L 518.85 398.25"/><path d="M 703.85 398.25 L 705.15 398.25"/><path d="M 703.85 396.683 L 703.85 398.25"/><path d="M 703.85 396.683 A 6.34998 6.34998 0 1 0 705.15 396.683"/><path d="M 705.15 398.25 L 705.15 396.683"/><path d="M 673.85 396.683 A 6.34998 6.34998 0 1 0 675.15 396.683"/><path d="M 675.15 398.25 L 675.15 396.683"/><path d="M 673.85 398.25 L 675.15 398.25"/><path d="M 673.85 396.683 L 673.85 398.25"/><circle cx="664.5" cy="378" r="7"/><circle cx="519.5" cy="378" r="7"/><circle cx="684.5" cy="378" r="7"/><circle cx="704.5" cy="378" r="7"/><circle cx="704.5" cy="433" r="9.59998"/><circle cx="734.5" cy="398" r="8"/><circle cx="469.5" cy="433" r="9.59998"/><circle cx="499.5" cy="433" r="9.59998"/><circle cx="529.5" cy="433" r="9.59998"/><path d="M 744.572 375.924 A 16.9318 12.5 -288.873 0 0 763.654 387.023"/><path d="M 425.829 386.546 A 16.9374 12.502 -251.124 0 0 431.399 388.361"/><path d="M 431.399 388.361 A 16.9319 12.5001 -251.128 0 0 445.629 375.921"/><path d="M 763.654 387.023 L 763.72 387.088"/><path d="M 425.829 386.546 L 425.766 386.608"/><path d="M 744.583 375.956 L 744.587 375.969"/></g><g stroke="rgb(0, 0, 0)" stroke-width="0.13" stroke-linecap="butt" stroke-linejoin="miter" fill="none"><path d="M 596.896 491.352 L 596.018 494.332 L 595.115 491.352 L 594.636 491.352 L 595.766 494.857 L 596.27 494.857 L 597.375 491.352 L 596.896 491.352 L 596.896 491.352 z M 600.098 492.148 L 599.654 492.148 L 599.654 493.712 L 599.604 494.075 L 599.457 494.337 L 599.231 494.499 L 598.933 494.549 L 598.696 494.509 L 598.545 494.388 L 598.459 494.181 L 598.439 493.888 L 598.439 492.148 L 597.995 492.148 L 597.995 493.929 L 598.01 494.287 L 598.106 494.584 L 598.398 494.857 L 598.867 494.952 L 599.12 494.917 L 599.336 494.826 L 599.523 494.67 L 599.674 494.443 L 599.674 494.857 L 600.098 494.857 L 600.098 492.148 L 600.098 492.148 z M 601.434 493.631 L 603.21 493.631 L 603.215 493.424 L 603.134 492.844 L 602.912 492.411 L 602.559 492.148 L 602.09 492.053 L 601.631 492.153 L 601.278 492.436 L 601.051 492.895 L 600.97 493.5 L 601.046 494.12 L 601.273 494.574 L 601.621 494.857 L 602.075 494.952 L 602.468 494.887 L 602.791 494.715 L 603.028 494.443 L 603.164 494.08 L 602.725 494.08 L 602.635 494.282 L 602.504 494.433 L 602.13 494.554 L 601.843 494.499 L 601.626 494.322 L 601.485 494.035 L 601.434 493.646 L 601.434 493.631 L 601.434 493.631 z M 601.434 493.258 L 601.49 492.91 L 601.626 492.653 L 601.833 492.496 L 602.105 492.441 L 602.372 492.496 L 602.579 492.653 L 602.705 492.91 L 602.751 493.258 L 601.434 493.258 L 601.434 493.258 z M 608.782 494.438 L 608.782 494.857 L 609.226 494.857 L 609.226 491.236 L 608.787 491.236 L 608.787 492.562 L 608.45 492.179 L 608.243 492.088 L 608.006 492.053 L 607.577 492.153 L 607.244 492.436 L 607.027 492.89 L 606.952 493.5 L 607.027 494.11 L 607.244 494.569 L 607.577 494.857 L 608.006 494.952 L 608.243 494.917 L 608.455 494.826 L 608.782 494.438 L 608.782 494.438 z M 608.081 492.451 L 608.374 492.522 L 608.596 492.718 L 608.727 493.046 L 608.777 493.5 L 608.727 493.959 L 608.596 494.287 L 608.374 494.488 L 608.081 494.554 L 607.804 494.488 L 607.592 494.287 L 607.451 493.954 L 607.406 493.5 L 607.451 493.051 L 607.592 492.723 L 607.804 492.522 L 608.081 492.451 L 608.081 492.451 z M 610.542 493.631 L 612.318 493.631 L 612.323 493.424 L 612.242 492.844 L 612.02 492.411 L 611.667 492.148 L 611.198 492.053 L 610.739 492.153 L 610.386 492.436 L 610.159 492.895 L 610.078 493.5 L 610.154 494.12 L 610.381 494.574 L 610.729 494.857 L 611.183 494.952 L 611.576 494.887 L 611.899 494.715 L 612.136 494.443 L 612.272 494.08 L 611.833 494.08 L 611.743 494.282 L 611.612 494.433 L 611.238 494.554 L 610.951 494.499 L 610.734 494.322 L 610.593 494.035 L 610.542 493.646 L 610.542 493.631 L 610.542 493.631 z M 610.542 493.258 L 610.598 492.91 L 610.734 492.653 L 610.941 492.496 L 611.213 492.441 L 611.48 492.496 L 611.687 492.653 L 611.813 492.91 L 611.859 493.258 L 610.542 493.258 L 610.542 493.258 z M 616.841 492.617 L 616.841 494.857 L 617.285 494.857 L 617.285 492.617 L 618.294 492.617 L 618.294 492.239 L 617.285 492.239 L 617.285 492.073 L 617.32 491.871 L 617.437 491.735 L 617.633 491.654 L 617.916 491.624 L 618.294 491.644 L 618.294 491.261 L 617.815 491.236 L 617.381 491.281 L 617.078 491.417 L 616.897 491.654 L 616.841 491.992 L 616.841 492.239 L 616.029 492.239 L 616.029 492.617 L 616.841 492.617 L 616.841 492.617 z M 620.871 494.504 L 620.871 494.519 L 620.896 494.69 L 620.972 494.811 L 621.289 494.907 L 621.537 494.867 L 621.537 494.524 L 621.431 494.539 L 621.289 494.473 L 621.264 494.272 L 621.264 492.87 L 621.204 492.512 L 621.027 492.259 L 620.72 492.108 L 620.286 492.053 L 619.862 492.113 L 619.55 492.285 L 619.353 492.552 L 619.287 492.905 L 619.287 492.935 L 619.686 492.935 L 619.721 492.723 L 619.832 492.572 L 620.014 492.481 L 620.271 492.446 L 620.518 492.471 L 620.694 492.547 L 620.8 492.678 L 620.836 492.86 L 620.815 493.071 L 620.735 493.177 L 620.533 493.228 L 620.155 493.268 L 619.721 493.359 L 619.413 493.52 L 619.232 493.772 L 619.176 494.146 L 619.227 494.478 L 619.383 494.725 L 619.635 494.882 L 619.983 494.937 L 620.452 494.831 L 620.871 494.504 L 620.871 494.504 z M 620.82 493.909 L 620.76 494.171 L 620.599 494.372 L 620.357 494.504 L 620.059 494.549 L 619.867 494.524 L 619.731 494.443 L 619.645 494.302 L 619.62 494.105 L 619.64 493.929 L 619.721 493.803 L 620.044 493.661 L 620.452 493.601 L 620.82 493.48 L 620.82 493.909 L 620.82 493.909 z M 624.023 493.046 L 624.462 493.046 L 624.371 492.643 L 624.154 492.325 L 623.816 492.128 L 623.377 492.053 L 622.893 492.153 L 622.525 492.436 L 622.293 492.895 L 622.212 493.51 L 622.288 494.12 L 622.515 494.574 L 622.873 494.857 L 623.362 494.952 L 623.796 494.877 L 624.134 494.665 L 624.366 494.332 L 624.467 493.888 L 624.043 493.888 L 623.967 494.171 L 623.826 494.383 L 623.625 494.514 L 623.377 494.554 L 623.07 494.488 L 622.848 494.287 L 622.712 493.959 L 622.666 493.495 L 622.712 493.041 L 622.853 492.713 L 623.08 492.512 L 623.377 492.441 L 623.64 492.486 L 623.836 492.602 L 623.967 492.794 L 624.023 493.046 L 624.023 493.046 z M 625.722 493.631 L 627.498 493.631 L 627.503 493.424 L 627.422 492.844 L 627.2 492.411 L 626.847 492.148 L 626.378 492.053 L 625.919 492.153 L 625.566 492.436 L 625.339 492.895 L 625.259 493.5 L 625.334 494.12 L 625.561 494.574 L 625.909 494.857 L 626.363 494.952 L 626.756 494.887 L 627.079 494.715 L 627.316 494.443 L 627.452 494.08 L 627.014 494.08 L 626.923 494.282 L 626.792 494.433 L 626.418 494.554 L 626.131 494.499 L 625.914 494.322 L 625.773 494.035 L 625.722 493.646 L 625.722 493.631 L 625.722 493.631 z M 625.722 493.258 L 625.778 492.91 L 625.914 492.653 L 626.121 492.496 L 626.393 492.441 L 626.661 492.496 L 626.867 492.653 L 626.993 492.91 L 627.039 493.258 L 625.722 493.258 L 625.722 493.258 z" stroke="none" fill-rule="evenodd" fill="rgb(0, 0, 0)"/></g><g stroke="rgb(0, 0, 0)" stroke-width="0.13" stroke-linecap="butt" stroke-linejoin="miter" fill="none"><path d="M 594.959 500.903 L 597.178 500.903 L 597.178 500.48 L 595.423 500.48 L 595.423 499.295 L 596.986 499.295 L 596.986 498.876 L 595.423 498.876 L 595.423 497.827 L 597.138 497.827 L 597.138 497.403 L 594.959 497.403 L 594.959 500.903 L 594.959 500.903 z M 599.735 499.093 L 600.174 499.093 L 600.083 498.689 L 599.866 498.372 L 599.528 498.175 L 599.089 498.099 L 598.605 498.2 L 598.237 498.483 L 598.005 498.942 L 597.924 499.557 L 598 500.167 L 598.227 500.621 L 598.585 500.903 L 599.074 500.999 L 599.508 500.924 L 599.846 500.712 L 600.078 500.379 L 600.179 499.935 L 599.755 499.935 L 599.679 500.218 L 599.538 500.429 L 599.336 500.561 L 599.089 500.601 L 598.782 500.535 L 598.56 500.334 L 598.424 500.006 L 598.378 499.542 L 598.424 499.088 L 598.565 498.76 L 598.792 498.558 L 599.089 498.488 L 599.352 498.533 L 599.548 498.649 L 599.679 498.841 L 599.735 499.093 L 599.735 499.093 z M 601.046 500.903 L 601.49 500.903 L 601.49 499.34 L 601.535 498.982 L 601.682 498.72 L 601.908 498.558 L 602.211 498.498 L 602.453 498.548 L 602.604 498.684 L 602.68 498.911 L 602.705 499.214 L 602.705 500.903 L 603.149 500.903 L 603.149 499.123 L 603.129 498.765 L 603.038 498.468 L 602.741 498.195 L 602.277 498.099 L 602.024 498.135 L 601.808 498.231 L 601.626 498.382 L 601.49 498.589 L 601.49 497.282 L 601.046 497.282 L 601.046 500.903 L 601.046 500.903 z M 604.47 499.678 L 606.246 499.678 L 606.251 499.471 L 606.17 498.891 L 605.948 498.457 L 605.595 498.195 L 605.126 498.099 L 604.667 498.2 L 604.314 498.483 L 604.087 498.942 L 604.006 499.547 L 604.082 500.167 L 604.309 500.621 L 604.657 500.903 L 605.111 500.999 L 605.504 500.934 L 605.827 500.762 L 606.064 500.49 L 606.2 500.127 L 605.761 500.127 L 605.671 500.329 L 605.54 500.48 L 605.166 500.601 L 604.879 500.545 L 604.662 500.369 L 604.521 500.081 L 604.47 499.693 L 604.47 499.678 L 604.47 499.678 z M 604.47 499.305 L 604.526 498.957 L 604.662 498.7 L 604.869 498.543 L 605.141 498.488 L 605.408 498.543 L 605.615 498.7 L 605.741 498.957 L 605.787 499.305 L 604.47 499.305 L 604.47 499.305 z M 608.001 497.656 L 608.001 500.53 L 607.088 500.53 L 607.088 500.903 L 609.352 500.903 L 609.352 500.53 L 608.444 500.53 L 608.444 497.282 L 607.305 497.282 L 607.305 497.656 L 608.001 497.656 L 608.001 497.656 z M 611.037 497.656 L 611.037 500.53 L 610.124 500.53 L 610.124 500.903 L 612.388 500.903 L 612.388 500.53 L 611.48 500.53 L 611.48 497.282 L 610.341 497.282 L 610.341 497.656 L 611.037 497.656 L 611.037 497.656 z M 613.578 499.678 L 615.354 499.678 L 615.359 499.471 L 615.278 498.891 L 615.056 498.457 L 614.703 498.195 L 614.234 498.099 L 613.775 498.2 L 613.422 498.483 L 613.195 498.942 L 613.115 499.547 L 613.19 500.167 L 613.417 500.621 L 613.765 500.903 L 614.219 500.999 L 614.612 500.934 L 614.935 500.762 L 615.172 500.49 L 615.308 500.127 L 614.87 500.127 L 614.779 500.329 L 614.648 500.48 L 614.274 500.601 L 613.987 500.545 L 613.77 500.369 L 613.629 500.081 L 613.578 499.693 L 613.578 499.678 L 613.578 499.678 z M 613.578 499.305 L 613.634 498.957 L 613.77 498.7 L 613.977 498.543 L 614.249 498.488 L 614.516 498.543 L 614.723 498.7 L 614.849 498.957 L 614.895 499.305 L 613.578 499.305 L 613.578 499.305 z M 619.958 500.903 L 620.654 500.903 L 620.654 500.152 L 619.958 500.152 L 619.958 500.903 L 619.958 500.903 z M 619.958 498.947 L 620.654 498.947 L 620.654 498.195 L 619.958 498.195 L 619.958 498.947 L 619.958 498.947 z" stroke="none" fill-rule="evenodd" fill="rgb(0, 0, 0)"/></g><g stroke="rgb(0, 0, 0)" stroke-width="0.13" stroke-linecap="butt" stroke-linejoin="miter" fill="none"><path d="M 629.323 500.903 L 629.782 500.903 L 629.782 497.378 L 629.439 497.378 L 629.349 497.686 L 629.167 497.893 L 628.89 498.014 L 628.506 498.054 L 628.506 498.412 L 629.323 498.412 L 629.323 500.903 L 629.323 500.903 z M 632.102 500.903 L 632.798 500.903 L 632.798 500.152 L 632.102 500.152 L 632.102 500.903 L 632.102 500.903 z M 632.102 498.947 L 632.798 498.947 L 632.798 498.195 L 632.102 498.195 L 632.102 498.947 L 632.102 498.947 z M 635.396 500.903 L 635.854 500.903 L 635.854 497.378 L 635.511 497.378 L 635.421 497.686 L 635.239 497.893 L 634.962 498.014 L 634.578 498.054 L 634.578 498.412 L 635.396 498.412 L 635.396 500.903 L 635.396 500.903 z" stroke="none" fill-rule="evenodd" fill="rgb(0, 0, 0)"/></g></svg>