<?xml version="1.0" encoding="utf-8"?>
<!-- Generator: Adobe Illustrator 22.0.1, SVG Export Plug-In . SVG Version: 6.00 Build 0)  -->
<svg version="1.1" id="Calque_1" dsy:text-version="18000" xmlns:dsy="http://www.3ds.com/print"
	 xmlns="http://www.w3.org/2000/svg" xmlns:xlink="http://www.w3.org/1999/xlink" x="0px" y="0px" viewBox="0 0 1189 841"
	 style="enable-background:new 0 0 1189 841;" xml:space="preserve">
<style type="text/css">
	.st0{fill:none;stroke:#FF0000;stroke-width:2.834646e-02;}
</style>
<g>
	<circle class="st0" cx="347.5" cy="413.6" r="4.5"/>
	<path class="st0" d="M314.7,243.3c-48.7,0-96.6,12.6-139.1,36.5"/>
	<path class="st0" d="M874.3,243.3H314.7"/>
	<path class="st0" d="M1017,281.9c-43.3-25.2-92.6-38.6-142.7-38.6"/>
	<path class="st0" d="M1017,281.9c0.6,4.2,1.5,8.4,2.9,12.4"/>
	<path class="st0" d="M1019.9,294.3c8.6,25.1,30.5,40.3,49.1,34c1.8-0.6,3.5-1.4,5.2-2.4"/>
	<path class="st0" d="M1147.7,451.9c-13.1-47.7-38.4-91.2-73.5-126.1"/>
	<path class="st0" d="M1187.6,597.7l-39.9-145.8"/>
	<path class="st0" d="M1.4,597.7h1186.3"/>
	<path class="st0" d="M41.3,451.9L1.4,597.7"/>
	<path class="st0" d="M116.2,324.4c-35.8,35.1-61.6,79.1-74.9,127.5"/>
	<path class="st0" d="M116.2,324.4c4.6,3.4,10.1,5.2,15.9,5.2"/>
	<path class="st0" d="M132.1,329.6c20.1,0,39.4-21,43.2-46.8c0.1-1,0.3-2,0.4-3"/>
	<circle class="st0" cx="186.3" cy="389.2" r="4.5"/>
	<circle class="st0" cx="272.1" cy="283" r="4.5"/>
	<circle class="st0" cx="734.7" cy="487.9" r="4.5"/>
	<circle class="st0" cx="454.3" cy="487.9" r="4.5"/>
	<circle class="st0" cx="594.5" cy="298.9" r="4.5"/>
	<circle class="st0" cx="142.6" cy="455" r="6.4"/>
	<circle class="st0" cx="1051.7" cy="452.3" r="6.4"/>
	<circle class="st0" cx="312.7" cy="269.4" r="6.4"/>
	<circle class="st0" cx="880.1" cy="271.6" r="6.4"/>
	<circle class="st0" cx="722.1" cy="399.2" r="8.4"/>
	<circle class="st0" cx="714.4" cy="355.6" r="8.4"/>
	<circle class="st0" cx="692.2" cy="317.2" r="8.4"/>
	<circle class="st0" cx="658.3" cy="288.8" r="8.4"/>
	<circle class="st0" cx="616.7" cy="273.6" r="8.4"/>
	<circle class="st0" cx="572.3" cy="273.6" r="8.4"/>
	<circle class="st0" cx="530.7" cy="288.8" r="8.4"/>
	<circle class="st0" cx="496.8" cy="317.2" r="8.4"/>
	<circle class="st0" cx="474.6" cy="355.6" r="8.4"/>
	<circle class="st0" cx="466.9" cy="399.2" r="8.4"/>
	<path class="st0" d="M558.4,331.2h68"/>
	<path class="st0" d="M558.4,331.2v96.4"/>
	<path class="st0" d="M626.4,427.6h-68"/>
	<path class="st0" d="M626.4,427.6v-96.4"/>
	<path class="st0" d="M325.2,331.2v51"/>
	<path class="st0" d="M218.9,331.2h106.3"/>
	<path class="st0" d="M218.9,382.2v-51"/>
	<path class="st0" d="M325.2,382.2H218.9"/>
	<path class="st0" d="M412.1,527.5v-4.4"/>
	<path class="st0" d="M408.4,527.5h3.7"/>
	<path class="st0" d="M408.4,523.1v4.4"/>
	<path class="st0" d="M408.4,523.1c-9.9,1-17.1,9.9-16.1,19.7c1,9.9,9.9,17.1,19.7,16.1c9.9-1,17.1-9.9,16.1-19.7
		c-0.9-8.5-7.6-15.2-16.1-16.1"/>
	<path class="st0" d="M167.5,523.1c-9.9,1-17.1,9.9-16.1,19.7c1,9.9,9.9,17.1,19.7,16.1c9.9-1,17.1-9.9,16.1-19.7
		c-0.9-8.5-7.6-15.2-16.1-16.1"/>
	<path class="st0" d="M171.1,527.5v-4.4"/>
	<path class="st0" d="M167.5,527.5h3.7"/>
	<path class="st0" d="M167.5,523.1v4.4"/>
	<path class="st0" d="M380.1,353c-9.9,1-17.1,9.9-16.1,19.7c1,9.9,9.9,17.1,19.7,16.1c9.9-1,17.1-9.9,16.1-19.7
		c-0.9-8.5-7.6-15.2-16.1-16.1"/>
	<path class="st0" d="M383.7,357.4V353"/>
	<path class="st0" d="M380.1,357.4h3.7"/>
	<path class="st0" d="M380.1,353v4.4"/>
	<path class="st0" d="M918.6,357.4h3.7"/>
	<path class="st0" d="M918.6,353v4.4"/>
	<path class="st0" d="M918.6,353c-9.9,1-17.1,9.9-16.1,19.7c1,9.9,9.9,17.1,19.7,16.1s17.1-9.9,16.1-19.7
		c-0.9-8.5-7.6-15.2-16.1-16.1"/>
	<path class="st0" d="M922.3,357.4V353"/>
	<path class="st0" d="M819.4,353c-9.9,1-17.1,9.9-16.1,19.7c1,9.9,9.9,17.1,19.7,16.1s17.1-9.9,16.1-19.7
		c-0.9-8.5-7.6-15.2-16.1-16.1"/>
	<path class="st0" d="M823.1,357.4V353"/>
	<path class="st0" d="M819.4,357.4h3.7"/>
	<path class="st0" d="M819.4,353v4.4"/>
	<circle class="st0" cx="792.9" cy="300" r="19.8"/>
	<circle class="st0" cx="381.9" cy="300" r="19.8"/>
	<circle class="st0" cx="849.6" cy="300" r="19.8"/>
	<circle class="st0" cx="906.3" cy="300" r="19.8"/>
	<circle class="st0" cx="906.3" cy="455.9" r="27.2"/>
	<circle class="st0" cx="991.4" cy="356.7" r="22.7"/>
	<circle class="st0" cx="240.2" cy="455.9" r="27.2"/>
	<circle class="st0" cx="325.2" cy="455.9" r="27.2"/>
	<circle class="st0" cx="410.2" cy="455.9" r="27.2"/>
	<path class="st0" d="M1019.9,294.1c8.6,25.1,30.6,40.2,49.1,33.8c1.7-0.6,3.4-1.4,5-2.3"/>
	<path class="st0" d="M116.4,324.3c4.6,3.4,10,5.1,15.8,5.1"/>
	<path class="st0" d="M132.2,329.4c16.6,0,33.2-14.5,40.3-35.3"/>
	<path class="st0" d="M1074,325.6l0.2,0.2"/>
	<path class="st0" d="M116.4,324.3l-0.2,0.2"/>
	<path class="st0" d="M1019.9,294.2L1019.9,294.2"/>
</g>
</svg>
