<?xml version="1.0" encoding="utf-8" ?><!DOCTYPE svg PUBLIC "-//W3C//DTD SVG 1.1//EN" "http://www.w3.org/Graphics/SVG/1.1/DTD/svg11.dtd" 
[ <!ATTLIST svg 
  xmlns:dsy CDATA #FIXED "http://www.3ds.com/print"  
    dsy:text-version CDATA #IMPLIED > 

  <!ATTLIST text 
  xmlns:dsy CDATA #FIXED "http://www.3ds.com/print" 
    dsy:text-version CDATA #IMPLIED > 
]><svg xmlns="http://www.w3.org/2000/svg" xmlns:dsy="http://www.3ds.com/print" dsy:text-version="18000" width="297" height="210" viewBox="0 0 297 210" version="1.1"><g stroke="rgb(0, 0, 0)" stroke-width="0.13" stroke-linecap="butt" stroke-linejoin="miter" fill="none"><path d="M 63.9845 149.19 L 35.5512 149.19"/><path d="M 69.2348 60.8104 L 35.5512 60.8104"/></g><g stroke="rgb(0, 0, 0)" stroke-width="0.35" stroke-linecap="butt" stroke-linejoin="miter" fill="none"><path d="M 138.589 108.691 L 138.589 93.6913"/><path d="M 138.589 93.6913 L 144.589 93.6913"/><path d="M 144.589 93.6913 L 144.589 108.691"/><path d="M 144.589 108.691 L 196.807 108.691"/><path d="M 196.807 108.691 L 196.807 93.6913"/><path d="M 196.807 93.6913 L 202.807 93.6913"/><path d="M 202.807 93.6913 L 202.807 108.691"/><circle cx="66.0148" cy="108.276" r="4.3"/><circle cx="238.78" cy="85.3164" r="4.2"/><path d="M 58.1105 116.586 L 68.2508 134.149"/><path d="M 68.2508 134.149 L 66.9517 134.899"/><path d="M 66.9517 134.899 L 56.8114 117.336"/><path d="M 56.8114 117.336 L 58.1105 116.586"/><path d="M 65.9845 149.19 L 82.4224 98.1764"/><path d="M 86.0138 94.8481 A 5 5 0 0 0 82.4224 98.1764"/><path d="M 129.856 108.691 L 138.589 108.691"/><path d="M 126.177 107.077 A 41.4352 41.4352 0 0 0 86.0138 94.8481"/><path d="M 126.177 107.077 A 5 5 0 0 0 129.856 108.691"/><path d="M 48.6646 123.16 L 65.9845 149.19"/><path d="M 48.0895 118.792 A 5 5 0 0 0 48.6646 123.16"/><path d="M 48.0895 118.792 L 66.497 64.2125"/><path d="M 71.2348 60.8104 A 5 5 0 0 0 66.497 64.2125"/><path d="M 71.2348 60.8104 L 244.173 60.8104"/><path d="M 249.173 65.8104 A 5 5 0 0 0 244.173 60.8104"/><path d="M 202.807 108.691 L 244.173 108.691"/><path d="M 249.173 103.691 L 249.173 65.8104"/><path d="M 244.173 108.691 A 5 5 0 0 0 249.173 103.691"/></g><g stroke="rgb(0, 0, 0)" stroke-width="0.13" stroke-linecap="butt" stroke-linejoin="miter" fill="none"><path d="M 33.6651 113.097 L 33.8063 113.355 L 34.003 113.531 L 34.2501 113.642 L 34.5476 113.677 L 34.9965 113.597 L 35.3445 113.365 L 35.5664 112.986 L 35.6521 112.472 L 35.5664 111.963 L 35.3445 111.584 L 34.9965 111.352 L 34.5476 111.267 L 34.2501 111.307 L 34.003 111.413 L 33.8063 111.595 L 33.6651 111.847 L 33.544 111.645 L 33.3776 111.504 L 33.1759 111.418 L 32.9288 111.388 L 32.5707 111.468 L 32.2832 111.68 L 32.0966 112.023 L 32.026 112.472 L 32.0966 112.926 L 32.2832 113.269 L 32.5707 113.486 L 32.9288 113.561 L 33.1759 113.536 L 33.3776 113.45 L 33.6651 113.097 L 33.6651 113.097 z M 34.5376 113.193 L 34.2703 113.148 L 34.0685 113.002 L 33.9374 112.775 L 33.892 112.472 L 33.9374 112.174 L 34.0685 111.948 L 34.2703 111.801 L 34.5376 111.751 L 34.825 111.801 L 35.0419 111.948 L 35.1831 112.174 L 35.2285 112.472 L 35.1831 112.775 L 35.0419 113.002 L 34.825 113.148 L 34.5376 113.193 L 34.5376 113.193 z M 32.9691 113.082 L 32.7472 113.042 L 32.5757 112.921 L 32.4698 112.729 L 32.4295 112.472 L 32.4698 112.22 L 32.5757 112.028 L 32.7472 111.907 L 32.9691 111.862 L 33.1961 111.907 L 33.3726 112.028 L 33.4886 112.22 L 33.5239 112.472 L 33.4835 112.729 L 33.3726 112.921 L 33.1961 113.042 L 32.9691 113.082 L 32.9691 113.082 z M 33.6651 109.361 L 33.8063 109.619 L 34.003 109.795 L 34.2501 109.906 L 34.5476 109.941 L 34.9965 109.861 L 35.3445 109.629 L 35.5664 109.25 L 35.6521 108.736 L 35.5664 108.227 L 35.3445 107.848 L 34.9965 107.616 L 34.5476 107.531 L 34.2501 107.571 L 34.003 107.677 L 33.8063 107.859 L 33.6651 108.111 L 33.544 107.909 L 33.3776 107.768 L 33.1759 107.682 L 32.9288 107.652 L 32.5707 107.732 L 32.2832 107.944 L 32.0966 108.287 L 32.026 108.736 L 32.0966 109.19 L 32.2832 109.533 L 32.5707 109.75 L 32.9288 109.825 L 33.1759 109.8 L 33.3776 109.714 L 33.6651 109.361 L 33.6651 109.361 z M 34.5376 109.457 L 34.2703 109.412 L 34.0685 109.266 L 33.9374 109.039 L 33.892 108.736 L 33.9374 108.438 L 34.0685 108.212 L 34.2703 108.065 L 34.5376 108.015 L 34.825 108.065 L 35.0419 108.212 L 35.1831 108.438 L 35.2285 108.736 L 35.1831 109.039 L 35.0419 109.266 L 34.825 109.412 L 34.5376 109.457 L 34.5376 109.457 z M 32.9691 109.346 L 32.7472 109.306 L 32.5757 109.185 L 32.4698 108.993 L 32.4295 108.736 L 32.4698 108.484 L 32.5757 108.292 L 32.7472 108.171 L 32.9691 108.126 L 33.1961 108.171 L 33.3726 108.292 L 33.4886 108.484 L 33.5239 108.736 L 33.4835 108.993 L 33.3726 109.185 L 33.1961 109.306 L 32.9691 109.346 L 32.9691 109.346 z M 35.5512 105.348 L 35.5512 104.652 L 34.7998 104.652 L 34.7998 105.348 L 35.5512 105.348 L 35.5512 105.348 z M 34.4518 102.535 L 34.4871 102.535 L 34.9713 102.454 L 35.3344 102.217 L 35.5664 101.844 L 35.6521 101.35 L 35.5664 100.825 L 35.3445 100.432 L 34.9914 100.18 L 34.5376 100.089 L 34.24 100.129 L 33.9979 100.24 L 33.8113 100.422 L 33.6752 100.664 L 33.4028 100.336 L 32.9691 100.22 L 32.5757 100.296 L 32.2782 100.513 L 32.0916 100.866 L 32.026 101.35 L 32.1067 101.804 L 32.3286 102.152 L 32.6816 102.379 L 33.1507 102.454 L 33.186 102.454 L 33.186 102.005 L 32.8632 101.965 L 32.6312 101.834 L 32.49 101.622 L 32.4396 101.325 L 32.4799 101.062 L 32.5858 100.871 L 32.7573 100.755 L 32.9893 100.709 L 33.2364 100.755 L 33.4028 100.876 L 33.5037 101.087 L 33.5339 101.375 L 33.5289 101.572 L 33.9273 101.572 L 33.9172 101.325 L 33.9626 101.007 L 34.0837 100.77 L 34.2803 100.629 L 34.5376 100.578 L 34.8301 100.634 L 35.0469 100.78 L 35.1831 101.012 L 35.2285 101.319 L 35.178 101.637 L 35.0267 101.869 L 34.7847 102.015 L 34.4518 102.071 L 34.4518 102.535 L 34.4518 102.535 z M 33.6651 98.1533 L 33.8063 98.4105 L 34.003 98.587 L 34.2501 98.698 L 34.5476 98.7333 L 34.9965 98.6526 L 35.3445 98.4206 L 35.5664 98.0424 L 35.6521 97.528 L 35.5664 97.0186 L 35.3445 96.6404 L 34.9965 96.4084 L 34.5476 96.3226 L 34.2501 96.363 L 34.003 96.4689 L 33.8063 96.6504 L 33.6651 96.9026 L 33.544 96.7009 L 33.3776 96.5597 L 33.1759 96.4739 L 32.9288 96.4437 L 32.5707 96.5244 L 32.2832 96.7362 L 32.0966 97.0791 L 32.026 97.528 L 32.0966 97.9818 L 32.2832 98.3248 L 32.5707 98.5416 L 32.9288 98.6173 L 33.1759 98.5921 L 33.3776 98.5063 L 33.6651 98.1533 L 33.6651 98.1533 z M 34.5376 98.2491 L 34.2703 98.2038 L 34.0685 98.0575 L 33.9374 97.8306 L 33.892 97.528 L 33.9374 97.2304 L 34.0685 97.0035 L 34.2703 96.8572 L 34.5376 96.8068 L 34.825 96.8572 L 35.0419 97.0035 L 35.1831 97.2304 L 35.2285 97.528 L 35.1831 97.8306 L 35.0419 98.0575 L 34.825 98.2038 L 34.5376 98.2491 L 34.5376 98.2491 z M 32.9691 98.1382 L 32.7472 98.0978 L 32.5757 97.9768 L 32.4698 97.7852 L 32.4295 97.528 L 32.4698 97.2758 L 32.5757 97.0842 L 32.7472 96.9631 L 32.9691 96.9177 L 33.1961 96.9631 L 33.3726 97.0842 L 33.4886 97.2758 L 33.5239 97.528 L 33.4835 97.7852 L 33.3726 97.9768 L 33.1961 98.0978 L 32.9691 98.1382 L 32.9691 98.1382 z" stroke="none" fill-rule="evenodd" fill="rgb(0, 0, 0)"/><path d="M 38.0689 62.7422 L 37.5512 60.8104 L 37.0336 62.7422"/><path d="M 37.0336 147.258 L 37.5512 149.19 L 38.0689 147.258"/><path d="M 37.5512 149.19 L 37.5512 60.8104"/></g></svg>