<?xml version="1.0" encoding="utf-8" ?><!DOCTYPE svg PUBLIC "-//W3C//DTD SVG 1.1//EN" "http://www.w3.org/Graphics/SVG/1.1/DTD/svg11.dtd" 
[ <!ATTLIST svg 
  xmlns:dsy CDATA #FIXED "http://www.3ds.com/print"  
    dsy:text-version CDATA #IMPLIED > 

  <!ATTLIST text 
  xmlns:dsy CDATA #FIXED "http://www.3ds.com/print" 
    dsy:text-version CDATA #IMPLIED > 
]><svg xmlns="http://www.w3.org/2000/svg" xmlns:dsy="http://www.3ds.com/print" dsy:text-version="18000" width="297" height="210" viewBox="0 0 297 210" version="1.1"><g stroke="rgb(0, 0, 0)" stroke-width="0.13" stroke-linecap="butt" stroke-linejoin="miter" fill="none"><path d="M 140.4 127.5 L 150.862 127.5"/></g><g stroke="rgb(0, 0, 0)" stroke-width="0.35" stroke-linecap="butt" stroke-linejoin="miter" fill="none"><path d="M 124.5 82.5 L 124.5 127.5"/><path d="M 138.4 127.5 L 124.5 127.5"/><path d="M 158.4 127.5 A 10 10 0 1 0 138.4 127.5"/><path d="M 172.5 127.5 L 158.4 127.5"/><path d="M 172.5 82.5 L 172.5 127.5"/><path d="M 167.4 82.5 L 172.5 82.5"/><path d="M 167.4 97.5 L 167.4 82.5"/><path d="M 161.5 97.5 L 167.4 97.5"/><path d="M 161.5 82.5 L 161.5 97.5"/><path d="M 135.5 82.5 L 161.5 82.5"/><path d="M 135.5 97.5 L 135.5 82.5"/><path d="M 129.6 97.5 L 135.5 97.5"/><path d="M 129.6 82.5 L 129.6 97.5"/><path d="M 124.5 82.5 L 129.6 82.5"/></g><g stroke="rgb(0, 0, 0)" stroke-width="0.13" stroke-linecap="butt" stroke-linejoin="miter" fill="none"><path d="M 146.862 106.591 L 146.862 106.137 L 145.994 106.137 L 145.994 105.637 L 145.591 105.637 L 145.591 106.137 L 143.437 106.137 L 143.437 106.596 L 145.551 108.129 L 145.994 108.129 L 145.994 106.591 L 146.862 106.591 L 146.862 106.591 z M 145.591 107.705 L 144.022 106.591 L 145.591 106.591 L 145.591 107.705 L 145.591 107.705 z M 145.949 104.383 L 146.363 104.272 L 146.685 104.025 L 146.887 103.662 L 146.963 103.198 L 146.872 102.688 L 146.625 102.29 L 146.231 102.038 L 145.727 101.942 L 145.258 102.028 L 144.89 102.27 L 144.653 102.648 L 144.567 103.137 L 144.628 103.515 L 144.794 103.808 L 143.851 103.667 L 143.851 102.133 L 143.437 102.133 L 143.437 104.004 L 145.293 104.282 L 145.293 103.878 L 145.056 103.586 L 144.971 103.213 L 145.026 102.89 L 145.187 102.643 L 145.435 102.486 L 145.752 102.431 L 146.07 102.486 L 146.317 102.648 L 146.474 102.895 L 146.529 103.213 L 146.494 103.48 L 146.378 103.687 L 146.196 103.838 L 145.949 103.914 L 145.949 104.383 L 145.949 104.383 z" stroke="none" fill-rule="evenodd" fill="rgb(0, 0, 0)"/><path d="M 149.379 84.4319 L 148.862 82.5 L 148.344 84.4319"/><path d="M 148.344 125.568 L 148.862 127.5 L 149.379 125.568"/><path d="M 148.862 127.5 L 148.862 82.5"/></g></svg>