<?xml version="1.0" encoding="utf-8" ?><!DOCTYPE svg PUBLIC "-//W3C//DTD SVG 1.1//EN" "http://www.w3.org/Graphics/SVG/1.1/DTD/svg11.dtd" 
[ <!ATTLIST svg 
  xmlns:dsy CDATA #FIXED "http://www.3ds.com/print"  
    dsy:text-version CDATA #IMPLIED > 

  <!ATTLIST text 
  xmlns:dsy CDATA #FIXED "http://www.3ds.com/print" 
    dsy:text-version CDATA #IMPLIED > 
]><svg xmlns="http://www.w3.org/2000/svg" xmlns:dsy="http://www.3ds.com/print" dsy:text-version="18000" width="297" height="420" viewBox="0 0 297 420" version="1.1"><g stroke="rgb(0, 0, 0)" stroke-width="0.13" stroke-linecap="butt" stroke-linejoin="miter" fill="none"><path d="M 106.5 410 L 50.6475 410"/><path d="M 106.5 10 L 50.6475 10"/></g><g stroke="rgb(0, 0, 0)" stroke-width="0.35" stroke-linecap="butt" stroke-linejoin="miter" fill="none"><path d="M 108.5 10 L 108.5 24.1685"/><path d="M 108.5 54.1685 A 15 15 0 0 0 108.5 24.1685"/><path d="M 108.5 368.331 L 108.5 54.1685"/><path d="M 108.5 393.331 A 12.5 12.5 0 0 0 108.5 368.331"/><path d="M 108.5 393.331 L 108.5 410"/><path d="M 108.5 410 A 80 80 0 0 0 188.5 330"/><path d="M 188.5 90 L 188.5 330"/><path d="M 188.5 90 A 80 80 0 0 0 108.5 10"/><circle cx="142.752" cy="39.3489" r="6.75"/><circle cx="140.95" cy="381.008" r="6.75"/><circle cx="178.5" cy="130" r="4"/><circle cx="178.5" cy="290" r="4"/><circle cx="118.5" cy="210" r="4"/></g><g stroke="rgb(0, 0, 0)" stroke-width="0.13" stroke-linecap="butt" stroke-linejoin="miter" fill="none"><path d="M 149.618 420.01 L 149.115 418.352 L 148.636 418.352 L 149.171 420.01 L 149.618 420.01 z M 151.375 418.352 L 150.896 418.352 L 150.407 420.01 L 150.852 420.01 L 151.375 418.352 z M 154.098 419.148 L 153.654 419.148 L 153.654 420.01 L 154.098 420.01 L 154.098 419.148 z M 152.439 419.148 L 151.995 419.148 L 151.995 420.01 L 152.439 420.01 L 152.439 419.148 z M 157.157 420.01 L 157.134 419.844 L 156.912 419.411 L 156.559 419.148 L 156.09 419.052 L 155.631 419.154 L 155.278 419.436 L 155.051 419.895 L 155.036 420.01 L 157.157 420.01 z M 156.705 419.91 L 156.718 420.01 L 155.474 420.01 L 155.49 419.91 L 155.626 419.653 L 155.833 419.496 L 156.105 419.441 L 156.373 419.496 L 156.579 419.653 L 156.705 419.91 z M 163.226 418.236 L 162.788 418.236 L 162.788 419.562 L 162.45 419.179 L 162.243 419.088 L 162.006 419.052 L 161.577 419.154 L 161.244 419.436 L 161.027 419.89 L 161.012 420.01 L 163.226 420.01 L 163.226 418.236 z M 161.804 419.522 L 162.082 419.451 L 162.374 419.522 L 162.596 419.718 L 162.713 420.01 L 161.469 420.01 L 161.592 419.723 L 161.804 419.522 z M 166.265 420.01 L 166.242 419.844 L 166.02 419.411 L 165.667 419.148 L 165.198 419.052 L 164.739 419.154 L 164.386 419.436 L 164.159 419.895 L 164.144 420.01 L 166.265 420.01 z M 165.813 419.91 L 165.827 420.01 L 164.582 420.01 L 164.598 419.91 L 164.734 419.653 L 164.941 419.496 L 165.213 419.441 L 165.48 419.496 L 165.687 419.653 L 165.813 419.91 z M 171.285 419.617 L 172.294 419.617 L 172.294 419.239 L 171.285 419.239 L 171.285 419.073 L 171.321 418.871 L 171.437 418.735 L 171.633 418.654 L 171.916 418.624 L 172.294 418.644 L 172.294 418.261 L 171.815 418.236 L 171.381 418.281 L 171.079 418.417 L 170.897 418.654 L 170.842 418.992 L 170.842 419.239 L 170.03 419.239 L 170.03 419.617 L 170.842 419.617 L 170.842 420.01 L 171.285 420.01 L 171.285 419.617 z M 175.264 419.87 L 175.204 419.511 L 175.027 419.259 L 174.72 419.108 L 174.286 419.052 L 173.862 419.113 L 173.55 419.285 L 173.353 419.552 L 173.288 419.905 L 173.288 419.935 L 173.686 419.935 L 173.721 419.723 L 173.832 419.572 L 174.014 419.481 L 174.271 419.446 L 174.518 419.471 L 174.695 419.547 L 174.801 419.678 L 174.836 419.86 L 174.822 420.01 L 175.264 420.01 L 175.264 419.87 z M 178.454 420.01 L 178.371 419.643 L 178.154 419.325 L 177.816 419.128 L 177.377 419.052 L 176.893 419.154 L 176.525 419.436 L 176.293 419.895 L 176.278 420.01 L 176.725 420.01 L 176.853 419.713 L 177.08 419.511 L 177.377 419.441 L 177.64 419.486 L 177.836 419.602 L 177.968 419.794 L 178.015 420.01 L 178.454 420.01 z M 181.445 420.01 L 181.422 419.844 L 181.2 419.411 L 180.847 419.148 L 180.378 419.052 L 179.919 419.154 L 179.566 419.436 L 179.339 419.895 L 179.324 420.01 L 181.445 420.01 z M 180.994 419.91 L 181.007 420.01 L 179.762 420.01 L 179.778 419.91 L 179.914 419.653 L 180.121 419.496 L 180.393 419.441 L 180.661 419.496 L 180.867 419.653 L 180.994 419.91 z" stroke="none" fill-rule="evenodd" fill="rgb(0, 0, 0)"/></g><g stroke="rgb(0, 0, 0)" stroke-width="0.13" stroke-linecap="butt" stroke-linejoin="miter" fill="none"><path d="M 50.6475 213.459 L 50.6475 213.005 L 49.78 213.005 L 49.78 212.505 L 49.3766 212.505 L 49.3766 213.005 L 47.2231 213.005 L 47.2231 213.464 L 49.3362 214.997 L 49.78 214.997 L 49.78 213.459 L 50.6475 213.459 L 50.6475 213.459 z M 49.3766 214.573 L 47.8081 213.459 L 49.3766 213.459 L 49.3766 214.573 L 49.3766 214.573 z M 48.9378 211.215 L 49.7296 211.14 L 50.2944 210.903 L 50.6374 210.524 L 50.7483 210 L 50.6374 209.481 L 50.2944 209.102 L 49.7296 208.87 L 48.9378 208.79 L 48.1511 208.87 L 47.8384 208.966 L 47.5812 209.102 L 47.2382 209.481 L 47.1222 210 L 47.2382 210.524 L 47.5862 210.903 L 48.1511 211.14 L 48.9378 211.215 L 48.9378 211.215 z M 48.9378 210.731 L 48.3276 210.691 L 47.8888 210.565 L 47.6316 210.338 L 47.5408 210 L 47.6316 209.667 L 47.8888 209.44 L 48.3276 209.314 L 48.9378 209.274 L 49.5531 209.314 L 49.9918 209.44 L 50.2491 209.667 L 50.3348 210 L 50.2491 210.338 L 49.9918 210.565 L 49.5531 210.691 L 48.9378 210.731 L 48.9378 210.731 z M 48.9378 207.479 L 49.7296 207.404 L 50.2944 207.167 L 50.6374 206.788 L 50.7483 206.264 L 50.6374 205.745 L 50.2944 205.366 L 49.7296 205.134 L 48.9378 205.054 L 48.1511 205.134 L 47.8384 205.23 L 47.5812 205.366 L 47.2382 205.745 L 47.1222 206.264 L 47.2382 206.788 L 47.5862 207.167 L 48.1511 207.404 L 48.9378 207.479 L 48.9378 207.479 z M 48.9378 206.995 L 48.3276 206.955 L 47.8888 206.829 L 47.6316 206.602 L 47.5408 206.264 L 47.6316 205.931 L 47.8888 205.704 L 48.3276 205.578 L 48.9378 205.538 L 49.5531 205.578 L 49.9918 205.704 L 50.2491 205.931 L 50.3348 206.264 L 50.2491 206.602 L 49.9918 206.829 L 49.5531 206.955 L 48.9378 206.995 L 48.9378 206.995 z" stroke="none" fill-rule="evenodd" fill="rgb(0, 0, 0)"/><path d="M 53.1651 11.9319 L 52.6475 10 L 52.1298 11.9319"/><path d="M 52.1298 408.068 L 52.6475 410 L 53.1651 408.068"/><path d="M 52.6475 410 L 52.6475 10"/></g></svg>