<?xml version="1.0" encoding="utf-8" ?><!DOCTYPE svg PUBLIC "-//W3C//DTD SVG 1.1//EN" "http://www.w3.org/Graphics/SVG/1.1/DTD/svg11.dtd" 
[ <!ATTLIST svg 
  xmlns:dsy CDATA #FIXED "http://www.3ds.com/print"  
    dsy:text-version CDATA #IMPLIED > 

  <!ATTLIST text 
  xmlns:dsy CDATA #FIXED "http://www.3ds.com/print" 
    dsy:text-version CDATA #IMPLIED > 
]><svg xmlns="http://www.w3.org/2000/svg" xmlns:dsy="http://www.3ds.com/print" dsy:text-version="18000" width="210" height="297" viewBox="0 0 210 297" version="1.1"><g stroke="rgb(0, 0, 0)" stroke-width="0.13" stroke-linecap="butt" stroke-linejoin="miter" fill="none"><path d="M 114.27 251.255 L 184.196 251.255"/><path d="M 114.27 41.8127 L 184.196 41.8127"/></g><g stroke="rgb(0, 0, 0)" stroke-width="0.35" stroke-linecap="butt" stroke-linejoin="miter" fill="none"><circle cx="65.6031" cy="92.367" r="2.66666"/><circle cx="65.6031" cy="199.034" r="2.66666"/><circle cx="105.603" cy="145.7" r="2.66666"/><path d="M 72.2698 119.034 L 72.2698 115.034"/><path d="M 72.2698 119.034 L 98.9365 119.034"/><path d="M 98.9365 115.034 L 98.9365 119.034"/><path d="M 98.9365 115.034 L 72.2698 115.034"/><path d="M 98.9365 176.367 L 72.2698 176.367"/><path d="M 98.9365 176.367 L 98.9365 172.367"/><path d="M 72.2698 172.367 L 98.9365 172.367"/><path d="M 72.2698 172.367 L 72.2698 176.367"/><circle cx="90.6368" cy="259.706" r="4.5"/><circle cx="89.4355" cy="31.933" r="4.5"/><path d="M 58.9365 225.7 A 53.3333 53.3333 0 0 0 112.27 279.034"/><path d="M 112.27 267.921 L 112.27 279.034"/><path d="M 112.27 251.255 A 8.33334 8.33334 0 0 0 112.27 267.921"/><path d="M 112.27 251.255 L 112.27 41.8127"/><path d="M 58.9365 65.7003 L 58.9365 225.7"/><path d="M 112.27 21.8127 A 10 10 0 0 0 112.27 41.8127"/><path d="M 112.27 12.367 A 53.3333 53.3333 0 0 0 58.9365 65.7003"/><path d="M 112.27 12.367 L 112.27 21.8127"/></g><g stroke="rgb(0, 0, 0)" stroke-width="0.13" stroke-linecap="butt" stroke-linejoin="miter" fill="none"><path d="M 179.097 157.145 L 179.132 157.145 L 179.617 157.064 L 179.98 156.827 L 180.212 156.454 L 180.297 155.959 L 180.212 155.435 L 179.99 155.042 L 179.637 154.789 L 179.183 154.699 L 178.885 154.739 L 178.643 154.85 L 178.457 155.032 L 178.32 155.274 L 178.048 154.946 L 177.614 154.83 L 177.221 154.905 L 176.923 155.122 L 176.737 155.475 L 176.671 155.959 L 176.752 156.413 L 176.974 156.761 L 177.327 156.988 L 177.796 157.064 L 177.831 157.064 L 177.831 156.615 L 177.508 156.575 L 177.276 156.444 L 177.135 156.232 L 177.085 155.934 L 177.125 155.672 L 177.231 155.48 L 177.403 155.364 L 177.635 155.319 L 177.882 155.364 L 178.048 155.485 L 178.149 155.697 L 178.179 155.985 L 178.174 156.181 L 178.573 156.181 L 178.562 155.934 L 178.608 155.617 L 178.729 155.379 L 178.926 155.238 L 179.183 155.188 L 179.475 155.243 L 179.692 155.39 L 179.828 155.622 L 179.874 155.929 L 179.823 156.247 L 179.672 156.479 L 179.43 156.625 L 179.097 156.681 L 179.097 157.145 L 179.097 157.145 z M 180.196 152.228 L 180.196 151.77 L 176.671 151.77 L 176.671 152.112 L 176.979 152.203 L 177.186 152.385 L 177.307 152.662 L 177.347 153.045 L 177.705 153.045 L 177.705 152.228 L 180.196 152.228 L 180.196 152.228 z M 180.196 148.124 L 180.196 147.67 L 179.329 147.67 L 179.329 147.171 L 178.926 147.171 L 178.926 147.67 L 176.772 147.67 L 176.772 148.129 L 178.885 149.662 L 179.329 149.662 L 179.329 148.124 L 180.196 148.124 L 180.196 148.124 z M 178.926 149.239 L 177.357 148.124 L 178.926 148.124 L 178.926 149.239 L 178.926 149.239 z M 180.196 145.014 L 180.196 144.318 L 179.445 144.318 L 179.445 145.014 L 180.196 145.014 L 180.196 145.014 z M 180.196 141.02 L 180.196 140.561 L 176.671 140.561 L 176.671 140.904 L 176.979 140.995 L 177.186 141.177 L 177.307 141.454 L 177.347 141.837 L 177.705 141.837 L 177.705 141.02 L 180.196 141.02 L 180.196 141.02 z M 177.64 135.983 L 177.231 136.079 L 176.928 136.301 L 176.737 136.644 L 176.671 137.088 L 176.707 137.385 L 176.802 137.642 L 176.959 137.869 L 177.181 138.061 L 177.458 138.212 L 177.796 138.323 L 178.194 138.394 L 178.643 138.414 L 179.359 138.333 L 179.879 138.086 L 180.191 137.688 L 180.297 137.143 L 180.207 136.654 L 179.97 136.281 L 179.596 136.039 L 179.122 135.953 L 178.643 136.039 L 178.275 136.271 L 178.043 136.629 L 177.962 137.073 L 178.063 137.552 L 178.351 137.91 L 177.796 137.834 L 177.397 137.673 L 177.16 137.426 L 177.08 137.083 L 177.12 136.831 L 177.226 136.639 L 177.403 136.513 L 177.64 136.447 L 177.64 135.983 L 177.64 135.983 z M 179.127 136.442 L 179.445 136.498 L 179.687 136.639 L 179.849 136.866 L 179.899 137.148 L 179.849 137.446 L 179.692 137.673 L 179.45 137.819 L 179.132 137.864 L 178.82 137.814 L 178.583 137.673 L 178.431 137.441 L 178.376 137.128 L 178.431 136.856 L 178.578 136.639 L 178.815 136.498 L 179.127 136.442 L 179.127 136.442 z" stroke="none" fill-rule="evenodd" fill="rgb(0, 0, 0)"/><path d="M 182.714 43.7445 L 182.196 41.8127 L 181.679 43.7445"/><path d="M 181.679 249.323 L 182.196 251.255 L 182.714 249.323"/><path d="M 182.196 251.255 L 182.196 41.8127"/></g></svg>