<?xml version="1.0" encoding="utf-8" ?><!DOCTYPE svg PUBLIC "-//W3C//DTD SVG 1.1//EN" "http://www.w3.org/Graphics/SVG/1.1/DTD/svg11.dtd" 
[ <!ATTLIST svg 
  xmlns:dsy CDATA #FIXED "http://www.3ds.com/print"  
    dsy:text-version CDATA #IMPLIED > 

  <!ATTLIST text 
  xmlns:dsy CDATA #FIXED "http://www.3ds.com/print" 
    dsy:text-version CDATA #IMPLIED > 
]><svg xmlns="http://www.w3.org/2000/svg" xmlns:dsy="http://www.3ds.com/print" dsy:text-version="18000" width="297" height="420" viewBox="0 0 297 420" version="1.1"><g stroke="rgb(0, 0, 0)" stroke-width="0.13" stroke-linecap="butt" stroke-linejoin="miter" fill="none"><path d="M 135.5 410 L 49.3983 410"/><path d="M 135.5 10 L 49.3983 10"/></g><g stroke="rgb(0, 0, 0)" stroke-width="0.35" stroke-linecap="butt" stroke-linejoin="miter" fill="none"><path d="M 137.5 10 L 137.5 24.1685"/><path d="M 137.5 54.1685 A 15 15 0 0 0 137.5 24.1685"/><path d="M 124.5 54.1685 L 137.5 54.1685"/><path d="M 124.5 54.1685 A 25 25 0 0 0 99.5 79.1685"/><path d="M 99.5 357.914 L 99.5 79.1685"/><path d="M 99.5 357.914 A 15.0266 15.0266 0 0 0 121.731 371.101"/><path d="M 132.576 368.331 A 22.6224 22.6224 0 0 0 121.731 371.101"/><path d="M 137.5 368.331 L 132.576 368.331"/><path d="M 137.5 393.331 A 12.5 12.5 0 0 0 137.5 368.331"/><path d="M 137.5 393.331 L 137.5 410"/><path d="M 137.5 410 A 60 60 0 0 0 164.773 296.557"/><path d="M 137.5 252.02 A 50 50 0 0 0 164.773 296.557"/><path d="M 137.5 167.98 L 137.5 252.02"/><path d="M 164.773 123.443 A 50 50 0 0 0 137.5 167.98"/><path d="M 164.773 123.443 A 60 60 0 0 0 137.5 10"/><circle cx="128.405" cy="70.6978" r="4.3"/><circle cx="114.527" cy="357.914" r="4.3"/><path d="M 169.5 90 L 169.5 70"/><path d="M 169.5 90 L 163.5 90"/><path d="M 163.5 70 L 163.5 90"/><path d="M 163.5 70 L 169.5 70"/><path d="M 169.5 350 L 169.5 330"/><path d="M 169.5 350 L 163.5 350"/><path d="M 163.5 330 L 163.5 350"/><path d="M 163.5 330 L 169.5 330"/></g><g stroke="rgb(0, 0, 0)" stroke-width="0.13" stroke-linecap="butt" stroke-linejoin="miter" fill="none"><path d="M 149.618 420.01 L 149.115 418.352 L 148.636 418.352 L 149.171 420.01 L 149.618 420.01 z M 151.375 418.352 L 150.896 418.352 L 150.407 420.01 L 150.852 420.01 L 151.375 418.352 z M 154.098 419.148 L 153.654 419.148 L 153.654 420.01 L 154.098 420.01 L 154.098 419.148 z M 152.439 419.148 L 151.995 419.148 L 151.995 420.01 L 152.439 420.01 L 152.439 419.148 z M 157.157 420.01 L 157.134 419.844 L 156.912 419.411 L 156.559 419.148 L 156.09 419.052 L 155.631 419.154 L 155.278 419.436 L 155.051 419.895 L 155.036 420.01 L 157.157 420.01 z M 156.705 419.91 L 156.718 420.01 L 155.474 420.01 L 155.49 419.91 L 155.626 419.653 L 155.833 419.496 L 156.105 419.441 L 156.373 419.496 L 156.579 419.653 L 156.705 419.91 z M 163.226 418.236 L 162.788 418.236 L 162.788 419.562 L 162.45 419.179 L 162.243 419.088 L 162.006 419.052 L 161.577 419.154 L 161.244 419.436 L 161.027 419.89 L 161.012 420.01 L 163.226 420.01 L 163.226 418.236 z M 161.804 419.522 L 162.082 419.451 L 162.374 419.522 L 162.596 419.718 L 162.713 420.01 L 161.469 420.01 L 161.592 419.723 L 161.804 419.522 z M 166.265 420.01 L 166.242 419.844 L 166.02 419.411 L 165.667 419.148 L 165.198 419.052 L 164.739 419.154 L 164.386 419.436 L 164.159 419.895 L 164.144 420.01 L 166.265 420.01 z M 165.813 419.91 L 165.827 420.01 L 164.582 420.01 L 164.598 419.91 L 164.734 419.653 L 164.941 419.496 L 165.213 419.441 L 165.48 419.496 L 165.687 419.653 L 165.813 419.91 z M 171.285 419.617 L 172.294 419.617 L 172.294 419.239 L 171.285 419.239 L 171.285 419.073 L 171.321 418.871 L 171.437 418.735 L 171.633 418.654 L 171.916 418.624 L 172.294 418.644 L 172.294 418.261 L 171.815 418.236 L 171.381 418.281 L 171.079 418.417 L 170.897 418.654 L 170.842 418.992 L 170.842 419.239 L 170.03 419.239 L 170.03 419.617 L 170.842 419.617 L 170.842 420.01 L 171.285 420.01 L 171.285 419.617 z M 175.264 419.87 L 175.204 419.511 L 175.027 419.259 L 174.72 419.108 L 174.286 419.052 L 173.862 419.113 L 173.55 419.285 L 173.353 419.552 L 173.288 419.905 L 173.288 419.935 L 173.686 419.935 L 173.721 419.723 L 173.832 419.572 L 174.014 419.481 L 174.271 419.446 L 174.518 419.471 L 174.695 419.547 L 174.801 419.678 L 174.836 419.86 L 174.822 420.01 L 175.264 420.01 L 175.264 419.87 z M 178.454 420.01 L 178.371 419.643 L 178.154 419.325 L 177.816 419.128 L 177.377 419.052 L 176.893 419.154 L 176.525 419.436 L 176.293 419.895 L 176.278 420.01 L 176.725 420.01 L 176.853 419.713 L 177.08 419.511 L 177.377 419.441 L 177.64 419.486 L 177.836 419.602 L 177.968 419.794 L 178.015 420.01 L 178.454 420.01 z M 181.445 420.01 L 181.422 419.844 L 181.2 419.411 L 180.847 419.148 L 180.378 419.052 L 179.919 419.154 L 179.566 419.436 L 179.339 419.895 L 179.324 420.01 L 181.445 420.01 z M 180.994 419.91 L 181.007 420.01 L 179.762 420.01 L 179.778 419.91 L 179.914 419.653 L 180.121 419.496 L 180.393 419.441 L 180.661 419.496 L 180.867 419.653 L 180.994 419.91 z" stroke="none" fill-rule="evenodd" fill="rgb(0, 0, 0)"/></g><g stroke="rgb(0, 0, 0)" stroke-width="0.13" stroke-linecap="butt" stroke-linejoin="miter" fill="none"><path d="M 49.3983 213.459 L 49.3983 213.005 L 48.5309 213.005 L 48.5309 212.505 L 48.1275 212.505 L 48.1275 213.005 L 45.974 213.005 L 45.974 213.464 L 48.0871 214.997 L 48.5309 214.997 L 48.5309 213.459 L 49.3983 213.459 L 49.3983 213.459 z M 48.1275 214.573 L 46.559 213.459 L 48.1275 213.459 L 48.1275 214.573 L 48.1275 214.573 z M 47.6887 211.215 L 48.4805 211.14 L 49.0453 210.903 L 49.3883 210.524 L 49.4992 210 L 49.3883 209.481 L 49.0453 209.102 L 48.4805 208.87 L 47.6887 208.79 L 46.9019 208.87 L 46.5893 208.966 L 46.3321 209.102 L 45.9891 209.481 L 45.8731 210 L 45.9891 210.524 L 46.3371 210.903 L 46.9019 211.14 L 47.6887 211.215 L 47.6887 211.215 z M 47.6887 210.731 L 47.0785 210.691 L 46.6397 210.565 L 46.3825 210.338 L 46.2917 210 L 46.3825 209.667 L 46.6397 209.44 L 47.0785 209.314 L 47.6887 209.274 L 48.304 209.314 L 48.7427 209.44 L 48.9999 209.667 L 49.0857 210 L 48.9999 210.338 L 48.7427 210.565 L 48.304 210.691 L 47.6887 210.731 L 47.6887 210.731 z M 47.6887 207.479 L 48.4805 207.404 L 49.0453 207.167 L 49.3883 206.788 L 49.4992 206.264 L 49.3883 205.745 L 49.0453 205.366 L 48.4805 205.134 L 47.6887 205.054 L 46.9019 205.134 L 46.5893 205.23 L 46.3321 205.366 L 45.9891 205.745 L 45.8731 206.264 L 45.9891 206.788 L 46.3371 207.167 L 46.9019 207.404 L 47.6887 207.479 L 47.6887 207.479 z M 47.6887 206.995 L 47.0785 206.955 L 46.6397 206.829 L 46.3825 206.602 L 46.2917 206.264 L 46.3825 205.931 L 46.6397 205.704 L 47.0785 205.578 L 47.6887 205.538 L 48.304 205.578 L 48.7427 205.704 L 48.9999 205.931 L 49.0857 206.264 L 48.9999 206.602 L 48.7427 206.829 L 48.304 206.955 L 47.6887 206.995 L 47.6887 206.995 z" stroke="none" fill-rule="evenodd" fill="rgb(0, 0, 0)"/><path d="M 51.916 11.9319 L 51.3983 10 L 50.8807 11.9319"/><path d="M 50.8807 408.068 L 51.3983 410 L 51.916 408.068"/><path d="M 51.3983 410 L 51.3983 10"/></g></svg>