<?xml version="1.0" encoding="utf-8" ?><!DOCTYPE svg PUBLIC "-//W3C//DTD SVG 1.1//EN" "http://www.w3.org/Graphics/SVG/1.1/DTD/svg11.dtd" 
[ <!ATTLIST svg 
  xmlns:dsy CDATA #FIXED "http://www.3ds.com/print"  
    dsy:text-version CDATA #IMPLIED > 

  <!ATTLIST text 
  xmlns:dsy CDATA #FIXED "http://www.3ds.com/print" 
    dsy:text-version CDATA #IMPLIED > 
]><svg xmlns="http://www.w3.org/2000/svg" xmlns:dsy="http://www.3ds.com/print" dsy:text-version="18000" width="297" height="210" viewBox="0 0 297 210" version="1.1"><g stroke="rgb(0, 0, 0)" stroke-width="0.13" stroke-linecap="butt" stroke-linejoin="miter" fill="none"><path d="M 69.2196 117 L 69.2196 176.228"/><path d="M 144.368 117 L 144.368 176.228"/></g><g stroke="rgb(0, 0, 0)" stroke-width="0.35" stroke-linecap="butt" stroke-linejoin="miter" fill="none"><path d="M 75.2196 85 L 144.368 85"/><path d="M 75.2196 95 L 75.2196 85"/><path d="M 69.2196 95 L 75.2196 95"/><path d="M 69.2196 105 L 69.2196 95"/><path d="M 69.2196 105 L 69.2196 115"/><path d="M 69.2196 115 L 75.2196 115"/><path d="M 75.2196 115 L 75.2196 125"/><path d="M 75.2196 125 L 144.368 125"/><path d="M 144.368 125 L 144.368 105"/><path d="M 144.368 85 L 144.368 105"/></g><g stroke="rgb(0, 0, 0)" stroke-width="0.13" stroke-linecap="butt" stroke-linejoin="miter" fill="none"><path d="M 98.6206 172.228 L 99.13 172.228 L 99.2964 171.395 L 99.5889 170.619 L 100.002 169.898 L 100.542 169.222 L 100.542 168.803 L 98.1415 168.803 L 98.1415 169.262 L 100.058 169.262 L 99.5032 169.943 L 99.0846 170.654 L 98.7921 171.411 L 98.6206 172.228 L 98.6206 172.228 z M 101.807 171.315 L 101.918 171.728 L 102.165 172.051 L 102.528 172.253 L 102.992 172.328 L 103.501 172.238 L 103.9 171.991 L 104.152 171.597 L 104.248 171.093 L 104.162 170.624 L 103.92 170.256 L 103.542 170.019 L 103.053 169.933 L 102.674 169.993 L 102.382 170.16 L 102.523 169.217 L 104.056 169.217 L 104.056 168.803 L 102.185 168.803 L 101.908 170.659 L 102.311 170.659 L 102.604 170.422 L 102.977 170.336 L 103.3 170.392 L 103.547 170.553 L 103.703 170.8 L 103.759 171.118 L 103.703 171.436 L 103.542 171.683 L 103.295 171.839 L 102.977 171.895 L 102.71 171.859 L 102.503 171.743 L 102.352 171.562 L 102.276 171.315 L 101.807 171.315 L 101.807 171.315 z M 106.446 172.228 L 107.142 172.228 L 107.142 171.476 L 106.446 171.476 L 106.446 172.228 L 106.446 172.228 z M 110.439 172.228 L 110.898 172.228 L 110.898 168.702 L 110.555 168.702 L 110.464 169.01 L 110.283 169.217 L 110.005 169.338 L 109.622 169.378 L 109.622 169.736 L 110.439 169.736 L 110.439 172.228 L 110.439 172.228 z M 113.015 171.315 L 113.126 171.728 L 113.373 172.051 L 113.736 172.253 L 114.2 172.328 L 114.709 172.238 L 115.108 171.991 L 115.36 171.597 L 115.456 171.093 L 115.37 170.624 L 115.128 170.256 L 114.75 170.019 L 114.261 169.933 L 113.882 169.993 L 113.59 170.16 L 113.731 169.217 L 115.264 169.217 L 115.264 168.803 L 113.393 168.803 L 113.116 170.659 L 113.519 170.659 L 113.812 170.422 L 114.185 170.336 L 114.508 170.392 L 114.755 170.553 L 114.911 170.8 L 114.967 171.118 L 114.911 171.436 L 114.75 171.683 L 114.503 171.839 L 114.185 171.895 L 113.918 171.859 L 113.711 171.743 L 113.56 171.562 L 113.484 171.315 L 113.015 171.315 L 113.015 171.315 z" stroke="none" fill-rule="evenodd" fill="rgb(0, 0, 0)"/><path d="M 71.1515 173.71 L 69.2196 174.228 L 71.1515 174.745"/><path d="M 142.436 174.745 L 144.368 174.228 L 142.436 173.71"/><path d="M 69.2196 174.228 L 144.368 174.228"/></g></svg>