<?xml version="1.0" encoding="utf-8" ?><!DOCTYPE svg PUBLIC "-//W3C//DTD SVG 1.1//EN" "http://www.w3.org/Graphics/SVG/1.1/DTD/svg11.dtd" 
[ <!ATTLIST svg 
  xmlns:dsy CDATA #FIXED "http://www.3ds.com/print"  
    dsy:text-version CDATA #IMPLIED > 

  <!ATTLIST text 
  xmlns:dsy CDATA #FIXED "http://www.3ds.com/print" 
    dsy:text-version CDATA #IMPLIED > 
]><svg xmlns="http://www.w3.org/2000/svg" xmlns:dsy="http://www.3ds.com/print" dsy:text-version="18000" width="297" height="210" viewBox="0 0 297 210" version="1.1"><g stroke="rgb(0, 0, 0)" stroke-width="0.13" stroke-linecap="butt" stroke-linejoin="miter" fill="none"><path d="M 160.5 128 L 181.813 128"/><path d="M 160.5 82 L 181.813 82"/></g><g stroke="rgb(0, 0, 0)" stroke-width="0.35" stroke-linecap="butt" stroke-linejoin="miter" fill="none"><path d="M 138.5 105 L 138.5 124"/><path d="M 138.5 124 L 148.958 124"/><path d="M 148.958 124 L 154.958 124"/><path d="M 154.958 124 L 154.958 128"/><path d="M 158.5 128 L 154.958 128"/><path d="M 158.5 82 L 158.5 128"/><path d="M 154.958 82 L 158.5 82"/><path d="M 154.958 86 L 154.958 82"/><path d="M 148.958 86 L 154.958 86"/><path d="M 138.5 86 L 148.958 86"/><path d="M 138.5 105 L 138.5 86"/></g><g stroke="rgb(0, 0, 0)" stroke-width="0.13" stroke-linecap="butt" stroke-linejoin="miter" fill="none"><path d="M 177.813 106.591 L 177.813 106.137 L 176.946 106.137 L 176.946 105.637 L 176.542 105.637 L 176.542 106.137 L 174.389 106.137 L 174.389 106.596 L 176.502 108.129 L 176.946 108.129 L 176.946 106.591 L 177.813 106.591 L 177.813 106.591 z M 176.542 107.705 L 174.974 106.591 L 176.542 106.591 L 176.542 107.705 L 176.542 107.705 z M 175.256 101.922 L 174.848 102.017 L 174.545 102.239 L 174.353 102.582 L 174.288 103.026 L 174.323 103.324 L 174.419 103.581 L 174.575 103.808 L 174.797 103.999 L 175.075 104.151 L 175.412 104.262 L 175.811 104.332 L 176.26 104.352 L 176.976 104.272 L 177.495 104.025 L 177.808 103.626 L 177.914 103.082 L 177.823 102.592 L 177.586 102.219 L 177.213 101.977 L 176.739 101.891 L 176.26 101.977 L 175.892 102.209 L 175.66 102.567 L 175.579 103.011 L 175.68 103.49 L 175.967 103.848 L 175.412 103.772 L 175.014 103.611 L 174.777 103.364 L 174.696 103.021 L 174.737 102.769 L 174.843 102.577 L 175.019 102.451 L 175.256 102.386 L 175.256 101.922 L 175.256 101.922 z M 176.744 102.381 L 177.062 102.436 L 177.304 102.577 L 177.465 102.804 L 177.516 103.087 L 177.465 103.384 L 177.309 103.611 L 177.067 103.757 L 176.749 103.803 L 176.436 103.752 L 176.199 103.611 L 176.048 103.379 L 175.992 103.066 L 176.048 102.794 L 176.194 102.577 L 176.431 102.436 L 176.744 102.381 L 176.744 102.381 z" stroke="none" fill-rule="evenodd" fill="rgb(0, 0, 0)"/><path d="M 180.331 83.9319 L 179.813 82 L 179.295 83.9319"/><path d="M 179.295 126.068 L 179.813 128 L 180.331 126.068"/><path d="M 179.813 128 L 179.813 82"/></g></svg>