<?xml version="1.0" encoding="utf-8" ?><!DOCTYPE svg PUBLIC "-//W3C//DTD SVG 1.1//EN" "http://www.w3.org/Graphics/SVG/1.1/DTD/svg11.dtd" 
[ <!ATTLIST svg 
  xmlns:dsy CDATA #FIXED "http://www.3ds.com/print"  
    dsy:text-version CDATA #IMPLIED > 

  <!ATTLIST text 
  xmlns:dsy CDATA #FIXED "http://www.3ds.com/print" 
    dsy:text-version CDATA #IMPLIED > 
]><svg xmlns="http://www.w3.org/2000/svg" xmlns:dsy="http://www.3ds.com/print" dsy:text-version="18000" width="297" height="210" viewBox="0 0 297 210" version="1.1"><g stroke="rgb(0, 0, 0)" stroke-width="0.13" stroke-linecap="butt" stroke-linejoin="miter" fill="none"><path d="M 136.5 128 L 115.793 128"/><path d="M 136.5 82 L 115.793 82"/></g><g stroke="rgb(0, 0, 0)" stroke-width="0.35" stroke-linecap="butt" stroke-linejoin="miter" fill="none"><path d="M 158.5 105 L 158.5 124"/><path d="M 158.5 124 L 150.958 124"/><path d="M 150.958 124 L 144.958 124"/><path d="M 144.958 124 L 144.958 128"/><path d="M 138.5 128 L 144.958 128"/><path d="M 138.5 82 L 138.5 128"/><path d="M 144.958 82 L 138.5 82"/><path d="M 144.958 86 L 144.958 82"/><path d="M 150.958 86 L 144.958 86"/><path d="M 158.5 86 L 150.958 86"/><path d="M 158.5 105 L 158.5 86"/></g><g stroke="rgb(0, 0, 0)" stroke-width="0.13" stroke-linecap="butt" stroke-linejoin="miter" fill="none"><path d="M 115.793 106.591 L 115.793 106.137 L 114.926 106.137 L 114.926 105.637 L 114.522 105.637 L 114.522 106.137 L 112.369 106.137 L 112.369 106.596 L 114.482 108.129 L 114.926 108.129 L 114.926 106.591 L 115.793 106.591 L 115.793 106.591 z M 114.522 107.705 L 112.954 106.591 L 114.522 106.591 L 114.522 107.705 L 114.522 107.705 z M 113.236 101.922 L 112.828 102.017 L 112.525 102.239 L 112.334 102.582 L 112.268 103.026 L 112.303 103.324 L 112.399 103.581 L 112.556 103.808 L 112.777 103.999 L 113.055 104.151 L 113.393 104.262 L 113.791 104.332 L 114.24 104.352 L 114.956 104.272 L 115.476 104.025 L 115.788 103.626 L 115.894 103.082 L 115.803 102.592 L 115.566 102.219 L 115.193 101.977 L 114.719 101.891 L 114.24 101.977 L 113.872 102.209 L 113.64 102.567 L 113.559 103.011 L 113.66 103.49 L 113.948 103.848 L 113.393 103.772 L 112.994 103.611 L 112.757 103.364 L 112.677 103.021 L 112.717 102.769 L 112.823 102.577 L 112.999 102.451 L 113.236 102.386 L 113.236 101.922 L 113.236 101.922 z M 114.724 102.381 L 115.042 102.436 L 115.284 102.577 L 115.445 102.804 L 115.496 103.087 L 115.445 103.384 L 115.289 103.611 L 115.047 103.757 L 114.729 103.803 L 114.417 103.752 L 114.18 103.611 L 114.028 103.379 L 113.973 103.066 L 114.028 102.794 L 114.174 102.577 L 114.411 102.436 L 114.724 102.381 L 114.724 102.381 z" stroke="none" fill-rule="evenodd" fill="rgb(0, 0, 0)"/><path d="M 118.311 83.9319 L 117.793 82 L 117.276 83.9319"/><path d="M 117.276 126.068 L 117.793 128 L 118.311 126.068"/><path d="M 117.793 128 L 117.793 82"/></g></svg>