<?xml version="1.0" encoding="utf-8" ?><!DOCTYPE svg PUBLIC "-//W3C//DTD SVG 1.1//EN" "http://www.w3.org/Graphics/SVG/1.1/DTD/svg11.dtd" 
[ <!ATTLIST svg 
  xmlns:dsy CDATA #FIXED "http://www.3ds.com/print"  
    dsy:text-version CDATA #IMPLIED > 

  <!ATTLIST text 
  xmlns:dsy CDATA #FIXED "http://www.3ds.com/print" 
    dsy:text-version CDATA #IMPLIED > 
]><svg xmlns="http://www.w3.org/2000/svg" xmlns:dsy="http://www.3ds.com/print" dsy:text-version="18000" width="297" height="210" viewBox="0 0 297 210" version="1.1"><g stroke="rgb(0, 0, 0)" stroke-width="0.35" stroke-linecap="butt" stroke-linejoin="miter" fill="none"><path d="M 138.433 75.5345 L 138.433 83.6287"/><path d="M 138.433 83.6287 L 129.68 83.6287"/><path d="M 129.68 83.6287 L 129.68 134.466"/><path d="M 129.68 134.466 L 167.32 134.466"/><path d="M 167.32 134.466 L 167.32 83.6287"/><path d="M 160.233 83.6287 L 167.32 83.6287"/><path d="M 160.233 75.5345 L 160.233 83.6287"/><path d="M 154.333 75.5345 L 160.233 75.5345"/><path d="M 154.333 83.6287 L 154.333 75.5345"/><path d="M 144.333 83.6287 L 154.333 83.6287"/><path d="M 144.333 75.5345 L 144.333 83.6287"/><path d="M 138.433 75.5345 L 144.333 75.5345"/><circle cx="146.499" cy="123.278" r="3.2"/><path d="M 134.831 99.5737 L 134.331 99.5737"/><path d="M 134.831 103.909 L 134.831 99.5737"/><path d="M 134.331 103.909 L 134.831 103.909"/><path d="M 134.331 99.5737 L 134.331 103.909"/><path d="M 135.86 99.5737 L 136.36 99.5737"/><path d="M 136.36 103.909 L 136.36 99.5737"/><path d="M 136.36 103.909 L 135.86 103.909"/><path d="M 135.86 99.5737 L 135.86 103.909"/><path d="M 136.251 122.827 L 135.266 122.653"/><path d="M 134.564 132.394 L 136.251 122.827"/><path d="M 133.579 132.22 L 134.564 132.394"/><path d="M 135.266 122.653 L 133.579 132.22"/><path d="M 132.882 99.5737 L 133.382 99.5737"/><path d="M 133.382 103.909 L 133.382 99.5737"/><path d="M 133.382 103.909 L 132.882 103.909"/><path d="M 132.882 99.5737 L 132.882 103.909"/></g><g stroke="rgb(0, 0, 0)" stroke-width="0.13" stroke-linecap="butt" stroke-linejoin="miter" fill="none"><path d="M 139.757 109.698 L 139.757 109.733 L 139.838 110.217 L 140.075 110.581 L 140.448 110.813 L 140.942 110.898 L 141.467 110.813 L 141.86 110.591 L 142.112 110.238 L 142.203 109.784 L 142.163 109.486 L 142.052 109.244 L 141.87 109.058 L 141.628 108.921 L 141.956 108.649 L 142.072 108.215 L 141.996 107.822 L 141.779 107.524 L 141.426 107.338 L 140.942 107.272 L 140.488 107.353 L 140.14 107.575 L 139.913 107.928 L 139.838 108.397 L 139.838 108.432 L 140.287 108.432 L 140.327 108.109 L 140.458 107.877 L 140.67 107.736 L 140.967 107.686 L 141.23 107.726 L 141.421 107.832 L 141.537 108.003 L 141.583 108.235 L 141.537 108.483 L 141.416 108.649 L 141.204 108.75 L 140.917 108.78 L 140.72 108.775 L 140.72 109.174 L 140.967 109.163 L 141.285 109.209 L 141.522 109.33 L 141.663 109.527 L 141.714 109.784 L 141.658 110.076 L 141.512 110.293 L 141.28 110.429 L 140.972 110.475 L 140.655 110.424 L 140.423 110.273 L 140.277 110.031 L 140.221 109.698 L 139.757 109.698 L 139.757 109.698 z M 144.063 110.797 L 144.572 110.797 L 144.739 109.965 L 145.031 109.189 L 145.445 108.467 L 145.984 107.792 L 145.984 107.373 L 143.584 107.373 L 143.584 107.832 L 145.5 107.832 L 144.946 108.513 L 144.527 109.224 L 144.234 109.98 L 144.063 110.797 L 144.063 110.797 z M 148.152 110.797 L 148.848 110.797 L 148.848 110.046 L 148.152 110.046 L 148.152 110.797 L 148.152 110.797 z M 153.446 108.241 L 153.351 107.832 L 153.129 107.529 L 152.786 107.338 L 152.342 107.272 L 152.044 107.308 L 151.787 107.403 L 151.56 107.56 L 151.369 107.782 L 151.217 108.059 L 151.106 108.397 L 151.036 108.795 L 151.016 109.244 L 151.096 109.96 L 151.343 110.48 L 151.742 110.792 L 152.286 110.898 L 152.776 110.808 L 153.149 110.57 L 153.391 110.197 L 153.477 109.723 L 153.391 109.244 L 153.159 108.876 L 152.801 108.644 L 152.357 108.563 L 151.878 108.664 L 151.52 108.952 L 151.596 108.397 L 151.757 107.998 L 152.004 107.761 L 152.347 107.681 L 152.599 107.721 L 152.791 107.827 L 152.917 108.003 L 152.982 108.241 L 153.446 108.241 L 153.446 108.241 z M 152.987 109.728 L 152.932 110.046 L 152.791 110.288 L 152.564 110.449 L 152.281 110.5 L 151.984 110.449 L 151.757 110.293 L 151.611 110.051 L 151.565 109.733 L 151.616 109.421 L 151.757 109.184 L 151.989 109.032 L 152.302 108.977 L 152.574 109.032 L 152.791 109.179 L 152.932 109.416 L 152.987 109.728 L 152.987 109.728 z M 156.249 110.797 L 156.703 110.797 L 156.703 109.93 L 157.203 109.93 L 157.203 109.527 L 156.703 109.527 L 156.703 107.373 L 156.244 107.373 L 154.711 109.486 L 154.711 109.93 L 156.249 109.93 L 156.249 110.797 L 156.249 110.797 z M 155.135 109.527 L 156.249 107.958 L 156.249 109.527 L 155.135 109.527 L 155.135 109.527 z" stroke="none" fill-rule="evenodd" fill="rgb(0, 0, 0)"/><path d="M 131.612 112.28 L 129.68 112.797 L 131.612 113.315"/><path d="M 165.388 113.315 L 167.32 112.797 L 165.388 112.28"/><path d="M 129.68 112.797 L 167.32 112.797"/></g></svg>