<?xml version="1.0" encoding="utf-8" ?><!DOCTYPE svg PUBLIC "-//W3C//DTD SVG 1.1//EN" "http://www.w3.org/Graphics/SVG/1.1/DTD/svg11.dtd" 
[ <!ATTLIST svg 
  xmlns:dsy CDATA #FIXED "http://www.3ds.com/print"  
    dsy:text-version CDATA #IMPLIED > 

  <!ATTLIST text 
  xmlns:dsy CDATA #FIXED "http://www.3ds.com/print" 
    dsy:text-version CDATA #IMPLIED > 
]><svg xmlns="http://www.w3.org/2000/svg" xmlns:dsy="http://www.3ds.com/print" dsy:text-version="18000" width="297" height="210" viewBox="0 0 297 210" version="1.1"><g stroke="rgb(0, 0, 0)" stroke-width="0.35" stroke-linecap="butt" stroke-linejoin="miter" fill="none"><path d="M 137.6 75.8471 L 137.6 83.7056"/><path d="M 137.6 83.7056 L 130.6 83.7056"/><path d="M 130.6 83.7056 L 130.6 134.153"/><path d="M 130.6 134.153 L 166.4 134.153"/><path d="M 166.4 134.153 L 166.4 83.7056"/><path d="M 166.4 83.7056 L 159.4 83.7056"/><path d="M 159.4 75.8471 L 159.4 83.7056"/><path d="M 153.5 75.8471 L 159.4 75.8471"/><path d="M 153.5 83.7056 L 153.5 75.8471"/><path d="M 143.5 83.7056 L 153.5 83.7056"/><path d="M 143.5 75.8471 L 143.5 83.7056"/><path d="M 137.6 75.8471 L 143.5 75.8471"/><circle cx="147.31" cy="123.299" r="3.2"/><path d="M 139.813 121.118 L 138.869 120.788"/><path d="M 137.23 131.679 L 139.813 121.118"/><path d="M 136.263 131.442 L 137.23 131.679"/><path d="M 138.869 120.788 L 136.263 131.442"/><path d="M 135.755 98.2571 L 134.755 98.2571"/><path d="M 135.755 103.325 L 135.755 98.2571"/><path d="M 134.755 103.325 L 135.755 103.325"/><path d="M 134.755 98.2571 L 134.755 103.325"/></g><g stroke="rgb(0, 0, 0)" stroke-width="0.13" stroke-linecap="butt" stroke-linejoin="miter" fill="none"><path d="M 153.733 113.723 L 154.146 113.612 L 154.469 113.365 L 154.671 113.002 L 154.747 112.538 L 154.656 112.028 L 154.409 111.63 L 154.015 111.378 L 153.511 111.282 L 153.042 111.368 L 152.674 111.61 L 152.437 111.988 L 152.351 112.477 L 152.412 112.855 L 152.578 113.148 L 151.635 113.007 L 151.635 111.473 L 151.221 111.473 L 151.221 113.345 L 153.077 113.622 L 153.077 113.218 L 152.84 112.926 L 152.754 112.553 L 152.81 112.23 L 152.971 111.983 L 153.218 111.826 L 153.536 111.771 L 153.854 111.826 L 154.101 111.988 L 154.257 112.235 L 154.313 112.553 L 154.278 112.82 L 154.162 113.027 L 153.98 113.178 L 153.733 113.254 L 153.733 113.723 L 153.733 113.723 z M 152.759 109.361 L 152.901 109.619 L 153.097 109.795 L 153.345 109.906 L 153.642 109.941 L 154.091 109.861 L 154.439 109.629 L 154.661 109.25 L 154.747 108.736 L 154.661 108.227 L 154.439 107.848 L 154.091 107.616 L 153.642 107.531 L 153.345 107.571 L 153.097 107.677 L 152.901 107.858 L 152.759 108.111 L 152.638 107.909 L 152.472 107.768 L 152.27 107.682 L 152.023 107.652 L 151.665 107.732 L 151.378 107.944 L 151.191 108.287 L 151.12 108.736 L 151.191 109.19 L 151.378 109.533 L 151.665 109.75 L 152.023 109.825 L 152.27 109.8 L 152.472 109.714 L 152.759 109.361 L 152.759 109.361 z M 153.632 109.457 L 153.365 109.412 L 153.163 109.266 L 153.032 109.039 L 152.986 108.736 L 153.032 108.438 L 153.163 108.212 L 153.365 108.065 L 153.632 108.015 L 153.919 108.065 L 154.136 108.212 L 154.278 108.438 L 154.323 108.736 L 154.278 109.039 L 154.136 109.266 L 153.919 109.412 L 153.632 109.457 L 153.632 109.457 z M 152.064 109.346 L 151.842 109.306 L 151.67 109.185 L 151.564 108.993 L 151.524 108.736 L 151.564 108.484 L 151.67 108.292 L 151.842 108.171 L 152.064 108.126 L 152.29 108.171 L 152.467 108.292 L 152.583 108.484 L 152.618 108.736 L 152.578 108.993 L 152.467 109.185 L 152.29 109.306 L 152.064 109.346 L 152.064 109.346 z M 154.646 105.348 L 154.646 104.652 L 153.894 104.652 L 153.894 105.348 L 154.646 105.348 L 154.646 105.348 z M 153.546 102.535 L 153.582 102.535 L 154.066 102.454 L 154.429 102.217 L 154.661 101.844 L 154.747 101.35 L 154.661 100.825 L 154.439 100.432 L 154.086 100.18 L 153.632 100.089 L 153.334 100.129 L 153.092 100.24 L 152.906 100.422 L 152.77 100.664 L 152.497 100.336 L 152.064 100.22 L 151.67 100.296 L 151.373 100.513 L 151.186 100.866 L 151.12 101.35 L 151.201 101.804 L 151.423 102.152 L 151.776 102.379 L 152.245 102.454 L 152.28 102.454 L 152.28 102.005 L 151.958 101.965 L 151.726 101.834 L 151.584 101.622 L 151.534 101.324 L 151.574 101.062 L 151.68 100.871 L 151.852 100.755 L 152.084 100.709 L 152.331 100.755 L 152.497 100.876 L 152.598 101.087 L 152.628 101.375 L 152.623 101.572 L 153.022 101.572 L 153.012 101.324 L 153.057 101.007 L 153.178 100.77 L 153.375 100.629 L 153.632 100.578 L 153.924 100.634 L 154.141 100.78 L 154.278 101.012 L 154.323 101.319 L 154.272 101.637 L 154.121 101.869 L 153.879 102.015 L 153.546 102.071 L 153.546 102.535 L 153.546 102.535 z M 154.646 97.6187 L 154.646 97.1598 L 151.12 97.1598 L 151.12 97.5027 L 151.428 97.5935 L 151.635 97.7751 L 151.756 98.0524 L 151.796 98.4357 L 152.154 98.4357 L 152.154 97.6187 L 154.646 97.6187 L 154.646 97.6187 z" stroke="none" fill-rule="evenodd" fill="rgb(0, 0, 0)"/><path d="M 156.128 132.221 L 156.646 134.153 L 157.163 132.221"/><path d="M 157.163 77.7789 L 156.646 75.8471 L 156.128 77.7789"/><path d="M 156.646 134.153 L 156.646 75.8471"/></g></svg>