<?xml version="1.0" encoding="utf-8" ?><!DOCTYPE svg PUBLIC "-//W3C//DTD SVG 1.1//EN" "http://www.w3.org/Graphics/SVG/1.1/DTD/svg11.dtd" 
[ <!ATTLIST svg 
  xmlns:dsy CDATA #FIXED "http://www.3ds.com/print"  
    dsy:text-version CDATA #IMPLIED > 

  <!ATTLIST text 
  xmlns:dsy CDATA #FIXED "http://www.3ds.com/print" 
    dsy:text-version CDATA #IMPLIED > 
]><svg xmlns="http://www.w3.org/2000/svg" xmlns:dsy="http://www.3ds.com/print" dsy:text-version="18000" width="297" height="210" viewBox="0 0 297 210" version="1.1"><g stroke="rgb(0, 0, 0)" stroke-width="0.35" stroke-linecap="butt" stroke-linejoin="miter" fill="none"><path d="M 156.425 74.2001 L 156.425 82.2943"/><path d="M 156.425 82.2943 L 167.563 82.2943"/><path d="M 167.563 82.2943 L 167.563 135.8"/><path d="M 167.563 135.8 L 129.437 135.8"/><path d="M 129.437 135.8 L 129.437 82.2943"/><path d="M 134.625 82.2943 L 129.437 82.2943"/><path d="M 134.625 74.2001 L 134.625 82.2943"/><path d="M 140.525 74.2001 L 134.625 74.2001"/><path d="M 140.525 82.2943 L 140.525 74.2001"/><path d="M 150.525 82.2943 L 140.525 82.2943"/><path d="M 150.525 74.2001 L 150.525 82.2943"/><path d="M 156.425 74.2001 L 150.525 74.2001"/><circle cx="149.07" cy="121.882" r="3.2"/><path d="M 136.881 99.7541 L 137.381 99.7541"/><path d="M 136.881 104.089 L 136.881 99.7541"/><path d="M 137.381 104.089 L 136.881 104.089"/><path d="M 137.381 99.7541 L 137.381 104.089"/><path d="M 135.852 99.7541 L 135.352 99.7541"/><path d="M 135.352 104.089 L 135.352 99.7541"/><path d="M 135.352 104.089 L 135.852 104.089"/><path d="M 135.852 99.7541 L 135.852 104.089"/><path d="M 161.072 121.947 L 161.803 121.266"/><path d="M 162.58 131.717 L 161.072 121.947"/><path d="M 163.312 131.035 L 162.58 131.717"/><path d="M 161.803 121.266 L 163.312 131.035"/><path d="M 134.129 99.7541 L 134.629 99.7541"/><path d="M 134.129 104.089 L 134.129 99.7541"/><path d="M 134.629 104.089 L 134.129 104.089"/><path d="M 134.629 99.7541 L 134.629 104.089"/><path d="M 133.101 99.7541 L 132.601 99.7541"/><path d="M 132.601 104.089 L 132.601 99.7541"/><path d="M 132.601 104.089 L 133.101 104.089"/><path d="M 133.101 99.7541 L 133.101 104.089"/></g><g stroke="rgb(0, 0, 0)" stroke-width="0.13" stroke-linecap="butt" stroke-linejoin="miter" fill="none"><path d="M 139.757 109.068 L 139.757 109.103 L 139.838 109.587 L 140.075 109.951 L 140.448 110.183 L 140.942 110.268 L 141.467 110.183 L 141.86 109.961 L 142.112 109.608 L 142.203 109.154 L 142.163 108.856 L 142.052 108.614 L 141.87 108.427 L 141.628 108.291 L 141.956 108.019 L 142.072 107.585 L 141.996 107.192 L 141.779 106.894 L 141.426 106.708 L 140.942 106.642 L 140.488 106.723 L 140.14 106.945 L 139.913 107.298 L 139.838 107.767 L 139.838 107.802 L 140.287 107.802 L 140.327 107.479 L 140.458 107.247 L 140.67 107.106 L 140.967 107.056 L 141.23 107.096 L 141.421 107.202 L 141.537 107.373 L 141.583 107.605 L 141.537 107.853 L 141.416 108.019 L 141.204 108.12 L 140.917 108.15 L 140.72 108.145 L 140.72 108.543 L 140.967 108.533 L 141.285 108.579 L 141.522 108.7 L 141.663 108.896 L 141.714 109.154 L 141.658 109.446 L 141.512 109.663 L 141.28 109.799 L 140.972 109.845 L 140.655 109.794 L 140.423 109.643 L 140.277 109.401 L 140.221 109.068 L 139.757 109.068 L 139.757 109.068 z M 144.139 108.281 L 143.881 108.422 L 143.705 108.619 L 143.594 108.866 L 143.559 109.164 L 143.639 109.613 L 143.871 109.961 L 144.25 110.183 L 144.764 110.268 L 145.273 110.183 L 145.652 109.961 L 145.884 109.613 L 145.969 109.164 L 145.929 108.866 L 145.823 108.619 L 145.642 108.422 L 145.389 108.281 L 145.591 108.16 L 145.732 107.994 L 145.818 107.792 L 145.848 107.545 L 145.768 107.187 L 145.556 106.899 L 145.213 106.713 L 144.764 106.642 L 144.31 106.713 L 143.967 106.899 L 143.75 107.187 L 143.675 107.545 L 143.7 107.792 L 143.786 107.994 L 144.139 108.281 L 144.139 108.281 z M 144.043 109.154 L 144.088 108.886 L 144.234 108.685 L 144.461 108.554 L 144.764 108.508 L 145.062 108.554 L 145.288 108.685 L 145.435 108.886 L 145.485 109.154 L 145.435 109.441 L 145.288 109.658 L 145.062 109.799 L 144.764 109.845 L 144.461 109.799 L 144.234 109.658 L 144.088 109.441 L 144.043 109.154 L 144.043 109.154 z M 144.154 107.585 L 144.194 107.363 L 144.315 107.192 L 144.507 107.086 L 144.764 107.046 L 145.016 107.086 L 145.208 107.192 L 145.329 107.363 L 145.374 107.585 L 145.329 107.812 L 145.208 107.989 L 145.016 108.105 L 144.764 108.14 L 144.507 108.1 L 144.315 107.989 L 144.194 107.812 L 144.154 107.585 L 144.154 107.585 z M 148.152 110.167 L 148.848 110.167 L 148.848 109.416 L 148.152 109.416 L 148.152 110.167 L 148.152 110.167 z M 152.145 110.167 L 152.604 110.167 L 152.604 106.642 L 152.261 106.642 L 152.17 106.95 L 151.989 107.157 L 151.712 107.278 L 151.328 107.318 L 151.328 107.676 L 152.145 107.676 L 152.145 110.167 L 152.145 110.167 z M 154.701 109.068 L 154.701 109.103 L 154.782 109.587 L 155.019 109.951 L 155.392 110.183 L 155.886 110.268 L 156.411 110.183 L 156.804 109.961 L 157.056 109.608 L 157.147 109.154 L 157.107 108.856 L 156.996 108.614 L 156.814 108.427 L 156.572 108.291 L 156.9 108.019 L 157.016 107.585 L 156.94 107.192 L 156.723 106.894 L 156.37 106.708 L 155.886 106.642 L 155.432 106.723 L 155.084 106.945 L 154.857 107.298 L 154.782 107.767 L 154.782 107.802 L 155.231 107.802 L 155.271 107.479 L 155.402 107.247 L 155.614 107.106 L 155.912 107.056 L 156.174 107.096 L 156.365 107.202 L 156.481 107.373 L 156.527 107.605 L 156.481 107.853 L 156.36 108.019 L 156.149 108.12 L 155.861 108.15 L 155.664 108.145 L 155.664 108.543 L 155.912 108.533 L 156.229 108.579 L 156.466 108.7 L 156.607 108.896 L 156.658 109.154 L 156.602 109.446 L 156.456 109.663 L 156.224 109.799 L 155.917 109.845 L 155.599 109.794 L 155.367 109.643 L 155.221 109.401 L 155.165 109.068 L 154.701 109.068 L 154.701 109.068 z" stroke="none" fill-rule="evenodd" fill="rgb(0, 0, 0)"/><path d="M 131.369 111.65 L 129.437 112.167 L 131.369 112.685"/><path d="M 165.631 112.685 L 167.563 112.167 L 165.631 111.65"/><path d="M 129.437 112.167 L 167.563 112.167"/></g></svg>