<?xml version="1.0" encoding="utf-8" ?><!DOCTYPE svg PUBLIC "-//W3C//DTD SVG 1.1//EN" "http://www.w3.org/Graphics/SVG/1.1/DTD/svg11.dtd" 
[ <!ATTLIST svg 
  xmlns:dsy CDATA #FIXED "http://www.3ds.com/print"  
    dsy:text-version CDATA #IMPLIED > 

  <!ATTLIST text 
  xmlns:dsy CDATA #FIXED "http://www.3ds.com/print" 
    dsy:text-version CDATA #IMPLIED > 
]><svg xmlns="http://www.w3.org/2000/svg" xmlns:dsy="http://www.3ds.com/print" dsy:text-version="18000" width="297" height="210" viewBox="0 0 297 210" version="1.1"><g stroke="rgb(0, 0, 0)" stroke-width="0.35" stroke-linecap="butt" stroke-linejoin="miter" fill="none"><path d="M 158.567 75.5345 L 158.567 83.6287"/><path d="M 158.567 83.6287 L 167.32 83.6287"/><path d="M 167.32 83.6287 L 167.32 134.466"/><path d="M 167.32 134.466 L 129.68 134.466"/><path d="M 129.68 134.466 L 129.68 83.6287"/><path d="M 136.767 83.6287 L 129.68 83.6287"/><path d="M 136.767 75.5345 L 136.767 83.6287"/><path d="M 142.667 75.5345 L 136.767 75.5345"/><path d="M 142.667 83.6287 L 142.667 75.5345"/><path d="M 152.667 83.6287 L 142.667 83.6287"/><path d="M 152.667 75.5345 L 152.667 83.6287"/><path d="M 158.567 75.5345 L 152.667 75.5345"/><circle cx="150.628" cy="123.364" r="3.2"/><path d="M 139.023 101.088 L 139.523 101.088"/><path d="M 139.023 105.424 L 139.023 101.088"/><path d="M 139.523 105.424 L 139.023 105.424"/><path d="M 139.523 101.088 L 139.523 105.424"/><path d="M 137.994 101.088 L 137.494 101.088"/><path d="M 137.494 105.424 L 137.494 101.088"/><path d="M 137.494 105.424 L 137.994 105.424"/><path d="M 137.994 101.088 L 137.994 105.424"/><path d="M 141.312 124.858 L 142.291 125.06"/><path d="M 139.769 132.317 L 141.312 124.858"/><path d="M 140.748 132.519 L 139.769 132.317"/><path d="M 142.291 125.06 L 140.748 132.519"/></g><g stroke="rgb(0, 0, 0)" stroke-width="0.13" stroke-linecap="butt" stroke-linejoin="miter" fill="none"><path d="M 139.757 111.503 L 139.757 111.538 L 139.838 112.023 L 140.075 112.386 L 140.448 112.618 L 140.942 112.703 L 141.467 112.618 L 141.86 112.396 L 142.112 112.043 L 142.203 111.589 L 142.163 111.291 L 142.052 111.049 L 141.87 110.863 L 141.628 110.726 L 141.956 110.454 L 142.072 110.02 L 141.996 109.627 L 141.779 109.329 L 141.426 109.143 L 140.942 109.077 L 140.488 109.158 L 140.14 109.38 L 139.913 109.733 L 139.838 110.202 L 139.838 110.237 L 140.287 110.237 L 140.327 109.915 L 140.458 109.683 L 140.67 109.541 L 140.967 109.491 L 141.23 109.531 L 141.421 109.637 L 141.537 109.809 L 141.583 110.041 L 141.537 110.288 L 141.416 110.454 L 141.204 110.555 L 140.917 110.585 L 140.72 110.58 L 140.72 110.979 L 140.967 110.969 L 141.285 111.014 L 141.522 111.135 L 141.663 111.332 L 141.714 111.589 L 141.658 111.881 L 141.512 112.098 L 141.28 112.234 L 140.972 112.28 L 140.655 112.229 L 140.423 112.078 L 140.277 111.836 L 140.221 111.503 L 139.757 111.503 L 139.757 111.503 z M 144.063 112.603 L 144.572 112.603 L 144.739 111.77 L 145.031 110.994 L 145.445 110.273 L 145.984 109.597 L 145.984 109.178 L 143.584 109.178 L 143.584 109.637 L 145.5 109.637 L 144.946 110.318 L 144.527 111.029 L 144.234 111.786 L 144.063 112.603 L 144.063 112.603 z M 148.152 112.603 L 148.848 112.603 L 148.848 111.851 L 148.152 111.851 L 148.152 112.603 L 148.152 112.603 z M 153.446 110.046 L 153.351 109.637 L 153.129 109.335 L 152.786 109.143 L 152.342 109.077 L 152.044 109.113 L 151.787 109.208 L 151.56 109.365 L 151.369 109.587 L 151.217 109.864 L 151.106 110.202 L 151.036 110.6 L 151.016 111.049 L 151.096 111.765 L 151.343 112.285 L 151.742 112.598 L 152.286 112.703 L 152.776 112.613 L 153.149 112.376 L 153.391 112.002 L 153.477 111.528 L 153.391 111.049 L 153.159 110.681 L 152.801 110.449 L 152.357 110.368 L 151.878 110.469 L 151.52 110.757 L 151.596 110.202 L 151.757 109.804 L 152.004 109.567 L 152.347 109.486 L 152.599 109.526 L 152.791 109.632 L 152.917 109.809 L 152.982 110.046 L 153.446 110.046 L 153.446 110.046 z M 152.987 111.533 L 152.932 111.851 L 152.791 112.093 L 152.564 112.255 L 152.281 112.305 L 151.984 112.255 L 151.757 112.098 L 151.611 111.856 L 151.565 111.538 L 151.616 111.226 L 151.757 110.989 L 151.989 110.837 L 152.302 110.782 L 152.574 110.837 L 152.791 110.984 L 152.932 111.221 L 152.987 111.533 L 152.987 111.533 z M 156.249 112.603 L 156.703 112.603 L 156.703 111.735 L 157.203 111.735 L 157.203 111.332 L 156.703 111.332 L 156.703 109.178 L 156.244 109.178 L 154.711 111.291 L 154.711 111.735 L 156.249 111.735 L 156.249 112.603 L 156.249 112.603 z M 155.135 111.332 L 156.249 109.763 L 156.249 111.332 L 155.135 111.332 L 155.135 111.332 z" stroke="none" fill-rule="evenodd" fill="rgb(0, 0, 0)"/><path d="M 131.612 114.085 L 129.68 114.603 L 131.612 115.12"/><path d="M 165.388 115.12 L 167.32 114.603 L 165.388 114.085"/><path d="M 129.68 114.603 L 167.32 114.603"/></g></svg>