<?xml version="1.0" encoding="utf-8" ?><!DOCTYPE svg PUBLIC "-//W3C//DTD SVG 1.1//EN" "http://www.w3.org/Graphics/SVG/1.1/DTD/svg11.dtd" 
[ <!ATTLIST svg 
  xmlns:dsy CDATA #FIXED "http://www.3ds.com/print"  
    dsy:text-version CDATA #IMPLIED > 

  <!ATTLIST text 
  xmlns:dsy CDATA #FIXED "http://www.3ds.com/print" 
    dsy:text-version CDATA #IMPLIED > 
]><svg xmlns="http://www.w3.org/2000/svg" xmlns:dsy="http://www.3ds.com/print" dsy:text-version="18000" width="297" height="210" viewBox="0 0 297 210" version="1.1"><g stroke="rgb(0, 0, 0)" stroke-width="0.35" stroke-linecap="butt" stroke-linejoin="miter" fill="none"><path d="M 25.6161 42.7982 L 25.6161 167.202"/><path d="M 271.384 167.202 L 25.6161 167.202"/><path d="M 271.384 167.202 L 271.384 42.7982"/><path d="M 25.6161 42.7982 L 271.384 42.7982"/><path d="M 238.26 156.458 L 241.21 156.458"/><path d="M 241.21 159.458 L 241.21 156.458"/><path d="M 241.21 159.458 L 238.26 159.458"/><path d="M 238.26 156.458 L 238.26 159.458"/><path d="M 230.31 156.458 L 233.26 156.458"/><path d="M 233.26 159.458 L 233.26 156.458"/><path d="M 233.26 159.458 L 230.31 159.458"/><path d="M 230.31 156.458 L 230.31 159.458"/><path d="M 90.3857 156.458 L 93.3358 156.458"/><path d="M 93.3358 159.458 L 93.3358 156.458"/><path d="M 93.3358 159.458 L 90.3857 159.458"/><path d="M 90.3857 156.458 L 90.3857 159.458"/><path d="M 98.3358 156.458 L 101.286 156.458"/><path d="M 101.286 159.458 L 101.286 156.458"/><path d="M 101.286 159.458 L 98.3358 159.458"/><path d="M 98.3358 156.458 L 98.3358 159.458"/><path d="M 251.157 154.726 L 250.657 154.726"/><path d="M 251.157 161.493 L 251.157 154.726"/><path d="M 250.657 161.493 L 251.157 161.493"/><path d="M 250.657 154.726 L 250.657 161.493"/><path d="M 36.6018 77.3914 L 39.6018 77.3914"/><path d="M 39.6018 80.3414 L 39.6018 77.3914"/><path d="M 39.6018 80.3414 L 36.6018 80.3414"/><path d="M 36.6018 77.3914 L 36.6018 80.3414"/><path d="M 36.6018 85.3414 L 39.6018 85.3414"/><path d="M 39.6018 88.2914 L 39.6018 85.3414"/><path d="M 39.6018 88.2914 L 36.6018 88.2914"/><path d="M 36.6018 85.3414 L 36.6018 88.2914"/><path d="M 111.031 154.424 L 110.531 154.424"/><path d="M 111.031 161.192 L 111.031 154.424"/><path d="M 110.531 161.192 L 111.031 161.192"/><path d="M 110.531 154.424 L 110.531 161.192"/><path d="M 112.486 154.497 L 111.986 154.497"/><path d="M 112.486 161.264 L 112.486 154.497"/><path d="M 111.986 161.264 L 112.486 161.264"/><path d="M 111.986 154.497 L 111.986 161.264"/><path d="M 36.4847 97.2203 L 35.9847 97.2203"/><path d="M 36.4847 103.988 L 36.4847 97.2203"/><path d="M 35.9847 103.988 L 36.4847 103.988"/><path d="M 35.9847 97.2203 L 35.9847 103.988"/><path d="M 37.9399 97.2929 L 37.4399 97.2929"/><path d="M 37.9399 104.06 L 37.9399 97.2929"/><path d="M 37.4399 104.06 L 37.9399 104.06"/><path d="M 37.4399 97.2929 L 37.4399 104.06"/><path d="M 39.4443 97.1919 L 38.9443 97.1919"/><path d="M 39.4443 103.959 L 39.4443 97.1919"/><path d="M 38.9443 103.959 L 39.4443 103.959"/><path d="M 38.9443 97.1919 L 38.9443 103.959"/><path d="M 251.102 52.4854 L 254.102 52.4854"/><path d="M 254.102 55.4354 L 254.102 52.4854"/><path d="M 254.102 55.4354 L 251.102 55.4354"/><path d="M 251.102 52.4854 L 251.102 55.4354"/><path d="M 251.102 60.4354 L 254.102 60.4354"/><path d="M 254.102 63.3854 L 254.102 60.4354"/><path d="M 254.102 63.3854 L 251.102 63.3854"/><path d="M 251.102 60.4354 L 251.102 63.3854"/><path d="M 245.446 70.7686 L 244.946 70.7686"/><path d="M 245.446 77.536 L 245.446 70.7686"/><path d="M 244.946 77.536 L 245.446 77.536"/><path d="M 244.946 70.7686 L 244.946 77.536"/><path d="M 246.901 70.8412 L 246.401 70.8412"/><path d="M 246.901 77.6087 L 246.901 70.8412"/><path d="M 246.401 77.6087 L 246.901 77.6087"/><path d="M 246.401 70.8412 L 246.401 77.6087"/><path d="M 248.406 70.7402 L 247.906 70.7402"/><path d="M 248.406 77.5077 L 248.406 70.7402"/><path d="M 247.906 77.5077 L 248.406 77.5077"/><path d="M 247.906 70.7402 L 247.906 77.5077"/><path d="M 249.623 70.8723 L 249.123 70.8723"/><path d="M 249.623 77.6398 L 249.623 70.8723"/><path d="M 249.123 77.6398 L 249.623 77.6398"/><path d="M 249.123 70.8723 L 249.123 77.6398"/></g><g stroke="rgb(0, 0, 0)" stroke-width="0.13" stroke-linecap="butt" stroke-linejoin="miter" fill="none"><path d="M 156.663 115.571 L 156.663 113.165 L 156.229 113.165 L 156.229 115.066 L 155.992 114.96 L 155.796 114.779 L 155.438 114.219 L 155.286 113.921 L 155.069 113.589 L 154.817 113.352 L 154.52 113.215 L 154.182 113.165 L 153.758 113.251 L 153.425 113.488 L 153.214 113.851 L 153.138 114.32 L 153.224 114.804 L 153.461 115.172 L 153.839 115.409 L 154.338 115.49 L 154.409 115.49 L 154.409 115.031 L 154.368 115.031 L 154.026 114.986 L 153.773 114.849 L 153.612 114.633 L 153.556 114.345 L 153.607 114.053 L 153.733 113.836 L 153.93 113.695 L 154.177 113.644 L 154.409 113.679 L 154.605 113.775 L 154.777 113.937 L 154.928 114.159 L 155.09 114.456 L 155.402 114.95 L 155.735 115.298 L 156.139 115.505 L 156.648 115.571 L 156.663 115.571 L 156.663 115.571 z M 156.663 110.327 L 156.663 109.873 L 155.796 109.873 L 155.796 109.373 L 155.392 109.373 L 155.392 109.873 L 153.239 109.873 L 153.239 110.332 L 155.352 111.865 L 155.796 111.865 L 155.796 110.327 L 156.663 110.327 L 156.663 110.327 z M 155.392 111.441 L 153.824 110.327 L 155.392 110.327 L 155.392 111.441 L 155.392 111.441 z M 154.777 107.493 L 154.918 107.751 L 155.115 107.927 L 155.362 108.038 L 155.66 108.073 L 156.108 107.993 L 156.456 107.761 L 156.678 107.382 L 156.764 106.868 L 156.678 106.359 L 156.456 105.98 L 156.108 105.748 L 155.66 105.663 L 155.362 105.703 L 155.115 105.809 L 154.918 105.99 L 154.777 106.243 L 154.656 106.041 L 154.489 105.9 L 154.288 105.814 L 154.041 105.784 L 153.683 105.864 L 153.395 106.076 L 153.209 106.419 L 153.138 106.868 L 153.209 107.322 L 153.395 107.665 L 153.683 107.882 L 154.041 107.957 L 154.288 107.932 L 154.489 107.846 L 154.777 107.493 L 154.777 107.493 z M 155.649 107.589 L 155.382 107.544 L 155.18 107.398 L 155.049 107.171 L 155.004 106.868 L 155.049 106.57 L 155.18 106.344 L 155.382 106.197 L 155.649 106.147 L 155.937 106.197 L 156.154 106.344 L 156.295 106.57 L 156.34 106.868 L 156.295 107.171 L 156.154 107.398 L 155.937 107.544 L 155.649 107.589 L 155.649 107.589 z M 154.081 107.478 L 153.859 107.438 L 153.688 107.317 L 153.582 107.125 L 153.541 106.868 L 153.582 106.616 L 153.688 106.424 L 153.859 106.303 L 154.081 106.258 L 154.308 106.303 L 154.484 106.424 L 154.6 106.616 L 154.636 106.868 L 154.595 107.125 L 154.484 107.317 L 154.308 107.438 L 154.081 107.478 L 154.081 107.478 z M 156.663 103.48 L 156.663 102.784 L 155.912 102.784 L 155.912 103.48 L 156.663 103.48 L 156.663 103.48 z M 154.777 100.021 L 154.918 100.279 L 155.115 100.455 L 155.362 100.566 L 155.66 100.601 L 156.108 100.521 L 156.456 100.289 L 156.678 99.9104 L 156.764 99.396 L 156.678 98.8866 L 156.456 98.5084 L 156.108 98.2764 L 155.66 98.1906 L 155.362 98.231 L 155.115 98.3369 L 154.918 98.5184 L 154.777 98.7706 L 154.656 98.5689 L 154.489 98.4277 L 154.288 98.3419 L 154.041 98.3117 L 153.683 98.3924 L 153.395 98.6042 L 153.209 98.9471 L 153.138 99.396 L 153.209 99.8499 L 153.395 100.193 L 153.683 100.41 L 154.041 100.485 L 154.288 100.46 L 154.489 100.374 L 154.777 100.021 L 154.777 100.021 z M 155.649 100.117 L 155.382 100.072 L 155.18 99.9255 L 155.049 99.6986 L 155.004 99.396 L 155.049 99.0984 L 155.18 98.8715 L 155.382 98.7252 L 155.649 98.6748 L 155.937 98.7252 L 156.154 98.8715 L 156.295 99.0984 L 156.34 99.396 L 156.295 99.6986 L 156.154 99.9255 L 155.937 100.072 L 155.649 100.117 L 155.649 100.117 z M 154.081 100.006 L 153.859 99.9659 L 153.688 99.8448 L 153.582 99.6532 L 153.541 99.396 L 153.582 99.1438 L 153.688 98.9522 L 153.859 98.8311 L 154.081 98.7857 L 154.308 98.8311 L 154.484 98.9522 L 154.6 99.1438 L 154.636 99.396 L 154.595 99.6532 L 154.484 99.8448 L 154.308 99.9659 L 154.081 100.006 L 154.081 100.006 z M 156.663 95.7507 L 156.663 95.2918 L 153.138 95.2918 L 153.138 95.6347 L 153.446 95.7255 L 153.652 95.9071 L 153.773 96.1844 L 153.814 96.5677 L 154.172 96.5677 L 154.172 95.7507 L 156.663 95.7507 L 156.663 95.7507 z" stroke="none" fill-rule="evenodd" fill="rgb(0, 0, 0)"/><path d="M 158.145 165.27 L 158.663 167.202 L 159.181 165.27"/><path d="M 159.181 44.7301 L 158.663 42.7982 L 158.145 44.7301"/><path d="M 158.663 167.202 L 158.663 42.7982"/></g></svg>