<?xml version="1.0" encoding="utf-8" ?><!DOCTYPE svg PUBLIC "-//W3C//DTD SVG 1.1//EN" "http://www.w3.org/Graphics/SVG/1.1/DTD/svg11.dtd" 
[ <!ATTLIST svg 
  xmlns:dsy CDATA #FIXED "http://www.3ds.com/print"  
    dsy:text-version CDATA #IMPLIED > 

  <!ATTLIST text 
  xmlns:dsy CDATA #FIXED "http://www.3ds.com/print" 
    dsy:text-version CDATA #IMPLIED > 
]><svg xmlns="http://www.w3.org/2000/svg" xmlns:dsy="http://www.3ds.com/print" dsy:text-version="18000" width="297" height="210" viewBox="0 0 297 210" version="1.1"><g stroke="rgb(0, 0, 0)" stroke-width="0.13" stroke-linecap="butt" stroke-linejoin="miter" fill="none"><path d="M 108.676 104.203 L 99.6423 103.709"/><path d="M 108.894 100.209 L 99.8609 99.7146"/></g><g stroke="rgb(0, 0, 0)" stroke-width="0.35" stroke-linecap="butt" stroke-linejoin="miter" fill="none"><path d="M 186.918 121.825 L 186.918 115.825"/><path d="M 186.918 121.825 L 176.918 121.825"/><path d="M 176.918 121.825 L 142.09 116.848"/><path d="M 110.082 115.096 L 142.09 116.848"/><path d="M 110.356 110.104 L 110.082 115.096"/><path d="M 135.318 111.47 L 110.356 110.104"/><path d="M 135.635 105.679 L 135.318 111.47"/><path d="M 110.673 104.312 L 135.635 105.679"/><path d="M 110.891 100.318 L 110.673 104.312"/><path d="M 135.854 101.685 L 110.891 100.318"/><path d="M 135.854 101.685 L 136.171 95.8933"/><path d="M 111.208 94.527 L 136.171 95.8933"/><path d="M 111.482 89.5345 L 111.208 94.527"/><path d="M 158.261 92.095 L 111.482 89.5345"/><path d="M 158.261 92.095 L 176.918 88.1747"/><path d="M 181.918 88.1747 L 176.918 88.1747"/><path d="M 181.918 90.1747 L 181.918 88.1747"/><path d="M 183.918 90.1747 L 181.918 90.1747"/><path d="M 183.918 88.1747 L 183.918 90.1747"/><path d="M 186.918 88.1747 L 183.918 88.1747"/><path d="M 186.918 94.1747 L 186.918 88.1747"/><path d="M 186.918 94.1747 A 12.5 12.5 0 0 0 186.918 115.825"/></g><g stroke="rgb(0, 0, 0)" stroke-width="0.13" stroke-linecap="butt" stroke-linejoin="miter" fill="none"><path d="M 100.232 92.9293 L 100.257 92.4761 L 99.391 92.4287 L 99.4182 91.9302 L 99.0154 91.9081 L 98.9881 92.4067 L 96.8379 92.289 L 96.8128 92.7472 L 98.8389 94.3936 L 99.2821 94.4178 L 99.3661 92.8819 L 100.232 92.9293 L 100.232 92.9293 z M 98.9024 93.9728 L 97.3972 92.7742 L 98.9633 92.8599 L 98.9024 93.9728 L 98.9024 93.9728 z" stroke="none" fill-rule="evenodd" fill="rgb(0, 0, 0)"/><path d="M 101.447 97.8666 L 101.858 99.8239 L 102.48 97.9232"/><path d="M 102.051 105.775 L 101.639 103.818 L 101.017 105.719"/><path d="M 101.366 108.81 L 102.297 91.7999"/></g></svg>