<?xml version="1.0" encoding="utf-8" ?><!DOCTYPE svg PUBLIC "-//W3C//DTD SVG 1.1//EN" "http://www.w3.org/Graphics/SVG/1.1/DTD/svg11.dtd" 
[ <!ATTLIST svg 
  xmlns:dsy CDATA #FIXED "http://www.3ds.com/print"  
    dsy:text-version CDATA #IMPLIED > 

  <!ATTLIST text 
  xmlns:dsy CDATA #FIXED "http://www.3ds.com/print" 
    dsy:text-version CDATA #IMPLIED > 
]><svg xmlns="http://www.w3.org/2000/svg" xmlns:dsy="http://www.3ds.com/print" dsy:text-version="18000" width="297" height="210" viewBox="0 0 297 210" version="1.1"><g stroke="rgb(0, 0, 0)" stroke-width="0.13" stroke-linecap="butt" stroke-linejoin="miter" fill="none"><path d="M 108.621 105.202 L 99.5876 104.707"/><path d="M 108.949 99.2105 L 99.9155 98.7161"/></g><g stroke="rgb(0, 0, 0)" stroke-width="0.35" stroke-linecap="butt" stroke-linejoin="miter" fill="none"><path d="M 186.918 121.825 L 186.918 115.825"/><path d="M 186.918 121.825 L 176.918 121.825"/><path d="M 176.918 121.825 L 142.09 116.848"/><path d="M 110.082 115.096 L 142.09 116.848"/><path d="M 110.356 110.104 L 110.082 115.096"/><path d="M 135.318 111.47 L 110.356 110.104"/><path d="M 135.581 106.677 L 135.318 111.47"/><path d="M 110.618 105.311 L 135.581 106.677"/><path d="M 110.946 99.3198 L 110.618 105.311"/><path d="M 135.909 100.686 L 110.946 99.3198"/><path d="M 135.909 100.686 L 136.171 95.8933"/><path d="M 111.208 94.527 L 136.171 95.8933"/><path d="M 111.482 89.5345 L 111.208 94.527"/><path d="M 158.261 92.095 L 111.482 89.5345"/><path d="M 158.261 92.095 L 176.918 88.1747"/><path d="M 181.918 88.1747 L 176.918 88.1747"/><path d="M 181.918 90.1747 L 181.918 88.1747"/><path d="M 183.918 90.1747 L 181.918 90.1747"/><path d="M 183.918 88.1747 L 183.918 90.1747"/><path d="M 186.918 88.1747 L 183.918 88.1747"/><path d="M 186.918 94.1747 L 186.918 88.1747"/><path d="M 186.918 94.1747 A 12.5 12.5 0 0 0 186.918 115.825"/></g><g stroke="rgb(0, 0, 0)" stroke-width="0.13" stroke-linecap="butt" stroke-linejoin="miter" fill="none"><path d="M 97.7848 90.8595 L 97.3717 90.9328 L 97.0574 91.1379 L 96.8473 91.4698 L 96.7576 91.9094 L 96.7766 92.2084 L 96.8582 92.4705 L 97.0019 92.7056 L 97.213 92.9091 L 97.4817 93.0753 L 97.813 93.2046 L 98.207 93.2969 L 98.6541 93.3415 L 99.3736 93.3001 L 99.9057 93.0817 L 100.24 92.701 L 100.375 92.1629 L 100.311 91.6695 L 100.095 91.2839 L 99.7356 91.0218 L 99.267 90.9103 L 98.7839 90.9697 L 98.4036 91.1812 L 98.1524 91.5261 L 98.0476 91.9648 L 98.1221 92.4487 L 98.3896 92.822 L 97.8398 92.7161 L 97.4508 92.5332 L 97.2276 92.2735 L 97.1658 91.9267 L 97.2198 91.6771 L 97.3361 91.4915 L 97.5192 91.3753 L 97.7595 91.3228 L 97.7848 90.8595 L 97.7848 90.8595 z M 99.2453 91.399 L 99.5595 91.4718 L 99.7935 91.626 L 99.9422 91.8615 L 99.9771 92.1462 L 99.9105 92.4406 L 99.742 92.6586 L 99.4923 92.7914 L 99.1726 92.8194 L 98.8631 92.7519 L 98.6342 92.598 L 98.4958 92.3581 L 98.4575 92.0428 L 98.5277 91.7739 L 98.6856 91.5654 L 98.93 91.4373 L 99.2453 91.399 L 99.2453 91.399 z" stroke="none" fill-rule="evenodd" fill="rgb(0, 0, 0)"/><path d="M 101.501 96.8681 L 101.913 98.8254 L 102.535 96.9247"/><path d="M 101.996 106.774 L 101.585 104.816 L 100.962 106.717"/><path d="M 101.311 109.809 L 102.352 90.8014"/></g></svg>