<?xml version="1.0" encoding="utf-8" ?><!DOCTYPE svg PUBLIC "-//W3C//DTD SVG 1.1//EN" "http://www.w3.org/Graphics/SVG/1.1/DTD/svg11.dtd" 
[ <!ATTLIST svg 
  xmlns:dsy CDATA #FIXED "http://www.3ds.com/print"  
    dsy:text-version CDATA #IMPLIED > 

  <!ATTLIST text 
  xmlns:dsy CDATA #FIXED "http://www.3ds.com/print" 
    dsy:text-version CDATA #IMPLIED > 
]><svg xmlns="http://www.w3.org/2000/svg" xmlns:dsy="http://www.3ds.com/print" dsy:text-version="18000" width="297" height="210" viewBox="0 0 297 210" version="1.1"><g stroke="rgb(0, 0, 0)" stroke-width="0.13" stroke-linecap="butt" stroke-linejoin="miter" fill="none"><path d="M 188.923 121.825 L 192.635 121.825"/><path d="M 188.923 88.1747 L 192.635 88.1747"/></g><g stroke="rgb(0, 0, 0)" stroke-width="0.35" stroke-linecap="butt" stroke-linejoin="miter" fill="none"><path d="M 186.923 121.825 L 186.923 115.825"/><path d="M 186.923 121.825 L 176.923 121.825"/><path d="M 176.923 121.825 L 144.367 117.173"/><path d="M 110.077 115.296 L 144.367 117.173"/><path d="M 110.35 110.303 L 110.077 115.296"/><path d="M 135.313 111.67 L 110.35 110.303"/><path d="M 135.641 105.679 L 135.313 111.67"/><path d="M 110.678 104.312 L 135.641 105.679"/><path d="M 110.897 100.318 L 110.678 104.312"/><path d="M 135.859 101.685 L 110.897 100.318"/><path d="M 135.859 101.685 L 136.187 95.6936"/><path d="M 111.225 94.3273 L 136.187 95.6936"/><path d="M 111.498 89.3348 L 111.225 94.3273"/><path d="M 159.023 91.9361 L 111.498 89.3348"/><path d="M 159.023 91.9361 L 176.923 88.1747"/><path d="M 181.923 88.1747 L 176.923 88.1747"/><path d="M 181.923 90.1747 L 181.923 88.1747"/><path d="M 183.923 90.1747 L 181.923 90.1747"/><path d="M 183.923 88.1747 L 183.923 90.1747"/><path d="M 186.923 88.1747 L 183.923 88.1747"/><path d="M 186.923 94.1747 L 186.923 88.1747"/><path d="M 186.923 94.1747 A 12.5 12.5 0 0 0 186.923 115.825"/></g><g stroke="rgb(0, 0, 0)" stroke-width="0.13" stroke-linecap="butt" stroke-linejoin="miter" fill="none"><path d="M 187.536 113.743 L 187.571 113.743 L 188.055 113.662 L 188.418 113.425 L 188.65 113.052 L 188.736 112.558 L 188.65 112.033 L 188.428 111.64 L 188.075 111.388 L 187.622 111.297 L 187.324 111.337 L 187.082 111.448 L 186.895 111.63 L 186.759 111.872 L 186.487 111.544 L 186.053 111.428 L 185.66 111.504 L 185.362 111.721 L 185.176 112.074 L 185.11 112.558 L 185.191 113.012 L 185.413 113.36 L 185.766 113.587 L 186.235 113.662 L 186.27 113.662 L 186.27 113.213 L 185.947 113.173 L 185.715 113.042 L 185.574 112.83 L 185.524 112.533 L 185.564 112.27 L 185.67 112.079 L 185.841 111.963 L 186.073 111.917 L 186.32 111.963 L 186.487 112.084 L 186.588 112.296 L 186.618 112.583 L 186.613 112.78 L 187.011 112.78 L 187.001 112.533 L 187.047 112.215 L 187.168 111.978 L 187.364 111.837 L 187.622 111.786 L 187.914 111.842 L 188.131 111.988 L 188.267 112.22 L 188.312 112.528 L 188.262 112.845 L 188.111 113.077 L 187.869 113.223 L 187.536 113.279 L 187.536 113.743 L 187.536 113.743 z M 187.536 110.007 L 187.571 110.007 L 188.055 109.926 L 188.418 109.689 L 188.65 109.316 L 188.736 108.822 L 188.65 108.297 L 188.428 107.904 L 188.075 107.652 L 187.622 107.561 L 187.324 107.601 L 187.082 107.712 L 186.895 107.894 L 186.759 108.136 L 186.487 107.808 L 186.053 107.692 L 185.66 107.768 L 185.362 107.985 L 185.176 108.338 L 185.11 108.822 L 185.191 109.276 L 185.413 109.624 L 185.766 109.851 L 186.235 109.926 L 186.27 109.926 L 186.27 109.477 L 185.947 109.437 L 185.715 109.306 L 185.574 109.094 L 185.524 108.797 L 185.564 108.534 L 185.67 108.343 L 185.841 108.227 L 186.073 108.181 L 186.32 108.227 L 186.487 108.348 L 186.588 108.56 L 186.618 108.847 L 186.613 109.044 L 187.011 109.044 L 187.001 108.797 L 187.047 108.479 L 187.168 108.242 L 187.364 108.101 L 187.622 108.05 L 187.914 108.106 L 188.131 108.252 L 188.267 108.484 L 188.312 108.792 L 188.262 109.109 L 188.111 109.341 L 187.869 109.487 L 187.536 109.543 L 187.536 110.007 L 187.536 110.007 z M 188.635 105.348 L 188.635 104.652 L 187.884 104.652 L 187.884 105.348 L 188.635 105.348 L 188.635 105.348 z M 186.078 100.054 L 185.67 100.149 L 185.367 100.371 L 185.176 100.714 L 185.11 101.158 L 185.145 101.456 L 185.241 101.713 L 185.397 101.94 L 185.619 102.131 L 185.897 102.283 L 186.235 102.394 L 186.633 102.464 L 187.082 102.484 L 187.798 102.404 L 188.318 102.157 L 188.63 101.758 L 188.736 101.214 L 188.645 100.724 L 188.408 100.351 L 188.035 100.109 L 187.561 100.023 L 187.082 100.109 L 186.714 100.341 L 186.482 100.699 L 186.401 101.143 L 186.502 101.622 L 186.789 101.98 L 186.235 101.904 L 185.836 101.743 L 185.599 101.496 L 185.519 101.153 L 185.559 100.901 L 185.665 100.709 L 185.841 100.583 L 186.078 100.518 L 186.078 100.054 L 186.078 100.054 z M 187.566 100.513 L 187.884 100.568 L 188.126 100.709 L 188.287 100.936 L 188.338 101.219 L 188.287 101.516 L 188.131 101.743 L 187.889 101.889 L 187.571 101.935 L 187.258 101.884 L 187.021 101.743 L 186.87 101.511 L 186.815 101.198 L 186.87 100.926 L 187.016 100.709 L 187.253 100.568 L 187.566 100.513 L 187.566 100.513 z M 187.722 98.7787 L 188.136 98.6677 L 188.459 98.4206 L 188.66 98.0575 L 188.736 97.5935 L 188.645 97.0842 L 188.398 96.6857 L 188.005 96.4336 L 187.501 96.3378 L 187.031 96.4235 L 186.663 96.6656 L 186.426 97.0438 L 186.341 97.533 L 186.401 97.9112 L 186.568 98.2038 L 185.624 98.0625 L 185.624 96.5294 L 185.211 96.5294 L 185.211 98.4004 L 187.067 98.6778 L 187.067 98.2744 L 186.83 97.9818 L 186.744 97.6087 L 186.799 97.2859 L 186.961 97.0388 L 187.208 96.8824 L 187.526 96.827 L 187.843 96.8824 L 188.091 97.0438 L 188.247 97.2909 L 188.302 97.6087 L 188.267 97.8759 L 188.151 98.0827 L 187.97 98.234 L 187.722 98.3097 L 187.722 98.7787 L 187.722 98.7787 z" stroke="none" fill-rule="evenodd" fill="rgb(0, 0, 0)"/><path d="M 190.118 119.893 L 190.635 121.825 L 191.153 119.893"/><path d="M 191.153 90.1065 L 190.635 88.1747 L 190.118 90.1065"/><path d="M 190.635 121.825 L 190.635 88.1747"/></g></svg>