<?xml version="1.0" encoding="utf-8" ?><!DOCTYPE svg PUBLIC "-//W3C//DTD SVG 1.1//EN" "http://www.w3.org/Graphics/SVG/1.1/DTD/svg11.dtd" 
[ <!ATTLIST svg 
  xmlns:dsy CDATA #FIXED "http://www.3ds.com/print"  
    dsy:text-version CDATA #IMPLIED > 

  <!ATTLIST text 
  xmlns:dsy CDATA #FIXED "http://www.3ds.com/print" 
    dsy:text-version CDATA #IMPLIED > 
]><svg xmlns="http://www.w3.org/2000/svg" xmlns:dsy="http://www.3ds.com/print" dsy:text-version="18000" width="297" height="210" viewBox="0 0 297 210" version="1.1"><g stroke="rgb(0, 0, 0)" stroke-width="0.13" stroke-linecap="butt" stroke-linejoin="miter" fill="none"><path d="M 188.918 121.825 L 192.63 121.825"/><path d="M 188.918 88.1747 L 192.63 88.1747"/></g><g stroke="rgb(0, 0, 0)" stroke-width="0.35" stroke-linecap="butt" stroke-linejoin="miter" fill="none"><path d="M 186.918 121.825 L 186.918 115.825"/><path d="M 186.918 121.825 L 176.918 121.825"/><path d="M 176.918 121.825 L 142.09 116.848"/><path d="M 110.082 115.096 L 142.09 116.848"/><path d="M 110.356 110.104 L 110.082 115.096"/><path d="M 135.318 111.47 L 110.356 110.104"/><path d="M 135.635 105.679 L 135.318 111.47"/><path d="M 110.673 104.312 L 135.635 105.679"/><path d="M 110.891 100.318 L 110.673 104.312"/><path d="M 135.854 101.685 L 110.891 100.318"/><path d="M 135.854 101.685 L 136.171 95.8933"/><path d="M 111.208 94.527 L 136.171 95.8933"/><path d="M 111.482 89.5345 L 111.208 94.527"/><path d="M 158.261 92.095 L 111.482 89.5345"/><path d="M 158.261 92.095 L 176.918 88.1747"/><path d="M 181.918 88.1747 L 176.918 88.1747"/><path d="M 181.918 90.1747 L 181.918 88.1747"/><path d="M 183.918 90.1747 L 181.918 90.1747"/><path d="M 183.918 88.1747 L 183.918 90.1747"/><path d="M 186.918 88.1747 L 183.918 88.1747"/><path d="M 186.918 94.1747 L 186.918 88.1747"/><path d="M 186.918 94.1747 A 12.5 12.5 0 0 0 186.918 115.825"/></g><g stroke="rgb(0, 0, 0)" stroke-width="0.13" stroke-linecap="butt" stroke-linejoin="miter" fill="none"><path d="M 187.53 113.743 L 187.566 113.743 L 188.05 113.662 L 188.413 113.425 L 188.645 113.052 L 188.731 112.558 L 188.645 112.033 L 188.423 111.64 L 188.07 111.388 L 187.616 111.297 L 187.319 111.337 L 187.076 111.448 L 186.89 111.63 L 186.754 111.872 L 186.481 111.544 L 186.048 111.428 L 185.654 111.504 L 185.357 111.721 L 185.17 112.074 L 185.105 112.558 L 185.185 113.012 L 185.407 113.36 L 185.76 113.587 L 186.229 113.662 L 186.264 113.662 L 186.264 113.213 L 185.942 113.173 L 185.71 113.042 L 185.569 112.83 L 185.518 112.533 L 185.558 112.27 L 185.664 112.079 L 185.836 111.963 L 186.068 111.917 L 186.315 111.963 L 186.481 112.084 L 186.582 112.296 L 186.612 112.583 L 186.607 112.78 L 187.006 112.78 L 186.996 112.533 L 187.041 112.215 L 187.162 111.978 L 187.359 111.837 L 187.616 111.786 L 187.909 111.842 L 188.125 111.988 L 188.262 112.22 L 188.307 112.528 L 188.257 112.845 L 188.105 113.077 L 187.863 113.223 L 187.53 113.279 L 187.53 113.743 L 187.53 113.743 z M 187.53 110.007 L 187.566 110.007 L 188.05 109.926 L 188.413 109.689 L 188.645 109.316 L 188.731 108.822 L 188.645 108.297 L 188.423 107.904 L 188.07 107.652 L 187.616 107.561 L 187.319 107.601 L 187.076 107.712 L 186.89 107.894 L 186.754 108.136 L 186.481 107.808 L 186.048 107.692 L 185.654 107.768 L 185.357 107.985 L 185.17 108.338 L 185.105 108.822 L 185.185 109.276 L 185.407 109.624 L 185.76 109.851 L 186.229 109.926 L 186.264 109.926 L 186.264 109.477 L 185.942 109.437 L 185.71 109.306 L 185.569 109.094 L 185.518 108.797 L 185.558 108.534 L 185.664 108.343 L 185.836 108.227 L 186.068 108.181 L 186.315 108.227 L 186.481 108.348 L 186.582 108.56 L 186.612 108.847 L 186.607 109.044 L 187.006 109.044 L 186.996 108.797 L 187.041 108.479 L 187.162 108.242 L 187.359 108.101 L 187.616 108.05 L 187.909 108.106 L 188.125 108.252 L 188.262 108.484 L 188.307 108.792 L 188.257 109.109 L 188.105 109.341 L 187.863 109.487 L 187.53 109.543 L 187.53 110.007 L 187.53 110.007 z M 188.63 105.348 L 188.63 104.652 L 187.878 104.652 L 187.878 105.348 L 188.63 105.348 L 188.63 105.348 z M 186.073 100.054 L 185.664 100.149 L 185.362 100.371 L 185.17 100.714 L 185.105 101.158 L 185.14 101.456 L 185.236 101.713 L 185.392 101.94 L 185.614 102.131 L 185.891 102.283 L 186.229 102.394 L 186.628 102.464 L 187.076 102.484 L 187.793 102.404 L 188.312 102.157 L 188.625 101.758 L 188.731 101.214 L 188.64 100.724 L 188.403 100.351 L 188.03 100.109 L 187.556 100.023 L 187.076 100.109 L 186.708 100.341 L 186.476 100.699 L 186.396 101.143 L 186.496 101.622 L 186.784 101.98 L 186.229 101.904 L 185.831 101.743 L 185.594 101.496 L 185.513 101.153 L 185.553 100.901 L 185.659 100.709 L 185.836 100.583 L 186.073 100.518 L 186.073 100.054 L 186.073 100.054 z M 187.561 100.513 L 187.878 100.568 L 188.12 100.709 L 188.282 100.936 L 188.332 101.219 L 188.282 101.516 L 188.125 101.743 L 187.883 101.889 L 187.566 101.935 L 187.253 101.884 L 187.016 101.743 L 186.865 101.511 L 186.809 101.198 L 186.865 100.926 L 187.011 100.709 L 187.248 100.568 L 187.561 100.513 L 187.561 100.513 z M 187.717 98.7787 L 188.13 98.6677 L 188.453 98.4206 L 188.655 98.0575 L 188.731 97.5935 L 188.64 97.0842 L 188.393 96.6857 L 187.999 96.4336 L 187.495 96.3378 L 187.026 96.4235 L 186.658 96.6656 L 186.421 97.0438 L 186.335 97.533 L 186.396 97.9112 L 186.562 98.2038 L 185.619 98.0625 L 185.619 96.5294 L 185.205 96.5294 L 185.205 98.4004 L 187.061 98.6778 L 187.061 98.2744 L 186.824 97.9818 L 186.739 97.6087 L 186.794 97.2859 L 186.955 97.0388 L 187.203 96.8824 L 187.52 96.827 L 187.838 96.8824 L 188.085 97.0438 L 188.241 97.2909 L 188.297 97.6087 L 188.262 97.8759 L 188.146 98.0827 L 187.964 98.234 L 187.717 98.3097 L 187.717 98.7787 L 187.717 98.7787 z" stroke="none" fill-rule="evenodd" fill="rgb(0, 0, 0)"/><path d="M 190.112 119.893 L 190.63 121.825 L 191.147 119.893"/><path d="M 191.147 90.1065 L 190.63 88.1747 L 190.112 90.1065"/><path d="M 190.63 121.825 L 190.63 88.1747"/></g></svg>