<?xml version="1.0" encoding="utf-8" ?><!DOCTYPE svg PUBLIC "-//W3C//DTD SVG 1.1//EN" "http://www.w3.org/Graphics/SVG/1.1/DTD/svg11.dtd" 
[ <!ATTLIST svg 
  xmlns:dsy CDATA #FIXED "http://www.3ds.com/print"  
    dsy:text-version CDATA #IMPLIED > 

  <!ATTLIST text 
  xmlns:dsy CDATA #FIXED "http://www.3ds.com/print" 
    dsy:text-version CDATA #IMPLIED > 
]><svg xmlns="http://www.w3.org/2000/svg" xmlns:dsy="http://www.3ds.com/print" dsy:text-version="18000" width="594" height="420" viewBox="0 0 594 420" version="1.1"><g stroke="rgb(0, 0, 0)" stroke-width="0.13" stroke-linecap="butt" stroke-linejoin="miter" fill="none"><path d="M 196.956 72.9078 A 5.00002 5.00002 0 0 0 197.434 75.562"/><path d="M 206.632 75.0892 A 5.00002 5.00002 0 0 0 206.911 72.9078"/><path d="M 320.433 410.352 L 428.293 410.352"/><path d="M 203.933 73.3811 L 428.293 73.3811"/></g><g stroke="rgb(0, 0, 0)" stroke-width="0.35" stroke-linecap="butt" stroke-linejoin="miter" fill="none"><path d="M 324.433 410.352 L 324.433 385.352"/><path d="M 324.433 385.352 L 318.433 385.352"/><path d="M 318.433 385.352 L 318.433 410.352"/><path d="M 318.433 410.352 L 85.4332 410.352"/><path d="M 85.4332 410.352 L 85.4332 385.352"/><path d="M 85.4332 385.352 L 79.4332 385.352"/><path d="M 79.4332 385.352 L 79.4332 410.352"/><path d="M 303.579 282.825 L 316.78 275.702"/><path d="M 305.004 285.465 L 303.579 282.825"/><path d="M 318.205 278.342 L 305.004 285.465"/><circle cx="364.433" cy="400.352" r="4.19998"/><circle cx="39.4332" cy="400.352" r="4.19998"/><circle cx="201.933" cy="97.8516" r="6.00002"/><circle cx="201.933" cy="177.852" r="4.19998"/><path d="M 353.368 399.334 L 354.346 399.123"/><path d="M 355.298 408.275 L 353.368 399.334"/><path d="M 356.276 408.064 L 355.298 408.275"/><path d="M 354.346 399.123 L 356.276 408.064"/><path d="M 381.475 407.461 L 378.973 400.971"/><path d="M 378.973 400.971 L 378.04 401.331"/><path d="M 378.04 401.331 L 380.542 407.821"/><path d="M 380.542 407.821 L 381.475 407.461"/><path d="M 50.9407 406.889 L 53.8078 401.472"/><path d="M 53.8078 401.472 L 52.924 401.004"/><path d="M 52.924 401.004 L 50.0569 406.421"/><path d="M 50.0569 406.421 L 50.9407 406.889"/><path d="M 29.3129 396.225 L 30.1724 396.736"/><path d="M 23.4427 406.097 L 29.3129 396.225"/><path d="M 24.3022 406.608 L 23.4427 406.097"/><path d="M 30.1724 396.736 L 24.3022 406.608"/><path d="M 79.4332 410.352 L 22.8124 410.352"/><path d="M 18.4121 402.977 A 5.00002 5.00002 0 0 0 22.8124 410.352"/><path d="M 316.78 275.702 L 206.333 71.0068"/><path d="M 18.4121 402.977 L 197.533 71.0068"/><path d="M 206.333 71.0068 A 5.00002 5.00002 0 0 0 197.533 71.0068"/><path d="M 381.054 410.352 L 324.433 410.352"/><path d="M 385.454 402.977 L 318.205 278.342"/><path d="M 381.054 410.352 A 5.00002 5.00002 0 0 0 385.454 402.977"/></g><g stroke="rgb(0, 0, 0)" stroke-width="0.13" stroke-linecap="butt" stroke-linejoin="miter" fill="none"><path d="M 215.223 70.6953 L 215.681 70.6718 L 215.501 67.1512 L 215.158 67.1688 L 215.083 67.4807 L 214.912 67.6965 L 214.642 67.8316 L 214.261 67.8916 L 214.279 68.2492 L 215.095 68.2072 L 215.223 70.6953 L 215.223 70.6953 z M 217.743 68.8539 L 217.86 69.6407 L 218.125 70.1927 L 218.521 70.5157 L 219.05 70.5996 L 219.563 70.4622 L 219.923 70.1003 L 220.126 69.5242 L 220.166 68.7294 L 220.045 67.9478 L 219.933 67.6404 L 219.784 67.3906 L 219.389 67.0675 L 218.864 66.9783 L 218.346 67.1211 L 217.986 67.488 L 217.779 68.0643 L 217.743 68.8539 L 217.743 68.8539 z M 218.227 68.829 L 218.236 68.2175 L 218.339 67.7729 L 218.553 67.5044 L 218.885 67.3964 L 219.223 67.4699 L 219.462 67.7151 L 219.611 68.1469 L 219.682 68.7542 L 219.674 69.3707 L 219.57 69.8154 L 219.357 70.0839 L 219.029 70.1866 L 218.687 70.1183 L 218.447 69.8731 L 218.299 69.4414 L 218.227 68.829 L 218.227 68.829 z" stroke="none" fill-rule="evenodd" fill="rgb(0, 0, 0)"/></g><g stroke="rgb(0, 0, 0)" stroke-width="0.13" stroke-linecap="butt" stroke-linejoin="miter" fill="none"><path d="M 211.168 70.9038 L 211.687 67.3724"/><path d="M 212.709 69.0722 L 212.703 68.9557 M 212.703 68.9557 L 212.633 68.7257 M 212.633 68.7257 L 212.566 68.5539 M 212.566 68.5539 L 212.502 68.4404 M 212.502 68.4404 L 212.376 68.2716 M 212.376 68.2716 L 212.192 68.1058 M 212.192 68.1058 L 212.012 67.9983 M 212.012 67.9983 L 211.892 67.946 M 211.892 67.946 L 211.714 67.8968 M 211.714 67.8968 L 211.478 67.8505 M 211.478 67.8505 L 211.362 67.8564 M 211.362 67.8564 L 211.245 67.8625 M 211.245 67.8625 L 211.015 67.9327 M 211.015 67.9327 L 210.843 67.9999 M 210.843 67.9999 L 210.73 68.0642 M 210.73 68.0642 L 210.561 68.1897 M 210.561 68.1897 L 210.395 68.3734 M 210.395 68.3734 L 210.288 68.5542 M 210.288 68.5542 L 210.236 68.6737 M 210.236 68.6737 L 210.186 68.8514 M 210.186 68.8514 L 210.14 69.0875 M 210.14 69.0875 L 210.146 69.204 M 210.146 69.204 L 210.152 69.3205 M 210.152 69.3205 L 210.222 69.5505 M 210.222 69.5505 L 210.289 69.7223 M 210.289 69.7223 L 210.354 69.8358 M 210.354 69.8358 L 210.479 70.0046 M 210.479 70.0046 L 210.663 70.1704 M 210.663 70.1704 L 210.844 70.2779 M 210.844 70.2779 L 210.963 70.3302 M 210.963 70.3302 L 211.141 70.3795 M 211.141 70.3795 L 211.377 70.4258 M 211.377 70.4258 L 211.493 70.4197 M 211.493 70.4197 L 211.61 70.4138 M 211.61 70.4138 L 211.84 70.3435 M 211.84 70.3435 L 212.012 70.2763 M 212.012 70.2763 L 212.125 70.212 M 212.125 70.212 L 212.294 70.0865 M 212.294 70.0865 L 212.46 69.9028 M 212.46 69.9028 L 212.567 69.722 M 212.567 69.722 L 212.62 69.6025 M 212.62 69.6025 L 212.669 69.4248 M 212.669 69.4248 L 212.715 69.1888 M 212.715 69.1888 L 212.709 69.0722"/><path d="M 198.842 73.0216 L 196.94 73.6378 L 198.896 74.0555"/><path d="M 205.024 73.7406 L 206.927 73.1245 L 204.971 72.7066"/><path d="M 196.94 73.6378 L 220.664 72.4184"/></g><g stroke="rgb(0, 0, 0)" stroke-width="0.13" stroke-linecap="butt" stroke-linejoin="miter" fill="none"><path d="M 423.193 252.477 L 423.229 252.477 L 423.713 252.397 L 424.076 252.16 L 424.308 251.786 L 424.394 251.292 L 424.308 250.768 L 424.086 250.374 L 423.733 250.122 L 423.279 250.031 L 422.982 250.072 L 422.739 250.183 L 422.553 250.364 L 422.417 250.606 L 422.144 250.278 L 421.711 250.162 L 421.317 250.238 L 421.02 250.455 L 420.833 250.808 L 420.768 251.292 L 420.848 251.746 L 421.07 252.094 L 421.423 252.321 L 421.892 252.397 L 421.928 252.397 L 421.928 251.948 L 421.605 251.907 L 421.373 251.776 L 421.232 251.564 L 421.181 251.267 L 421.221 251.005 L 421.327 250.813 L 421.499 250.697 L 421.731 250.652 L 421.978 250.697 L 422.144 250.818 L 422.245 251.03 L 422.275 251.317 L 422.27 251.514 L 422.669 251.514 L 422.659 251.267 L 422.704 250.949 L 422.825 250.712 L 423.022 250.571 L 423.279 250.521 L 423.572 250.576 L 423.788 250.722 L 423.925 250.954 L 423.97 251.262 L 423.92 251.58 L 423.768 251.812 L 423.526 251.958 L 423.193 252.013 L 423.193 252.477 L 423.193 252.477 z M 423.193 248.741 L 423.229 248.741 L 423.713 248.661 L 424.076 248.424 L 424.308 248.05 L 424.394 247.556 L 424.308 247.032 L 424.086 246.638 L 423.733 246.386 L 423.279 246.295 L 422.982 246.336 L 422.739 246.447 L 422.553 246.628 L 422.417 246.87 L 422.144 246.542 L 421.711 246.426 L 421.317 246.502 L 421.02 246.719 L 420.833 247.072 L 420.768 247.556 L 420.848 248.01 L 421.07 248.358 L 421.423 248.585 L 421.892 248.661 L 421.928 248.661 L 421.928 248.212 L 421.605 248.171 L 421.373 248.04 L 421.232 247.828 L 421.181 247.531 L 421.221 247.269 L 421.327 247.077 L 421.499 246.961 L 421.731 246.916 L 421.978 246.961 L 422.144 247.082 L 422.245 247.294 L 422.275 247.581 L 422.27 247.778 L 422.669 247.778 L 422.659 247.531 L 422.704 247.213 L 422.825 246.976 L 423.022 246.835 L 423.279 246.784 L 423.572 246.84 L 423.788 246.986 L 423.925 247.218 L 423.97 247.526 L 423.92 247.844 L 423.768 248.076 L 423.526 248.222 L 423.193 248.277 L 423.193 248.741 L 423.193 248.741 z M 421.736 242.524 L 421.327 242.62 L 421.025 242.842 L 420.833 243.185 L 420.768 243.628 L 420.803 243.926 L 420.899 244.183 L 421.055 244.41 L 421.277 244.602 L 421.554 244.753 L 421.892 244.864 L 422.291 244.935 L 422.739 244.955 L 423.456 244.874 L 423.975 244.627 L 424.288 244.229 L 424.394 243.684 L 424.303 243.195 L 424.066 242.822 L 423.693 242.579 L 423.219 242.494 L 422.739 242.579 L 422.371 242.811 L 422.139 243.169 L 422.059 243.613 L 422.159 244.092 L 422.447 244.45 L 421.892 244.375 L 421.494 244.213 L 421.257 243.966 L 421.176 243.623 L 421.216 243.371 L 421.322 243.18 L 421.499 243.053 L 421.736 242.988 L 421.736 242.524 L 421.736 242.524 z M 423.224 242.983 L 423.541 243.038 L 423.783 243.18 L 423.945 243.407 L 423.995 243.689 L 423.945 243.986 L 423.788 244.213 L 423.546 244.36 L 423.229 244.405 L 422.916 244.355 L 422.679 244.213 L 422.528 243.981 L 422.472 243.669 L 422.528 243.396 L 422.674 243.18 L 422.911 243.038 L 423.224 242.983 L 423.224 242.983 z M 424.293 240.346 L 424.293 239.65 L 423.541 239.65 L 423.541 240.346 L 424.293 240.346 L 424.293 240.346 z M 423.425 237.473 L 423.824 237.397 L 424.131 237.18 L 424.323 236.837 L 424.394 236.383 L 424.358 236.086 L 424.268 235.818 L 424.111 235.592 L 423.889 235.4 L 423.612 235.249 L 423.269 235.138 L 422.876 235.072 L 422.422 235.047 L 421.711 235.133 L 421.191 235.38 L 420.879 235.773 L 420.768 236.313 L 420.858 236.807 L 421.1 237.18 L 421.474 237.422 L 421.943 237.503 L 422.427 237.422 L 422.795 237.185 L 423.027 236.832 L 423.103 236.383 L 423.007 235.909 L 422.714 235.551 L 423.274 235.632 L 423.672 235.793 L 423.909 236.04 L 423.985 236.378 L 423.95 236.641 L 423.839 236.832 L 423.662 236.958 L 423.425 237.009 L 423.425 237.473 L 423.425 237.473 z M 421.938 237.014 L 421.625 236.963 L 421.378 236.822 L 421.221 236.6 L 421.166 236.313 L 421.221 236.015 L 421.378 235.788 L 421.62 235.647 L 421.933 235.592 L 422.25 235.647 L 422.487 235.788 L 422.634 236.02 L 422.684 236.328 L 422.634 236.605 L 422.487 236.822 L 422.255 236.963 L 421.938 237.014 L 421.938 237.014 z M 424.293 233.227 L 424.293 232.718 L 423.461 232.551 L 422.684 232.259 L 421.963 231.845 L 421.287 231.306 L 420.868 231.306 L 420.868 233.706 L 421.327 233.706 L 421.327 231.79 L 422.008 232.345 L 422.719 232.763 L 423.476 233.056 L 424.293 233.227 L 424.293 233.227 z" stroke="none" fill-rule="evenodd" fill="rgb(0, 0, 0)"/><path d="M 426.81 75.313 L 426.293 73.3811 L 425.775 75.313"/><path d="M 425.775 408.42 L 426.293 410.352 L 426.81 408.42"/><path d="M 426.293 410.352 L 426.293 73.3811"/></g></svg>