<?xml version="1.0" encoding="utf-8" ?><!DOCTYPE svg PUBLIC "-//W3C//DTD SVG 1.1//EN" "http://www.w3.org/Graphics/SVG/1.1/DTD/svg11.dtd" 
[ <!ATTLIST svg 
  xmlns:dsy CDATA #FIXED "http://www.3ds.com/print"  
    dsy:text-version CDATA #IMPLIED > 

  <!ATTLIST text 
  xmlns:dsy CDATA #FIXED "http://www.3ds.com/print" 
    dsy:text-version CDATA #IMPLIED > 
]><svg xmlns="http://www.w3.org/2000/svg" xmlns:dsy="http://www.3ds.com/print" dsy:text-version="18000" width="297" height="210" viewBox="0 0 297 210" version="1.1"><g stroke="rgb(0, 0, 0)" stroke-width="0.13" stroke-linecap="butt" stroke-linejoin="miter" fill="none"><path d="M 114.894 99.8505 L 109.752 98.6164"/><path d="M 115.828 95.9609 L 110.686 94.7268"/></g><g stroke="rgb(0, 0, 0)" stroke-width="0.35" stroke-linecap="butt" stroke-linejoin="miter" fill="none"><path d="M 182.681 124.074 L 182.681 118.074"/><path d="M 182.681 124.074 L 172.681 124.074"/><path d="M 172.681 124.074 L 161.447 122.13"/><path d="M 114.319 110.819 L 161.447 122.13"/><path d="M 115.485 105.957 L 114.319 110.819"/><path d="M 139.795 111.792 L 115.485 105.957"/><path d="M 141.149 106.152 L 139.795 111.792"/><path d="M 116.839 100.317 L 141.149 106.152"/><path d="M 117.773 96.4277 L 116.839 100.317"/><path d="M 142.082 102.262 L 117.773 96.4277"/><path d="M 142.082 102.262 L 143.436 96.6223"/><path d="M 119.126 90.7878 L 143.436 96.6223"/><path d="M 120.293 85.9259 L 119.126 90.7878"/><path d="M 148.119 92.6043 L 120.293 85.9259"/><path d="M 148.119 92.6043 L 172.681 90.4235"/><path d="M 177.681 90.4235 L 172.681 90.4235"/><path d="M 177.681 92.4235 L 177.681 90.4235"/><path d="M 179.681 92.4235 L 177.681 92.4235"/><path d="M 179.681 90.4235 L 179.681 92.4235"/><path d="M 182.681 90.4235 L 179.681 90.4235"/><path d="M 182.681 96.4235 L 182.681 90.4235"/><path d="M 182.681 96.4235 A 12.5 12.5 0 0 0 182.681 118.074"/></g><g stroke="rgb(0, 0, 0)" stroke-width="0.13" stroke-linecap="butt" stroke-linejoin="miter" fill="none"><path d="M 112.272 88.1191 L 112.378 87.6777 L 111.534 87.4753 L 111.651 86.9898 L 111.258 86.8956 L 111.142 87.3811 L 109.048 86.8786 L 108.941 87.3248 L 110.638 89.3088 L 111.069 89.4124 L 111.428 87.9166 L 112.272 88.1191 L 112.272 88.1191 z M 110.776 88.9063 L 109.511 87.4565 L 111.036 87.8225 L 110.776 88.9063 L 110.776 88.9063 z" stroke="none" fill-rule="evenodd" fill="rgb(0, 0, 0)"/><path d="M 112.578 93.1943 L 112.631 95.1936 L 113.585 93.4359"/><path d="M 111.75 101.082 L 111.697 99.0831 L 110.743 100.841"/><path d="M 110.53 103.945 L 114.506 87.3795"/></g></svg>