<?xml version="1.0" encoding="utf-8" ?><!DOCTYPE svg PUBLIC "-//W3C//DTD SVG 1.1//EN" "http://www.w3.org/Graphics/SVG/1.1/DTD/svg11.dtd" 
[ <!ATTLIST svg 
  xmlns:dsy CDATA #FIXED "http://www.3ds.com/print"  
    dsy:text-version CDATA #IMPLIED > 

  <!ATTLIST text 
  xmlns:dsy CDATA #FIXED "http://www.3ds.com/print" 
    dsy:text-version CDATA #IMPLIED > 
]><svg xmlns="http://www.w3.org/2000/svg" xmlns:dsy="http://www.3ds.com/print" dsy:text-version="18000" width="297" height="210" viewBox="0 0 297 210" version="1.1"><g stroke="rgb(0, 0, 0)" stroke-width="0.13" stroke-linecap="butt" stroke-linejoin="miter" fill="none"><path d="M 114.644 100.892 L 109.502 99.6583"/><path d="M 116.045 95.0581 L 110.903 93.824"/></g><g stroke="rgb(0, 0, 0)" stroke-width="0.35" stroke-linecap="butt" stroke-linejoin="miter" fill="none"><path d="M 182.698 124.005 L 182.698 118.005"/><path d="M 182.698 124.005 L 172.698 124.005"/><path d="M 155.727 120.831 L 172.698 124.005"/><path d="M 114.302 110.889 L 155.727 120.831"/><path d="M 115.469 106.027 L 114.302 110.889"/><path d="M 139.778 111.861 L 115.469 106.027"/><path d="M 140.899 107.194 L 139.778 111.861"/><path d="M 116.589 101.359 L 140.899 107.194"/><path d="M 117.989 95.5248 L 116.589 101.359"/><path d="M 142.299 101.359 L 117.989 95.5248"/><path d="M 142.299 101.359 L 143.419 96.6918"/><path d="M 119.109 90.8574 L 143.419 96.6918"/><path d="M 120.276 85.9954 L 119.109 90.8574"/><path d="M 147.688 92.5744 L 120.276 85.9954"/><path d="M 147.688 92.5744 L 172.698 90.3539"/><path d="M 177.698 90.3539 L 172.698 90.3539"/><path d="M 177.698 92.3539 L 177.698 90.3539"/><path d="M 179.698 92.3539 L 177.698 92.3539"/><path d="M 179.698 90.3539 L 179.698 92.3539"/><path d="M 182.698 90.3539 L 179.698 90.3539"/><path d="M 182.698 96.3539 L 182.698 90.3539"/><path d="M 182.698 96.3539 A 12.5 12.5 0 0 0 182.698 118.005"/></g><g stroke="rgb(0, 0, 0)" stroke-width="0.13" stroke-linecap="butt" stroke-linejoin="miter" fill="none"><path d="M 110.22 85.7123 L 109.8 85.7101 L 109.454 85.8553 L 109.188 86.144 L 109.021 86.5603 L 108.985 86.8578 L 109.019 87.1303 L 109.118 87.3875 L 109.289 87.6256 L 109.523 87.8374 L 109.826 88.0242 L 110.197 88.1858 L 110.628 88.3102 L 111.344 88.3989 L 111.906 88.2798 L 112.303 87.9654 L 112.534 87.4604 L 112.559 86.9636 L 112.416 86.5454 L 112.11 86.2229 L 111.669 86.0289 L 111.183 86.0004 L 110.771 86.1401 L 110.462 86.4341 L 110.279 86.8468 L 110.266 87.3363 L 110.462 87.7515 L 109.94 87.5485 L 109.59 87.2986 L 109.417 87.003 L 109.419 86.6507 L 109.517 86.4149 L 109.665 86.2533 L 109.866 86.1719 L 110.112 86.1634 L 110.22 85.7123 L 110.22 85.7123 z M 111.559 86.5057 L 111.855 86.6338 L 112.058 86.8276 L 112.162 87.086 L 112.145 87.3724 L 112.026 87.6499 L 111.821 87.8341 L 111.552 87.9198 L 111.232 87.8898 L 110.94 87.7678 L 110.743 87.5752 L 110.65 87.3143 L 110.669 86.9973 L 110.786 86.7454 L 110.979 86.5687 L 111.242 86.4867 L 111.559 86.5057 L 111.559 86.5057 z" stroke="none" fill-rule="evenodd" fill="rgb(0, 0, 0)"/><path d="M 112.795 92.2914 L 112.847 94.2907 L 113.801 92.533"/><path d="M 111.5 102.124 L 111.447 100.125 L 110.493 101.883"/><path d="M 110.28 104.987 L 114.723 86.4766"/></g></svg>