<?xml version="1.0" encoding="utf-8" ?><!DOCTYPE svg PUBLIC "-//W3C//DTD SVG 1.1//EN" "http://www.w3.org/Graphics/SVG/1.1/DTD/svg11.dtd" 
[ <!ATTLIST svg 
  xmlns:dsy CDATA #FIXED "http://www.3ds.com/print"  
    dsy:text-version CDATA #IMPLIED > 

  <!ATTLIST text 
  xmlns:dsy CDATA #FIXED "http://www.3ds.com/print" 
    dsy:text-version CDATA #IMPLIED > 
]><svg xmlns="http://www.w3.org/2000/svg" xmlns:dsy="http://www.3ds.com/print" dsy:text-version="18000" width="297" height="210" viewBox="0 0 297 210" version="1.1"><g stroke="rgb(0, 0, 0)" stroke-width="0.13" stroke-linecap="butt" stroke-linejoin="miter" fill="none"><path d="M 113.852 112.764 L 112.185 119.71"/><path d="M 182.215 129.171 L 180.548 136.117"/></g><g stroke="rgb(128, 128, 128)" stroke-width="0.13" stroke-linecap="butt" stroke-linejoin="miter" fill="none"><path d="M 184.681 124.074 L 194.596 124.074"/><path d="M 122.293 85.9259 L 194.596 85.9259"/></g><g stroke="rgb(0, 0, 0)" stroke-width="0.35" stroke-linecap="butt" stroke-linejoin="miter" fill="none"><path d="M 182.681 124.074 L 182.681 118.074"/><path d="M 182.681 124.074 L 172.681 124.074"/><path d="M 172.681 124.074 L 161.447 122.13"/><path d="M 114.319 110.819 L 161.447 122.13"/><path d="M 115.485 105.957 L 114.319 110.819"/><path d="M 139.795 111.792 L 115.485 105.957"/><path d="M 141.149 106.152 L 139.795 111.792"/><path d="M 116.839 100.317 L 141.149 106.152"/><path d="M 117.773 96.4277 L 116.839 100.317"/><path d="M 142.082 102.262 L 117.773 96.4277"/><path d="M 142.082 102.262 L 143.436 96.6223"/><path d="M 119.126 90.7878 L 143.436 96.6223"/><path d="M 120.293 85.9259 L 119.126 90.7878"/><path d="M 148.119 92.6043 L 120.293 85.9259"/><path d="M 148.119 92.6043 L 172.681 90.4235"/><path d="M 177.681 90.4235 L 172.681 90.4235"/><path d="M 177.681 92.4235 L 177.681 90.4235"/><path d="M 179.681 92.4235 L 177.681 92.4235"/><path d="M 179.681 90.4235 L 179.681 92.4235"/><path d="M 182.681 90.4235 L 179.681 90.4235"/><path d="M 182.681 96.4235 L 182.681 90.4235"/><path d="M 182.681 96.4235 A 12.5 12.5 0 0 0 182.681 118.074"/></g><g stroke="rgb(0, 0, 0)" stroke-width="0.13" stroke-linecap="butt" stroke-linejoin="miter" fill="none"><path d="M 141.169 122.552 L 141.664 122.671 L 142.02 121.901 L 142.486 121.214 L 143.056 120.609 L 143.739 120.078 L 143.836 119.671 L 141.502 119.111 L 141.395 119.557 L 143.258 120.004 L 142.56 120.537 L 141.987 121.131 L 141.526 121.798 L 141.169 122.552 L 141.169 122.552 z M 144.7 121.642 L 144.589 122.429 L 144.688 123.034 L 144.976 123.456 L 145.46 123.686 L 145.991 123.699 L 146.439 123.454 L 146.796 122.959 L 147.059 122.208 L 147.164 121.424 L 147.144 121.098 L 147.072 120.816 L 146.784 120.394 L 146.306 120.16 L 145.769 120.15 L 145.32 120.4 L 144.958 120.894 L 144.7 121.642 L 144.7 121.642 z M 145.171 121.755 L 145.353 121.171 L 145.578 120.773 L 145.859 120.576 L 146.208 120.567 L 146.511 120.733 L 146.671 121.036 L 146.692 121.492 L 146.588 122.095 L 146.406 122.684 L 146.181 123.081 L 145.9 123.278 L 145.556 123.284 L 145.248 123.121 L 145.087 122.818 L 145.067 122.362 L 145.171 121.755 L 145.171 121.755 z M 148.778 124.378 L 149.455 124.541 L 149.63 123.81 L 148.953 123.648 L 148.778 124.378 L 148.778 124.378 z M 151.77 123.966 L 151.762 124 L 151.727 124.49 L 151.873 124.898 L 152.182 125.211 L 152.642 125.41 L 153.172 125.449 L 153.606 125.325 L 153.934 125.04 L 154.128 124.62 L 154.158 124.321 L 154.107 124.06 L 153.974 123.836 L 153.77 123.647 L 154.153 123.459 L 154.367 123.064 L 154.385 122.664 L 154.244 122.324 L 153.944 122.06 L 153.488 121.884 L 153.028 121.856 L 152.638 121.991 L 152.335 122.281 L 152.152 122.72 L 152.144 122.754 L 152.58 122.859 L 152.695 122.554 L 152.876 122.359 L 153.115 122.271 L 153.416 122.292 L 153.662 122.392 L 153.824 122.54 L 153.896 122.734 L 153.886 122.97 L 153.785 123.2 L 153.628 123.333 L 153.399 123.382 L 153.112 123.344 L 152.922 123.293 L 152.829 123.681 L 153.072 123.729 L 153.37 123.847 L 153.572 124.02 L 153.664 124.244 L 153.653 124.506 L 153.53 124.777 L 153.338 124.954 L 153.08 125.032 L 152.77 125.005 L 152.473 124.882 L 152.283 124.68 L 152.197 124.411 L 152.221 124.074 L 151.77 123.966 L 151.77 123.966 z" stroke="none" fill-rule="evenodd" fill="rgb(0, 0, 0)"/><path d="M 114.651 117.712 L 112.652 117.765 L 114.409 118.719"/><path d="M 179.015 134.225 L 181.014 134.172 L 179.257 133.218"/><path d="M 112.652 117.765 L 181.014 134.172"/></g><g stroke="rgb(128, 128, 128)" stroke-width="0.13" stroke-linecap="butt" stroke-linejoin="miter" fill="none"><path d="M 189.496 113.743 L 189.532 113.743 L 190.016 113.662 L 190.379 113.425 L 190.611 113.052 L 190.697 112.558 L 190.611 112.033 L 190.389 111.64 L 190.036 111.388 L 189.582 111.297 L 189.285 111.337 L 189.043 111.448 L 188.856 111.63 L 188.72 111.872 L 188.447 111.544 L 188.014 111.428 L 187.62 111.504 L 187.323 111.721 L 187.136 112.074 L 187.071 112.558 L 187.151 113.012 L 187.373 113.36 L 187.726 113.587 L 188.195 113.662 L 188.231 113.662 L 188.231 113.213 L 187.908 113.173 L 187.676 113.042 L 187.535 112.83 L 187.484 112.533 L 187.525 112.27 L 187.63 112.079 L 187.802 111.963 L 188.034 111.917 L 188.281 111.963 L 188.447 112.084 L 188.548 112.296 L 188.579 112.583 L 188.574 112.78 L 188.972 112.78 L 188.962 112.533 L 189.007 112.215 L 189.128 111.978 L 189.325 111.837 L 189.582 111.786 L 189.875 111.842 L 190.092 111.988 L 190.228 112.22 L 190.273 112.528 L 190.223 112.845 L 190.071 113.077 L 189.829 113.223 L 189.496 113.279 L 189.496 113.743 L 189.496 113.743 z M 188.71 109.361 L 188.851 109.619 L 189.048 109.795 L 189.295 109.906 L 189.592 109.941 L 190.041 109.861 L 190.389 109.629 L 190.611 109.25 L 190.697 108.736 L 190.611 108.227 L 190.389 107.848 L 190.041 107.616 L 189.592 107.531 L 189.295 107.571 L 189.048 107.677 L 188.851 107.859 L 188.71 108.111 L 188.589 107.909 L 188.422 107.768 L 188.221 107.682 L 187.973 107.652 L 187.615 107.732 L 187.328 107.944 L 187.141 108.287 L 187.071 108.736 L 187.141 109.19 L 187.328 109.533 L 187.615 109.75 L 187.973 109.825 L 188.221 109.8 L 188.422 109.714 L 188.71 109.361 L 188.71 109.361 z M 189.582 109.457 L 189.315 109.412 L 189.113 109.266 L 188.982 109.039 L 188.937 108.736 L 188.982 108.438 L 189.113 108.212 L 189.315 108.065 L 189.582 108.015 L 189.87 108.065 L 190.087 108.212 L 190.228 108.438 L 190.273 108.736 L 190.228 109.039 L 190.087 109.266 L 189.87 109.412 L 189.582 109.457 L 189.582 109.457 z M 188.014 109.346 L 187.792 109.306 L 187.62 109.185 L 187.514 108.993 L 187.474 108.736 L 187.514 108.484 L 187.62 108.292 L 187.792 108.171 L 188.014 108.126 L 188.241 108.171 L 188.417 108.292 L 188.533 108.484 L 188.568 108.736 L 188.528 108.993 L 188.417 109.185 L 188.241 109.306 L 188.014 109.346 L 188.014 109.346 z M 190.596 105.348 L 190.596 104.652 L 189.844 104.652 L 189.844 105.348 L 190.596 105.348 L 190.596 105.348 z M 190.596 101.355 L 190.596 100.896 L 187.071 100.896 L 187.071 101.239 L 187.378 101.33 L 187.585 101.511 L 187.706 101.788 L 187.746 102.172 L 188.105 102.172 L 188.105 101.355 L 190.596 101.355 L 190.596 101.355 z M 189.683 98.7787 L 190.097 98.6677 L 190.419 98.4206 L 190.621 98.0575 L 190.697 97.5935 L 190.606 97.0842 L 190.359 96.6857 L 189.965 96.4336 L 189.461 96.3378 L 188.992 96.4235 L 188.624 96.6656 L 188.387 97.0438 L 188.301 97.533 L 188.362 97.9112 L 188.528 98.2038 L 187.585 98.0625 L 187.585 96.5294 L 187.172 96.5294 L 187.172 98.4004 L 189.027 98.6778 L 189.027 98.2744 L 188.79 97.9818 L 188.705 97.6087 L 188.76 97.2859 L 188.922 97.0388 L 189.169 96.8824 L 189.486 96.827 L 189.804 96.8824 L 190.051 97.0438 L 190.208 97.2909 L 190.263 97.6087 L 190.228 97.8759 L 190.112 98.0827 L 189.93 98.234 L 189.683 98.3097 L 189.683 98.7787 L 189.683 98.7787 z" stroke="none" fill-rule="evenodd" fill="rgb(128, 128, 128)"/><path d="M 193.114 87.8578 L 192.596 85.9259 L 192.078 87.8578"/><path d="M 192.078 122.142 L 192.596 124.074 L 193.114 122.142"/><path d="M 192.596 124.074 L 192.596 85.9259"/></g></svg>