<?xml version="1.0" encoding="utf-8" ?><!DOCTYPE svg PUBLIC "-//W3C//DTD SVG 1.1//EN" "http://www.w3.org/Graphics/SVG/1.1/DTD/svg11.dtd" 
[ <!ATTLIST svg 
  xmlns:dsy CDATA #FIXED "http://www.3ds.com/print"  
    dsy:text-version CDATA #IMPLIED > 

  <!ATTLIST text 
  xmlns:dsy CDATA #FIXED "http://www.3ds.com/print" 
    dsy:text-version CDATA #IMPLIED > 
]><svg xmlns="http://www.w3.org/2000/svg" xmlns:dsy="http://www.3ds.com/print" dsy:text-version="18000" width="297" height="210" viewBox="0 0 297 210" version="1.1"><g stroke="rgb(255, 0, 128)" stroke-width="0.13" stroke-linecap="butt" stroke-linejoin="miter" fill="none"><path d="M 184.705 124.171 L 194.619 124.171"/><path d="M 122.316 86.0231 L 194.619 86.0231"/></g><g stroke="rgb(0, 0, 0)" stroke-width="0.13" stroke-linecap="butt" stroke-linejoin="miter" fill="none"><path d="M 113.875 112.861 L 112.208 119.807"/><path d="M 182.238 129.268 L 180.571 136.214"/></g><g stroke="rgb(0, 0, 0)" stroke-width="0.35" stroke-linecap="butt" stroke-linejoin="miter" fill="none"><path d="M 182.705 124.171 L 182.705 118.171"/><path d="M 182.705 124.171 L 172.705 124.171"/><path d="M 172.705 124.171 L 161.424 122.422"/><path d="M 114.295 111.111 L 161.424 122.422"/><path d="M 115.462 106.249 L 114.295 111.111"/><path d="M 139.772 112.083 L 115.462 106.249"/><path d="M 141.172 106.249 L 139.772 112.083"/><path d="M 116.862 100.414 L 141.172 106.249"/><path d="M 117.796 96.5249 L 116.862 100.414"/><path d="M 142.106 102.359 L 117.796 96.5249"/><path d="M 142.106 102.359 L 143.506 96.525"/><path d="M 119.196 90.6906 L 143.506 96.525"/><path d="M 120.363 85.8287 L 119.196 90.6906"/><path d="M 148.768 92.646 L 120.363 85.8287"/><path d="M 148.768 92.646 L 172.705 90.5207"/><path d="M 177.705 90.5207 L 172.705 90.5207"/><path d="M 177.705 92.5207 L 177.705 90.5207"/><path d="M 179.705 92.5207 L 177.705 92.5207"/><path d="M 179.705 90.5207 L 179.705 92.5207"/><path d="M 182.705 90.5207 L 179.705 90.5207"/><path d="M 182.705 96.5207 L 182.705 90.5207"/><path d="M 182.705 96.5207 A 12.5 12.5 0 0 0 182.705 118.171"/></g><g stroke="rgb(255, 0, 128)" stroke-width="0.13" stroke-linecap="butt" stroke-linejoin="miter" fill="none"><path d="M 189.52 113.84 L 189.555 113.84 L 190.039 113.759 L 190.402 113.522 L 190.634 113.149 L 190.72 112.655 L 190.634 112.131 L 190.412 111.737 L 190.059 111.485 L 189.606 111.394 L 189.308 111.435 L 189.066 111.546 L 188.879 111.727 L 188.743 111.969 L 188.471 111.641 L 188.037 111.525 L 187.644 111.601 L 187.346 111.818 L 187.16 112.171 L 187.094 112.655 L 187.175 113.109 L 187.397 113.457 L 187.75 113.684 L 188.219 113.759 L 188.254 113.759 L 188.254 113.311 L 187.931 113.27 L 187.699 113.139 L 187.558 112.927 L 187.508 112.63 L 187.548 112.368 L 187.654 112.176 L 187.825 112.06 L 188.057 112.015 L 188.304 112.06 L 188.471 112.181 L 188.572 112.393 L 188.602 112.68 L 188.597 112.877 L 188.995 112.877 L 188.985 112.63 L 189.031 112.312 L 189.152 112.075 L 189.348 111.934 L 189.606 111.883 L 189.898 111.939 L 190.115 112.085 L 190.251 112.317 L 190.296 112.625 L 190.246 112.942 L 190.095 113.174 L 189.853 113.321 L 189.52 113.376 L 189.52 113.84 L 189.52 113.84 z M 188.733 109.459 L 188.874 109.716 L 189.071 109.892 L 189.318 110.003 L 189.616 110.039 L 190.064 109.958 L 190.412 109.726 L 190.634 109.348 L 190.72 108.833 L 190.634 108.324 L 190.412 107.946 L 190.064 107.714 L 189.616 107.628 L 189.318 107.668 L 189.071 107.774 L 188.874 107.956 L 188.733 108.208 L 188.612 108.006 L 188.446 107.865 L 188.244 107.779 L 187.997 107.749 L 187.639 107.83 L 187.351 108.041 L 187.165 108.384 L 187.094 108.833 L 187.165 109.287 L 187.351 109.63 L 187.639 109.847 L 187.997 109.923 L 188.244 109.897 L 188.446 109.812 L 188.733 109.459 L 188.733 109.459 z M 189.606 109.554 L 189.338 109.509 L 189.136 109.363 L 189.005 109.136 L 188.96 108.833 L 189.005 108.536 L 189.136 108.309 L 189.338 108.163 L 189.606 108.112 L 189.893 108.163 L 190.11 108.309 L 190.251 108.536 L 190.296 108.833 L 190.251 109.136 L 190.11 109.363 L 189.893 109.509 L 189.606 109.554 L 189.606 109.554 z M 188.037 109.443 L 187.815 109.403 L 187.644 109.282 L 187.538 109.09 L 187.497 108.833 L 187.538 108.581 L 187.644 108.389 L 187.815 108.268 L 188.037 108.223 L 188.264 108.268 L 188.441 108.389 L 188.557 108.581 L 188.592 108.833 L 188.551 109.09 L 188.441 109.282 L 188.264 109.403 L 188.037 109.443 L 188.037 109.443 z M 190.619 105.445 L 190.619 104.749 L 189.868 104.749 L 189.868 105.445 L 190.619 105.445 L 190.619 105.445 z M 190.619 101.452 L 190.619 100.993 L 187.094 100.993 L 187.094 101.336 L 187.402 101.427 L 187.608 101.608 L 187.729 101.886 L 187.77 102.269 L 188.128 102.269 L 188.128 101.452 L 190.619 101.452 L 190.619 101.452 z M 189.706 98.8759 L 190.12 98.765 L 190.443 98.5179 L 190.644 98.1547 L 190.72 97.6908 L 190.629 97.1814 L 190.382 96.783 L 189.989 96.5308 L 189.484 96.435 L 189.015 96.5207 L 188.647 96.7628 L 188.41 97.1411 L 188.325 97.6302 L 188.385 98.0085 L 188.551 98.301 L 187.608 98.1598 L 187.608 96.6266 L 187.195 96.6266 L 187.195 98.4977 L 189.051 98.7751 L 189.051 98.3716 L 188.814 98.0791 L 188.728 97.7059 L 188.783 97.3831 L 188.945 97.136 L 189.192 96.9797 L 189.51 96.9242 L 189.827 96.9797 L 190.075 97.1411 L 190.231 97.3882 L 190.286 97.7059 L 190.251 97.9732 L 190.135 98.18 L 189.953 98.3313 L 189.706 98.4069 L 189.706 98.8759 L 189.706 98.8759 z" stroke="none" fill-rule="evenodd" fill="rgb(255, 0, 128)"/><path d="M 193.137 87.955 L 192.619 86.0231 L 192.102 87.955"/><path d="M 192.102 122.239 L 192.619 124.171 L 193.137 122.239"/><path d="M 192.619 124.171 L 192.619 86.0231"/></g><g stroke="rgb(0, 0, 0)" stroke-width="0.13" stroke-linecap="butt" stroke-linejoin="miter" fill="none"><path d="M 141.192 122.649 L 141.687 122.768 L 142.043 121.998 L 142.509 121.311 L 143.08 120.706 L 143.762 120.175 L 143.86 119.768 L 141.525 119.208 L 141.418 119.654 L 143.282 120.101 L 142.583 120.634 L 142.01 121.228 L 141.55 121.895 L 141.192 122.649 L 141.192 122.649 z M 144.724 121.739 L 144.613 122.526 L 144.711 123.131 L 144.999 123.553 L 145.483 123.783 L 146.014 123.796 L 146.462 123.551 L 146.819 123.056 L 147.083 122.305 L 147.188 121.521 L 147.168 121.195 L 147.095 120.913 L 146.807 120.491 L 146.329 120.257 L 145.792 120.248 L 145.343 120.498 L 144.981 120.992 L 144.724 121.739 L 144.724 121.739 z M 145.195 121.852 L 145.376 121.268 L 145.601 120.871 L 145.882 120.674 L 146.232 120.664 L 146.534 120.83 L 146.695 121.133 L 146.715 121.589 L 146.612 122.192 L 146.429 122.781 L 146.204 123.178 L 145.923 123.375 L 145.58 123.381 L 145.271 123.219 L 145.11 122.916 L 145.09 122.46 L 145.195 121.852 L 145.195 121.852 z M 148.801 124.476 L 149.478 124.638 L 149.653 123.907 L 148.976 123.745 L 148.801 124.476 L 148.801 124.476 z M 151.793 124.063 L 151.785 124.097 L 151.75 124.587 L 151.896 124.995 L 152.205 125.308 L 152.665 125.507 L 153.195 125.546 L 153.63 125.422 L 153.957 125.138 L 154.152 124.717 L 154.182 124.419 L 154.13 124.157 L 153.997 123.933 L 153.794 123.745 L 154.176 123.556 L 154.39 123.162 L 154.408 122.761 L 154.267 122.422 L 153.967 122.158 L 153.512 121.981 L 153.051 121.953 L 152.661 122.088 L 152.358 122.378 L 152.175 122.817 L 152.167 122.851 L 152.603 122.956 L 152.718 122.651 L 152.9 122.456 L 153.139 122.369 L 153.44 122.389 L 153.685 122.489 L 153.847 122.637 L 153.92 122.831 L 153.91 123.067 L 153.808 123.297 L 153.651 123.43 L 153.422 123.479 L 153.135 123.441 L 152.945 123.391 L 152.852 123.778 L 153.095 123.826 L 153.393 123.944 L 153.595 124.117 L 153.687 124.341 L 153.676 124.603 L 153.554 124.875 L 153.361 125.051 L 153.103 125.13 L 152.794 125.102 L 152.497 124.979 L 152.306 124.778 L 152.221 124.508 L 152.244 124.171 L 151.793 124.063 L 151.793 124.063 z" stroke="none" fill-rule="evenodd" fill="rgb(0, 0, 0)"/><path d="M 114.674 117.81 L 112.675 117.862 L 114.433 118.816"/><path d="M 179.038 134.322 L 181.038 134.269 L 179.28 133.315"/><path d="M 112.675 117.862 L 181.038 134.269"/></g></svg>