<?xml version="1.0" encoding="utf-8" ?><!DOCTYPE svg PUBLIC "-//W3C//DTD SVG 1.1//EN" "http://www.w3.org/Graphics/SVG/1.1/DTD/svg11.dtd" 
[ <!ATTLIST svg 
  xmlns:dsy CDATA #FIXED "http://www.3ds.com/print"  
    dsy:text-version CDATA #IMPLIED > 

  <!ATTLIST text 
  xmlns:dsy CDATA #FIXED "http://www.3ds.com/print" 
    dsy:text-version CDATA #IMPLIED > 
]><svg xmlns="http://www.w3.org/2000/svg" xmlns:dsy="http://www.3ds.com/print" dsy:text-version="18000" width="594" height="420" viewBox="0 0 594 420" version="1.1"><g stroke="rgb(0, 0, 0)" stroke-width="0.13" stroke-linecap="butt" stroke-linejoin="miter" fill="none"><path d="M 169.762 353.985 L 169.762 346.416"/><path d="M 403.161 353.985 L 403.161 346.416"/></g><g stroke="rgb(0, 0, 0)" stroke-width="0.35" stroke-linecap="butt" stroke-linejoin="miter" fill="none"><path d="M 163.962 380.985 L 163.962 355.985"/><path d="M 163.962 355.985 L 169.762 355.985"/><path d="M 169.762 355.985 L 169.762 380.985"/><path d="M 169.762 380.985 L 403.161 380.985"/><path d="M 403.161 380.985 L 403.161 355.985"/><path d="M 403.161 355.985 L 408.961 355.985"/><path d="M 408.961 355.985 L 408.961 380.985"/><path d="M 184.815 253.458 L 171.614 246.335"/><path d="M 183.391 256.098 L 184.815 253.458"/><path d="M 170.19 248.976 L 183.391 256.098"/><path d="M 123.419 335.658 L 170.19 248.976"/><path d="M 123.419 335.658 L 147.312 380.985"/><path d="M 147.312 380.985 L 163.962 380.985"/><circle cx="448.961" cy="370.985" r="4.20001"/><circle cx="286.462" cy="68.4852" r="6"/><circle cx="286.462" cy="148.485" r="4.20001"/><circle cx="166.45" cy="298.098" r="4.20001"/><path d="M 408.961 380.985 L 465.581 380.985"/><path d="M 465.581 380.985 A 5 5 0 0 0 469.982 373.611"/><path d="M 171.614 246.335 L 282.061 41.6405"/><path d="M 469.982 373.611 L 290.862 41.6405"/><path d="M 290.862 41.6405 A 5 5 0 0 0 282.061 41.6405"/></g><g stroke="rgb(0, 0, 0)" stroke-width="0.13" stroke-linecap="butt" stroke-linejoin="miter" fill="none"><path d="M 277.759 346.416 L 280.164 346.416 L 280.164 345.983 L 278.263 345.983 L 278.369 345.746 L 278.55 345.549 L 279.11 345.191 L 279.408 345.04 L 279.741 344.823 L 279.978 344.571 L 280.114 344.273 L 280.164 343.935 L 280.078 343.512 L 279.841 343.179 L 279.478 342.967 L 279.009 342.891 L 278.525 342.977 L 278.157 343.214 L 277.92 343.592 L 277.839 344.092 L 277.839 344.162 L 278.298 344.162 L 278.298 344.122 L 278.344 343.779 L 278.48 343.527 L 278.697 343.365 L 278.984 343.31 L 279.277 343.36 L 279.493 343.486 L 279.635 343.683 L 279.685 343.93 L 279.65 344.162 L 279.554 344.359 L 279.393 344.53 L 279.171 344.682 L 278.873 344.843 L 278.379 345.156 L 278.031 345.489 L 277.824 345.892 L 277.759 346.401 L 277.759 346.416 L 277.759 346.416 z M 281.454 345.317 L 281.454 345.352 L 281.535 345.836 L 281.772 346.2 L 282.145 346.432 L 282.639 346.517 L 283.164 346.432 L 283.557 346.21 L 283.809 345.857 L 283.9 345.403 L 283.86 345.105 L 283.749 344.863 L 283.567 344.677 L 283.325 344.54 L 283.653 344.268 L 283.769 343.834 L 283.693 343.441 L 283.477 343.143 L 283.124 342.957 L 282.639 342.891 L 282.185 342.972 L 281.837 343.194 L 281.611 343.547 L 281.535 344.016 L 281.535 344.051 L 281.984 344.051 L 282.024 343.728 L 282.155 343.496 L 282.367 343.355 L 282.665 343.305 L 282.927 343.345 L 283.118 343.451 L 283.234 343.623 L 283.28 343.854 L 283.234 344.102 L 283.113 344.268 L 282.902 344.369 L 282.614 344.399 L 282.417 344.394 L 282.417 344.793 L 282.665 344.782 L 282.982 344.828 L 283.219 344.949 L 283.361 345.146 L 283.411 345.403 L 283.355 345.695 L 283.209 345.912 L 282.977 346.048 L 282.67 346.094 L 282.352 346.043 L 282.12 345.892 L 281.974 345.65 L 281.918 345.317 L 281.454 345.317 L 281.454 345.317 z M 285.19 345.317 L 285.19 345.352 L 285.271 345.836 L 285.508 346.2 L 285.881 346.432 L 286.375 346.517 L 286.9 346.432 L 287.293 346.21 L 287.545 345.857 L 287.636 345.403 L 287.596 345.105 L 287.485 344.863 L 287.303 344.677 L 287.061 344.54 L 287.389 344.268 L 287.505 343.834 L 287.429 343.441 L 287.213 343.143 L 286.86 342.957 L 286.375 342.891 L 285.921 342.972 L 285.573 343.194 L 285.347 343.547 L 285.271 344.016 L 285.271 344.051 L 285.72 344.051 L 285.76 343.728 L 285.891 343.496 L 286.103 343.355 L 286.401 343.305 L 286.663 343.345 L 286.854 343.451 L 286.97 343.623 L 287.016 343.854 L 286.97 344.102 L 286.849 344.268 L 286.638 344.369 L 286.35 344.399 L 286.153 344.394 L 286.153 344.793 L 286.401 344.782 L 286.718 344.828 L 286.955 344.949 L 287.097 345.146 L 287.147 345.403 L 287.091 345.695 L 286.945 345.912 L 286.713 346.048 L 286.406 346.094 L 286.088 346.043 L 285.856 345.892 L 285.71 345.65 L 285.654 345.317 L 285.19 345.317 L 285.19 345.317 z M 289.849 346.416 L 290.545 346.416 L 290.545 345.665 L 289.849 345.665 L 289.849 346.416 L 289.849 346.416 z M 294.211 346.416 L 294.664 346.416 L 294.664 345.549 L 295.164 345.549 L 295.164 345.146 L 294.664 345.146 L 294.664 342.992 L 294.205 342.992 L 292.672 345.105 L 292.672 345.549 L 294.211 345.549 L 294.211 346.416 L 294.211 346.416 z M 293.096 345.146 L 294.211 343.577 L 294.211 345.146 L 293.096 345.146 L 293.096 345.146 z" stroke="none" fill-rule="evenodd" fill="rgb(0, 0, 0)"/><path d="M 171.693 347.899 L 169.762 348.416 L 171.693 348.934"/><path d="M 401.229 348.934 L 403.161 348.416 L 401.229 347.899"/><path d="M 169.762 348.416 L 403.161 348.416"/></g></svg>