<?xml version="1.0" encoding="utf-8" ?><!DOCTYPE svg PUBLIC "-//W3C//DTD SVG 1.1//EN" "http://www.w3.org/Graphics/SVG/1.1/DTD/svg11.dtd" 
[ <!ATTLIST svg 
  xmlns:dsy CDATA #FIXED "http://www.3ds.com/print"  
    dsy:text-version CDATA #IMPLIED > 

  <!ATTLIST text 
  xmlns:dsy CDATA #FIXED "http://www.3ds.com/print" 
    dsy:text-version CDATA #IMPLIED > 
]><svg xmlns="http://www.w3.org/2000/svg" xmlns:dsy="http://www.3ds.com/print" dsy:text-version="18000" width="594" height="420" viewBox="0 0 594 420" version="1.1"><g stroke="rgb(128, 128, 128)" stroke-width="0.13" stroke-linecap="butt" stroke-linejoin="miter" fill="none"><path d="M 298.856 44.0148 L 344.576 44.0148"/><path d="M 291.879 43.5432 A 5 5 0 0 0 294.016 48.1295"/></g><g stroke="rgb(0, 0, 0)" stroke-width="0.35" stroke-linecap="butt" stroke-linejoin="miter" fill="none"><path d="M 419.503 380.985 L 419.503 355.985"/><path d="M 419.503 355.985 L 413.703 355.985"/><path d="M 413.703 355.985 L 413.703 380.985"/><path d="M 413.703 380.985 L 180.304 380.985"/><path d="M 180.304 380.985 L 180.304 355.985"/><path d="M 180.304 355.985 L 174.504 355.985"/><path d="M 174.504 355.985 L 174.504 380.985"/><path d="M 398.606 253.487 L 411.805 246.36"/><path d="M 400.032 256.127 L 398.606 253.487"/><path d="M 413.23 248.999 L 400.032 256.127"/><circle cx="459.503" cy="370.185" r="4.20001"/><circle cx="134.504" cy="370.985" r="4.20001"/><circle cx="296.853" cy="68.4852" r="6"/><circle cx="296.853" cy="148.485" r="4.20001"/><circle cx="417.014" cy="298.098" r="4.20001"/><path d="M 174.504 380.985 L 117.88 380.985"/><path d="M 113.479 373.612 A 5 5 0 0 0 117.88 380.985"/><path d="M 411.805 246.36 L 301.256 41.639"/><path d="M 113.479 373.612 L 292.455 41.642"/><path d="M 301.256 41.6391 A 5 5 0 0 0 292.455 41.642"/><path d="M 476.12 380.985 L 419.503 380.985"/><path d="M 480.52 373.609 L 413.23 248.999"/><path d="M 476.12 380.985 A 5 5 0 0 0 480.52 373.609"/></g><g stroke="rgb(128, 128, 128)" stroke-width="0.13" stroke-linecap="butt" stroke-linejoin="miter" fill="none"><path d="M 339.476 223.111 L 339.511 223.111 L 339.996 223.03 L 340.359 222.793 L 340.591 222.42 L 340.676 221.926 L 340.591 221.401 L 340.369 221.008 L 340.016 220.756 L 339.562 220.665 L 339.264 220.705 L 339.022 220.816 L 338.836 220.998 L 338.699 221.24 L 338.427 220.912 L 337.993 220.796 L 337.6 220.872 L 337.302 221.089 L 337.116 221.442 L 337.05 221.926 L 337.131 222.38 L 337.353 222.728 L 337.706 222.955 L 338.175 223.03 L 338.21 223.03 L 338.21 222.581 L 337.888 222.541 L 337.656 222.41 L 337.514 222.198 L 337.464 221.901 L 337.504 221.638 L 337.61 221.447 L 337.782 221.331 L 338.014 221.285 L 338.261 221.331 L 338.427 221.452 L 338.528 221.664 L 338.558 221.951 L 338.553 222.148 L 338.952 222.148 L 338.942 221.901 L 338.987 221.583 L 339.108 221.346 L 339.305 221.205 L 339.562 221.154 L 339.854 221.21 L 340.071 221.356 L 340.207 221.588 L 340.253 221.896 L 340.202 222.213 L 340.051 222.445 L 339.809 222.592 L 339.476 222.647 L 339.476 223.111 L 339.476 223.111 z M 339.476 219.375 L 339.511 219.375 L 339.996 219.294 L 340.359 219.057 L 340.591 218.684 L 340.676 218.19 L 340.591 217.665 L 340.369 217.272 L 340.016 217.02 L 339.562 216.929 L 339.264 216.969 L 339.022 217.08 L 338.836 217.262 L 338.699 217.504 L 338.427 217.176 L 337.993 217.06 L 337.6 217.136 L 337.302 217.353 L 337.116 217.706 L 337.05 218.19 L 337.131 218.644 L 337.353 218.992 L 337.706 219.219 L 338.175 219.294 L 338.21 219.294 L 338.21 218.845 L 337.888 218.805 L 337.656 218.674 L 337.514 218.462 L 337.464 218.165 L 337.504 217.902 L 337.61 217.711 L 337.782 217.595 L 338.014 217.549 L 338.261 217.595 L 338.427 217.716 L 338.528 217.928 L 338.558 218.215 L 338.553 218.412 L 338.952 218.412 L 338.942 218.165 L 338.987 217.847 L 339.108 217.61 L 339.305 217.469 L 339.562 217.418 L 339.854 217.474 L 340.071 217.62 L 340.207 217.852 L 340.253 218.16 L 340.202 218.477 L 340.051 218.709 L 339.809 218.855 L 339.476 218.911 L 339.476 219.375 L 339.476 219.375 z M 338.019 213.158 L 337.61 213.253 L 337.308 213.475 L 337.116 213.818 L 337.05 214.262 L 337.086 214.56 L 337.181 214.817 L 337.338 215.044 L 337.56 215.235 L 337.837 215.387 L 338.175 215.498 L 338.573 215.568 L 339.022 215.588 L 339.738 215.508 L 340.258 215.261 L 340.571 214.862 L 340.676 214.318 L 340.586 213.828 L 340.349 213.455 L 339.975 213.213 L 339.501 213.127 L 339.022 213.213 L 338.654 213.445 L 338.422 213.803 L 338.341 214.247 L 338.442 214.726 L 338.73 215.084 L 338.175 215.008 L 337.777 214.847 L 337.54 214.6 L 337.459 214.257 L 337.499 214.005 L 337.605 213.813 L 337.782 213.687 L 338.019 213.622 L 338.019 213.158 L 338.019 213.158 z M 339.506 213.617 L 339.824 213.672 L 340.066 213.813 L 340.228 214.04 L 340.278 214.323 L 340.228 214.62 L 340.071 214.847 L 339.829 214.993 L 339.511 215.039 L 339.199 214.988 L 338.962 214.847 L 338.81 214.615 L 338.755 214.302 L 338.81 214.03 L 338.957 213.813 L 339.194 213.672 L 339.506 213.617 L 339.506 213.617 z M 340.576 210.98 L 340.576 210.284 L 339.824 210.284 L 339.824 210.98 L 340.576 210.98 L 340.576 210.98 z M 339.708 208.106 L 340.107 208.031 L 340.414 207.814 L 340.606 207.471 L 340.676 207.017 L 340.641 206.719 L 340.55 206.452 L 340.394 206.225 L 340.172 206.034 L 339.895 205.882 L 339.552 205.771 L 339.158 205.706 L 338.705 205.681 L 337.993 205.766 L 337.474 206.013 L 337.161 206.407 L 337.05 206.946 L 337.141 207.441 L 337.383 207.814 L 337.756 208.056 L 338.225 208.137 L 338.71 208.056 L 339.078 207.819 L 339.31 207.466 L 339.385 207.017 L 339.29 206.543 L 338.997 206.185 L 339.557 206.266 L 339.955 206.427 L 340.192 206.674 L 340.268 207.012 L 340.233 207.274 L 340.122 207.466 L 339.945 207.592 L 339.708 207.642 L 339.708 208.106 L 339.708 208.106 z M 338.22 207.647 L 337.908 207.597 L 337.661 207.456 L 337.504 207.234 L 337.449 206.946 L 337.504 206.649 L 337.661 206.422 L 337.903 206.281 L 338.215 206.225 L 338.533 206.281 L 338.77 206.422 L 338.916 206.654 L 338.967 206.961 L 338.916 207.239 L 338.77 207.456 L 338.538 207.597 L 338.22 207.647 L 338.22 207.647 z M 340.576 203.861 L 340.576 203.352 L 339.743 203.185 L 338.967 202.893 L 338.246 202.479 L 337.57 201.939 L 337.151 201.939 L 337.151 204.34 L 337.61 204.34 L 337.61 202.424 L 338.291 202.978 L 339.002 203.397 L 339.759 203.689 L 340.576 203.861 L 340.576 203.861 z" stroke="none" fill-rule="evenodd" fill="rgb(128, 128, 128)"/><path d="M 342.058 379.053 L 342.576 380.985 L 343.093 379.053"/><path d="M 343.093 45.9466 L 342.576 44.0148 L 342.058 45.9466"/><path d="M 342.576 380.985 L 342.576 44.0148"/></g><g stroke="rgb(128, 128, 128)" stroke-width="0.13" stroke-linecap="butt" stroke-linejoin="miter" fill="none"><path d="M 311.262 32.4799 L 311.649 32.2335 L 309.757 29.2592 L 309.468 29.4432 L 309.556 29.7515 L 309.514 30.0234 L 309.345 30.2744 L 309.043 30.5142 L 309.236 30.8163 L 309.925 30.3778 L 311.262 32.4799 L 311.262 32.4799 z M 312.548 29.6357 L 313.037 30.2632 L 313.54 30.6125 L 314.043 30.6989 L 314.545 30.5109 L 314.924 30.1385 L 315.059 29.6461 L 314.952 29.045 L 314.595 28.3336 L 314.104 27.7132 L 313.856 27.5008 L 313.603 27.3568 L 313.099 27.2705 L 312.599 27.4514 L 312.219 27.8308 L 312.086 28.3275 L 312.189 28.9313 L 312.548 29.6357 L 312.548 29.6357 z M 312.956 29.3758 L 312.663 28.8393 L 312.534 28.4014 L 312.587 28.0626 L 312.824 27.8046 L 313.153 27.7026 L 313.483 27.7978 L 313.825 28.1003 L 314.186 28.5935 L 314.482 29.1343 L 314.611 29.5722 L 314.558 29.911 L 314.323 30.162 L 313.992 30.271 L 313.663 30.1758 L 313.321 29.8733 L 312.956 29.3758 L 312.956 29.3758 z" stroke="none" fill-rule="evenodd" fill="rgb(128, 128, 128)"/></g><g stroke="rgb(128, 128, 128)" stroke-width="0.13" stroke-linecap="butt" stroke-linejoin="miter" fill="none"><path d="M 307.836 34.6594 L 306.548 31.3306"/><path d="M 308.275 32.3062 L 308.212 32.2078 M 308.212 32.2078 L 308.038 32.0422 M 308.038 32.0422 L 307.895 31.9258 M 307.895 31.9258 L 307.783 31.8587 M 307.783 31.8587 L 307.591 31.7737 M 307.591 31.7737 L 307.349 31.72 M 307.349 31.72 L 307.139 31.7155 M 307.139 31.7155 L 307.009 31.7289 M 307.009 31.7289 L 306.83 31.7736 M 306.83 31.7736 L 306.602 31.8496 M 306.602 31.8496 L 306.503 31.9122 M 306.503 31.9122 L 306.405 31.9749 M 306.405 31.9749 L 306.239 32.1493 M 306.239 32.1493 L 306.123 32.2924 M 306.123 32.2924 L 306.056 32.4043 M 306.056 32.4043 L 305.971 32.5966 M 305.971 32.5966 L 305.917 32.8382 M 305.917 32.8382 L 305.913 33.0485 M 305.913 33.0485 L 305.926 33.1783 M 305.926 33.1783 L 305.971 33.3572 M 305.971 33.3572 L 306.047 33.5854 M 306.047 33.5854 L 306.109 33.6838 M 306.109 33.6838 L 306.172 33.7823 M 306.172 33.7823 L 306.346 33.9478 M 306.346 33.9478 L 306.49 34.0642 M 306.49 34.0642 L 306.601 34.1313 M 306.601 34.1313 L 306.794 34.2163 M 306.794 34.2163 L 307.035 34.2701 M 307.035 34.2701 L 307.246 34.2746 M 307.246 34.2746 L 307.375 34.2612 M 307.375 34.2612 L 307.554 34.2165 M 307.554 34.2165 L 307.783 34.1404 M 307.783 34.1404 L 307.881 34.0778 M 307.881 34.0778 L 307.979 34.0152 M 307.979 34.0152 L 308.145 33.8407 M 308.145 33.8407 L 308.261 33.6976 M 308.261 33.6976 L 308.328 33.5858 M 308.328 33.5858 L 308.413 33.3934 M 308.413 33.3934 L 308.467 33.1518 M 308.467 33.1518 L 308.472 32.9415 M 308.472 32.9415 L 308.458 32.8118 M 308.458 32.8118 L 308.414 32.6328 M 308.414 32.6328 L 308.338 32.4046 M 308.338 32.4046 L 308.275 32.3062"/><path d="M 293.99 45.2249 L 292.638 46.6985 L 294.545 46.0984"/><path d="M 299.723 42.8047 L 301.075 41.331 L 299.167 41.9312"/><path d="M 292.638 46.6985 L 316.845 31.2986"/></g></svg>