<?xml version="1.0" encoding="utf-8" ?><!DOCTYPE svg PUBLIC "-//W3C//DTD SVG 1.1//EN" "http://www.w3.org/Graphics/SVG/1.1/DTD/svg11.dtd" 
[ <!ATTLIST svg 
  xmlns:dsy CDATA #FIXED "http://www.3ds.com/print"  
    dsy:text-version CDATA #IMPLIED > 

  <!ATTLIST text 
  xmlns:dsy CDATA #FIXED "http://www.3ds.com/print" 
    dsy:text-version CDATA #IMPLIED > 
]><svg xmlns="http://www.w3.org/2000/svg" xmlns:dsy="http://www.3ds.com/print" dsy:text-version="18000" width="594" height="420" viewBox="0 0 594 420" version="1.1"><g stroke="rgb(0, 0, 0)" stroke-width="0.13" stroke-linecap="butt" stroke-linejoin="miter" fill="none"><path d="M 179.304 353.985 L 179.304 331.573"/><path d="M 414.703 353.985 L 414.703 331.573"/></g><g stroke="rgb(0, 0, 0)" stroke-width="0.35" stroke-linecap="butt" stroke-linejoin="miter" fill="none"><path d="M 419.503 380.985 L 419.503 355.985"/><path d="M 419.503 355.985 L 414.703 355.985"/><path d="M 414.703 355.985 L 414.703 380.985"/><path d="M 414.703 380.985 L 179.304 380.985"/><path d="M 179.304 380.985 L 179.304 355.985"/><path d="M 179.304 355.985 L 174.504 355.985"/><path d="M 174.504 355.985 L 174.504 380.985"/><path d="M 398.606 253.487 L 411.805 246.36"/><path d="M 400.032 256.127 L 398.606 253.487"/><path d="M 413.23 248.999 L 400.032 256.127"/><circle cx="459.503" cy="370.185" r="4.20001"/><circle cx="134.504" cy="370.985" r="4.20001"/><circle cx="296.853" cy="68.4852" r="6"/><circle cx="296.853" cy="148.485" r="4.20001"/><circle cx="417.014" cy="298.098" r="4.20001"/><path d="M 174.504 380.985 L 117.88 380.985"/><path d="M 113.479 373.612 A 5 5 0 0 0 117.88 380.985"/><path d="M 411.805 246.36 L 301.256 41.639"/><path d="M 113.479 373.612 L 292.455 41.642"/><path d="M 301.256 41.6391 A 5 5 0 0 0 292.455 41.642"/><path d="M 476.12 380.985 L 419.503 380.985"/><path d="M 480.52 373.609 L 413.23 248.999"/><path d="M 476.12 380.985 A 5 5 0 0 0 480.52 373.609"/></g><g stroke="rgb(0, 0, 0)" stroke-width="0.13" stroke-linecap="butt" stroke-linejoin="miter" fill="none"><path d="M 288.301 331.573 L 290.706 331.573 L 290.706 331.14 L 288.805 331.14 L 288.911 330.903 L 289.092 330.706 L 289.652 330.348 L 289.95 330.197 L 290.283 329.98 L 290.52 329.728 L 290.656 329.43 L 290.706 329.092 L 290.62 328.669 L 290.383 328.336 L 290.02 328.124 L 289.551 328.048 L 289.067 328.134 L 288.699 328.371 L 288.462 328.749 L 288.381 329.248 L 288.381 329.319 L 288.84 329.319 L 288.84 329.279 L 288.886 328.936 L 289.022 328.684 L 289.239 328.522 L 289.526 328.467 L 289.819 328.517 L 290.035 328.643 L 290.177 328.84 L 290.227 329.087 L 290.192 329.319 L 290.096 329.516 L 289.935 329.687 L 289.713 329.839 L 289.415 330 L 288.921 330.313 L 288.573 330.645 L 288.366 331.049 L 288.301 331.558 L 288.301 331.573 L 288.301 331.573 z M 291.996 330.474 L 291.996 330.509 L 292.077 330.993 L 292.314 331.357 L 292.687 331.589 L 293.181 331.674 L 293.706 331.589 L 294.099 331.367 L 294.351 331.014 L 294.442 330.56 L 294.402 330.262 L 294.291 330.02 L 294.109 329.833 L 293.867 329.697 L 294.195 329.425 L 294.311 328.991 L 294.235 328.598 L 294.019 328.3 L 293.666 328.114 L 293.181 328.048 L 292.728 328.129 L 292.38 328.351 L 292.153 328.704 L 292.077 329.173 L 292.077 329.208 L 292.526 329.208 L 292.566 328.885 L 292.697 328.653 L 292.909 328.512 L 293.207 328.462 L 293.469 328.502 L 293.66 328.608 L 293.776 328.779 L 293.822 329.011 L 293.776 329.259 L 293.655 329.425 L 293.444 329.526 L 293.156 329.556 L 292.96 329.551 L 292.96 329.949 L 293.207 329.939 L 293.524 329.985 L 293.761 330.106 L 293.903 330.303 L 293.953 330.56 L 293.898 330.852 L 293.751 331.069 L 293.519 331.205 L 293.212 331.251 L 292.894 331.2 L 292.662 331.049 L 292.516 330.807 L 292.46 330.474 L 291.996 330.474 L 291.996 330.474 z M 295.752 330.661 L 295.863 331.074 L 296.111 331.397 L 296.474 331.599 L 296.938 331.674 L 297.447 331.583 L 297.845 331.336 L 298.098 330.943 L 298.193 330.439 L 298.108 329.97 L 297.866 329.602 L 297.487 329.364 L 296.998 329.279 L 296.62 329.339 L 296.327 329.506 L 296.469 328.563 L 298.002 328.563 L 298.002 328.149 L 296.131 328.149 L 295.853 330.005 L 296.257 330.005 L 296.549 329.768 L 296.922 329.682 L 297.245 329.738 L 297.492 329.899 L 297.649 330.146 L 297.704 330.464 L 297.649 330.782 L 297.487 331.029 L 297.24 331.185 L 296.922 331.241 L 296.655 331.205 L 296.448 331.089 L 296.297 330.908 L 296.221 330.661 L 295.752 330.661 L 295.752 330.661 z M 300.391 331.573 L 301.087 331.573 L 301.087 330.822 L 300.391 330.822 L 300.391 331.573 L 300.391 331.573 z M 304.753 331.573 L 305.206 331.573 L 305.206 330.706 L 305.706 330.706 L 305.706 330.303 L 305.206 330.303 L 305.206 328.149 L 304.748 328.149 L 303.214 330.262 L 303.214 330.706 L 304.753 330.706 L 304.753 331.573 L 304.753 331.573 z M 303.638 330.303 L 304.753 328.734 L 304.753 330.303 L 303.638 330.303 L 303.638 330.303 z" stroke="none" fill-rule="evenodd" fill="rgb(0, 0, 0)"/><path d="M 412.771 334.091 L 414.703 333.573 L 412.771 333.056"/><path d="M 181.236 333.056 L 179.304 333.573 L 181.236 334.091"/><path d="M 179.304 333.573 L 414.703 333.573"/></g></svg>