<?xml version="1.0" encoding="utf-8" ?><!DOCTYPE svg PUBLIC "-//W3C//DTD SVG 1.1//EN" "http://www.w3.org/Graphics/SVG/1.1/DTD/svg11.dtd" 
[ <!ATTLIST svg 
  xmlns:dsy CDATA #FIXED "http://www.3ds.com/print"  
    dsy:text-version CDATA #IMPLIED > 

  <!ATTLIST text 
  xmlns:dsy CDATA #FIXED "http://www.3ds.com/print" 
    dsy:text-version CDATA #IMPLIED > 
]><svg xmlns="http://www.w3.org/2000/svg" xmlns:dsy="http://www.3ds.com/print" dsy:text-version="18000" width="594" height="420" viewBox="0 0 594 420" version="1.1"><g stroke="rgb(255, 0, 128)" stroke-width="0.13" stroke-linecap="butt" stroke-linejoin="miter" fill="none"><path d="M 288.462 44.0148 L 334.857 44.0148"/></g><g stroke="rgb(0, 0, 0)" stroke-width="0.35" stroke-linecap="butt" stroke-linejoin="miter" fill="none"><path d="M 163.962 380.985 L 163.962 355.985"/><path d="M 163.962 355.985 L 169.962 355.985"/><path d="M 169.962 355.985 L 169.962 380.985"/><path d="M 169.962 380.985 L 402.961 380.985"/><path d="M 402.961 380.985 L 402.961 355.985"/><path d="M 402.961 355.985 L 408.961 355.985"/><path d="M 408.961 355.985 L 408.961 380.985"/><path d="M 184.815 253.458 L 171.614 246.335"/><path d="M 183.391 256.098 L 184.815 253.458"/><path d="M 170.19 248.976 L 183.391 256.098"/><path d="M 123.419 335.658 L 170.19 248.976"/><path d="M 123.419 335.658 L 147.312 380.985"/><path d="M 147.312 380.985 L 163.962 380.985"/><circle cx="448.961" cy="370.985" r="4.20001"/><circle cx="286.462" cy="68.4852" r="6"/><circle cx="286.462" cy="148.485" r="4.20001"/><circle cx="166.45" cy="298.098" r="4.20001"/><path d="M 458.735 364.397 L 457.938 365.002"/><path d="M 464.79 372.373 L 458.735 364.397"/><path d="M 463.993 372.978 L 464.79 372.373"/><path d="M 457.938 365.002 L 463.993 372.978"/><path d="M 408.961 380.985 L 465.581 380.985"/><path d="M 465.581 380.985 A 5 5 0 0 0 469.982 373.611"/><path d="M 171.614 246.335 L 282.061 41.6405"/><path d="M 469.982 373.611 L 290.862 41.6405"/><path d="M 290.862 41.6405 A 5 5 0 0 0 282.061 41.6405"/></g><g stroke="rgb(255, 0, 128)" stroke-width="0.13" stroke-linecap="butt" stroke-linejoin="miter" fill="none"><path d="M 329.758 223.111 L 329.793 223.111 L 330.277 223.03 L 330.641 222.793 L 330.873 222.42 L 330.958 221.926 L 330.873 221.401 L 330.651 221.008 L 330.298 220.756 L 329.844 220.665 L 329.546 220.705 L 329.304 220.816 L 329.118 220.998 L 328.981 221.24 L 328.709 220.912 L 328.275 220.796 L 327.882 220.872 L 327.584 221.089 L 327.398 221.442 L 327.332 221.926 L 327.413 222.38 L 327.635 222.728 L 327.988 222.955 L 328.457 223.03 L 328.492 223.03 L 328.492 222.581 L 328.169 222.541 L 327.937 222.41 L 327.796 222.198 L 327.746 221.901 L 327.786 221.638 L 327.892 221.447 L 328.064 221.331 L 328.296 221.285 L 328.543 221.331 L 328.709 221.452 L 328.81 221.664 L 328.84 221.951 L 328.835 222.148 L 329.234 222.148 L 329.223 221.901 L 329.269 221.583 L 329.39 221.346 L 329.587 221.205 L 329.844 221.154 L 330.136 221.21 L 330.353 221.356 L 330.489 221.588 L 330.535 221.896 L 330.484 222.213 L 330.333 222.445 L 330.091 222.592 L 329.758 222.647 L 329.758 223.111 L 329.758 223.111 z M 329.758 219.375 L 329.793 219.375 L 330.277 219.294 L 330.641 219.057 L 330.873 218.684 L 330.958 218.19 L 330.873 217.665 L 330.651 217.272 L 330.298 217.02 L 329.844 216.929 L 329.546 216.969 L 329.304 217.08 L 329.118 217.262 L 328.981 217.504 L 328.709 217.176 L 328.275 217.06 L 327.882 217.136 L 327.584 217.353 L 327.398 217.706 L 327.332 218.19 L 327.413 218.644 L 327.635 218.992 L 327.988 219.219 L 328.457 219.294 L 328.492 219.294 L 328.492 218.845 L 328.169 218.805 L 327.937 218.674 L 327.796 218.462 L 327.746 218.165 L 327.786 217.902 L 327.892 217.711 L 328.064 217.595 L 328.296 217.549 L 328.543 217.595 L 328.709 217.716 L 328.81 217.928 L 328.84 218.215 L 328.835 218.412 L 329.234 218.412 L 329.223 218.165 L 329.269 217.847 L 329.39 217.61 L 329.587 217.469 L 329.844 217.418 L 330.136 217.474 L 330.353 217.62 L 330.489 217.852 L 330.535 218.16 L 330.484 218.477 L 330.333 218.709 L 330.091 218.855 L 329.758 218.911 L 329.758 219.375 L 329.758 219.375 z M 328.301 213.158 L 327.892 213.253 L 327.589 213.475 L 327.398 213.818 L 327.332 214.262 L 327.368 214.56 L 327.463 214.817 L 327.62 215.044 L 327.842 215.235 L 328.119 215.387 L 328.457 215.498 L 328.855 215.568 L 329.304 215.588 L 330.02 215.508 L 330.54 215.261 L 330.852 214.862 L 330.958 214.318 L 330.868 213.828 L 330.631 213.455 L 330.257 213.213 L 329.783 213.127 L 329.304 213.213 L 328.936 213.445 L 328.704 213.803 L 328.623 214.247 L 328.724 214.726 L 329.012 215.084 L 328.457 215.008 L 328.058 214.847 L 327.821 214.6 L 327.741 214.257 L 327.781 214.005 L 327.887 213.813 L 328.064 213.687 L 328.301 213.622 L 328.301 213.158 L 328.301 213.158 z M 329.788 213.617 L 330.106 213.672 L 330.348 213.813 L 330.509 214.04 L 330.56 214.323 L 330.509 214.62 L 330.353 214.847 L 330.111 214.993 L 329.793 215.039 L 329.481 214.988 L 329.244 214.847 L 329.092 214.615 L 329.037 214.302 L 329.092 214.03 L 329.239 213.813 L 329.476 213.672 L 329.788 213.617 L 329.788 213.617 z M 330.857 210.98 L 330.857 210.284 L 330.106 210.284 L 330.106 210.98 L 330.857 210.98 L 330.857 210.98 z M 329.99 208.106 L 330.388 208.031 L 330.696 207.814 L 330.888 207.471 L 330.958 207.017 L 330.923 206.719 L 330.832 206.452 L 330.676 206.225 L 330.454 206.034 L 330.177 205.882 L 329.834 205.771 L 329.44 205.706 L 328.986 205.681 L 328.275 205.766 L 327.756 206.013 L 327.443 206.407 L 327.332 206.946 L 327.423 207.441 L 327.665 207.814 L 328.038 208.056 L 328.507 208.137 L 328.991 208.056 L 329.36 207.819 L 329.592 207.466 L 329.667 207.017 L 329.571 206.543 L 329.279 206.185 L 329.839 206.266 L 330.237 206.427 L 330.474 206.674 L 330.55 207.012 L 330.515 207.274 L 330.404 207.466 L 330.227 207.592 L 329.99 207.642 L 329.99 208.106 L 329.99 208.106 z M 328.502 207.647 L 328.19 207.597 L 327.943 207.456 L 327.786 207.234 L 327.731 206.946 L 327.786 206.649 L 327.943 206.422 L 328.185 206.281 L 328.497 206.225 L 328.815 206.281 L 329.052 206.422 L 329.198 206.654 L 329.249 206.961 L 329.198 207.239 L 329.052 207.456 L 328.82 207.597 L 328.502 207.647 L 328.502 207.647 z M 330.857 203.861 L 330.857 203.352 L 330.025 203.185 L 329.249 202.893 L 328.527 202.479 L 327.852 201.939 L 327.433 201.939 L 327.433 204.34 L 327.892 204.34 L 327.892 202.424 L 328.573 202.978 L 329.284 203.397 L 330.04 203.689 L 330.857 203.861 L 330.857 203.861 z" stroke="none" fill-rule="evenodd" fill="rgb(255, 0, 128)"/><path d="M 332.34 379.053 L 332.857 380.985 L 333.375 379.053"/><path d="M 333.375 45.9466 L 332.857 44.0148 L 332.34 45.9466"/><path d="M 332.857 380.985 L 332.857 44.0148"/></g><g stroke="rgb(255, 0, 128)" stroke-width="0.13" stroke-linecap="butt" stroke-linejoin="miter" fill="none"><path d="M 297.166 29.7437 L 297.277 30.1572 L 297.524 30.4799 L 297.887 30.6817 L 298.351 30.7573 L 298.86 30.6666 L 299.259 30.4194 L 299.511 30.0261 L 299.607 29.5217 L 299.521 29.0527 L 299.279 28.6846 L 298.9 28.4475 L 298.411 28.3618 L 298.033 28.4223 L 297.741 28.5887 L 297.882 27.6457 L 299.415 27.6457 L 299.415 27.2321 L 297.544 27.2321 L 297.266 29.088 L 297.67 29.088 L 297.962 28.851 L 298.336 28.7653 L 298.658 28.8207 L 298.905 28.9821 L 299.062 29.2292 L 299.117 29.5469 L 299.062 29.8647 L 298.9 30.1118 L 298.653 30.2681 L 298.336 30.3236 L 298.068 30.2883 L 297.862 30.1723 L 297.71 29.9908 L 297.635 29.7437 L 297.166 29.7437 L 297.166 29.7437 z" stroke="none" fill-rule="evenodd" fill="rgb(255, 0, 128)"/></g><g stroke="rgb(255, 0, 128)" stroke-width="0.13" stroke-linecap="butt" stroke-linejoin="miter" fill="none"><path d="M 293.256 30.6565 L 293.725 30.6565 L 293.725 29.1788 L 294.204 29.1788 L 294.557 29.1939 L 294.779 29.2645 L 294.9 29.431 L 294.95 29.7285 L 294.975 30.1824 L 295.006 30.4799 L 295.066 30.6565 L 295.596 30.6565 L 295.596 30.5606 L 295.48 30.4194 L 295.439 30.1572 L 295.404 29.5923 L 295.318 29.1737 L 295.202 29.0426 L 295.021 28.9468 L 295.223 28.8207 L 295.364 28.6442 L 295.454 28.4223 L 295.485 28.155 L 295.414 27.7314 L 295.212 27.4137 L 294.88 27.222 L 294.426 27.1565 L 293.256 27.1565 L 293.256 30.6565 L 293.256 30.6565 z M 294.295 27.5851 L 294.602 27.6154 L 294.819 27.7112 L 294.955 27.8877 L 295.001 28.1651 L 294.95 28.4576 L 294.814 28.6341 L 294.582 28.7249 L 294.264 28.7501 L 293.725 28.7501 L 293.725 27.5851 L 294.295 27.5851 L 294.295 27.5851 z" stroke="none" fill-rule="evenodd" fill="rgb(255, 0, 128)"/><path d="M 287.862 32.6565 L 299.934 32.6565"/><path d="M 286.796 37.0717 L 287.074 39.0524 L 287.824 37.1984"/><path d="M 286.462 44.0148 L 287.862 32.6565"/></g></svg>