<?xml version="1.0" encoding="utf-8" ?><!DOCTYPE svg PUBLIC "-//W3C//DTD SVG 1.1//EN" "http://www.w3.org/Graphics/SVG/1.1/DTD/svg11.dtd" 
[ <!ATTLIST svg 
  xmlns:dsy CDATA #FIXED "http://www.3ds.com/print"  
    dsy:text-version CDATA #IMPLIED > 

  <!ATTLIST text 
  xmlns:dsy CDATA #FIXED "http://www.3ds.com/print" 
    dsy:text-version CDATA #IMPLIED > 
]><svg xmlns="http://www.w3.org/2000/svg" xmlns:dsy="http://www.3ds.com/print" dsy:text-version="18000" width="594" height="420" viewBox="0 0 594 420" version="1.1"><g stroke="rgb(255, 0, 128)" stroke-width="0.13" stroke-linecap="butt" stroke-linejoin="miter" fill="none"><path d="M 298.853 46.7796 L 344.572 46.7796"/><path d="M 291.875 46.308 A 5 5 0 0 0 294.012 50.8943"/></g><g stroke="rgb(0, 0, 0)" stroke-width="0.35" stroke-linecap="butt" stroke-linejoin="miter" fill="none"><path d="M 419.5 383.75 L 419.5 358.75"/><path d="M 419.5 358.75 L 413.5 358.75"/><path d="M 413.5 358.75 L 413.5 383.75"/><path d="M 413.5 383.75 L 180.501 383.75"/><path d="M 180.501 383.75 L 180.501 358.75"/><path d="M 180.501 358.75 L 174.501 358.75"/><path d="M 174.501 358.75 L 174.501 383.75"/><path d="M 398.603 256.252 L 411.802 249.124"/><path d="M 400.029 258.891 L 398.603 256.252"/><path d="M 413.227 251.764 L 400.029 258.891"/><circle cx="459.5" cy="372.95" r="4.20001"/><circle cx="134.501" cy="373.75" r="4.20001"/><circle cx="296.85" cy="71.25" r="6"/><circle cx="296.85" cy="151.25" r="4.20001"/><circle cx="417.011" cy="300.863" r="4.20001"/><path d="M 125.119 366.321 L 125.916 366.926"/><path d="M 119.2 374.118 L 125.119 366.321"/><path d="M 119.997 374.723 L 119.2 374.118"/><path d="M 125.916 366.926 L 119.997 374.723"/><path d="M 449.911 380.5 L 448.086 373.441"/><path d="M 448.086 373.441 L 447.118 373.691"/><path d="M 447.118 373.691 L 448.943 380.751"/><path d="M 448.943 380.751 L 449.911 380.5"/><path d="M 469.568 368.92 L 470.468 368.483"/><path d="M 474.092 378.231 L 469.568 368.92"/><path d="M 474.992 377.794 L 474.092 378.231"/><path d="M 470.468 368.483 L 474.992 377.794"/><path d="M 484.5 383.75 L 419.5 383.75"/><path d="M 174.501 383.75 L 109.501 383.75"/><path d="M 484.5 383.75 L 413.227 251.764"/><path d="M 411.802 249.124 L 296.85 36.25"/><path d="M 109.501 383.75 L 296.85 36.25"/></g><g stroke="rgb(255, 0, 128)" stroke-width="0.13" stroke-linecap="butt" stroke-linejoin="miter" fill="none"><path d="M 339.473 225.876 L 339.508 225.876 L 339.992 225.795 L 340.356 225.558 L 340.588 225.185 L 340.673 224.691 L 340.588 224.166 L 340.366 223.773 L 340.013 223.521 L 339.559 223.43 L 339.261 223.47 L 339.019 223.581 L 338.832 223.763 L 338.696 224.005 L 338.424 223.677 L 337.99 223.561 L 337.597 223.637 L 337.299 223.853 L 337.113 224.206 L 337.047 224.691 L 337.128 225.145 L 337.35 225.492 L 337.703 225.719 L 338.172 225.795 L 338.207 225.795 L 338.207 225.346 L 337.884 225.306 L 337.652 225.175 L 337.511 224.963 L 337.461 224.665 L 337.501 224.403 L 337.607 224.212 L 337.778 224.096 L 338.01 224.05 L 338.258 224.096 L 338.424 224.217 L 338.525 224.428 L 338.555 224.716 L 338.55 224.913 L 338.948 224.913 L 338.938 224.665 L 338.984 224.348 L 339.105 224.111 L 339.301 223.969 L 339.559 223.919 L 339.851 223.974 L 340.068 224.121 L 340.204 224.353 L 340.25 224.66 L 340.199 224.978 L 340.048 225.21 L 339.806 225.356 L 339.473 225.412 L 339.473 225.876 L 339.473 225.876 z M 339.473 222.14 L 339.508 222.14 L 339.992 222.059 L 340.356 221.822 L 340.588 221.449 L 340.673 220.955 L 340.588 220.43 L 340.366 220.037 L 340.013 219.785 L 339.559 219.694 L 339.261 219.734 L 339.019 219.845 L 338.832 220.027 L 338.696 220.269 L 338.424 219.941 L 337.99 219.825 L 337.597 219.901 L 337.299 220.117 L 337.113 220.47 L 337.047 220.955 L 337.128 221.408 L 337.35 221.756 L 337.703 221.983 L 338.172 222.059 L 338.207 222.059 L 338.207 221.61 L 337.884 221.57 L 337.652 221.439 L 337.511 221.227 L 337.461 220.929 L 337.501 220.667 L 337.607 220.475 L 337.778 220.359 L 338.01 220.314 L 338.258 220.359 L 338.424 220.481 L 338.525 220.692 L 338.555 220.98 L 338.55 221.176 L 338.948 221.176 L 338.938 220.929 L 338.984 220.612 L 339.105 220.375 L 339.301 220.233 L 339.559 220.183 L 339.851 220.238 L 340.068 220.385 L 340.204 220.617 L 340.25 220.924 L 340.199 221.242 L 340.048 221.474 L 339.806 221.62 L 339.473 221.676 L 339.473 222.14 L 339.473 222.14 z M 338.015 215.922 L 337.607 216.018 L 337.304 216.24 L 337.113 216.583 L 337.047 217.027 L 337.082 217.324 L 337.178 217.582 L 337.335 217.809 L 337.557 218 L 337.834 218.152 L 338.172 218.262 L 338.57 218.333 L 339.019 218.353 L 339.735 218.273 L 340.255 218.025 L 340.567 217.627 L 340.673 217.082 L 340.582 216.593 L 340.345 216.22 L 339.972 215.978 L 339.498 215.892 L 339.019 215.978 L 338.651 216.21 L 338.419 216.568 L 338.338 217.012 L 338.439 217.491 L 338.727 217.849 L 338.172 217.773 L 337.773 217.612 L 337.536 217.365 L 337.456 217.022 L 337.496 216.77 L 337.602 216.578 L 337.778 216.452 L 338.015 216.386 L 338.015 215.922 L 338.015 215.922 z M 339.503 216.381 L 339.821 216.437 L 340.063 216.578 L 340.224 216.805 L 340.275 217.087 L 340.224 217.385 L 340.068 217.612 L 339.826 217.758 L 339.508 217.804 L 339.196 217.753 L 338.959 217.612 L 338.807 217.38 L 338.752 217.067 L 338.807 216.795 L 338.954 216.578 L 339.191 216.437 L 339.503 216.381 L 339.503 216.381 z M 340.572 213.745 L 340.572 213.049 L 339.821 213.049 L 339.821 213.745 L 340.572 213.745 L 340.572 213.745 z M 339.705 210.871 L 340.103 210.795 L 340.411 210.579 L 340.603 210.236 L 340.673 209.782 L 340.638 209.484 L 340.547 209.217 L 340.391 208.99 L 340.169 208.798 L 339.892 208.647 L 339.549 208.536 L 339.155 208.471 L 338.701 208.445 L 337.99 208.531 L 337.471 208.778 L 337.158 209.172 L 337.047 209.711 L 337.138 210.205 L 337.38 210.579 L 337.753 210.821 L 338.222 210.901 L 338.706 210.821 L 339.075 210.584 L 339.307 210.231 L 339.382 209.782 L 339.286 209.308 L 338.994 208.95 L 339.554 209.03 L 339.952 209.192 L 340.189 209.439 L 340.265 209.777 L 340.229 210.039 L 340.118 210.231 L 339.942 210.357 L 339.705 210.407 L 339.705 210.871 L 339.705 210.871 z M 338.217 210.412 L 337.905 210.362 L 337.657 210.221 L 337.501 209.999 L 337.446 209.711 L 337.501 209.414 L 337.657 209.187 L 337.899 209.045 L 338.212 208.99 L 338.53 209.045 L 338.767 209.187 L 338.913 209.419 L 338.964 209.726 L 338.913 210.004 L 338.767 210.221 L 338.535 210.362 L 338.217 210.412 L 338.217 210.412 z M 340.572 206.626 L 340.572 206.116 L 339.74 205.95 L 338.964 205.657 L 338.242 205.244 L 337.567 204.704 L 337.148 204.704 L 337.148 207.105 L 337.607 207.105 L 337.607 205.188 L 338.288 205.743 L 338.999 206.162 L 339.755 206.454 L 340.572 206.626 L 340.572 206.626 z" stroke="none" fill-rule="evenodd" fill="rgb(255, 0, 128)"/><path d="M 342.055 381.818 L 342.572 383.75 L 343.09 381.818"/><path d="M 343.09 48.7114 L 342.572 46.7796 L 342.055 48.7114"/><path d="M 342.572 383.75 L 342.572 46.7796"/></g><g stroke="rgb(255, 0, 128)" stroke-width="0.13" stroke-linecap="butt" stroke-linejoin="miter" fill="none"><path d="M 311.259 35.2446 L 311.646 34.9983 L 309.754 32.0239 L 309.465 32.208 L 309.553 32.5163 L 309.511 32.7882 L 309.342 33.0392 L 309.04 33.279 L 309.232 33.5811 L 309.922 33.1426 L 311.259 35.2446 L 311.259 35.2446 z M 312.545 32.4005 L 313.034 33.0279 L 313.537 33.3773 L 314.04 33.4636 L 314.542 33.2757 L 314.921 32.9033 L 315.056 32.4109 L 314.948 31.8098 L 314.591 31.0984 L 314.101 30.4779 L 313.852 30.2655 L 313.599 30.1216 L 313.096 30.0353 L 312.596 30.2162 L 312.215 30.5956 L 312.083 31.0923 L 312.186 31.6961 L 312.545 32.4005 L 312.545 32.4005 z M 312.953 32.1406 L 312.66 31.6041 L 312.531 31.1662 L 312.584 30.8274 L 312.82 30.5694 L 313.15 30.4673 L 313.479 30.5625 L 313.821 30.8651 L 314.183 31.3583 L 314.479 31.8991 L 314.608 32.3369 L 314.555 32.6758 L 314.32 32.9268 L 313.989 33.0358 L 313.659 32.9406 L 313.318 32.6381 L 312.953 32.1406 L 312.953 32.1406 z" stroke="none" fill-rule="evenodd" fill="rgb(255, 0, 128)"/></g><g stroke="rgb(255, 0, 128)" stroke-width="0.13" stroke-linecap="butt" stroke-linejoin="miter" fill="none"><path d="M 307.833 37.4242 L 306.545 34.0954"/><path d="M 308.272 35.071 L 308.209 34.9725 M 308.209 34.9725 L 308.035 34.8069 M 308.035 34.8069 L 307.892 34.6906 M 307.892 34.6906 L 307.78 34.6235 M 307.78 34.6235 L 307.587 34.5385 M 307.587 34.5385 L 307.346 34.4847 M 307.346 34.4847 L 307.135 34.4802 M 307.135 34.4802 L 307.006 34.4936 M 307.006 34.4936 L 306.827 34.5383 M 306.827 34.5383 L 306.599 34.6144 M 306.599 34.6144 L 306.5 34.677 M 306.5 34.677 L 306.402 34.7396 M 306.402 34.7396 L 306.236 34.9141 M 306.236 34.9141 L 306.12 35.0572 M 306.12 35.0572 L 306.053 35.1691 M 306.053 35.1691 L 305.968 35.3614 M 305.968 35.3614 L 305.914 35.603 M 305.914 35.603 L 305.909 35.8133 M 305.909 35.8133 L 305.923 35.943 M 305.923 35.943 L 305.968 36.122 M 305.968 36.122 L 306.044 36.3502 M 306.044 36.3502 L 306.106 36.4486 M 306.106 36.4486 L 306.169 36.5471 M 306.169 36.5471 L 306.343 36.7126 M 306.343 36.7126 L 306.486 36.8289 M 306.486 36.8289 L 306.598 36.8961 M 306.598 36.8961 L 306.791 36.9811 M 306.791 36.9811 L 307.032 37.0349 M 307.032 37.0349 L 307.242 37.0393 M 307.242 37.0393 L 307.372 37.0259 M 307.372 37.0259 L 307.551 36.9812 M 307.551 36.9812 L 307.779 36.9052 M 307.779 36.9052 L 307.878 36.8426 M 307.878 36.8426 L 307.976 36.78 M 307.976 36.78 L 308.142 36.6055 M 308.142 36.6055 L 308.258 36.4623 M 308.258 36.4623 L 308.325 36.3505 M 308.325 36.3505 L 308.41 36.1581 M 308.41 36.1581 L 308.464 35.9166 M 308.464 35.9166 L 308.469 35.7063 M 308.469 35.7063 L 308.455 35.5765 M 308.455 35.5765 L 308.41 35.3976 M 308.41 35.3976 L 308.334 35.1694 M 308.334 35.1694 L 308.272 35.071"/><path d="M 293.986 47.9897 L 292.634 49.4633 L 294.542 48.8631"/><path d="M 299.72 45.5695 L 301.072 44.0958 L 299.164 44.696"/><path d="M 292.634 49.4633 L 316.842 34.0633"/></g></svg>