<?xml version="1.0" encoding="utf-8" ?><!DOCTYPE svg PUBLIC "-//W3C//DTD SVG 1.1//EN" "http://www.w3.org/Graphics/SVG/1.1/DTD/svg11.dtd" 
[ <!ATTLIST svg 
  xmlns:dsy CDATA #FIXED "http://www.3ds.com/print"  
    dsy:text-version CDATA #IMPLIED > 

  <!ATTLIST text 
  xmlns:dsy CDATA #FIXED "http://www.3ds.com/print" 
    dsy:text-version CDATA #IMPLIED > 
]><svg xmlns="http://www.w3.org/2000/svg" xmlns:dsy="http://www.3ds.com/print" dsy:text-version="18000" width="297" height="210" viewBox="0 0 297 210" version="1.1"><g stroke="rgb(255, 0, 128)" stroke-width="0.13" stroke-linecap="butt" stroke-linejoin="miter" fill="none"><path d="M 111.87 98.1894 L 111.87 145.48"/><path d="M 185.011 111.373 L 185.011 145.48"/></g><g stroke="rgb(0, 0, 0)" stroke-width="0.13" stroke-linecap="butt" stroke-linejoin="miter" fill="none"><path d="M 166.806 137.258 L 197.893 137.258"/><path d="M 125.403 73.3345 L 197.893 73.3345"/></g><g stroke="rgb(0, 0, 0)" stroke-width="0.35" stroke-linecap="butt" stroke-linejoin="miter" fill="none"><path d="M 174.806 131.258 L 174.806 137.258"/><path d="M 174.806 137.258 L 164.806 137.258"/><path d="M 164.806 137.258 L 138.914 109.541"/><path d="M 111.989 95.9537 L 138.914 109.541"/><path d="M 114.242 91.4898 L 111.989 95.9537"/><path d="M 136.561 102.753 L 114.242 91.4898"/><path d="M 139.264 97.3962 L 136.561 102.753"/><path d="M 116.945 86.1332 L 139.264 97.3962"/><path d="M 118.747 82.5622 L 116.945 86.1332"/><path d="M 141.066 93.8251 L 118.747 82.5622"/><path d="M 141.066 93.8251 L 143.769 88.4685"/><path d="M 121.45 77.2056 L 143.769 88.4685"/><path d="M 123.703 72.7417 L 121.45 77.2056"/><path d="M 147.649 84.8259 L 123.703 72.7417"/><path d="M 175.011 99.3726 L 147.649 84.8259"/><path d="M 180.011 99.3726 L 175.011 99.3726"/><path d="M 180.011 101.373 L 180.011 99.3726"/><path d="M 182.011 101.373 L 180.011 101.373"/><path d="M 182.011 99.3726 L 182.011 101.373"/><path d="M 185.011 99.3726 L 182.011 99.3726"/><path d="M 185.011 109.373 L 185.011 99.3726"/><path d="M 185.011 109.373 A 12.5 12.5 0 0 0 174.806 131.258"/></g><g stroke="rgb(255, 0, 128)" stroke-width="0.13" stroke-linecap="butt" stroke-linejoin="miter" fill="none"><path d="M 140.267 141.48 L 140.777 141.48 L 140.943 140.647 L 141.236 139.871 L 141.649 139.15 L 142.189 138.474 L 142.189 138.055 L 139.788 138.055 L 139.788 138.514 L 141.705 138.514 L 141.15 139.195 L 140.731 139.906 L 140.439 140.663 L 140.267 141.48 L 140.267 141.48 z M 143.434 140.38 L 143.434 140.415 L 143.514 140.9 L 143.751 141.263 L 144.125 141.495 L 144.619 141.58 L 145.143 141.495 L 145.537 141.273 L 145.789 140.92 L 145.88 140.466 L 145.839 140.168 L 145.728 139.926 L 145.547 139.74 L 145.305 139.603 L 145.632 139.331 L 145.748 138.897 L 145.673 138.504 L 145.456 138.207 L 145.103 138.02 L 144.619 137.954 L 144.165 138.035 L 143.817 138.257 L 143.59 138.61 L 143.514 139.079 L 143.514 139.114 L 143.963 139.114 L 144.004 138.792 L 144.135 138.56 L 144.346 138.418 L 144.644 138.368 L 144.906 138.408 L 145.098 138.514 L 145.214 138.686 L 145.259 138.918 L 145.214 139.165 L 145.093 139.331 L 144.881 139.432 L 144.594 139.462 L 144.397 139.457 L 144.397 139.856 L 144.644 139.846 L 144.962 139.891 L 145.199 140.012 L 145.34 140.209 L 145.39 140.466 L 145.335 140.758 L 145.189 140.975 L 144.957 141.111 L 144.649 141.157 L 144.331 141.106 L 144.099 140.955 L 143.953 140.713 L 143.898 140.38 L 143.434 140.38 L 143.434 140.38 z M 148.093 141.48 L 148.789 141.48 L 148.789 140.728 L 148.093 140.728 L 148.093 141.48 L 148.093 141.48 z M 152.086 141.48 L 152.545 141.48 L 152.545 137.954 L 152.202 137.954 L 152.111 138.262 L 151.929 138.469 L 151.652 138.59 L 151.269 138.63 L 151.269 138.988 L 152.086 138.988 L 152.086 141.48 L 152.086 141.48 z M 156.19 141.48 L 156.644 141.48 L 156.644 140.612 L 157.143 140.612 L 157.143 140.209 L 156.644 140.209 L 156.644 138.055 L 156.185 138.055 L 154.652 140.168 L 154.652 140.612 L 156.19 140.612 L 156.19 141.48 L 156.19 141.48 z M 155.075 140.209 L 156.19 138.64 L 156.19 140.209 L 155.075 140.209 L 155.075 140.209 z" stroke="none" fill-rule="evenodd" fill="rgb(255, 0, 128)"/><path d="M 183.079 143.997 L 185.011 143.48 L 183.079 142.962"/><path d="M 113.802 142.962 L 111.87 143.48 L 113.802 143.997"/><path d="M 111.87 143.48 L 185.011 143.48"/></g><g stroke="rgb(0, 0, 0)" stroke-width="0.13" stroke-linecap="butt" stroke-linejoin="miter" fill="none"><path d="M 191.336 111.558 L 190.927 111.654 L 190.625 111.876 L 190.433 112.219 L 190.367 112.663 L 190.403 112.96 L 190.499 113.217 L 190.655 113.444 L 190.877 113.636 L 191.154 113.787 L 191.492 113.898 L 191.89 113.969 L 192.339 113.989 L 193.055 113.908 L 193.575 113.661 L 193.888 113.263 L 193.993 112.718 L 193.903 112.229 L 193.666 111.856 L 193.292 111.614 L 192.818 111.528 L 192.339 111.614 L 191.971 111.846 L 191.739 112.204 L 191.658 112.647 L 191.759 113.127 L 192.047 113.485 L 191.492 113.409 L 191.094 113.248 L 190.857 113 L 190.776 112.658 L 190.816 112.405 L 190.922 112.214 L 191.099 112.088 L 191.336 112.022 L 191.336 111.558 L 191.336 111.558 z M 192.823 112.017 L 193.141 112.072 L 193.383 112.214 L 193.545 112.441 L 193.595 112.723 L 193.545 113.021 L 193.388 113.248 L 193.146 113.394 L 192.829 113.439 L 192.516 113.389 L 192.279 113.248 L 192.127 113.016 L 192.072 112.703 L 192.127 112.431 L 192.274 112.214 L 192.511 112.072 L 192.823 112.017 L 192.823 112.017 z M 192.793 110.303 L 192.829 110.303 L 193.313 110.223 L 193.676 109.986 L 193.908 109.612 L 193.993 109.118 L 193.908 108.594 L 193.686 108.2 L 193.333 107.948 L 192.879 107.857 L 192.581 107.898 L 192.339 108.009 L 192.153 108.19 L 192.017 108.432 L 191.744 108.104 L 191.31 107.988 L 190.917 108.064 L 190.62 108.281 L 190.433 108.634 L 190.367 109.118 L 190.448 109.572 L 190.67 109.92 L 191.023 110.147 L 191.492 110.223 L 191.527 110.223 L 191.527 109.774 L 191.205 109.733 L 190.973 109.602 L 190.831 109.39 L 190.781 109.093 L 190.821 108.831 L 190.927 108.639 L 191.099 108.523 L 191.331 108.478 L 191.578 108.523 L 191.744 108.644 L 191.845 108.856 L 191.875 109.143 L 191.87 109.34 L 192.269 109.34 L 192.259 109.093 L 192.304 108.775 L 192.425 108.538 L 192.622 108.397 L 192.879 108.347 L 193.171 108.402 L 193.388 108.548 L 193.524 108.78 L 193.57 109.088 L 193.519 109.406 L 193.368 109.638 L 193.126 109.784 L 192.793 109.839 L 192.793 110.303 L 192.793 110.303 z M 193.893 105.644 L 193.893 104.948 L 193.141 104.948 L 193.141 105.644 L 193.893 105.644 L 193.893 105.644 z M 193.025 102.771 L 193.424 102.695 L 193.731 102.478 L 193.923 102.135 L 193.993 101.681 L 193.958 101.384 L 193.867 101.117 L 193.711 100.89 L 193.489 100.698 L 193.212 100.547 L 192.869 100.436 L 192.475 100.37 L 192.022 100.345 L 191.31 100.431 L 190.791 100.678 L 190.478 101.071 L 190.367 101.611 L 190.458 102.105 L 190.7 102.478 L 191.073 102.72 L 191.542 102.801 L 192.027 102.72 L 192.395 102.483 L 192.627 102.13 L 192.702 101.681 L 192.607 101.207 L 192.314 100.849 L 192.874 100.93 L 193.272 101.091 L 193.509 101.338 L 193.585 101.676 L 193.55 101.939 L 193.439 102.13 L 193.262 102.256 L 193.025 102.307 L 193.025 102.771 L 193.025 102.771 z M 191.537 102.312 L 191.225 102.261 L 190.978 102.12 L 190.821 101.898 L 190.766 101.611 L 190.821 101.313 L 190.978 101.086 L 191.22 100.945 L 191.532 100.89 L 191.85 100.945 L 192.087 101.086 L 192.233 101.318 L 192.284 101.626 L 192.233 101.903 L 192.087 102.12 L 191.855 102.261 L 191.537 102.312 L 191.537 102.312 z M 193.893 99.0549 L 193.893 96.6493 L 193.459 96.6493 L 193.459 98.5506 L 193.222 98.4447 L 193.025 98.2631 L 192.667 97.7033 L 192.516 97.4058 L 192.299 97.0729 L 192.047 96.8359 L 191.749 96.6997 L 191.411 96.6493 L 190.988 96.735 L 190.655 96.9721 L 190.443 97.3352 L 190.367 97.8042 L 190.453 98.2883 L 190.69 98.6565 L 191.068 98.8935 L 191.568 98.9742 L 191.638 98.9742 L 191.638 98.5153 L 191.598 98.5153 L 191.255 98.4699 L 191.003 98.3337 L 190.841 98.1169 L 190.786 97.8294 L 190.836 97.5369 L 190.963 97.32 L 191.159 97.1788 L 191.406 97.1284 L 191.638 97.1637 L 191.835 97.2595 L 192.006 97.4209 L 192.158 97.6428 L 192.319 97.9404 L 192.632 98.4346 L 192.965 98.7826 L 193.368 98.9893 L 193.877 99.0549 L 193.893 99.0549 L 193.893 99.0549 z" stroke="none" fill-rule="evenodd" fill="rgb(0, 0, 0)"/><path d="M 195.375 135.326 L 195.893 137.258 L 196.41 135.326"/><path d="M 196.41 75.2664 L 195.893 73.3345 L 195.375 75.2664"/><path d="M 195.893 137.258 L 195.893 73.3345"/></g></svg>