<?xml version="1.0" encoding="utf-8" ?><!DOCTYPE svg PUBLIC "-//W3C//DTD SVG 1.1//EN" "http://www.w3.org/Graphics/SVG/1.1/DTD/svg11.dtd" 
[ <!ATTLIST svg 
  xmlns:dsy CDATA #FIXED "http://www.3ds.com/print"  
    dsy:text-version CDATA #IMPLIED > 

  <!ATTLIST text 
  xmlns:dsy CDATA #FIXED "http://www.3ds.com/print" 
    dsy:text-version CDATA #IMPLIED > 
]><svg xmlns="http://www.w3.org/2000/svg" xmlns:dsy="http://www.3ds.com/print" dsy:text-version="18000" width="297" height="210" viewBox="0 0 297 210" version="1.1"><g stroke="rgb(128, 128, 128)" stroke-width="0.13" stroke-linecap="butt" stroke-linejoin="miter" fill="none"><path d="M 111.93 97.893 L 111.93 145.183"/><path d="M 185.07 111.076 L 185.07 145.183"/></g><g stroke="rgb(0, 0, 0)" stroke-width="0.13" stroke-linecap="butt" stroke-linejoin="miter" fill="none"><path d="M 166.865 136.962 L 197.952 136.962"/><path d="M 125.463 73.0381 L 197.952 73.0381"/></g><g stroke="rgb(0, 0, 0)" stroke-width="0.35" stroke-linecap="butt" stroke-linejoin="miter" fill="none"><path d="M 174.865 130.962 L 174.865 136.962"/><path d="M 174.865 136.962 L 164.865 136.962"/><path d="M 164.865 136.962 L 138.854 109.48"/><path d="M 111.93 95.893 L 138.854 109.48"/><path d="M 114.182 91.4291 L 111.93 95.893"/><path d="M 136.501 102.692 L 114.182 91.4291"/><path d="M 138.664 98.4068 L 136.501 102.692"/><path d="M 116.345 87.1438 L 138.664 98.4068"/><path d="M 119.048 81.7872 L 116.345 87.1438"/><path d="M 141.367 93.0502 L 119.048 81.7872"/><path d="M 141.367 93.0502 L 143.529 88.7649"/><path d="M 121.21 77.502 L 143.529 88.7649"/><path d="M 123.463 73.0381 L 121.21 77.502"/><path d="M 147.409 85.1223 L 123.463 73.0381"/><path d="M 175.07 99.0762 L 147.409 85.1223"/><path d="M 180.07 99.0762 L 175.07 99.0762"/><path d="M 180.07 101.076 L 180.07 99.0762"/><path d="M 182.07 101.076 L 180.07 101.076"/><path d="M 182.07 99.0762 L 182.07 101.076"/><path d="M 185.07 99.0762 L 182.07 99.0762"/><path d="M 185.07 109.076 L 185.07 99.0762"/><path d="M 185.07 109.076 A 12.5 12.5 0 0 0 174.865 130.962"/></g><g stroke="rgb(128, 128, 128)" stroke-width="0.13" stroke-linecap="butt" stroke-linejoin="miter" fill="none"><path d="M 140.327 141.183 L 140.836 141.183 L 141.003 140.351 L 141.295 139.574 L 141.709 138.853 L 142.248 138.177 L 142.248 137.759 L 139.848 137.759 L 139.848 138.218 L 141.764 138.218 L 141.21 138.899 L 140.791 139.61 L 140.498 140.366 L 140.327 141.183 L 140.327 141.183 z M 143.493 140.084 L 143.493 140.119 L 143.574 140.603 L 143.811 140.966 L 144.184 141.198 L 144.678 141.284 L 145.203 141.198 L 145.596 140.976 L 145.848 140.623 L 145.939 140.169 L 145.899 139.872 L 145.788 139.63 L 145.606 139.443 L 145.364 139.307 L 145.692 139.035 L 145.808 138.601 L 145.732 138.208 L 145.515 137.91 L 145.162 137.724 L 144.678 137.658 L 144.224 137.739 L 143.876 137.961 L 143.649 138.314 L 143.574 138.783 L 143.574 138.818 L 144.023 138.818 L 144.063 138.495 L 144.194 138.263 L 144.406 138.122 L 144.703 138.072 L 144.966 138.112 L 145.157 138.218 L 145.273 138.389 L 145.319 138.621 L 145.273 138.868 L 145.152 139.035 L 144.94 139.136 L 144.653 139.166 L 144.456 139.161 L 144.456 139.559 L 144.703 139.549 L 145.021 139.595 L 145.258 139.716 L 145.399 139.912 L 145.45 140.169 L 145.394 140.462 L 145.248 140.679 L 145.016 140.815 L 144.709 140.86 L 144.391 140.81 L 144.159 140.659 L 144.013 140.417 L 143.957 140.084 L 143.493 140.084 L 143.493 140.084 z M 148.152 141.183 L 148.848 141.183 L 148.848 140.432 L 148.152 140.432 L 148.152 141.183 L 148.152 141.183 z M 152.145 141.183 L 152.604 141.183 L 152.604 137.658 L 152.261 137.658 L 152.17 137.966 L 151.989 138.172 L 151.712 138.293 L 151.328 138.334 L 151.328 138.692 L 152.145 138.692 L 152.145 141.183 L 152.145 141.183 z M 156.249 141.183 L 156.703 141.183 L 156.703 140.316 L 157.203 140.316 L 157.203 139.912 L 156.703 139.912 L 156.703 137.759 L 156.244 137.759 L 154.711 139.872 L 154.711 140.316 L 156.249 140.316 L 156.249 141.183 L 156.249 141.183 z M 155.135 139.912 L 156.249 138.344 L 156.249 139.912 L 155.135 139.912 L 155.135 139.912 z" stroke="none" fill-rule="evenodd" fill="rgb(128, 128, 128)"/><path d="M 183.139 143.701 L 185.07 143.183 L 183.139 142.666"/><path d="M 113.861 142.666 L 111.93 143.183 L 113.861 143.701"/><path d="M 111.93 143.183 L 185.07 143.183"/></g><g stroke="rgb(0, 0, 0)" stroke-width="0.13" stroke-linecap="butt" stroke-linejoin="miter" fill="none"><path d="M 191.395 111.262 L 190.987 111.357 L 190.684 111.579 L 190.492 111.922 L 190.427 112.366 L 190.462 112.664 L 190.558 112.921 L 190.714 113.148 L 190.936 113.339 L 191.214 113.491 L 191.552 113.602 L 191.95 113.672 L 192.399 113.693 L 193.115 113.612 L 193.634 113.365 L 193.947 112.966 L 194.053 112.422 L 193.962 111.932 L 193.725 111.559 L 193.352 111.317 L 192.878 111.231 L 192.399 111.317 L 192.031 111.549 L 191.799 111.907 L 191.718 112.351 L 191.819 112.83 L 192.106 113.188 L 191.552 113.113 L 191.153 112.951 L 190.916 112.704 L 190.835 112.361 L 190.876 112.109 L 190.982 111.917 L 191.158 111.791 L 191.395 111.726 L 191.395 111.262 L 191.395 111.262 z M 192.883 111.721 L 193.201 111.776 L 193.443 111.917 L 193.604 112.144 L 193.655 112.427 L 193.604 112.724 L 193.448 112.951 L 193.206 113.097 L 192.888 113.143 L 192.575 113.092 L 192.338 112.951 L 192.187 112.719 L 192.131 112.406 L 192.187 112.134 L 192.333 111.917 L 192.57 111.776 L 192.883 111.721 L 192.883 111.721 z M 192.853 110.007 L 192.888 110.007 L 193.372 109.926 L 193.735 109.689 L 193.967 109.316 L 194.053 108.822 L 193.967 108.297 L 193.745 107.904 L 193.392 107.652 L 192.938 107.561 L 192.641 107.601 L 192.399 107.712 L 192.212 107.894 L 192.076 108.136 L 191.804 107.808 L 191.37 107.692 L 190.977 107.768 L 190.679 107.985 L 190.492 108.338 L 190.427 108.822 L 190.508 109.276 L 190.729 109.624 L 191.082 109.851 L 191.552 109.926 L 191.587 109.926 L 191.587 109.477 L 191.264 109.437 L 191.032 109.306 L 190.891 109.094 L 190.84 108.797 L 190.881 108.534 L 190.987 108.343 L 191.158 108.227 L 191.39 108.181 L 191.637 108.227 L 191.804 108.348 L 191.905 108.56 L 191.935 108.847 L 191.93 109.044 L 192.328 109.044 L 192.318 108.797 L 192.363 108.479 L 192.485 108.242 L 192.681 108.101 L 192.938 108.05 L 193.231 108.106 L 193.448 108.252 L 193.584 108.484 L 193.629 108.792 L 193.579 109.109 L 193.428 109.341 L 193.186 109.487 L 192.853 109.543 L 192.853 110.007 L 192.853 110.007 z M 193.952 105.348 L 193.952 104.652 L 193.201 104.652 L 193.201 105.348 L 193.952 105.348 L 193.952 105.348 z M 193.085 102.474 L 193.483 102.399 L 193.791 102.182 L 193.982 101.839 L 194.053 101.385 L 194.018 101.087 L 193.927 100.82 L 193.771 100.593 L 193.549 100.402 L 193.271 100.25 L 192.928 100.139 L 192.535 100.074 L 192.081 100.049 L 191.37 100.134 L 190.851 100.381 L 190.538 100.775 L 190.427 101.314 L 190.518 101.809 L 190.76 102.182 L 191.133 102.424 L 191.602 102.505 L 192.086 102.424 L 192.454 102.187 L 192.686 101.834 L 192.762 101.385 L 192.666 100.911 L 192.374 100.553 L 192.933 100.634 L 193.332 100.795 L 193.569 101.042 L 193.644 101.38 L 193.609 101.642 L 193.498 101.834 L 193.322 101.96 L 193.085 102.01 L 193.085 102.474 L 193.085 102.474 z M 191.597 102.015 L 191.284 101.965 L 191.037 101.824 L 190.881 101.602 L 190.825 101.314 L 190.881 101.017 L 191.037 100.79 L 191.279 100.649 L 191.592 100.593 L 191.91 100.649 L 192.147 100.79 L 192.293 101.022 L 192.343 101.33 L 192.293 101.607 L 192.147 101.824 L 191.915 101.965 L 191.597 102.015 L 191.597 102.015 z M 193.952 98.7585 L 193.952 96.3529 L 193.518 96.3529 L 193.518 98.2542 L 193.281 98.1483 L 193.085 97.9667 L 192.727 97.4069 L 192.575 97.1094 L 192.358 96.7765 L 192.106 96.5395 L 191.809 96.4033 L 191.471 96.3529 L 191.047 96.4386 L 190.714 96.6757 L 190.503 97.0388 L 190.427 97.5078 L 190.513 97.9919 L 190.75 98.3601 L 191.128 98.5971 L 191.627 98.6778 L 191.698 98.6778 L 191.698 98.2189 L 191.657 98.2189 L 191.314 98.1735 L 191.062 98.0373 L 190.901 97.8205 L 190.845 97.533 L 190.896 97.2405 L 191.022 97.0236 L 191.219 96.8824 L 191.466 96.832 L 191.698 96.8673 L 191.894 96.9631 L 192.066 97.1245 L 192.217 97.3464 L 192.379 97.644 L 192.691 98.1382 L 193.024 98.4862 L 193.428 98.6929 L 193.937 98.7585 L 193.952 98.7585 L 193.952 98.7585 z" stroke="none" fill-rule="evenodd" fill="rgb(0, 0, 0)"/><path d="M 195.434 135.03 L 195.952 136.962 L 196.47 135.03"/><path d="M 196.47 74.97 L 195.952 73.0381 L 195.434 74.97"/><path d="M 195.952 136.962 L 195.952 73.0381"/></g></svg>