<?xml version="1.0" encoding="utf-8" ?><!DOCTYPE svg PUBLIC "-//W3C//DTD SVG 1.1//EN" "http://www.w3.org/Graphics/SVG/1.1/DTD/svg11.dtd" 
[ <!ATTLIST svg 
  xmlns:dsy CDATA #FIXED "http://www.3ds.com/print"  
    dsy:text-version CDATA #IMPLIED > 

  <!ATTLIST text 
  xmlns:dsy CDATA #FIXED "http://www.3ds.com/print" 
    dsy:text-version CDATA #IMPLIED > 
]><svg xmlns="http://www.w3.org/2000/svg" xmlns:dsy="http://www.3ds.com/print" dsy:text-version="18000" width="297" height="210" viewBox="0 0 297 210" version="1.1"><g stroke="rgb(0, 0, 0)" stroke-width="0.13" stroke-linecap="butt" stroke-linejoin="miter" fill="none"><path d="M 114.559 86.2428 L 110.124 84.0049"/><path d="M 117.262 80.8862 L 112.828 78.6483"/></g><g stroke="rgb(0, 0, 0)" stroke-width="0.35" stroke-linecap="butt" stroke-linejoin="miter" fill="none"><path d="M 174.865 130.962 L 174.865 136.962"/><path d="M 174.865 136.962 L 164.865 136.962"/><path d="M 164.865 136.962 L 138.854 109.48"/><path d="M 111.93 95.893 L 138.854 109.48"/><path d="M 114.182 91.4291 L 111.93 95.893"/><path d="M 136.501 102.692 L 114.182 91.4291"/><path d="M 138.664 98.4068 L 136.501 102.692"/><path d="M 116.345 87.1438 L 138.664 98.4068"/><path d="M 119.048 81.7872 L 116.345 87.1438"/><path d="M 141.367 93.0502 L 119.048 81.7872"/><path d="M 141.367 93.0502 L 143.529 88.7649"/><path d="M 121.21 77.502 L 143.529 88.7649"/><path d="M 123.463 73.0381 L 121.21 77.502"/><path d="M 147.409 85.1223 L 123.463 73.0381"/><path d="M 175.07 99.0762 L 147.409 85.1223"/><path d="M 180.07 99.0762 L 175.07 99.0762"/><path d="M 180.07 101.076 L 180.07 99.0762"/><path d="M 182.07 101.076 L 180.07 101.076"/><path d="M 182.07 99.0762 L 182.07 101.076"/><path d="M 185.07 99.0762 L 182.07 99.0762"/><path d="M 185.07 109.076 L 185.07 99.0762"/><path d="M 185.07 109.076 A 12.5 12.5 0 0 0 174.865 130.962"/></g><g stroke="rgb(0, 0, 0)" stroke-width="0.13" stroke-linecap="butt" stroke-linejoin="miter" fill="none"><path d="M 108.374 81.7973 L 107.967 81.6988 L 107.596 81.7606 L 107.271 81.9804 L 107.012 82.3471 L 106.91 82.6287 L 106.879 82.9015 L 106.917 83.1745 L 107.029 83.4456 L 107.208 83.7056 L 107.46 83.9569 L 107.784 84.1994 L 108.175 84.4196 L 108.851 84.6702 L 109.426 84.6836 L 109.885 84.4688 L 110.225 84.0303 L 110.364 83.5526 L 110.32 83.1127 L 110.096 82.7284 L 109.712 82.4383 L 109.245 82.299 L 108.812 82.3402 L 108.444 82.5554 L 108.172 82.9153 L 108.046 83.3884 L 108.141 83.8376 L 107.68 83.5201 L 107.397 83.1966 L 107.297 82.8692 L 107.379 82.5267 L 107.529 82.3197 L 107.71 82.1963 L 107.924 82.1633 L 108.165 82.2115 L 108.374 81.7973 L 108.374 81.7973 z M 109.496 82.8773 L 109.755 83.07 L 109.907 83.3051 L 109.949 83.5804 L 109.867 83.8553 L 109.688 84.0982 L 109.446 84.2304 L 109.164 84.2519 L 108.86 84.1493 L 108.603 83.9634 L 108.455 83.7305 L 108.425 83.4552 L 108.516 83.1511 L 108.688 82.933 L 108.916 82.8052 L 109.192 82.786 L 109.496 82.8773 L 109.496 82.8773 z" stroke="none" fill-rule="evenodd" fill="rgb(0, 0, 0)"/><path d="M 115.021 77.5915 L 114.613 79.5493 L 115.946 78.0579"/><path d="M 111.502 86.8639 L 111.91 84.906 L 110.577 86.3974"/><path d="M 109.657 89.3698 L 116.866 75.0855"/></g></svg>