<?xml version="1.0" encoding="utf-8" ?><!DOCTYPE svg PUBLIC "-//W3C//DTD SVG 1.1//EN" "http://www.w3.org/Graphics/SVG/1.1/DTD/svg11.dtd" 
[ <!ATTLIST svg 
  xmlns:dsy CDATA #FIXED "http://www.3ds.com/print"  
    dsy:text-version CDATA #IMPLIED > 

  <!ATTLIST text 
  xmlns:dsy CDATA #FIXED "http://www.3ds.com/print" 
    dsy:text-version CDATA #IMPLIED > 
]><svg xmlns="http://www.w3.org/2000/svg" xmlns:dsy="http://www.3ds.com/print" dsy:text-version="18000" width="594" height="420" viewBox="0 0 594 420" version="1.1"><g stroke="rgb(0, 0, 0)" stroke-width="0.13" stroke-linecap="butt" stroke-linejoin="miter" fill="none"><path d="M 180.788 353.692 L 180.788 332.415"/><path d="M 390.787 353.692 L 390.787 332.415"/></g><g stroke="rgb(0, 0, 0)" stroke-width="0.35" stroke-linecap="butt" stroke-linejoin="miter" fill="none"><path d="M 175.988 380.692 L 175.988 355.692"/><path d="M 175.988 355.692 L 180.788 355.692"/><path d="M 180.788 355.692 L 180.788 380.692"/><path d="M 180.788 380.692 L 390.787 380.692"/><path d="M 390.787 380.692 L 390.787 355.692"/><path d="M 390.787 355.692 L 395.587 355.692"/><path d="M 395.587 355.692 L 395.587 380.692"/><path d="M 193.002 250.788 L 179.605 244.042"/><path d="M 191.652 253.468 L 193.002 250.788"/><path d="M 178.255 246.721 L 191.652 253.468"/><path d="M 136.329 329.974 L 178.255 246.721"/><path d="M 136.329 329.974 L 155.899 380.692"/><path d="M 155.899 380.692 L 175.988 380.692"/><circle cx="435.787" cy="370.692" r="4.20001"/><circle cx="285.788" cy="68.1917" r="6"/><circle cx="285.788" cy="148.192" r="4.20001"/><circle cx="204.985" cy="282.575" r="4.20001"/><path d="M 395.587 380.692 L 452.671 380.692"/><path d="M 452.671 380.692 A 5 5 0 0 0 457.136 373.443"/><path d="M 179.605 244.042 L 281.322 42.0594"/><path d="M 457.136 373.443 L 290.254 42.0594"/><path d="M 290.254 42.0594 A 5 5 0 0 0 281.322 42.0594"/></g><g stroke="rgb(0, 0, 0)" stroke-width="0.13" stroke-linecap="butt" stroke-linejoin="miter" fill="none"><path d="M 280.821 332.415 L 283.226 332.415 L 283.226 331.981 L 281.325 331.981 L 281.431 331.744 L 281.613 331.547 L 282.172 331.189 L 282.47 331.038 L 282.803 330.821 L 283.04 330.569 L 283.176 330.271 L 283.226 329.934 L 283.141 329.51 L 282.904 329.177 L 282.54 328.965 L 282.071 328.89 L 281.587 328.975 L 281.219 329.212 L 280.982 329.591 L 280.901 330.09 L 280.901 330.161 L 281.36 330.161 L 281.36 330.12 L 281.406 329.777 L 281.542 329.525 L 281.759 329.364 L 282.046 329.308 L 282.339 329.359 L 282.556 329.485 L 282.697 329.681 L 282.747 329.929 L 282.712 330.161 L 282.616 330.357 L 282.455 330.529 L 282.233 330.68 L 281.935 330.841 L 281.441 331.154 L 281.093 331.487 L 280.886 331.89 L 280.821 332.4 L 280.821 332.415 L 280.821 332.415 z M 285.697 332.415 L 286.155 332.415 L 286.155 328.89 L 285.813 328.89 L 285.722 329.197 L 285.54 329.404 L 285.263 329.525 L 284.88 329.565 L 284.88 329.923 L 285.697 329.923 L 285.697 332.415 L 285.697 332.415 z M 288.308 330.705 L 288.384 331.497 L 288.621 332.062 L 288.999 332.405 L 289.523 332.516 L 290.043 332.405 L 290.421 332.062 L 290.653 331.497 L 290.734 330.705 L 290.653 329.918 L 290.557 329.606 L 290.421 329.349 L 290.043 329.006 L 289.523 328.89 L 288.999 329.006 L 288.621 329.354 L 288.384 329.918 L 288.308 330.705 L 288.308 330.705 z M 288.792 330.705 L 288.832 330.095 L 288.959 329.656 L 289.185 329.399 L 289.523 329.308 L 289.856 329.399 L 290.083 329.656 L 290.209 330.095 L 290.25 330.705 L 290.209 331.32 L 290.083 331.759 L 289.856 332.016 L 289.523 332.102 L 289.185 332.016 L 288.959 331.759 L 288.832 331.32 L 288.792 330.705 L 288.792 330.705 z" stroke="none" fill-rule="evenodd" fill="rgb(0, 0, 0)"/><path d="M 388.855 334.932 L 390.787 334.415 L 388.855 333.897"/><path d="M 182.72 333.897 L 180.788 334.415 L 182.72 334.932"/><path d="M 180.788 334.415 L 390.787 334.415"/></g></svg>