<?xml version="1.0" encoding="utf-8" ?><!DOCTYPE svg PUBLIC "-//W3C//DTD SVG 1.1//EN" "http://www.w3.org/Graphics/SVG/1.1/DTD/svg11.dtd" 
[ <!ATTLIST svg 
  xmlns:dsy CDATA #FIXED "http://www.3ds.com/print"  
    dsy:text-version CDATA #IMPLIED > 

  <!ATTLIST text 
  xmlns:dsy CDATA #FIXED "http://www.3ds.com/print" 
    dsy:text-version CDATA #IMPLIED > 
]><svg xmlns="http://www.w3.org/2000/svg" xmlns:dsy="http://www.3ds.com/print" dsy:text-version="18000" width="594" height="420" viewBox="0 0 594 420" version="1.1"><g stroke="rgb(255, 0, 128)" stroke-width="0.13" stroke-linecap="butt" stroke-linejoin="miter" fill="none"><path d="M 299.008 44.3085 L 329.452 44.3085"/></g><g stroke="rgb(0, 0, 0)" stroke-width="0.35" stroke-linecap="butt" stroke-linejoin="miter" fill="none"><path d="M 408.008 380.691 L 408.008 355.691"/><path d="M 408.008 355.691 L 402.008 355.691"/><path d="M 402.008 355.691 L 402.008 380.691"/><path d="M 402.008 380.691 L 192.01 380.691"/><path d="M 192.01 380.691 L 192.01 355.691"/><path d="M 192.01 355.691 L 186.01 355.691"/><path d="M 186.01 355.691 L 186.01 380.691"/><path d="M 389.781 250.784 L 403.179 244.038"/><path d="M 391.131 253.464 L 389.781 250.784"/><path d="M 404.528 246.718 L 391.131 253.464"/><circle cx="448.271" cy="369.476" r="4.20001"/><circle cx="147.01" cy="370.691" r="4.20001"/><circle cx="297.008" cy="68.1915" r="6"/><circle cx="297.008" cy="148.191" r="4.20001"/><circle cx="377.811" cy="282.575" r="4.20001"/><path d="M 148.891 356.117 L 149.363 356.998"/><path d="M 132.908 364.69 L 148.891 356.117"/><path d="M 133.38 365.571 L 132.908 364.69"/><path d="M 149.363 356.998 L 133.38 365.571"/><path d="M 436.695 361.312 L 437.644 361.626"/><path d="M 432.269 374.709 L 436.695 361.312"/><path d="M 433.219 375.023 L 432.269 374.709"/><path d="M 437.644 361.626 L 433.219 375.023"/><path d="M 186.01 380.691 L 130.126 380.691"/><path d="M 125.661 373.443 A 5 5 0 0 0 130.126 380.691"/><path d="M 403.179 244.038 L 301.474 42.0598"/><path d="M 125.661 373.443 L 292.543 42.0596"/><path d="M 301.474 42.0598 A 5 5 0 0 0 292.543 42.0596"/><path d="M 463.874 380.691 L 408.008 380.691"/><path d="M 468.339 373.443 L 404.528 246.718"/><path d="M 463.874 380.691 A 5 5 0 0 0 468.339 373.443"/></g><g stroke="rgb(255, 0, 128)" stroke-width="0.13" stroke-linecap="butt" stroke-linejoin="miter" fill="none"><path d="M 324.352 223.111 L 324.388 223.111 L 324.872 223.03 L 325.235 222.793 L 325.467 222.42 L 325.552 221.926 L 325.467 221.401 L 325.245 221.008 L 324.892 220.756 L 324.438 220.665 L 324.14 220.705 L 323.898 220.816 L 323.712 220.998 L 323.576 221.24 L 323.303 220.912 L 322.869 220.796 L 322.476 220.872 L 322.179 221.089 L 321.992 221.442 L 321.926 221.926 L 322.007 222.38 L 322.229 222.728 L 322.582 222.955 L 323.051 223.03 L 323.086 223.03 L 323.086 222.581 L 322.764 222.541 L 322.532 222.41 L 322.39 222.198 L 322.34 221.901 L 322.38 221.638 L 322.486 221.447 L 322.658 221.331 L 322.89 221.285 L 323.137 221.331 L 323.303 221.452 L 323.404 221.664 L 323.434 221.951 L 323.429 222.148 L 323.828 222.148 L 323.818 221.901 L 323.863 221.583 L 323.984 221.346 L 324.181 221.205 L 324.438 221.154 L 324.73 221.21 L 324.947 221.356 L 325.083 221.588 L 325.129 221.896 L 325.078 222.213 L 324.927 222.445 L 324.685 222.592 L 324.352 222.647 L 324.352 223.111 L 324.352 223.111 z M 324.352 219.375 L 324.388 219.375 L 324.872 219.294 L 325.235 219.057 L 325.467 218.684 L 325.552 218.19 L 325.467 217.665 L 325.245 217.272 L 324.892 217.02 L 324.438 216.929 L 324.14 216.969 L 323.898 217.08 L 323.712 217.262 L 323.576 217.504 L 323.303 217.176 L 322.869 217.06 L 322.476 217.136 L 322.179 217.353 L 321.992 217.706 L 321.926 218.19 L 322.007 218.644 L 322.229 218.992 L 322.582 219.219 L 323.051 219.294 L 323.086 219.294 L 323.086 218.845 L 322.764 218.805 L 322.532 218.674 L 322.39 218.462 L 322.34 218.165 L 322.38 217.902 L 322.486 217.711 L 322.658 217.595 L 322.89 217.549 L 323.137 217.595 L 323.303 217.716 L 323.404 217.928 L 323.434 218.215 L 323.429 218.412 L 323.828 218.412 L 323.818 218.165 L 323.863 217.847 L 323.984 217.61 L 324.181 217.469 L 324.438 217.418 L 324.73 217.474 L 324.947 217.62 L 325.083 217.852 L 325.129 218.16 L 325.078 218.477 L 324.927 218.709 L 324.685 218.855 L 324.352 218.911 L 324.352 219.375 L 324.352 219.375 z M 322.895 213.158 L 322.486 213.253 L 322.184 213.475 L 321.992 213.818 L 321.926 214.262 L 321.962 214.56 L 322.058 214.817 L 322.214 215.044 L 322.436 215.235 L 322.713 215.387 L 323.051 215.498 L 323.449 215.568 L 323.898 215.588 L 324.614 215.508 L 325.134 215.261 L 325.447 214.862 L 325.552 214.318 L 325.462 213.828 L 325.225 213.455 L 324.851 213.213 L 324.377 213.127 L 323.898 213.213 L 323.53 213.445 L 323.298 213.803 L 323.217 214.247 L 323.318 214.726 L 323.606 215.084 L 323.051 215.008 L 322.653 214.847 L 322.416 214.6 L 322.335 214.257 L 322.375 214.005 L 322.481 213.813 L 322.658 213.687 L 322.895 213.622 L 322.895 213.158 L 322.895 213.158 z M 324.382 213.617 L 324.7 213.672 L 324.942 213.813 L 325.104 214.04 L 325.154 214.323 L 325.104 214.62 L 324.947 214.847 L 324.705 214.993 L 324.388 215.039 L 324.075 214.988 L 323.838 214.847 L 323.686 214.615 L 323.631 214.302 L 323.686 214.03 L 323.833 213.813 L 324.07 213.672 L 324.382 213.617 L 324.382 213.617 z M 325.452 210.98 L 325.452 210.284 L 324.7 210.284 L 324.7 210.98 L 325.452 210.98 L 325.452 210.98 z M 324.352 208.167 L 324.388 208.167 L 324.872 208.086 L 325.235 207.849 L 325.467 207.476 L 325.552 206.982 L 325.467 206.457 L 325.245 206.064 L 324.892 205.812 L 324.438 205.721 L 324.14 205.761 L 323.898 205.872 L 323.712 206.054 L 323.576 206.296 L 323.303 205.968 L 322.869 205.852 L 322.476 205.928 L 322.179 206.144 L 321.992 206.498 L 321.926 206.982 L 322.007 207.436 L 322.229 207.784 L 322.582 208.01 L 323.051 208.086 L 323.086 208.086 L 323.086 207.637 L 322.764 207.597 L 322.532 207.466 L 322.39 207.254 L 322.34 206.956 L 322.38 206.694 L 322.486 206.503 L 322.658 206.387 L 322.89 206.341 L 323.137 206.387 L 323.303 206.508 L 323.404 206.719 L 323.434 207.007 L 323.429 207.204 L 323.828 207.204 L 323.818 206.956 L 323.863 206.639 L 323.984 206.402 L 324.181 206.26 L 324.438 206.21 L 324.73 206.266 L 324.947 206.412 L 325.083 206.644 L 325.129 206.951 L 325.078 207.269 L 324.927 207.501 L 324.685 207.647 L 324.352 207.703 L 324.352 208.167 L 324.352 208.167 z M 323.565 203.785 L 323.707 204.042 L 323.903 204.219 L 324.15 204.33 L 324.448 204.365 L 324.897 204.285 L 325.245 204.053 L 325.467 203.674 L 325.552 203.16 L 325.467 202.651 L 325.245 202.272 L 324.897 202.04 L 324.448 201.955 L 324.15 201.995 L 323.903 202.101 L 323.707 202.282 L 323.565 202.535 L 323.444 202.333 L 323.278 202.192 L 323.076 202.106 L 322.829 202.076 L 322.471 202.156 L 322.184 202.368 L 321.997 202.711 L 321.926 203.16 L 321.997 203.614 L 322.184 203.957 L 322.471 204.174 L 322.829 204.249 L 323.076 204.224 L 323.278 204.138 L 323.565 203.785 L 323.565 203.785 z M 324.438 203.881 L 324.171 203.836 L 323.969 203.689 L 323.838 203.462 L 323.792 203.16 L 323.838 202.862 L 323.969 202.635 L 324.171 202.489 L 324.438 202.439 L 324.725 202.489 L 324.942 202.635 L 325.083 202.862 L 325.129 203.16 L 325.083 203.462 L 324.942 203.689 L 324.725 203.836 L 324.438 203.881 L 324.438 203.881 z M 322.869 203.77 L 322.648 203.73 L 322.476 203.609 L 322.37 203.417 L 322.33 203.16 L 322.37 202.908 L 322.476 202.716 L 322.648 202.595 L 322.869 202.55 L 323.096 202.595 L 323.273 202.716 L 323.389 202.908 L 323.424 203.16 L 323.384 203.417 L 323.273 203.609 L 323.096 203.73 L 322.869 203.77 L 322.869 203.77 z" stroke="none" fill-rule="evenodd" fill="rgb(255, 0, 128)"/><path d="M 326.934 378.76 L 327.452 380.691 L 327.969 378.76"/><path d="M 327.969 46.2404 L 327.452 44.3085 L 326.934 46.2404"/><path d="M 327.452 380.691 L 327.452 44.3085"/></g><g stroke="rgb(255, 0, 128)" stroke-width="0.13" stroke-linecap="butt" stroke-linejoin="miter" fill="none"><path d="M 307.319 25.0135 L 307.719 25.1652 L 308.125 25.1533 L 308.501 24.9766 L 308.834 24.6444 L 309.058 24.178 L 309.09 23.7103 L 308.918 23.2758 L 308.565 22.9033 L 308.135 22.6987 L 307.694 22.6799 L 307.281 22.8482 L 306.925 23.195 L 306.753 23.5373 L 306.718 23.8719 L 306.035 23.2061 L 306.931 21.9621 L 306.595 21.7204 L 305.502 23.2385 L 306.846 24.5484 L 307.081 24.2211 L 307.06 23.8452 L 307.209 23.4922 L 307.442 23.2628 L 307.718 23.1566 L 308.01 23.1742 L 308.3 23.3149 L 308.525 23.5457 L 308.631 23.821 L 308.614 24.1129 L 308.473 24.4031 L 308.288 24.5994 L 308.073 24.6993 L 307.837 24.716 L 307.593 24.6329 L 307.319 25.0135 L 307.319 25.0135 z" stroke="none" fill-rule="evenodd" fill="rgb(255, 0, 128)"/></g><g stroke="rgb(255, 0, 128)" stroke-width="0.13" stroke-linecap="butt" stroke-linejoin="miter" fill="none"><path d="M 305.774 28.7195 L 306.048 28.3389 L 304.849 27.4752 L 305.129 27.0865 L 305.348 26.8088 L 305.535 26.6701 L 305.74 26.6691 L 306.011 26.8022 L 306.394 27.047 L 306.653 27.1964 L 306.832 27.2504 L 307.142 26.8208 L 307.064 26.7648 L 306.881 26.7763 L 306.645 26.6558 L 306.166 26.3543 L 305.776 26.1792 L 305.602 26.1966 L 305.418 26.2879 L 305.434 26.0506 L 305.373 25.8328 L 305.246 25.6295 L 305.047 25.4487 L 304.662 25.2583 L 304.286 25.2363 L 303.936 25.3943 L 303.618 25.7243 L 302.934 26.6736 L 305.774 28.7195 L 305.774 28.7195 z M 303.889 26.0813 L 304.093 25.8493 L 304.298 25.7294 L 304.521 25.7221 L 304.772 25.8474 L 304.98 26.0593 L 305.044 26.2729 L 304.982 26.5142 L 304.817 26.7868 L 304.501 27.2246 L 303.556 26.5436 L 303.889 26.0813 L 303.889 26.0813 z" stroke="none" fill-rule="evenodd" fill="rgb(255, 0, 128)"/><path d="M 300.64 38.3816 L 299.931 40.2516 L 301.48 38.9867"/><path d="M 297.008 44.3085 L 311.3 24.4696"/></g></svg>