<?xml version="1.0" encoding="utf-8" ?><!DOCTYPE svg PUBLIC "-//W3C//DTD SVG 1.1//EN" "http://www.w3.org/Graphics/SVG/1.1/DTD/svg11.dtd" 
[ <!ATTLIST svg 
  xmlns:dsy CDATA #FIXED "http://www.3ds.com/print"  
    dsy:text-version CDATA #IMPLIED > 

  <!ATTLIST text 
  xmlns:dsy CDATA #FIXED "http://www.3ds.com/print" 
    dsy:text-version CDATA #IMPLIED > 
]><svg xmlns="http://www.w3.org/2000/svg" xmlns:dsy="http://www.3ds.com/print" dsy:text-version="18000" width="594" height="420" viewBox="0 0 594 420" version="1.1"><g stroke="rgb(0, 0, 0)" stroke-width="0.35" stroke-linecap="butt" stroke-linejoin="miter" fill="none"><path d="M 406.808 380.691 L 406.808 355.691"/><path d="M 406.808 355.691 L 402.008 355.691"/><path d="M 402.008 355.691 L 402.008 380.691"/><path d="M 402.008 380.691 L 192.01 380.691"/><path d="M 192.01 380.691 L 192.01 355.691"/><path d="M 192.01 355.691 L 187.21 355.691"/><path d="M 187.21 355.691 L 187.21 380.691"/><path d="M 389.781 250.784 L 403.179 244.038"/><path d="M 391.131 253.464 L 389.781 250.784"/><path d="M 404.528 246.718 L 391.131 253.464"/><circle cx="446.989" cy="369.472" r="4.20001"/><circle cx="147.01" cy="370.691" r="4.20001"/><circle cx="297.008" cy="68.1915" r="6"/><circle cx="297.008" cy="148.191" r="4.20001"/><circle cx="377.811" cy="282.575" r="4.20001"/><path d="M 187.21 380.691 L 130.126 380.691"/><path d="M 125.661 373.443 A 5 5 0 0 0 130.126 380.691"/><path d="M 403.179 244.038 L 301.474 42.0598"/><path d="M 125.661 373.443 L 292.543 42.0596"/><path d="M 301.474 42.0598 A 5 5 0 0 0 292.543 42.0596"/><path d="M 463.874 380.691 L 406.808 380.691"/><path d="M 468.339 373.443 L 404.528 246.718"/><path d="M 463.874 380.691 A 5 5 0 0 0 468.339 373.443"/></g><g stroke="rgb(0, 0, 0)" stroke-width="0.13" stroke-linecap="butt" stroke-linejoin="miter" fill="none"><path d="M 292.043 354.212 L 294.448 354.212 L 294.448 353.778 L 292.547 353.778 L 292.653 353.541 L 292.835 353.345 L 293.394 352.987 L 293.692 352.835 L 294.025 352.618 L 294.262 352.366 L 294.398 352.069 L 294.448 351.731 L 294.363 351.307 L 294.126 350.974 L 293.762 350.763 L 293.293 350.687 L 292.809 350.773 L 292.441 351.01 L 292.204 351.388 L 292.123 351.887 L 292.123 351.958 L 292.582 351.958 L 292.582 351.917 L 292.628 351.575 L 292.764 351.322 L 292.981 351.161 L 293.268 351.105 L 293.561 351.156 L 293.778 351.282 L 293.919 351.479 L 293.969 351.726 L 293.934 351.958 L 293.838 352.154 L 293.677 352.326 L 293.455 352.477 L 293.157 352.639 L 292.663 352.951 L 292.315 353.284 L 292.108 353.688 L 292.043 354.197 L 292.043 354.212 L 292.043 354.212 z M 296.919 354.212 L 297.377 354.212 L 297.377 350.687 L 297.035 350.687 L 296.944 350.995 L 296.762 351.201 L 296.485 351.322 L 296.102 351.363 L 296.102 351.721 L 296.919 351.721 L 296.919 354.212 L 296.919 354.212 z M 299.53 352.502 L 299.606 353.294 L 299.843 353.859 L 300.221 354.202 L 300.745 354.313 L 301.265 354.202 L 301.643 353.859 L 301.875 353.294 L 301.956 352.502 L 301.875 351.716 L 301.779 351.403 L 301.643 351.146 L 301.265 350.803 L 300.745 350.687 L 300.221 350.803 L 299.843 351.151 L 299.606 351.716 L 299.53 352.502 L 299.53 352.502 z M 300.014 352.502 L 300.054 351.892 L 300.18 351.453 L 300.407 351.196 L 300.745 351.105 L 301.078 351.196 L 301.305 351.453 L 301.431 351.892 L 301.472 352.502 L 301.431 353.118 L 301.305 353.556 L 301.078 353.814 L 300.745 353.899 L 300.407 353.814 L 300.18 353.556 L 300.054 353.118 L 300.014 352.502 L 300.014 352.502 z" stroke="none" fill-rule="evenodd" fill="rgb(0, 0, 0)"/><path d="M 193.942 355.694 L 192.01 356.212 L 193.942 356.73"/><path d="M 400.077 356.73 L 402.008 356.212 L 400.077 355.694"/><path d="M 192.01 356.212 L 402.008 356.212"/></g></svg>