<?xml version="1.0" encoding="utf-8" ?><!DOCTYPE svg PUBLIC "-//W3C//DTD SVG 1.1//EN" "http://www.w3.org/Graphics/SVG/1.1/DTD/svg11.dtd" 
[ <!ATTLIST svg 
  xmlns:dsy CDATA #FIXED "http://www.3ds.com/print"  
    dsy:text-version CDATA #IMPLIED > 

  <!ATTLIST text 
  xmlns:dsy CDATA #FIXED "http://www.3ds.com/print" 
    dsy:text-version CDATA #IMPLIED > 
]><svg xmlns="http://www.w3.org/2000/svg" xmlns:dsy="http://www.3ds.com/print" dsy:text-version="18000" width="594" height="420" viewBox="0 0 594 420" version="1.1"><g stroke="rgb(255, 0, 128)" stroke-width="0.13" stroke-linecap="butt" stroke-linejoin="miter" fill="none"><path d="M 287.788 44.3083 L 318.58 44.3083"/></g><g stroke="rgb(0, 0, 0)" stroke-width="0.35" stroke-linecap="butt" stroke-linejoin="miter" fill="none"><path d="M 174.788 380.692 L 174.788 355.692"/><path d="M 174.788 355.692 L 180.788 355.692"/><path d="M 180.788 355.692 L 180.788 380.692"/><path d="M 180.788 380.692 L 390.787 380.692"/><path d="M 390.787 380.692 L 390.787 355.692"/><path d="M 390.787 355.692 L 396.787 355.692"/><path d="M 396.787 355.692 L 396.787 380.692"/><path d="M 193.002 250.788 L 179.605 244.042"/><path d="M 191.652 253.468 L 193.002 250.788"/><path d="M 178.255 246.721 L 191.652 253.468"/><path d="M 136.329 329.974 L 178.255 246.721"/><path d="M 136.329 329.974 L 155.899 380.692"/><path d="M 155.899 380.692 L 174.788 380.692"/><circle cx="435.787" cy="370.692" r="4.20001"/><circle cx="285.788" cy="68.1917" r="6"/><circle cx="285.788" cy="148.192" r="4.20001"/><circle cx="204.985" cy="282.575" r="4.20001"/><path d="M 433.906 356.117 L 433.434 356.999"/><path d="M 449.889 364.69 L 433.906 356.117"/><path d="M 449.417 365.571 L 449.889 364.69"/><path d="M 433.434 356.999 L 449.417 365.571"/><path d="M 396.787 380.692 L 452.671 380.692"/><path d="M 452.671 380.692 A 5 5 0 0 0 457.136 373.443"/><path d="M 179.605 244.042 L 281.322 42.0594"/><path d="M 457.136 373.443 L 290.254 42.0594"/><path d="M 290.254 42.0594 A 5 5 0 0 0 281.322 42.0594"/></g><g stroke="rgb(255, 0, 128)" stroke-width="0.13" stroke-linecap="butt" stroke-linejoin="miter" fill="none"><path d="M 292.641 31.4202 L 293.031 31.5977 L 293.437 31.6124 L 293.824 31.4606 L 294.177 31.1508 L 294.431 30.7 L 294.494 30.2354 L 294.351 29.7906 L 294.023 29.3958 L 293.606 29.1636 L 293.168 29.1161 L 292.745 29.2571 L 292.367 29.58 L 292.174 29.9102 L 292.116 30.2418 L 291.478 29.5328 L 292.454 28.35 L 292.134 28.0869 L 290.944 29.5304 L 292.199 30.9252 L 292.456 30.614 L 292.459 30.2375 L 292.631 29.895 L 292.879 29.6813 L 293.161 29.5933 L 293.451 29.6299 L 293.731 29.7893 L 293.941 30.0342 L 294.029 30.3159 L 293.992 30.6061 L 293.833 30.8865 L 293.636 31.0703 L 293.415 31.156 L 293.178 31.1572 L 292.939 31.0583 L 292.641 31.4202 L 292.641 31.4202 z" stroke="none" fill-rule="evenodd" fill="rgb(255, 0, 128)"/></g><g stroke="rgb(255, 0, 128)" stroke-width="0.13" stroke-linecap="butt" stroke-linejoin="miter" fill="none"><path d="M 290.858 35.0174 L 291.156 34.6556 L 290.016 33.7155 L 290.321 33.3458 L 290.557 33.0831 L 290.753 32.9568 L 290.958 32.9693 L 291.22 33.1197 L 291.586 33.3891 L 291.835 33.555 L 292.01 33.6206 L 292.346 33.2121 L 292.272 33.1512 L 292.09 33.1508 L 291.862 33.015 L 291.404 32.6829 L 291.026 32.4827 L 290.851 32.4888 L 290.662 32.5679 L 290.693 32.3321 L 290.646 32.1108 L 290.533 31.8996 L 290.346 31.7062 L 289.974 31.4911 L 289.601 31.4446 L 289.241 31.5795 L 288.902 31.8879 L 288.157 32.7906 L 290.858 35.0174 L 290.858 35.0174 z M 289.149 32.2618 L 289.368 32.0437 L 289.58 31.9374 L 289.803 31.9446 L 290.046 32.0861 L 290.239 32.3111 L 290.289 32.5285 L 290.211 32.7652 L 290.029 33.0264 L 289.685 33.4427 L 288.786 32.7015 L 289.149 32.2618 L 289.149 32.2618 z" stroke="none" fill-rule="evenodd" fill="rgb(255, 0, 128)"/><path d="M 289.799 38.6311 L 288.969 40.4508 L 290.598 39.2898"/><path d="M 285.788 44.3083 L 298.513 28.8785"/></g><g stroke="rgb(255, 0, 128)" stroke-width="0.13" stroke-linecap="butt" stroke-linejoin="miter" fill="none"><path d="M 313.48 223.111 L 313.516 223.111 L 314 223.03 L 314.363 222.793 L 314.595 222.42 L 314.681 221.926 L 314.595 221.401 L 314.373 221.008 L 314.02 220.756 L 313.566 220.665 L 313.269 220.705 L 313.027 220.816 L 312.84 220.998 L 312.704 221.24 L 312.431 220.912 L 311.998 220.796 L 311.604 220.872 L 311.307 221.089 L 311.12 221.442 L 311.055 221.926 L 311.135 222.38 L 311.357 222.728 L 311.71 222.955 L 312.179 223.03 L 312.215 223.03 L 312.215 222.581 L 311.892 222.541 L 311.66 222.41 L 311.519 222.198 L 311.468 221.901 L 311.509 221.638 L 311.614 221.447 L 311.786 221.331 L 312.018 221.285 L 312.265 221.331 L 312.431 221.452 L 312.532 221.664 L 312.563 221.951 L 312.558 222.148 L 312.956 222.148 L 312.946 221.901 L 312.991 221.583 L 313.112 221.346 L 313.309 221.205 L 313.566 221.154 L 313.859 221.21 L 314.076 221.356 L 314.212 221.588 L 314.257 221.896 L 314.207 222.213 L 314.055 222.445 L 313.813 222.592 L 313.48 222.647 L 313.48 223.111 L 313.48 223.111 z M 313.48 219.375 L 313.516 219.375 L 314 219.294 L 314.363 219.057 L 314.595 218.684 L 314.681 218.19 L 314.595 217.665 L 314.373 217.272 L 314.02 217.02 L 313.566 216.929 L 313.269 216.969 L 313.027 217.08 L 312.84 217.262 L 312.704 217.504 L 312.431 217.176 L 311.998 217.06 L 311.604 217.136 L 311.307 217.353 L 311.12 217.706 L 311.055 218.19 L 311.135 218.644 L 311.357 218.992 L 311.71 219.219 L 312.179 219.294 L 312.215 219.294 L 312.215 218.845 L 311.892 218.805 L 311.66 218.674 L 311.519 218.462 L 311.468 218.165 L 311.509 217.902 L 311.614 217.711 L 311.786 217.595 L 312.018 217.549 L 312.265 217.595 L 312.431 217.716 L 312.532 217.928 L 312.563 218.215 L 312.558 218.412 L 312.956 218.412 L 312.946 218.165 L 312.991 217.847 L 313.112 217.61 L 313.309 217.469 L 313.566 217.418 L 313.859 217.474 L 314.076 217.62 L 314.212 217.852 L 314.257 218.16 L 314.207 218.477 L 314.055 218.709 L 313.813 218.855 L 313.48 218.911 L 313.48 219.375 L 313.48 219.375 z M 312.023 213.158 L 311.614 213.253 L 311.312 213.475 L 311.12 213.818 L 311.055 214.262 L 311.09 214.56 L 311.186 214.817 L 311.342 215.044 L 311.564 215.235 L 311.841 215.387 L 312.179 215.498 L 312.578 215.568 L 313.027 215.588 L 313.743 215.508 L 314.262 215.261 L 314.575 214.862 L 314.681 214.318 L 314.59 213.828 L 314.353 213.455 L 313.98 213.213 L 313.506 213.127 L 313.027 213.213 L 312.658 213.445 L 312.426 213.803 L 312.346 214.247 L 312.447 214.726 L 312.734 215.084 L 312.179 215.008 L 311.781 214.847 L 311.544 214.6 L 311.463 214.257 L 311.504 214.005 L 311.609 213.813 L 311.786 213.687 L 312.023 213.622 L 312.023 213.158 L 312.023 213.158 z M 313.511 213.617 L 313.828 213.672 L 314.071 213.813 L 314.232 214.04 L 314.282 214.323 L 314.232 214.62 L 314.076 214.847 L 313.833 214.993 L 313.516 215.039 L 313.203 214.988 L 312.966 214.847 L 312.815 214.615 L 312.759 214.302 L 312.815 214.03 L 312.961 213.813 L 313.198 213.672 L 313.511 213.617 L 313.511 213.617 z M 314.58 210.98 L 314.58 210.284 L 313.828 210.284 L 313.828 210.98 L 314.58 210.98 L 314.58 210.98 z M 313.48 208.167 L 313.516 208.167 L 314 208.086 L 314.363 207.849 L 314.595 207.476 L 314.681 206.982 L 314.595 206.457 L 314.373 206.064 L 314.02 205.812 L 313.566 205.721 L 313.269 205.761 L 313.027 205.872 L 312.84 206.054 L 312.704 206.296 L 312.431 205.968 L 311.998 205.852 L 311.604 205.928 L 311.307 206.144 L 311.12 206.498 L 311.055 206.982 L 311.135 207.436 L 311.357 207.784 L 311.71 208.01 L 312.179 208.086 L 312.215 208.086 L 312.215 207.637 L 311.892 207.597 L 311.66 207.466 L 311.519 207.254 L 311.468 206.956 L 311.509 206.694 L 311.614 206.503 L 311.786 206.387 L 312.018 206.341 L 312.265 206.387 L 312.431 206.508 L 312.532 206.719 L 312.563 207.007 L 312.558 207.204 L 312.956 207.204 L 312.946 206.956 L 312.991 206.639 L 313.112 206.402 L 313.309 206.26 L 313.566 206.21 L 313.859 206.266 L 314.076 206.412 L 314.212 206.644 L 314.257 206.951 L 314.207 207.269 L 314.055 207.501 L 313.813 207.647 L 313.48 207.703 L 313.48 208.167 L 313.48 208.167 z M 312.694 203.785 L 312.835 204.042 L 313.032 204.219 L 313.279 204.33 L 313.576 204.365 L 314.025 204.285 L 314.373 204.053 L 314.595 203.674 L 314.681 203.16 L 314.595 202.651 L 314.373 202.272 L 314.025 202.04 L 313.576 201.955 L 313.279 201.995 L 313.032 202.101 L 312.835 202.282 L 312.694 202.535 L 312.573 202.333 L 312.406 202.192 L 312.205 202.106 L 311.957 202.076 L 311.599 202.156 L 311.312 202.368 L 311.125 202.711 L 311.055 203.16 L 311.125 203.614 L 311.312 203.957 L 311.599 204.174 L 311.957 204.249 L 312.205 204.224 L 312.406 204.138 L 312.694 203.785 L 312.694 203.785 z M 313.566 203.881 L 313.299 203.836 L 313.097 203.689 L 312.966 203.462 L 312.921 203.16 L 312.966 202.862 L 313.097 202.635 L 313.299 202.489 L 313.566 202.439 L 313.854 202.489 L 314.071 202.635 L 314.212 202.862 L 314.257 203.16 L 314.212 203.462 L 314.071 203.689 L 313.854 203.836 L 313.566 203.881 L 313.566 203.881 z M 311.998 203.77 L 311.776 203.73 L 311.604 203.609 L 311.498 203.417 L 311.458 203.16 L 311.498 202.908 L 311.604 202.716 L 311.776 202.595 L 311.998 202.55 L 312.225 202.595 L 312.401 202.716 L 312.517 202.908 L 312.553 203.16 L 312.512 203.417 L 312.401 203.609 L 312.225 203.73 L 311.998 203.77 L 311.998 203.77 z" stroke="none" fill-rule="evenodd" fill="rgb(255, 0, 128)"/><path d="M 316.062 378.76 L 316.58 380.692 L 317.098 378.76"/><path d="M 317.098 46.2401 L 316.58 44.3083 L 316.062 46.2401"/><path d="M 316.58 380.692 L 316.58 44.3083"/></g></svg>