<?xml version="1.0" encoding="utf-8" ?><!DOCTYPE svg PUBLIC "-//W3C//DTD SVG 1.1//EN" "http://www.w3.org/Graphics/SVG/1.1/DTD/svg11.dtd" 
[ <!ATTLIST svg 
  xmlns:dsy CDATA #FIXED "http://www.3ds.com/print"  
    dsy:text-version CDATA #IMPLIED > 

  <!ATTLIST text 
  xmlns:dsy CDATA #FIXED "http://www.3ds.com/print" 
    dsy:text-version CDATA #IMPLIED > 
]><svg xmlns="http://www.w3.org/2000/svg" xmlns:dsy="http://www.3ds.com/print" dsy:text-version="18000" width="594" height="420" viewBox="0 0 594 420" version="1.1"><g stroke="rgb(0, 0, 0)" stroke-width="0.13" stroke-linecap="butt" stroke-linejoin="miter" fill="none"><path d="M 415.503 380.985 L 499.894 380.985"/><path d="M 298.856 44.0148 L 499.894 44.0148"/><path d="M 292.381 41.7845 A 5 5 0 0 0 291.866 43.7032"/><path d="M 300.109 47.8117 A 5 5 0 0 0 301.834 43.5399"/></g><g stroke="rgb(0, 0, 0)" stroke-width="0.35" stroke-linecap="butt" stroke-linejoin="miter" fill="none"><path d="M 419.503 380.985 L 419.503 355.985"/><path d="M 419.503 355.985 L 413.503 355.985"/><path d="M 413.503 355.985 L 413.503 380.985"/><path d="M 413.503 380.985 L 180.504 380.985"/><path d="M 180.504 380.985 L 180.504 355.985"/><path d="M 180.504 355.985 L 174.504 355.985"/><path d="M 174.504 355.985 L 174.504 380.985"/><path d="M 398.606 253.487 L 411.805 246.36"/><path d="M 400.032 256.127 L 398.606 253.487"/><path d="M 413.23 248.999 L 400.032 256.127"/><circle cx="459.503" cy="370.185" r="4.20001"/><circle cx="134.504" cy="370.985" r="4.20001"/><circle cx="296.853" cy="68.4852" r="6"/><circle cx="296.853" cy="148.485" r="4.20001"/><circle cx="417.014" cy="298.098" r="4.20001"/><path d="M 125.122 363.557 L 125.919 364.161"/><path d="M 119.203 371.353 L 125.122 363.557"/><path d="M 120 371.958 L 119.203 371.353"/><path d="M 125.919 364.161 L 120 371.958"/><path d="M 449.914 377.736 L 448.089 370.676"/><path d="M 448.089 370.676 L 447.121 370.927"/><path d="M 447.121 370.927 L 448.946 377.986"/><path d="M 448.946 377.986 L 449.914 377.736"/><path d="M 469.571 366.155 L 470.471 365.718"/><path d="M 474.096 375.466 L 469.571 366.155"/><path d="M 474.995 375.029 L 474.096 375.466"/><path d="M 470.471 365.718 L 474.995 375.029"/><path d="M 174.504 380.985 L 117.88 380.985"/><path d="M 113.479 373.612 A 5 5 0 0 0 117.88 380.985"/><path d="M 411.805 246.36 L 301.256 41.639"/><path d="M 113.479 373.612 L 292.455 41.642"/><path d="M 301.256 41.6391 A 5 5 0 0 0 292.455 41.642"/><path d="M 476.12 380.985 L 419.503 380.985"/><path d="M 480.52 373.609 L 413.23 248.999"/><path d="M 476.12 380.985 A 5 5 0 0 0 480.52 373.609"/></g><g stroke="rgb(0, 0, 0)" stroke-width="0.13" stroke-linecap="butt" stroke-linejoin="miter" fill="none"><path d="M 299.396 389.337 L 298.518 392.317 L 297.615 389.337 L 297.136 389.337 L 298.266 392.842 L 298.77 392.842 L 299.875 389.337 L 299.396 389.337 L 299.396 389.337 z M 302.598 390.134 L 302.154 390.134 L 302.154 391.697 L 302.104 392.06 L 301.958 392.322 L 301.731 392.484 L 301.433 392.534 L 301.196 392.494 L 301.045 392.373 L 300.959 392.166 L 300.939 391.874 L 300.939 390.134 L 300.495 390.134 L 300.495 391.914 L 300.51 392.272 L 300.606 392.57 L 300.898 392.842 L 301.367 392.938 L 301.62 392.902 L 301.836 392.812 L 302.023 392.655 L 302.174 392.428 L 302.174 392.842 L 302.598 392.842 L 302.598 390.134 L 302.598 390.134 z M 303.934 391.616 L 305.71 391.616 L 305.715 391.41 L 305.634 390.83 L 305.412 390.396 L 305.059 390.134 L 304.59 390.038 L 304.131 390.139 L 303.778 390.421 L 303.551 390.88 L 303.47 391.485 L 303.546 392.106 L 303.773 392.559 L 304.121 392.842 L 304.575 392.938 L 304.968 392.872 L 305.291 392.701 L 305.528 392.428 L 305.664 392.065 L 305.226 392.065 L 305.135 392.267 L 305.004 392.418 L 304.63 392.539 L 304.343 392.484 L 304.126 392.307 L 303.985 392.02 L 303.934 391.631 L 303.934 391.616 L 303.934 391.616 z M 303.934 391.243 L 303.99 390.895 L 304.126 390.638 L 304.333 390.482 L 304.605 390.426 L 304.873 390.482 L 305.079 390.638 L 305.205 390.895 L 305.251 391.243 L 303.934 391.243 L 303.934 391.243 z M 311.283 392.423 L 311.283 392.842 L 311.726 392.842 L 311.726 389.221 L 311.288 389.221 L 311.288 390.547 L 310.95 390.164 L 310.743 390.073 L 310.506 390.038 L 310.077 390.139 L 309.744 390.421 L 309.527 390.875 L 309.452 391.485 L 309.527 392.095 L 309.744 392.554 L 310.077 392.842 L 310.506 392.938 L 310.743 392.902 L 310.955 392.812 L 311.283 392.423 L 311.283 392.423 z M 310.581 390.436 L 310.874 390.507 L 311.096 390.704 L 311.227 391.031 L 311.277 391.485 L 311.227 391.944 L 311.096 392.272 L 310.874 392.474 L 310.581 392.539 L 310.304 392.474 L 310.092 392.272 L 309.951 391.939 L 309.906 391.485 L 309.951 391.036 L 310.092 390.709 L 310.304 390.507 L 310.581 390.436 L 310.581 390.436 z M 313.043 391.616 L 314.818 391.616 L 314.823 391.41 L 314.742 390.83 L 314.52 390.396 L 314.167 390.134 L 313.698 390.038 L 313.239 390.139 L 312.886 390.421 L 312.659 390.88 L 312.579 391.485 L 312.654 392.106 L 312.881 392.559 L 313.229 392.842 L 313.683 392.938 L 314.076 392.872 L 314.399 392.701 L 314.636 392.428 L 314.772 392.065 L 314.334 392.065 L 314.243 392.267 L 314.112 392.418 L 313.739 392.539 L 313.451 392.484 L 313.234 392.307 L 313.093 392.02 L 313.043 391.631 L 313.043 391.616 L 313.043 391.616 z M 313.043 391.243 L 313.098 390.895 L 313.234 390.638 L 313.441 390.482 L 313.713 390.426 L 313.981 390.482 L 314.187 390.638 L 314.314 390.895 L 314.359 391.243 L 313.043 391.243 L 313.043 391.243 z M 319.342 390.603 L 319.342 392.842 L 319.785 392.842 L 319.785 390.603 L 320.794 390.603 L 320.794 390.224 L 319.785 390.224 L 319.785 390.058 L 319.821 389.856 L 319.937 389.72 L 320.133 389.639 L 320.416 389.609 L 320.794 389.629 L 320.794 389.246 L 320.315 389.221 L 319.881 389.266 L 319.579 389.402 L 319.397 389.639 L 319.342 389.977 L 319.342 390.224 L 318.53 390.224 L 318.53 390.603 L 319.342 390.603 L 319.342 390.603 z M 323.371 392.489 L 323.371 392.504 L 323.396 392.675 L 323.472 392.796 L 323.79 392.892 L 324.037 392.852 L 324.037 392.509 L 323.931 392.524 L 323.79 392.459 L 323.765 392.257 L 323.765 390.855 L 323.704 390.497 L 323.528 390.245 L 323.22 390.093 L 322.786 390.038 L 322.363 390.098 L 322.05 390.27 L 321.853 390.537 L 321.788 390.89 L 321.788 390.92 L 322.186 390.92 L 322.221 390.709 L 322.332 390.557 L 322.514 390.466 L 322.771 390.431 L 323.018 390.456 L 323.195 390.532 L 323.301 390.663 L 323.336 390.845 L 323.316 391.057 L 323.235 391.162 L 323.033 391.213 L 322.655 391.253 L 322.221 391.344 L 321.914 391.505 L 321.732 391.758 L 321.677 392.131 L 321.727 392.464 L 321.883 392.711 L 322.136 392.867 L 322.484 392.923 L 322.953 392.817 L 323.371 392.489 L 323.371 392.489 z M 323.321 391.894 L 323.26 392.156 L 323.099 392.358 L 322.857 392.489 L 322.559 392.534 L 322.368 392.509 L 322.231 392.428 L 322.146 392.287 L 322.12 392.09 L 322.141 391.914 L 322.221 391.788 L 322.544 391.647 L 322.953 391.586 L 323.321 391.465 L 323.321 391.894 L 323.321 391.894 z M 326.523 391.031 L 326.962 391.031 L 326.871 390.628 L 326.654 390.31 L 326.316 390.113 L 325.878 390.038 L 325.394 390.139 L 325.025 390.421 L 324.793 390.88 L 324.713 391.495 L 324.788 392.106 L 325.015 392.559 L 325.373 392.842 L 325.863 392.938 L 326.296 392.862 L 326.634 392.65 L 326.866 392.317 L 326.967 391.874 L 326.543 391.874 L 326.468 392.156 L 326.327 392.368 L 326.125 392.499 L 325.878 392.539 L 325.57 392.474 L 325.348 392.272 L 325.212 391.944 L 325.167 391.48 L 325.212 391.026 L 325.353 390.698 L 325.58 390.497 L 325.878 390.426 L 326.14 390.472 L 326.337 390.588 L 326.468 390.779 L 326.523 391.031 L 326.523 391.031 z M 328.223 391.616 L 329.998 391.616 L 330.003 391.41 L 329.922 390.83 L 329.7 390.396 L 329.347 390.134 L 328.878 390.038 L 328.419 390.139 L 328.066 390.421 L 327.84 390.88 L 327.759 391.485 L 327.834 392.106 L 328.061 392.559 L 328.409 392.842 L 328.863 392.938 L 329.257 392.872 L 329.579 392.701 L 329.816 392.428 L 329.953 392.065 L 329.514 392.065 L 329.423 392.267 L 329.292 392.418 L 328.919 392.539 L 328.631 392.484 L 328.414 392.307 L 328.273 392.02 L 328.223 391.631 L 328.223 391.616 L 328.223 391.616 z M 328.223 391.243 L 328.278 390.895 L 328.414 390.638 L 328.621 390.482 L 328.894 390.426 L 329.161 390.482 L 329.368 390.638 L 329.494 390.895 L 329.539 391.243 L 328.223 391.243 L 328.223 391.243 z" stroke="none" fill-rule="evenodd" fill="rgb(0, 0, 0)"/></g><g stroke="rgb(0, 0, 0)" stroke-width="0.13" stroke-linecap="butt" stroke-linejoin="miter" fill="none"><path d="M 297.459 398.889 L 299.678 398.889 L 299.678 398.465 L 297.923 398.465 L 297.923 397.28 L 299.486 397.28 L 299.486 396.861 L 297.923 396.861 L 297.923 395.812 L 299.638 395.812 L 299.638 395.389 L 297.459 395.389 L 297.459 398.889 L 297.459 398.889 z M 302.235 397.078 L 302.674 397.078 L 302.583 396.675 L 302.366 396.357 L 302.028 396.16 L 301.589 396.085 L 301.105 396.185 L 300.737 396.468 L 300.505 396.927 L 300.424 397.542 L 300.5 398.152 L 300.727 398.606 L 301.085 398.889 L 301.574 398.984 L 302.008 398.909 L 302.346 398.697 L 302.578 398.364 L 302.679 397.92 L 302.255 397.92 L 302.179 398.203 L 302.038 398.415 L 301.836 398.546 L 301.589 398.586 L 301.282 398.521 L 301.06 398.319 L 300.924 397.991 L 300.878 397.527 L 300.924 397.073 L 301.065 396.745 L 301.292 396.544 L 301.589 396.473 L 301.852 396.518 L 302.048 396.634 L 302.179 396.826 L 302.235 397.078 L 302.235 397.078 z M 303.546 398.889 L 303.99 398.889 L 303.99 397.325 L 304.035 396.967 L 304.182 396.705 L 304.409 396.544 L 304.711 396.483 L 304.953 396.533 L 305.105 396.67 L 305.18 396.897 L 305.205 397.199 L 305.205 398.889 L 305.649 398.889 L 305.649 397.108 L 305.629 396.75 L 305.538 396.453 L 305.241 396.18 L 304.777 396.085 L 304.525 396.12 L 304.308 396.216 L 304.126 396.367 L 303.99 396.574 L 303.99 395.268 L 303.546 395.268 L 303.546 398.889 L 303.546 398.889 z M 306.971 397.663 L 308.746 397.663 L 308.751 397.456 L 308.67 396.876 L 308.448 396.443 L 308.095 396.18 L 307.626 396.085 L 307.167 396.185 L 306.814 396.468 L 306.587 396.927 L 306.507 397.532 L 306.582 398.152 L 306.809 398.606 L 307.157 398.889 L 307.611 398.984 L 308.004 398.919 L 308.327 398.747 L 308.564 398.475 L 308.7 398.112 L 308.262 398.112 L 308.171 398.314 L 308.04 398.465 L 307.666 398.586 L 307.379 398.531 L 307.162 398.354 L 307.021 398.067 L 306.971 397.678 L 306.971 397.663 L 306.971 397.663 z M 306.971 397.29 L 307.026 396.942 L 307.162 396.685 L 307.369 396.528 L 307.641 396.473 L 307.909 396.528 L 308.115 396.685 L 308.241 396.942 L 308.287 397.29 L 306.971 397.29 L 306.971 397.29 z M 310.501 395.641 L 310.501 398.515 L 309.588 398.515 L 309.588 398.889 L 311.852 398.889 L 311.852 398.515 L 310.945 398.515 L 310.945 395.268 L 309.805 395.268 L 309.805 395.641 L 310.501 395.641 L 310.501 395.641 z M 313.537 395.641 L 313.537 398.515 L 312.624 398.515 L 312.624 398.889 L 314.888 398.889 L 314.888 398.515 L 313.981 398.515 L 313.981 395.268 L 312.841 395.268 L 312.841 395.641 L 313.537 395.641 L 313.537 395.641 z M 316.079 397.663 L 317.854 397.663 L 317.859 397.456 L 317.778 396.876 L 317.556 396.443 L 317.203 396.18 L 316.734 396.085 L 316.275 396.185 L 315.922 396.468 L 315.695 396.927 L 315.615 397.532 L 315.69 398.152 L 315.917 398.606 L 316.265 398.889 L 316.719 398.984 L 317.113 398.919 L 317.435 398.747 L 317.672 398.475 L 317.808 398.112 L 317.37 398.112 L 317.279 398.314 L 317.148 398.465 L 316.775 398.586 L 316.487 398.531 L 316.27 398.354 L 316.129 398.067 L 316.079 397.678 L 316.079 397.663 L 316.079 397.663 z M 316.079 397.29 L 316.134 396.942 L 316.27 396.685 L 316.477 396.528 L 316.749 396.473 L 317.017 396.528 L 317.223 396.685 L 317.35 396.942 L 317.395 397.29 L 316.079 397.29 L 316.079 397.29 z M 322.458 398.889 L 323.154 398.889 L 323.154 398.137 L 322.458 398.137 L 322.458 398.889 L 322.458 398.889 z M 322.458 396.932 L 323.154 396.932 L 323.154 396.18 L 322.458 396.18 L 322.458 396.932 L 322.458 396.932 z" stroke="none" fill-rule="evenodd" fill="rgb(0, 0, 0)"/></g><g stroke="rgb(0, 0, 0)" stroke-width="0.13" stroke-linecap="butt" stroke-linejoin="miter" fill="none"><path d="M 331.824 398.889 L 332.282 398.889 L 332.282 395.363 L 331.94 395.363 L 331.849 395.671 L 331.667 395.878 L 331.39 395.999 L 331.007 396.039 L 331.007 396.397 L 331.824 396.397 L 331.824 398.889 L 331.824 398.889 z M 334.602 398.889 L 335.298 398.889 L 335.298 398.137 L 334.602 398.137 L 334.602 398.889 L 334.602 398.889 z M 334.602 396.932 L 335.298 396.932 L 335.298 396.18 L 334.602 396.18 L 334.602 396.932 L 334.602 396.932 z M 337.896 398.889 L 338.355 398.889 L 338.355 395.363 L 338.012 395.363 L 337.921 395.671 L 337.739 395.878 L 337.462 395.999 L 337.079 396.039 L 337.079 396.397 L 337.896 396.397 L 337.896 398.889 L 337.896 398.889 z" stroke="none" fill-rule="evenodd" fill="rgb(0, 0, 0)"/></g><g stroke="rgb(0, 0, 0)" stroke-width="0.13" stroke-linecap="butt" stroke-linejoin="miter" fill="none"><path d="M 494.794 223.111 L 494.83 223.111 L 495.314 223.03 L 495.677 222.793 L 495.909 222.42 L 495.995 221.926 L 495.909 221.401 L 495.687 221.008 L 495.334 220.756 L 494.88 220.665 L 494.582 220.705 L 494.34 220.816 L 494.154 220.998 L 494.018 221.24 L 493.745 220.912 L 493.312 220.796 L 492.918 220.872 L 492.621 221.089 L 492.434 221.442 L 492.368 221.926 L 492.449 222.38 L 492.671 222.728 L 493.024 222.955 L 493.493 223.03 L 493.528 223.03 L 493.528 222.581 L 493.206 222.541 L 492.974 222.41 L 492.832 222.198 L 492.782 221.901 L 492.822 221.638 L 492.928 221.447 L 493.1 221.331 L 493.332 221.285 L 493.579 221.331 L 493.745 221.452 L 493.846 221.664 L 493.876 221.951 L 493.871 222.148 L 494.27 222.148 L 494.26 221.901 L 494.305 221.583 L 494.426 221.346 L 494.623 221.205 L 494.88 221.154 L 495.173 221.21 L 495.389 221.356 L 495.526 221.588 L 495.571 221.896 L 495.521 222.213 L 495.369 222.445 L 495.127 222.592 L 494.794 222.647 L 494.794 223.111 L 494.794 223.111 z M 494.794 219.375 L 494.83 219.375 L 495.314 219.294 L 495.677 219.057 L 495.909 218.684 L 495.995 218.19 L 495.909 217.665 L 495.687 217.272 L 495.334 217.02 L 494.88 216.929 L 494.582 216.969 L 494.34 217.08 L 494.154 217.262 L 494.018 217.504 L 493.745 217.176 L 493.312 217.06 L 492.918 217.136 L 492.621 217.353 L 492.434 217.706 L 492.368 218.19 L 492.449 218.644 L 492.671 218.992 L 493.024 219.219 L 493.493 219.294 L 493.528 219.294 L 493.528 218.845 L 493.206 218.805 L 492.974 218.674 L 492.832 218.462 L 492.782 218.165 L 492.822 217.902 L 492.928 217.711 L 493.1 217.595 L 493.332 217.549 L 493.579 217.595 L 493.745 217.716 L 493.846 217.928 L 493.876 218.215 L 493.871 218.412 L 494.27 218.412 L 494.26 218.165 L 494.305 217.847 L 494.426 217.61 L 494.623 217.469 L 494.88 217.418 L 495.173 217.474 L 495.389 217.62 L 495.526 217.852 L 495.571 218.16 L 495.521 218.477 L 495.369 218.709 L 495.127 218.855 L 494.794 218.911 L 494.794 219.375 L 494.794 219.375 z M 493.337 213.158 L 492.928 213.253 L 492.626 213.475 L 492.434 213.818 L 492.368 214.262 L 492.404 214.56 L 492.5 214.817 L 492.656 215.044 L 492.878 215.235 L 493.155 215.387 L 493.493 215.498 L 493.892 215.568 L 494.34 215.588 L 495.057 215.508 L 495.576 215.261 L 495.889 214.862 L 495.995 214.318 L 495.904 213.828 L 495.667 213.455 L 495.294 213.213 L 494.82 213.127 L 494.34 213.213 L 493.972 213.445 L 493.74 213.803 L 493.66 214.247 L 493.76 214.726 L 494.048 215.084 L 493.493 215.008 L 493.095 214.847 L 492.858 214.6 L 492.777 214.257 L 492.817 214.005 L 492.923 213.813 L 493.1 213.687 L 493.337 213.622 L 493.337 213.158 L 493.337 213.158 z M 494.825 213.617 L 495.142 213.672 L 495.384 213.813 L 495.546 214.04 L 495.596 214.323 L 495.546 214.62 L 495.389 214.847 L 495.147 214.993 L 494.83 215.039 L 494.517 214.988 L 494.28 214.847 L 494.129 214.615 L 494.073 214.302 L 494.129 214.03 L 494.275 213.813 L 494.512 213.672 L 494.825 213.617 L 494.825 213.617 z M 495.894 210.98 L 495.894 210.284 L 495.142 210.284 L 495.142 210.98 L 495.894 210.98 L 495.894 210.98 z M 495.026 208.106 L 495.425 208.031 L 495.732 207.814 L 495.924 207.471 L 495.995 207.017 L 495.959 206.719 L 495.869 206.452 L 495.712 206.225 L 495.49 206.034 L 495.213 205.882 L 494.87 205.771 L 494.477 205.706 L 494.023 205.681 L 493.312 205.766 L 492.792 206.013 L 492.479 206.407 L 492.368 206.946 L 492.459 207.441 L 492.701 207.814 L 493.075 208.056 L 493.544 208.137 L 494.028 208.056 L 494.396 207.819 L 494.628 207.466 L 494.704 207.017 L 494.608 206.543 L 494.315 206.185 L 494.875 206.266 L 495.273 206.427 L 495.51 206.674 L 495.586 207.012 L 495.551 207.274 L 495.44 207.466 L 495.263 207.592 L 495.026 207.642 L 495.026 208.106 L 495.026 208.106 z M 493.539 207.647 L 493.226 207.597 L 492.979 207.456 L 492.822 207.234 L 492.767 206.946 L 492.822 206.649 L 492.979 206.422 L 493.221 206.281 L 493.534 206.225 L 493.851 206.281 L 494.088 206.422 L 494.234 206.654 L 494.285 206.961 L 494.234 207.239 L 494.088 207.456 L 493.856 207.597 L 493.539 207.647 L 493.539 207.647 z M 495.894 203.861 L 495.894 203.352 L 495.062 203.185 L 494.285 202.893 L 493.564 202.479 L 492.888 201.939 L 492.469 201.939 L 492.469 204.34 L 492.928 204.34 L 492.928 202.424 L 493.609 202.978 L 494.32 203.397 L 495.077 203.689 L 495.894 203.861 L 495.894 203.861 z" stroke="none" fill-rule="evenodd" fill="rgb(0, 0, 0)"/><path d="M 497.376 379.053 L 497.894 380.985 L 498.411 379.053"/><path d="M 498.411 45.9466 L 497.894 44.0148 L 497.376 45.9466"/><path d="M 497.894 380.985 L 497.894 44.0148"/></g><g stroke="rgb(0, 0, 0)" stroke-width="0.13" stroke-linecap="butt" stroke-linejoin="miter" fill="none"><path d="M 329.23 57.9151 L 329.641 58.1198 L 331.213 54.9648 L 330.906 54.8118 L 330.688 55.0466 L 330.433 55.1507 L 330.131 55.1353 L 329.77 55.0004 L 329.61 55.3209 L 330.341 55.6854 L 329.23 57.9151 L 329.23 57.9151 z M 332.33 57.5498 L 332.044 58.2922 L 332.004 58.9035 L 332.19 59.3792 L 332.61 59.7124 L 333.124 59.8448 L 333.616 59.7066 L 334.075 59.3046 L 334.501 58.6319 L 334.779 57.8918 L 334.833 57.5692 L 334.826 57.2783 L 334.641 56.8026 L 334.227 56.4671 L 333.706 56.3369 L 333.212 56.4796 L 332.748 56.8795 L 332.33 57.5498 L 332.33 57.5498 z M 332.763 57.7658 L 333.071 57.2376 L 333.38 56.9012 L 333.698 56.7722 L 334.041 56.8417 L 334.298 57.0714 L 334.386 57.4029 L 334.304 57.8518 L 334.067 58.416 L 333.757 58.9486 L 333.448 59.2851 L 333.13 59.414 L 332.794 59.3423 L 332.53 59.1148 L 332.442 58.7834 L 332.525 58.3345 L 332.763 57.7658 L 332.763 57.7658 z" stroke="none" fill-rule="evenodd" fill="rgb(0, 0, 0)"/></g><g stroke="rgb(0, 0, 0)" stroke-width="0.13" stroke-linecap="butt" stroke-linejoin="miter" fill="none"><path d="M 325.596 56.1039 L 327.783 53.2836"/><path d="M 327.838 55.2662 L 327.89 55.1618 M 327.89 55.1618 L 327.942 54.9269 M 327.942 54.9269 L 327.968 54.7443 M 327.968 54.7443 L 327.968 54.6138 M 327.968 54.6138 L 327.941 54.4052 M 327.941 54.4052 L 327.863 54.1705 M 327.863 54.1705 L 327.758 53.988 M 327.758 53.988 L 327.68 53.8838 M 327.68 53.8838 L 327.549 53.7535 M 327.549 53.7535 L 327.366 53.5972 M 327.366 53.5972 L 327.262 53.5452 M 327.262 53.5452 L 327.158 53.4931 M 327.158 53.4931 L 326.923 53.4412 M 326.923 53.4412 L 326.74 53.4154 M 326.74 53.4154 L 326.61 53.4156 M 326.61 53.4156 L 326.401 53.4419 M 326.401 53.4419 L 326.166 53.5205 M 326.166 53.5205 L 325.984 53.6251 M 325.984 53.6251 L 325.88 53.7035 M 325.88 53.7035 L 325.749 53.834 M 325.749 53.834 L 325.593 54.0169 M 325.593 54.0169 L 325.541 54.1213 M 325.541 54.1213 L 325.489 54.2257 M 325.489 54.2257 L 325.437 54.4605 M 325.437 54.4605 L 325.411 54.6432 M 325.411 54.6432 L 325.411 54.7736 M 325.411 54.7736 L 325.438 54.9823 M 325.438 54.9823 L 325.516 55.217 M 325.516 55.217 L 325.621 55.3995 M 325.621 55.3995 L 325.699 55.5037 M 325.699 55.5037 L 325.83 55.634 M 325.83 55.634 L 326.013 55.7903 M 326.013 55.7903 L 326.117 55.8423 M 326.117 55.8423 L 326.221 55.8943 M 326.221 55.8943 L 326.456 55.9462 M 326.456 55.9462 L 326.639 55.9721 M 326.639 55.9721 L 326.769 55.9719 M 326.769 55.9719 L 326.978 55.9456 M 326.978 55.9456 L 327.213 55.867 M 327.213 55.867 L 327.395 55.7624 M 327.395 55.7624 L 327.499 55.684 M 327.499 55.684 L 327.63 55.5534 M 327.63 55.5534 L 327.786 55.3706 M 327.786 55.3706 L 327.838 55.2662"/><path d="M 294.341 42.1829 L 292.381 41.7845 L 293.879 43.1095"/><path d="M 299.371 45.8467 L 301.331 46.2451 L 299.833 44.9201"/><path d="M 292.381 41.7845 L 333.121 62.0893"/></g></svg>