<?xml version="1.0" encoding="utf-8" ?><!DOCTYPE svg PUBLIC "-//W3C//DTD SVG 1.1//EN" "http://www.w3.org/Graphics/SVG/1.1/DTD/svg11.dtd" 
[ <!ATTLIST svg 
  xmlns:dsy CDATA #FIXED "http://www.3ds.com/print"  
    dsy:text-version CDATA #IMPLIED > 

  <!ATTLIST text 
  xmlns:dsy CDATA #FIXED "http://www.3ds.com/print" 
    dsy:text-version CDATA #IMPLIED > 
]><svg xmlns="http://www.w3.org/2000/svg" xmlns:dsy="http://www.3ds.com/print" dsy:text-version="18000" width="297" height="210" viewBox="0 0 297 210" version="1.1"><g stroke="rgb(0, 0, 0)" stroke-width="0.13" stroke-linecap="butt" stroke-linejoin="miter" fill="none"><path d="M 208.929 156.551 L 140.72 156.551"/></g><g stroke="rgb(0, 0, 0)" stroke-width="0.35" stroke-linecap="butt" stroke-linejoin="miter" fill="none"><path d="M 210.929 156.551 L 243.688 156.551"/><path d="M 78.3121 93.8369 L 78.3121 83.8369"/><path d="M 78.3121 83.8369 L 84.3121 83.8369"/><path d="M 84.3121 83.8369 L 84.3121 93.8369"/><path d="M 84.3121 93.8369 L 151.332 93.8369"/><path d="M 151.332 93.8369 L 151.332 83.8369"/><path d="M 151.332 83.8369 L 157.332 83.8369"/><path d="M 157.332 83.8369 L 157.332 93.8369"/><path d="M 157.332 93.8369 L 171.298 93.8369"/><circle cx="61.6769" cy="68.8369" r="4.2"/><circle cx="228.377" cy="138.837" r="4.3"/><path d="M 213.95 149.514 L 228.074 149.833"/><path d="M 228.074 149.833 L 228.04 151.332"/><path d="M 228.04 151.332 L 213.916 151.013"/><path d="M 213.916 151.013 L 213.95 149.514"/><path d="M 243.688 156.551 L 243.688 58.4495"/><path d="M 243.688 58.4495 A 5 5 0 0 0 238.688 53.4495"/><path d="M 210.929 93.3466 L 210.929 156.551"/><path d="M 205.86 88.3471 A 122.265 122.265 0 0 0 171.298 93.8369"/><path d="M 210.929 93.3466 A 5 5 0 0 0 205.86 88.3471"/><path d="M 238.688 53.4495 L 58.3121 53.4495"/><path d="M 58.3121 53.4495 A 5 5 0 0 0 53.3121 58.4495"/><path d="M 58.3121 93.8369 L 78.3121 93.8369"/><path d="M 53.3121 58.4495 L 53.3121 88.8369"/><path d="M 53.3121 88.8369 A 5 5 0 0 0 58.3121 93.8369"/></g><g stroke="rgb(0, 0, 0)" stroke-width="0.13" stroke-linecap="butt" stroke-linejoin="miter" fill="none"><path d="M 140.72 112.563 L 140.72 112.104 L 137.195 112.104 L 137.195 112.447 L 137.502 112.538 L 137.709 112.719 L 137.83 112.997 L 137.87 113.38 L 138.229 113.38 L 138.229 112.563 L 140.72 112.563 L 140.72 112.563 z M 139.01 109.951 L 139.802 109.876 L 140.367 109.639 L 140.71 109.261 L 140.821 108.736 L 140.71 108.217 L 140.367 107.838 L 139.802 107.606 L 139.01 107.526 L 138.223 107.606 L 137.911 107.702 L 137.654 107.838 L 137.311 108.217 L 137.195 108.736 L 137.311 109.261 L 137.659 109.639 L 138.223 109.876 L 139.01 109.951 L 139.01 109.951 z M 139.01 109.467 L 138.4 109.427 L 137.961 109.301 L 137.704 109.074 L 137.613 108.736 L 137.704 108.403 L 137.961 108.176 L 138.4 108.05 L 139.01 108.01 L 139.625 108.05 L 140.064 108.176 L 140.321 108.403 L 140.407 108.736 L 140.321 109.074 L 140.064 109.301 L 139.625 109.427 L 139.01 109.467 L 139.01 109.467 z M 139.62 106.271 L 139.656 106.271 L 140.14 106.19 L 140.503 105.953 L 140.735 105.58 L 140.821 105.086 L 140.735 104.561 L 140.513 104.168 L 140.16 103.916 L 139.706 103.825 L 139.409 103.865 L 139.167 103.976 L 138.98 104.158 L 138.844 104.4 L 138.571 104.072 L 138.138 103.956 L 137.744 104.032 L 137.447 104.249 L 137.26 104.602 L 137.195 105.086 L 137.275 105.54 L 137.497 105.888 L 137.85 106.115 L 138.319 106.19 L 138.355 106.19 L 138.355 105.741 L 138.032 105.701 L 137.8 105.57 L 137.659 105.358 L 137.608 105.061 L 137.649 104.798 L 137.754 104.607 L 137.926 104.491 L 138.158 104.445 L 138.405 104.491 L 138.571 104.612 L 138.672 104.823 L 138.703 105.111 L 138.698 105.308 L 139.096 105.308 L 139.086 105.061 L 139.131 104.743 L 139.252 104.506 L 139.449 104.365 L 139.706 104.314 L 139.999 104.37 L 140.216 104.516 L 140.352 104.748 L 140.397 105.055 L 140.347 105.373 L 140.195 105.605 L 139.953 105.751 L 139.62 105.807 L 139.62 106.271 L 139.62 106.271 z M 140.72 101.612 L 140.72 100.916 L 139.968 100.916 L 139.968 101.612 L 140.72 101.612 L 140.72 101.612 z M 140.72 97.6187 L 140.72 97.1598 L 137.195 97.1598 L 137.195 97.5027 L 137.502 97.5935 L 137.709 97.7751 L 137.83 98.0525 L 137.87 98.4357 L 138.229 98.4357 L 138.229 97.6187 L 140.72 97.6187 L 140.72 97.6187 z" stroke="none" fill-rule="evenodd" fill="rgb(0, 0, 0)"/><path d="M 142.202 154.619 L 142.72 156.551 L 143.237 154.619"/><path d="M 143.237 55.3813 L 142.72 53.4495 L 142.202 55.3813"/><path d="M 142.72 156.551 L 142.72 53.4495"/></g></svg>