<?xml version="1.0" encoding="utf-8" ?><!DOCTYPE svg PUBLIC "-//W3C//DTD SVG 1.1//EN" "http://www.w3.org/Graphics/SVG/1.1/DTD/svg11.dtd" 
[ <!ATTLIST svg 
  xmlns:dsy CDATA #FIXED "http://www.3ds.com/print"  
    dsy:text-version CDATA #IMPLIED > 

  <!ATTLIST text 
  xmlns:dsy CDATA #FIXED "http://www.3ds.com/print" 
    dsy:text-version CDATA #IMPLIED > 
]><svg xmlns="http://www.w3.org/2000/svg" xmlns:dsy="http://www.3ds.com/print" dsy:text-version="18000" width="297" height="210" viewBox="0 0 297 210" version="1.1"><g stroke="rgb(0, 0, 0)" stroke-width="0.13" stroke-linecap="butt" stroke-linejoin="miter" fill="none"><path d="M 167.517 135 L 174.334 135"/><path d="M 167.517 75 L 174.334 75"/></g><g stroke="rgb(0, 0, 0)" stroke-width="0.35" stroke-linecap="butt" stroke-linejoin="miter" fill="none"><path d="M 160.825 135 A 12.5 12.5 0 1 0 135.825 135"/><path d="M 165.517 135 L 160.825 135"/><path d="M 165.517 75 L 165.517 135"/><path d="M 158.225 75 L 165.517 75"/><path d="M 158.225 85 L 158.225 75"/><path d="M 152.325 85 L 158.225 85"/><path d="M 152.325 75 L 152.325 85"/><path d="M 144.325 75 L 152.325 75"/><path d="M 144.325 85 L 144.325 75"/><path d="M 138.425 85 L 144.325 85"/><path d="M 138.425 75 L 138.425 85"/><path d="M 131.483 75 L 138.425 75"/><path d="M 131.483 135 L 131.483 75"/><path d="M 135.825 135 L 131.483 135"/></g><g stroke="rgb(0, 0, 0)" stroke-width="0.13" stroke-linecap="butt" stroke-linejoin="miter" fill="none"><path d="M 167.778 105.658 L 167.369 105.753 L 167.066 105.975 L 166.875 106.318 L 166.809 106.762 L 166.845 107.06 L 166.94 107.317 L 167.097 107.544 L 167.319 107.735 L 167.596 107.887 L 167.934 107.998 L 168.332 108.068 L 168.781 108.088 L 169.497 108.008 L 170.017 107.761 L 170.329 107.362 L 170.435 106.818 L 170.345 106.328 L 170.108 105.955 L 169.734 105.713 L 169.26 105.627 L 168.781 105.713 L 168.413 105.945 L 168.181 106.303 L 168.1 106.747 L 168.201 107.226 L 168.489 107.584 L 167.934 107.509 L 167.535 107.347 L 167.298 107.1 L 167.218 106.757 L 167.258 106.505 L 167.364 106.313 L 167.541 106.187 L 167.778 106.122 L 167.778 105.658 L 167.778 105.658 z M 169.265 106.117 L 169.583 106.172 L 169.825 106.313 L 169.987 106.54 L 170.037 106.823 L 169.987 107.12 L 169.83 107.347 L 169.588 107.493 L 169.27 107.539 L 168.958 107.488 L 168.721 107.347 L 168.569 107.115 L 168.514 106.802 L 168.569 106.53 L 168.716 106.313 L 168.953 106.172 L 169.265 106.117 L 169.265 106.117 z M 168.625 104.347 L 169.417 104.272 L 169.981 104.035 L 170.324 103.657 L 170.435 103.132 L 170.324 102.613 L 169.981 102.234 L 169.417 102.002 L 168.625 101.922 L 167.838 102.002 L 167.525 102.098 L 167.268 102.234 L 166.925 102.613 L 166.809 103.132 L 166.925 103.657 L 167.273 104.035 L 167.838 104.272 L 168.625 104.347 L 168.625 104.347 z M 168.625 103.863 L 168.015 103.823 L 167.576 103.697 L 167.319 103.47 L 167.228 103.132 L 167.319 102.799 L 167.576 102.572 L 168.015 102.446 L 168.625 102.406 L 169.24 102.446 L 169.679 102.572 L 169.936 102.799 L 170.022 103.132 L 169.936 103.47 L 169.679 103.697 L 169.24 103.823 L 168.625 103.863 L 168.625 103.863 z" stroke="none" fill-rule="evenodd" fill="rgb(0, 0, 0)"/><path d="M 171.817 133.068 L 172.334 135 L 172.852 133.068"/><path d="M 172.852 76.9319 L 172.334 75 L 171.817 76.9319"/><path d="M 172.334 135 L 172.334 75"/></g></svg>